<svg width="512" height="512" viewBox="0 0 512 512" fill="none" xmlns="http://www.w3.org/2000/svg">
<rect width="512" height="512" fill="#F7BA1E"/>
<rect width="400" height="400" transform="translate(56 56)" fill="#5B5B59"/>
<path d="M56 56H456V456H56V56ZM423.233 360.6C420.317 342.35 408.433 327.017 373.183 312.717C360.917 306.967 347.283 302.967 343.233 293.717C341.717 288.217 341.483 285.217 342.467 281.967C344.967 271.2 357.717 267.967 367.717 270.967C374.217 272.967 380.217 277.967 383.983 285.967C401.217 274.7 401.217 274.7 413.233 267.217C408.733 260.217 406.5 257.2 403.467 254.217C392.967 242.467 378.983 236.467 356.233 236.983L344.483 238.467C333.217 241.217 322.483 247.217 315.983 255.217C296.983 276.733 302.467 314.233 325.467 329.733C348.217 346.733 381.483 350.467 385.733 366.483C389.733 385.983 371.233 392.233 352.967 389.983C339.45 386.983 331.967 380.217 323.717 367.717L293.217 385.233C296.717 393.233 300.717 396.717 306.717 403.717C335.717 432.983 408.217 431.483 421.233 386.983C421.717 385.483 425.233 375.233 422.467 359.483L423.233 360.6ZM273.517 239.85H236.05C236.05 272.15 235.9 304.25 235.9 336.6C235.9 357.133 236.95 375.983 233.6 381.783C228.1 393.267 213.933 391.8 207.5 389.783C200.9 386.517 197.55 382.017 193.667 375.533C192.617 373.783 191.833 372.267 191.55 372.267L161.133 391.017C166.217 401.517 173.633 410.55 183.2 416.3C197.45 424.8 216.6 427.55 236.65 423.05C249.7 419.283 260.95 411.533 266.833 399.533C275.333 384.033 273.533 365.033 273.45 343.767C273.65 309.533 273.45 275.283 273.45 240.783L273.517 239.85Z" fill="#F7DF1E"/>
</svg>
