<?xml version="1.0" encoding="UTF-8"?>
<svg width="1440px" height="369px" viewBox="0 0 1440 369" version="1.1" xmlns="http://www.w3.org/2000/svg" xmlns:xlink="http://www.w3.org/1999/xlink">
    <!-- Generator: Sketch 53.2 (72643) - https://sketchapp.com -->
    <title>Group 37</title>
    <desc>Created with Sketch.</desc>
    <defs>
        <rect id="path-1" x="0" y="0" width="1440" height="369"></rect>
    </defs>
    <g id="Landing-Page" stroke="none" stroke-width="1" fill="none" fill-rule="evenodd">
        <g id="Landing-Page-Copy">
            <g id="Group-37">
                <mask id="mask-2" fill="white">
                    <use xlink:href="#path-1"></use>
                </mask>
                <g id="Mask"></g>
                <g opacity="0.185204719" mask="url(#mask-2)">
                    <g transform="translate(-6.000000, -84.000000)">
                        <path d="M0,299.704301 C54.4131916,271.676591 115.222815,254.086765 177.367154,248.401564 C196.347337,246.665341 220.957539,249.405207 226.058276,266.209504 C227.552077,271.124983 226.894725,276.358149 227.598102,281.419037 C230.473645,302.142283 256.152421,314.965992 278.92864,313.317489 C301.70686,311.668986 321.798639,299.599195 340.483663,287.57603 C359.168687,275.552864 378.514065,262.833472 401.07617,259.541998 C423.640275,256.250524 450.319588,265.888655 456.73503,285.938591 C459.038265,293.134788 458.597028,301.022471 461.985846,307.850402 C470.095197,324.182909 494.339203,326.133295 513.881688,324.552755 C610.959768,316.702214 705.085265,280.716487 779.377121,223.049708 C853.668977,165.382138 907.778005,86.3045777 932,0" id="Stroke-1" stroke="#8D98FF"></path>
                        <path d="M1,308.386724 C16.9826471,299.527529 33.520525,291.464472 50.8467309,284.799778 C67.5056592,278.387326 85.052957,273.495418 102.002006,270.442507 C109.154981,269.153711 116.180903,268.088779 123.447925,267.062471 C140.036824,264.719778 157.537103,261.934086 174.605201,259.492073 C177.34434,259.104252 180.081479,258.727466 182.816616,258.366445 C197.377672,256.432068 214.830931,256.718993 225.444345,263.582326 C228.950803,265.838311 231.706949,268.836832 233.401654,272.69928 C235.408489,277.271946 235.488522,282.24741 236.678017,287.227603 C237.761467,291.76322 239.813321,296.042655 242.539454,300.006788 C245.141537,303.780163 248.368879,307.198036 252.24249,310.080683 C262.383708,317.677882 276.716669,321.12019 290.015199,319.81957 C295.093311,319.335582 300.031365,318.336863 304.80335,316.944805 C322.184578,311.838491 338.080189,301.674735 353.534617,292.632665 C372.952692,281.269974 392.609868,270.438566 415.449366,268.041483 C438.306873,265.652283 465.123025,274.930041 473.052323,293.732281 C475.90651,300.497083 476.260657,307.853864 480.140271,314.226115 C481.641895,316.691775 483.523678,318.806663 485.728595,320.606248 C497.080316,329.912383 516.858542,330.875631 533.526474,329.489091 C632.344572,321.268382 728.275469,285.840275 805.242479,229.323201 C882.605653,172.672123 940.642791,95.1023426 970,10" id="Stroke-3" stroke="#8697F4"></path>
                        <path d="M1,316.990258 C17.1229202,307.405553 33.8160144,298.531439 51.6664618,291.536725 C68.8917184,284.778612 87.4993969,280.217734 104.663635,278.466887 C111.868834,277.732635 118.783944,277.294135 126.129186,276.767303 C142.977327,275.558272 161.418955,272.633095 178.898289,269.546241 C181.695143,269.058055 184.482993,268.572234 187.266843,268.095877 C202.111373,265.529545 219.537691,264.900975 230.833138,270.787608 C234.564277,272.731679 237.62421,275.43524 239.744858,279.003971 C242.270628,283.255691 243.079875,287.98219 244.759388,292.897181 C246.281852,297.353954 248.606562,301.693216 251.430424,305.86528 C254.092236,309.786547 257.224192,313.421527 261.091372,316.503649 C271.339499,324.672692 286.277058,327.933842 300.100276,326.283156 C305.326871,325.659318 310.408422,324.522056 315.259902,322.952603 C333.050331,317.196101 349.307293,306.256461 365.58526,297.568473 C385.720405,286.822056 405.707504,277.851724 428.822558,276.339055 C451.974623,274.84216 478.937852,283.797507 488.372731,301.404563 C491.77877,307.762032 492.92312,314.606109 497.296454,320.544794 C498.982969,322.83588 501.013589,324.801245 503.3453,326.471648 C515.351964,335.076826 535.210024,335.871805 552.1712,334.418287 C652.731888,325.803645 750.466714,290.82219 830.110019,235.278533 C910.544565,179.467516 972.508474,103.164489 1007,19" id="Stroke-5" stroke="#7F96E8"></path>
                        <path d="M1,326.587389 C17.2642747,316.276615 34.1106666,306.590784 52.4873666,299.26585 C70.2789488,292.162645 89.9339062,287.92534 107.325408,287.485828 C114.578868,287.301975 121.39124,287.411656 128.810734,287.466891 C145.92518,287.593931 165.303081,284.32876 183.189682,280.59646 C186.045257,280.008604 188.885829,279.413645 191.717399,278.821054 C206.846446,275.621376 224.259952,274.064541 236.22336,278.98518 C240.182157,280.614609 243.548835,283.029952 246.088347,286.301435 C249.140961,290.234158 250.669269,294.706605 252.840706,299.558595 C254.7991,303.933987 257.401624,308.334629 260.320212,312.714755 C263.04276,316.783198 266.074371,320.641749 269.940149,323.917967 C280.27623,332.675062 295.839364,335.757958 310.186252,333.737939 C315.562335,332.981221 320.783386,331.69346 325.715379,329.951194 C343.909042,323.52501 360.522387,311.821528 377.636833,303.494475 C398.472028,293.356507 418.805122,286.256458 442.195831,285.629936 C465.642552,285.027087 492.766013,293.665822 503.692213,310.069793 C507.657011,316.021746 509.581399,322.348507 514.451379,327.855425 C516.321756,329.97092 518.500195,331.787359 520.96169,333.327623 C533.607236,341.241203 553.560254,341.857467 570.815728,340.337719 C673.118326,331.32812 772.659368,296.795273 854.977942,242.227156 C938.482755,187.258192 1004.37402,112.223184 1044,29" id="Stroke-7" stroke="#7795DD"></path>
                        <path d="M2,335.178173 C18.4047164,324.140815 35.4064953,313.642654 54.3074729,305.988106 C72.6653937,298.538027 93.360559,294.617598 110.986403,295.497839 C118.283167,295.862567 124.999869,296.696231 132.492653,297.162009 C149.878472,298.242772 170.186597,295.021009 188.483512,290.642696 C191.395816,289.955082 194.288119,289.250889 197.16742,288.542748 C212.581033,284.70837 229.985854,282.222378 242.613175,286.177544 C246.801614,287.489617 250.481999,289.617985 253.432307,292.591069 C257.021683,296.207559 259.255917,300.422454 261.922196,305.211283 C264.313446,309.505124 267.194747,313.967119 270.210063,318.555427 C272.994354,322.771901 275.92266,326.854958 279.789065,330.32382 C290.211155,339.672536 306.40285,342.576148 321.271405,340.183313 C326.796983,339.295177 332.158544,337.855213 337.172069,335.940786 C355.766014,328.841225 372.726789,316.370218 390.687668,308.410941 C412.20992,298.873545 432.902085,293.655253 456.569561,293.914984 C480.311046,294.207082 507.611902,302.533455 520.012199,317.728079 C524.539673,323.275573 527.234955,329.082009 532.606517,334.157409 C534.658732,336.096309 536.985975,337.765215 539.577247,339.17439 C552.860636,346.396317 572.912734,346.832885 590.46057,345.246082 C694.507457,335.842104 795.713046,301.619267 880.846953,248.168484 C967.280997,193.901406 1037.24132,120.280069 1082,38" id="Stroke-9" stroke="#7094D1"></path>
                        <path d="M2,344.760101 C18.5462518,332.995754 35.7025129,321.685552 55.1278086,313.699697 C74.0530966,305.904188 95.7824273,302.289189 113.647699,304.50226 C120.987811,305.411341 127.609912,306.892251 135.175027,307.851091 C152.836296,310.088647 174.057619,306.675841 192.775903,301.682608 C195.744949,300.89042 198.690994,300.081646 201.619038,299.257075 C217.315277,294.788282 234.715542,291.369947 248.003744,294.35941 C252.423811,295.354582 256.423872,297.195649 259.776923,299.870764 C263.911986,303.169836 266.839031,307.127617 270.004079,311.852312 C272.825122,316.065204 275.98917,320.588494 279.100217,325.385062 C281.945261,329.74881 284.770304,334.05727 288.638362,337.718079 C299.144522,347.660315 315.966778,350.385189 331.359013,347.618454 C337.033099,346.598799 342.533183,345.004945 347.62826,342.919034 C366.623549,335.143271 383.924813,321.899593 402.739099,314.316545 C424.938437,305.369481 446.000757,302.045135 469.944122,303.192741 C493.980488,304.379048 521.475906,312.394127 535.333117,326.377075 C540.430195,331.521163 543.883247,336.805049 549.762337,341.448392 C551.993371,343.210477 554.472408,344.731668 557.19545,346.010384 C571.110661,352.540604 591.263968,352.794925 609.10824,351.142625 C714.89585,341.343346 817.894417,307.54938 905.717754,255.0999 C995.207116,201.656828 1069.10924,129.333144 1119,48" id="Stroke-11" stroke="#6992C6"></path>
                        <path d="M3,353.330524 C19.6868432,340.839052 36.9976431,328.71579 56.9482601,320.399467 C76.4399088,312.257767 99.2033308,308.93914 117.310076,312.495602 C124.691564,313.944736 131.221111,316.0813 138.857582,317.529644 C156.793338,320.932028 178.938803,317.351861 198.069477,311.713354 C201.095267,310.822066 204.094059,309.903122 207.070853,308.962054 C223.050745,303.859269 240.447539,299.504756 254.394572,301.531489 C259.04625,302.207067 263.37495,303.75892 267.12269,306.13806 C271.812365,309.116133 275.419115,312.820354 279.084861,317.481445 C282.334635,321.613136 285.783396,326.196003 288.990174,331.2016 C291.896972,335.712563 294.616784,340.24723 298.487516,344.099999 C309.074782,354.637431 326.531571,357.182502 342.445468,354.039288 C348.269065,352.88883 353.907674,351.13944 359.084315,348.883563 C378.47997,340.428964 396.113748,326.406183 415.791384,319.207131 C438.656798,310.84261 460.099312,309.423501 484.320633,311.459717 C508.648946,313.54255 536.359025,321.241766 551.652965,334.013741 C557.327572,338.753057 561.526281,343.516868 567.917838,347.725204 C570.326671,349.311824 572.957488,350.684314 575.81229,351.83082 C590.357282,357.670815 610.615878,357.742718 628.75362,356.023353 C736.285166,345.829636 841.081901,312.471108 931.588626,261.022109 C1024.14121,208.410011 1101.97681,137.38269 1157,57" id="Stroke-13" stroke="#6291BA"></path>
                        <path d="M3,362.885314 C19.8285132,349.666754 37.2939322,336.730383 57.7689065,328.08453 C77.8279423,319.595974 101.627425,316.56542 119.972714,321.474855 C127.397617,323.462026 133.832666,326.26098 141.540527,328.196772 C159.748836,332.769479 182.822427,329.018041 202.364539,322.732448 C205.448083,321.740443 208.497633,320.712869 211.523185,319.656048 C227.786782,313.91744 245.181212,308.624641 259.786053,309.689366 C264.670332,310.045065 269.331643,311.303449 273.467032,313.391006 C278.721255,316.042148 282.998623,319.49875 287.167007,324.094379 C290.842464,328.145394 294.577912,332.787659 297.879424,338.001413 C300.847986,342.660278 303.462599,347.421109 307.337027,351.46501 C318.00345,362.599174 336.096777,364.965757 352.531348,361.443548 C358.505465,360.163822 364.282611,358.257277 369.541834,355.83062 C389.334909,346.696274 407.297255,331.888136 427.844219,325.081641 C451.368742,317.289465 473.198516,317.788234 497.695896,320.712869 C522.319258,323.692044 550.262128,331.069238 566.975659,342.635774 C573.232734,346.966605 578.167005,351.214439 585.073984,354.984847 C587.659602,356.397367 590.442191,357.62018 593.428749,358.634317 C608.603507,363.784836 628.968498,363.671803 647.399774,361.885405 C756.674626,351.297436 863.276873,318.382646 956.462102,267.931113 C1052.08197,216.159542 1133.84689,146.427551 1194,67" id="Stroke-15" stroke="#5A90AF"></path>
                        <path d="M4,372 C20.9702411,358.074537 38.5903383,344.344885 59.5906868,335.381804 C80.2151185,326.560055 105.055616,323.814756 123.634501,330.075964 C131.104846,332.593869 137.442443,336.056088 145.223719,338.47372 C163.703626,344.216187 187.706309,340.292865 207.65789,333.370006 C210.799194,332.279625 213.902507,331.144238 216.974826,329.972531 C233.524161,323.607891 250.915309,317.382214 266.177928,317.487225 C271.294795,317.521966 276.291688,318.481281 280.812686,320.279108 C286.632397,322.593307 291.576302,325.804446 296.249267,330.326254 C300.348359,334.292212 304.371468,338.986144 307.769716,344.400154 C310.799045,349.199097 313.308489,354.180429 317.18663,358.408521 C327.93025,370.123217 346.662101,372.308718 363.618345,368.411452 C369.741989,367.003667 375.656679,364.942916 380.998495,362.349213 C401.188023,352.54762 419.476973,336.969609 440.896228,330.575755 C465.075872,323.357601 487.296951,325.780759 512.071463,329.589595 C536.988944,333.460016 565.1787,340.493413 583.297687,350.848488 C590.14217,354.761545 595.802917,358.493793 603.230271,361.818629 C605.99066,363.05429 608.928009,364.126512 612.046319,365.006081 C627.848819,369.462355 648.321284,369.162323 667.046136,367.312385 C778.064546,356.345402 886.478532,323.928453 982.3353,274.542288 C1081.03044,223.69386 1166.71646,155.353527 1232,77" id="Stroke-17" stroke="#538FA3"></path>
                        <path d="M4,380 C21.1110087,365.375841 38.8858238,350.859687 60.4115448,341.583792 C81.6033631,332.434035 107.489812,329.966454 126.297326,337.581266 C133.814133,340.624352 140.050314,344.750652 147.907022,347.646314 C166.653554,354.557116 191.609274,350.493098 211.95334,342.904302 C215.154406,341.721756 218.306487,340.472986 221.427576,339.187953 C238.260666,332.202256 255.648594,325.046272 271.56995,324.195627 C276.91739,323.910239 282.252834,324.566158 287.158403,326.07903 C293.547539,328.049152 299.150905,331.022863 304.331393,335.468449 C308.853074,339.348779 313.166816,344.090002 316.659797,349.702368 C319.750896,354.639894 322.153195,359.838369 326.036062,364.24848 C336.854906,376.538292 356.228255,378.542314 373.704157,374.270956 C379.979327,372.738376 386.031562,370.523072 391.45498,367.764585 C412.040975,357.299836 430.652546,340.9531 452.949042,334.980452 C477.778799,328.329021 500.395202,332.680005 525.446894,337.368408 C550.65954,342.126187 579.104242,348.802056 598.61955,357.957332 C606.05638,361.446633 612.436519,364.67262 620.385201,367.547785 C623.320345,368.608923 626.413442,369.528156 629.663494,370.27316 C646.093702,374.036812 666.672699,373.548814 685.69315,371.636242 C798.455258,360.295621 908.683104,328.393667 1007.20836,280.085063 C1108.98168,230.183174 1198.58554,163.252614 1269,86" id="Stroke-19" stroke="#4C8E98"></path>
                        <path d="M5,390 C22.252825,374.626336 40.1824078,359.275577 62.2325159,349.6544 C83.991728,340.144591 110.931086,337.943276 129.960275,346.941261 C137.526567,350.519287 143.656373,355.327111 151.590534,358.710044 C170.59973,366.815497 196.494462,362.559779 217.247034,354.312942 C220.506868,353.028644 223.710721,351.66852 226.880587,350.264955 C243.99746,342.633412 261.380239,334.52164 277.964303,332.713671 C283.541307,332.105485 289.214277,332.456179 294.504383,333.693876 C301.459894,335.32176 307.725651,338.075181 313.413615,342.458065 C318.356846,346.266728 322.960199,351.071393 326.549914,356.900495 C329.701786,361.993456 331.996964,367.426842 335.885572,372.034044 C346.778674,384.941793 366.795509,386.771878 384.792068,382.110966 C391.215769,380.447539 397.404554,378.069297 402.912583,375.138159 C423.893074,363.972033 442.826297,346.794349 466.002002,341.230637 C491.478884,335.114029 514.494646,341.417831 539.822581,347.002079 C565.330452,352.664523 594.036178,358.992811 614.940696,366.990844 C622.971821,370.063365 630.069281,372.802569 638.542248,375.233731 C641.650136,376.125474 644.897974,376.893999 648.279763,377.506133 C665.337658,380.592082 686.025254,379.91202 705.339341,377.929494 C819.846358,366.177297 931.894254,334.687509 1033.08104,287.286168 C1137.93751,238.16769 1231.45604,172.414156 1307,96" id="Stroke-21" stroke="#458D8C"></path>
                        <path d="M5,398 C22.4066767,381.928849 40.5045787,365.794606 63.0969465,355.862322 C85.4392328,346.024677 113.459371,344.09248 132.718652,354.448269 C140.343138,358.547682 146.367103,364.022505 154.385718,367.879802 C173.668006,377.156716 200.526765,372.721337 221.704672,363.842692 C225.023754,362.461762 228.282817,360.99487 231.502867,359.477503 C248.916546,351.225837 266.307217,342.18473 283.564845,339.426026 C289.376741,338.496993 295.390702,338.538792 301.072555,339.500159 C308.59901,340.77462 315.53127,343.303828 321.732293,347.60829 C327.101043,351.333882 331.999641,356.184092 335.686843,362.210971 C338.901892,367.440523 341.091606,373.092003 344.988877,377.87991 C355.962456,391.362705 376.641199,393.013353 395.170242,387.977021 C401.750388,386.188359 408.078452,383.655208 413.674277,380.559749 C435.064252,368.729969 454.334537,350.772362 478.407387,345.645335 C504.552914,340.076663 527.983555,348.320443 553.608912,354.782658 C579.430333,361.330047 608.419787,367.275694 630.730063,374.102266 C639.361878,376.742673 647.182428,378.993486 656.184364,380.968271 C659.468435,381.68831 662.873545,382.303459 666.390692,382.780593 C684.088464,385.179673 704.900251,384.308212 724.52265,382.263238 C840.861591,370.138501 954.815753,339.174446 1058.74165,292.836407 C1166.76487,244.673428 1264.26467,180.31548 1345,105" id="Stroke-23" stroke="#3D8C81"></path>
                        <path d="M5,408 C22.5483457,391.176232 40.8008657,374.203127 63.9175903,363.92492 C86.8272637,353.725728 115.913467,352.056942 135.381288,363.805608 C143.059189,368.440599 148.970653,374.60294 157.067658,378.947157 C176.605496,389.429221 204.410382,384.797391 225.997728,375.25797 C229.375564,373.774868 232.686384,372.195368 235.955194,370.558978 C253.652576,361.658784 271.035881,351.654758 288.956319,347.937916 C294.998815,346.683955 301.346387,346.414516 307.417891,347.105893 C315.506894,348.027202 323.104775,350.347068 329.814437,354.584616 C335.60287,358.241407 340.793156,363.152948 344.577093,369.397465 C347.853904,374.782303 349.93542,380.670464 353.838386,385.656279 C364.882121,399.761158 386.209403,401.237149 405.256119,395.808062 C411.987786,393.8888 418.452387,391.190455 424.130793,387.921625 C445.913188,375.386764 465.50804,356.580522 490.460219,351.880739 C517.252854,346.833293 541.082755,357.052239 566.98417,364.41481 C593.100637,371.870618 622.34688,377.443511 646.05275,383.131765 C655.276034,385.344962 663.816149,387.122788 673.340508,388.644607 C676.798364,389.196919 680.358246,389.658363 684.008149,390.001286 C702.333688,391.723803 723.251868,390.656317 743.1698,388.541098 C861.251042,376.003077 977.13774,345.622001 1083.61511,300.026682 C1194.83765,252.825788 1296.13474,189.472749 1382,115" id="Stroke-25" stroke="#368B75"></path>
                        <path d="M6,417 C23.6890524,399.480757 42.0972289,381.727199 65.7393086,371.138022 C89.2143595,360.611171 119.373564,359.21001 139.042958,372.313545 C146.779293,377.468491 152.571292,384.297572 160.751704,389.11485 C180.539118,400.765944 209.296081,395.953398 231.291876,385.783938 C234.726469,384.203687 238.090049,382.517719 241.407622,380.768635 C259.389725,371.250051 276.751721,360.289282 295.34793,355.654249 C301.616012,354.070054 308.301165,353.498071 314.76228,353.918577 C323.411773,354.481092 331.677199,356.586778 338.896445,360.742924 C345.106516,364.319197 350.587462,369.272963 354.467132,375.714673 C357.804707,381.237266 359.777048,387.342098 363.687723,392.508089 C374.79964,407.187141 396.778433,408.48574 416.342809,402.679917 C423.224996,400.637346 429.817134,397.774276 435.58813,394.351058 C457.730951,381.121292 477.681393,361.555534 503.511851,357.304715 C530.953586,352.79039 555.181767,364.959029 581.359284,373.196371 C607.770842,381.534697 637.268932,386.707 662.374264,391.244993 C672.188958,393.020113 681.451556,394.325022 691.496289,395.386149 C695.128916,395.769575 698.844557,396.075684 702.62521,396.283176 C721.57948,397.324579 742.605109,396.062272 762.816596,393.884793 C882.641273,380.975337 1000.33458,351.105999 1109.48742,306.584433 C1223.78014,260.325617 1329.0033,198.376325 1420,125" id="Stroke-27" stroke="#2F896A"></path>
                        <path d="M6,426 C23.8298063,407.725002 42.393687,389.129086 66.5601353,378.192543 C90.602571,367.303427 121.836735,366.16361 141.704748,380.668995 C149.500538,386.360961 155.171112,393.881217 163.43495,399.186658 C183.468979,412.049505 213.180989,407.038109 235.586259,396.204324 C239.079613,394.521475 242.494959,392.723221 245.8603,390.855409 C264.126151,380.684803 281.478909,368.764162 300.73986,363.159934 C307.238518,361.25181 314.253229,360.361773 321.107923,360.514328 C330.313856,360.718262 339.250761,362.619273 346.977544,366.707434 C353.609216,370.215411 359.381801,375.229179 363.357204,381.889436 C366.756548,387.567964 368.606735,393.916787 372.537134,399.275187 C383.681263,414.595516 406.36156,415.73059 426.429593,409.501123 C433.468307,407.337686 440.189988,404.300812 446.044581,400.701933 C468.582864,386.769619 488.854918,366.331974 515.564624,362.52442 C543.65747,358.520045 568.280964,372.68554 594.734644,381.826991 C621.44135,391.076732 651.185363,395.859691 677.695049,399.271235 C688.099103,400.609452 698.090115,401.451271 708.652185,402.052797 C712.460571,402.269378 716.328963,402.426676 720.241359,402.493073 C739.825343,402.887503 760.956484,401.39515 781.462562,399.147136 C903.030878,385.82267 1022.53298,356.362932 1134.36031,312.762992 C1251.7252,267.287336 1360.87226,206.530873 1457,134" id="Stroke-29" stroke="#28885E"></path>
                        <path d="M7,435 C24.971628,416.032291 43.6892822,396.656547 68.3821451,385.409934 C92.990005,374.195679 125.306134,373.321995 145.367835,389.178535 C153.22411,395.389034 158.770304,403.57499 167.117596,409.350619 C187.396304,423.381657 218.066376,418.188484 240.881173,406.727198 C244.432297,404.947471 247.899419,403.043045 251.313538,401.062062 C269.863186,390.275574 287.207792,377.434704 307.132489,370.879309 C313.861724,368.654453 321.20198,367.44929 328.454234,367.333272 C338.213575,367.176214 347.824911,368.868336 356.061198,372.873709 C363.113445,376.30215 369.176657,381.357996 373.247799,388.214089 C376.70792,394.029969 378.451981,400.593256 382.387118,406.132904 C393.608511,422.021803 416.929325,422.976779 437.517045,416.378765 C444.705296,414.089192 451.565536,410.900678 457.501743,407.13839 C480.436545,392.550152 501.032265,371.303918 528.618229,367.959136 C557.363233,364.473081 582.380107,380.594805 609.111042,390.608631 C636.112985,400.739265 666.094033,405.110054 694.018009,407.387 C705.007393,408.283572 715.731768,408.661616 726.809155,408.799732 C730.794294,408.849454 734.815434,408.849454 738.859576,408.782369 C759.075282,408.489562 780.310024,406.810857 801.109751,404.500763 C924.42306,390.80594 1045.7313,361.857552 1160.2353,319.327991 C1280.67051,274.792192 1393.74446,215.43533 1495,144" id="Stroke-31" stroke="#208753"></path>
                        <path d="M7,443 C25.1124655,423.340426 43.9859086,403.188337 69.2031645,391.63357 C94.3784216,380.093775 127.808435,379.465721 148.030838,396.690307 C155.960604,403.408983 161.358445,412.273444 169.802196,418.511426 C190.300591,433.723404 221.951657,428.331757 245.176972,416.245075 C248.784865,414.369582 252.303762,412.35855 255.765659,410.264775 C274.599104,398.863672 291.936592,385.107171 312.525984,377.604413 C319.483779,375.063042 327.150553,373.542159 334.801327,373.15918 C345.111023,372.642238 355.39272,374.134752 364.142461,378.048857 C371.611241,381.406619 377.970053,386.495666 382.13793,393.547675 C385.658826,399.499606 387.298778,406.276596 391.236662,411.996848 C402.534328,428.452325 426.496621,429.227738 447.602999,422.262411 C454.942782,419.847912 461.939576,416.508274 467.959398,412.583136 C491.289709,397.341214 512.210092,375.284476 540.670252,372.405831 C570.070385,369.431836 595.479635,387.508274 622.487838,398.391647 C649.784033,409.399527 679.996141,413.356186 709.340275,414.506698 C720.912934,414.959811 732.374596,414.895981 743.965253,414.55398 C748.127131,414.443656 752.301008,414.280536 756.476884,414.080378 C777.324269,413.102443 798.662639,411.237195 819.756017,408.865248 C944.814327,394.801418 1067.92969,366.363278 1185.11024,324.901497 C1308.61459,281.304177 1425.61414,223.343578 1532,153" id="Stroke-33" stroke="#198647"></path>
                        <path d="M8,453 C26.2543405,432.581957 45.2816108,411.58361 71.0242705,399.679862 C96.7659304,387.775324 131.254795,387.434247 151.692937,406.042686 C159.674211,413.309523 164.96473,422.852576 173.484956,429.588848 C194.243069,446.000025 226.837106,440.42673 250.470957,427.672658 C274.104809,414.918586 293.763022,396.13645 318.918735,386.103889 C344.073448,376.070538 379.065267,378.599403 392.028088,400.710199 C395.610763,406.818795 397.143623,413.833771 401.086265,419.754459 C416.399873,442.747949 455.691301,435.870351 479.417144,419.921839 C503.141987,403.974117 524.390055,381.024051 553.722389,378.607299 C583.781656,376.131332 609.579311,396.229614 636.863831,408.021249 C679.256977,426.342299 728.368512,424.902986 775.093264,421.277463 C1058.40451,399.293781 1335.08036,309.397863 1570,163" id="Stroke-35" stroke="#12853C"></path>
                    </g>
                </g>
            </g>
        </g>
    </g>
</svg>