<?xml version="1.0" encoding="UTF-8"?>
<svg width="1440px" height="256px" viewBox="0 0 1440 256" version="1.1" xmlns="http://www.w3.org/2000/svg" xmlns:xlink="http://www.w3.org/1999/xlink">
    <!-- Generator: Sketch 53.2 (72643) - https://sketchapp.com -->
    <title>Group 37 Copy</title>
    <desc>Created with Sketch.</desc>
    <defs>
        <rect id="path-1" x="0" y="0" width="1440" height="256"></rect>
    </defs>
    <g id="Landing-Page" stroke="none" stroke-width="1" fill="none" fill-rule="evenodd">
        <g id="Landing-Page-Copy" transform="translate(0.000000, -1862.000000)">
            <g id="Group-37-Copy" transform="translate(0.000000, 1862.000000)">
                <mask id="mask-2" fill="white">
                    <use xlink:href="#path-1"></use>
                </mask>
                <g id="Mask"></g>
                <g opacity="0.187298584" mask="url(#mask-2)">
                    <g transform="translate(-6.000000, -89.000000)">
                        <path d="M0,233.118827 C56.573372,211.31805 119.797111,197.636165 184.408554,193.214049 C204.142242,191.863563 229.729459,193.994711 235.032692,207.065589 C236.585797,210.888993 235.902348,214.959504 236.633649,218.896011 C239.623349,235.015162 266.321562,244.98982 290.001987,243.707566 C313.684493,242.425312 334.573907,233.037073 354.000718,223.685101 C373.42753,214.333129 393.540911,204.439611 416.998721,201.879406 C440.458612,199.319201 468.197082,206.816023 474.867214,222.411453 C477.261887,228.008867 476.803134,234.144139 480.326486,239.455105 C488.757775,252.159009 513.964258,253.676077 534.28257,252.446687 C635.214609,246.340305 733.076847,218.349547 810.318058,173.494629 C887.559269,128.639095 943.816403,67.1302411 969,0" id="Stroke-1" stroke="#8D98FF"></path>
                        <path d="M1,239.588735 C17.6094175,232.705938 34.7958398,226.441668 52.8015047,221.263801 C70.1137243,216.281902 88.3491514,212.48133 105.962869,210.109493 C113.396353,209.108214 120.697801,208.280858 128.249805,207.483509 C145.489249,205.663447 163.675813,203.499215 181.413248,201.601991 C184.259805,201.300688 187.104282,201.00796 189.94668,200.727479 C205.078757,199.224642 223.216457,199.447557 234.246084,204.77975 C237.89005,206.532447 240.754281,208.862028 242.515445,211.862803 C244.600979,215.415352 244.68415,219.28084 245.920292,223.150002 C247.046231,226.673769 249.178549,229.998504 252.01159,233.078279 C254.715715,236.009852 258.069619,238.665231 262.095137,240.904789 C272.634049,246.807129 287.529087,249.481493 301.349129,248.471028 C306.626382,248.095012 311.758085,247.319098 316.717206,246.237594 C334.780052,242.270447 351.29902,234.374124 367.359503,227.349249 C387.539072,218.52146 407.967117,210.106431 431.702283,208.244113 C455.456162,206.38792 483.323928,213.595903 491.564179,228.203551 C494.530295,233.459193 494.89833,239.17475 498.930085,244.125416 C500.490597,246.041013 502.446175,247.68409 504.73756,249.082206 C516.534446,256.312235 537.088289,257.060592 554.409865,255.983375 C657.103182,249.596624 756.796075,222.072173 836.781399,178.163492 C917.178424,134.150702 977.491527,73.8859626 1008,7.76910017" id="Stroke-3" stroke="#8697F4"></path>
                        <path d="M1,246.564907 C17.7639906,239.114827 35.1208261,232.217083 53.6810329,226.780174 C71.5911904,221.527172 90.9387368,217.982055 108.785449,216.621142 C116.277137,216.050417 123.467202,215.709576 131.104501,215.300076 C148.622549,214.36031 167.797442,212.086605 185.97178,209.687229 C188.87984,209.307767 191.77854,208.930145 194.673079,208.559878 C210.107849,206.565098 228.227062,206.076518 239.971632,210.652129 C243.851127,212.163232 247.032728,214.264678 249.237695,217.038611 C251.863894,220.343423 252.705318,224.017275 254.45161,227.83764 C256.03461,231.301838 258.451753,234.674695 261.387896,237.917592 C264.155545,240.965546 267.412032,243.790973 271.432977,246.186671 C282.088585,252.536372 297.620082,255.071226 311.992931,253.788167 C317.427343,253.303265 322.710944,252.419285 327.755326,251.199367 C346.253128,246.724906 363.156489,238.221652 380.081692,231.46858 C401.017439,223.115517 421.799254,216.142984 445.833395,214.967204 C469.90602,213.803684 497.941345,220.764571 507.751368,234.450329 C511.292837,239.391914 512.482687,244.711735 517.029912,249.327805 C518.783485,251.10864 520.894845,252.636295 523.319268,253.93468 C535.803335,260.623383 556.45098,261.241311 574.086556,260.111508 C678.645681,253.415448 780.266583,226.224774 863.07662,183.051342 C946.709359,139.670094 1011.13704,80.3606465 1047,14.9405772" id="Stroke-5" stroke="#7F96E8"></path>
                        <path d="M1,254.136308 C17.9036182,246.117864 35.4122364,238.585424 54.5113187,232.888997 C73.0022823,227.365003 93.4298699,224.069752 111.505026,223.727954 C119.043618,223.584976 126.123781,223.670272 133.834933,223.713227 C151.622143,223.812023 171.761783,221.272778 190.351501,218.370257 C193.319328,217.913094 196.271562,217.450409 199.21444,216.989565 C214.938204,214.501252 233.03623,213.290539 245.469916,217.117202 C249.584332,218.384371 253.083353,220.262725 255.722692,222.806879 C258.895304,225.865265 260.483689,229.343381 262.740485,233.116658 C264.775863,236.519296 267.480691,239.94157 270.514008,243.34789 C273.343578,246.511821 276.49436,249.512525 280.512101,252.060361 C291.25449,258.870546 307.429406,261.268041 322.340266,259.69712 C327.927681,259.108639 333.35397,258.107177 338.479838,256.752258 C357.388688,251.754768 374.655098,242.653248 392.442308,236.177498 C414.096528,228.293441 435.228909,222.771902 459.5391,222.284671 C483.907504,221.81585 512.09718,228.533989 523.452885,241.290966 C527.573538,245.919658 529.573573,250.83983 534.634991,255.122428 C536.578891,256.767599 538.842964,258.1802 541.40122,259.378027 C554.543858,265.53223 575.281222,266.011483 593.215004,264.829611 C699.539085,257.823061 802.993053,230.967688 888.547545,188.531362 C975.334905,145.783307 1043.81634,87.430367 1085,22.7096774" id="Stroke-7" stroke="#7795DD"></path>
                        <path d="M2,260.531204 C19.0578672,251.964736 36.7365687,243.816758 56.3900853,237.875804 C75.4789233,232.093545 96.9980628,229.050767 115.325677,229.733953 C122.912959,230.01703 129.897086,230.664065 137.688194,231.025571 C155.766226,231.864387 176.882916,229.363868 195.908318,225.965712 C198.936576,225.432031 201.944035,224.885482 204.937975,224.335871 C220.965278,221.359879 239.063069,219.430417 252.193144,222.500155 C256.548344,223.518499 260.375263,225.170398 263.443038,227.47791 C267.175324,230.28479 269.498513,233.556113 272.27095,237.272885 C274.757407,240.605481 277.753427,244.068586 280.888797,247.629727 C283.783944,250.902276 286.82884,254.071275 290.849185,256.763576 C301.686229,264.019431 318.522593,266.273023 333.983137,264.415862 C339.728715,263.72655 345.303746,262.608945 350.516883,261.123094 C369.851143,255.612884 387.487207,245.933713 406.163196,239.756248 C428.542352,232.353952 450.058372,228.303859 474.668164,228.505445 C499.354911,228.732152 527.742746,235.194532 540.636759,246.987595 C545.344493,251.293193 548.147088,255.799764 553.732517,259.738955 C555.866441,261.2438 558.286343,262.539095 560.980785,263.632804 C574.793051,269.237986 595.643519,269.576821 613.890019,268.345249 C722.079513,261.046504 827.314584,234.485 915.838082,193.000036 C1005.71348,150.881518 1078.45926,93.7415043 1125,29.8811545" id="Stroke-9" stroke="#7094D1"></path>
                        <path d="M2,268.089472 C19.198029,258.954258 37.0300963,250.171696 57.2205781,243.970545 C76.8913564,237.917201 99.4766321,235.110093 118.045639,236.82858 C125.674887,237.534497 132.55784,238.684448 140.420954,239.429004 C158.777922,241.166503 180.835179,238.516402 200.2908,234.639073 C203.3768,234.023925 206.438893,233.395899 209.482277,232.755606 C225.79681,229.285512 243.882492,226.631118 257.694133,228.952486 C262.288312,229.725254 266.445941,231.154873 269.931072,233.232146 C274.22902,235.793931 277.271365,238.867214 280.561088,242.536019 C283.493255,245.807401 286.781939,249.319812 290.015535,253.044428 C292.972648,256.432951 295.908973,259.778543 299.929399,262.621223 C310.84941,270.341537 328.334315,272.457447 344.332868,270.309031 C350.230464,269.517251 355.947202,268.279597 361.242981,266.659852 C380.986518,260.621841 398.969299,250.337902 418.524704,244.449538 C441.598501,237.501992 463.490492,234.920581 488.377015,235.811716 C513.360202,236.732904 541.938699,242.956748 556.341763,253.814742 C561.63962,257.809213 565.228693,261.91224 571.339367,265.517874 C573.658284,266.886163 576.234974,268.067393 579.065279,269.060337 C593.528628,274.131163 614.475799,274.328648 633.022978,273.045609 C742.977692,265.436304 850.033499,239.19472 941.316305,198.466815 C1034.33076,156.96737 1111.14398,100.806811 1163,37.6502547" id="Stroke-11" stroke="#6992C6"></path>
                        <path d="M3,274.446261 C20.3520033,264.741511 38.3528352,255.322827 59.0987107,248.861793 C79.3673229,242.536425 103.038126,239.95815 121.86663,242.721201 C129.542354,243.847048 136.332178,245.506966 144.273049,246.632199 C162.923749,249.275545 185.951962,246.494077 205.84521,242.113465 C208.991612,241.421014 212.10994,240.707078 215.205393,239.975952 C231.822265,236.011548 249.912519,232.628483 264.4155,234.203072 C269.252599,234.727935 273.753847,235.933586 277.650977,237.781963 C282.527589,240.095658 286.278109,242.973504 290.089976,246.594753 C293.469292,249.804705 297.055525,253.36518 300.390129,257.254078 C303.412796,260.75869 306.241023,264.281719 310.266047,267.274973 C321.275336,275.46161 339.427977,277.438902 355.976223,274.996907 C362.031956,274.103105 367.895328,272.743986 373.278317,270.991373 C393.447109,264.42291 411.783793,253.528471 432.245806,247.935456 C456.022667,241.436975 478.319908,240.334455 503.506724,241.916411 C528.804797,243.534586 557.619437,249.516184 573.523014,259.438859 C579.423818,263.120881 583.789893,266.821934 590.436226,270.091432 C592.941079,271.324093 595.676764,272.390394 598.645363,273.281126 C613.770137,277.818276 634.836268,277.874139 653.697005,276.538347 C765.514904,268.618746 874.488978,242.702171 968.603424,202.730929 C1064.84528,161.856063 1145.78352,106.674226 1203,44.2241087" id="Stroke-13" stroke="#6291BA"></path>
                        <path d="M3,281.988951 C20.4926107,271.713982 38.6472612,261.658362 59.930232,254.937821 C80.7808502,248.33955 105.519524,245.983858 124.588766,249.800029 C132.306675,251.344685 138.995668,253.520351 147.007702,255.025069 C165.934559,258.579496 189.918694,255.663453 210.231989,250.777574 C213.437218,250.006475 216.607111,249.207727 219.75206,248.386246 C236.657461,243.925546 254.738321,239.811381 269.919508,240.639006 C274.996533,240.915496 279.841792,241.893655 284.140374,243.516342 C289.601943,245.577111 294.048107,248.263976 298.380987,251.836222 C302.201487,254.985131 306.084345,258.593628 309.516144,262.646352 C312.601852,266.267751 315.319645,269.968411 319.346968,273.111791 C330.434317,281.766531 349.241654,283.606108 366.324777,280.868247 C372.534648,279.873498 378.539776,278.391514 384.006541,276.50524 C404.580703,269.404987 423.251891,257.894417 444.609692,252.603634 C469.062555,246.546668 491.75379,246.934368 517.217901,249.207727 C542.812965,251.523481 571.858535,257.257876 589.231625,266.248704 C595.735621,269.615119 600.864611,272.917019 608.044158,275.847809 C610.731811,276.94578 613.624208,277.89629 616.728624,278.684593 C632.502218,282.688163 653.670865,282.6003 672.829488,281.211708 C786.416613,272.981534 897.225666,247.396413 994.08823,208.179739 C1093.48151,167.936982 1178.47309,113.733342 1241,51.9932088" id="Stroke-15" stroke="#5A90AF"></path>
                        <path d="M4,289.249576 C21.633573,278.416639 39.9424036,267.736027 61.7636126,260.763441 C83.1942111,253.9008 109.005673,251.765169 128.310768,256.635906 C136.073114,258.594643 142.658434,261.287982 150.743865,263.168713 C169.946113,267.63591 194.887012,264.583868 215.618459,259.198417 C218.88255,258.350184 222.107165,257.466941 225.299575,256.555444 C242.495789,251.604244 260.566721,246.761147 276.425925,246.842838 C281.7428,246.869863 286.935011,247.616136 291.632726,249.014707 C297.679918,250.814976 302.81707,253.312995 307.672691,256.830613 C311.932009,259.915822 316.112373,263.56734 319.64345,267.779022 C322.79119,271.51223 325.398723,275.387323 329.428452,278.676452 C340.592019,287.789583 360.056059,289.489734 377.675088,286.457961 C384.038093,285.362813 390.183976,283.759708 395.734593,281.742007 C416.713288,274.117123 435.717115,261.998631 457.973605,257.024705 C483.098382,251.409538 506.188037,253.294568 531.930934,256.257549 C557.822388,259.268438 587.114024,264.739879 605.941244,272.795329 C613.053265,275.839386 618.935278,278.742788 626.652953,281.329253 C629.52124,282.290502 632.573404,283.124608 635.813602,283.808845 C652.233789,287.275484 673.506481,287.042081 692.963249,285.602972 C808.321141,277.071504 920.972807,251.853616 1020.57642,213.434986 C1123.12935,173.878827 1212.16466,120.715315 1280,59.762309" id="Stroke-17" stroke="#538FA3"></path>
                        <path d="M4,295.225806 C21.7873332,283.870096 40.2647101,272.598252 62.6412501,265.395488 C84.6706897,258.290669 111.580318,256.374585 131.131212,262.287512 C138.945127,264.650479 145.427797,267.854565 153.595047,270.103057 C173.082548,275.469319 199.024661,272.313594 220.17284,266.420868 C223.50043,265.502617 226.777099,264.532943 230.021552,263.53511 C247.519981,258.110692 265.595179,252.554046 282.145837,251.893517 C287.704639,251.671912 293.250969,252.181236 298.350435,253.355986 C304.992106,254.885793 310.816948,257.194889 316.2022,260.646903 C320.902603,263.659992 325.386848,267.341569 329.017892,271.69959 C332.231168,275.533596 334.72842,279.57023 338.76476,282.994696 C350.011227,292.537778 370.150321,294.093908 388.31697,290.777184 C394.84017,289.58713 401.131623,287.866939 406.769406,285.724964 C428.169076,277.59905 447.516283,264.905753 470.694063,260.267971 C496.505234,255.103112 520.015565,258.481666 546.057443,262.122227 C572.266636,265.816659 601.835635,271.000495 622.122299,278.109598 C629.853075,280.819052 636.485394,283.324042 644.748252,285.556618 C647.79941,286.380596 651.014764,287.094383 654.393277,287.672882 C671.472899,290.59537 692.865295,290.216438 712.637544,288.73132 C829.856651,279.925287 944.44133,255.15331 1046.86087,217.641511 C1152.65684,178.892521 1245.80236,126.920709 1319,66.9337861" id="Stroke-19" stroke="#4C8E98"></path>
                        <path d="M5,302.994907 C22.9286269,291.057203 41.5605206,279.137286 64.4743425,271.666408 C87.085874,264.282009 115.08046,262.57268 134.855033,269.559646 C142.7177,272.337996 149.087614,276.071288 157.332559,278.698147 C177.086355,284.99206 203.995397,281.68748 225.560858,275.283782 C228.948381,274.286521 232.277731,273.23038 235.571762,272.140506 C253.359112,266.214587 271.422783,259.915768 288.656453,258.511873 C294.451911,258.039615 300.347094,258.31193 305.844417,259.273006 C313.072378,260.537063 319.583568,262.675104 325.494333,266.078429 C330.631193,269.035869 335.414861,272.766708 339.145187,277.293026 C342.420519,281.247728 344.805601,285.466771 348.846528,289.04428 C360.166318,299.067191 380.967223,300.488259 399.668716,296.869044 C406.344037,295.577388 412.775239,293.730675 418.49902,291.454636 C440.301328,282.7841 459.976175,269.445568 484.059684,265.125327 C510.534508,260.375759 534.45181,265.270684 560.771853,269.606872 C587.278879,274.003779 617.109023,278.917717 638.832382,285.128217 C647.178091,287.514041 654.553561,289.641042 663.358419,291.528848 C666.588045,292.221289 669.963102,292.818051 673.477358,293.293376 C691.203419,295.689626 712.701358,295.161555 732.771988,293.622117 C851.764302,284.496495 968.201172,260.044565 1073.35149,223.23726 C1182.31525,185.096591 1279.49694,134.038744 1358,74.7028862" id="Stroke-21" stroke="#458D8C"></path>
                        <path d="M5,309.568761 C23.0951497,297.079644 41.9088643,284.541499 65.3948108,276.822982 C88.6207845,269.17801 117.749182,267.676473 137.77021,275.724102 C145.696262,278.909813 151.958488,283.164374 160.294257,286.161933 C180.339203,293.371153 208.260286,289.924358 230.275827,283.024639 C233.726186,281.951499 237.114152,280.811556 240.461562,279.63239 C258.563991,273.219905 276.642503,266.193934 294.582709,264.050106 C300.624478,263.328142 306.876304,263.360624 312.782887,264.107716 C320.60703,265.098118 327.813477,267.0636 334.259764,270.408658 C339.840861,273.303868 344.933209,277.073034 348.766248,281.756606 C352.108459,285.820563 354.384781,290.212408 358.436198,293.933157 C369.843807,304.410826 391.340441,305.693568 410.602349,301.779764 C417.442754,300.389769 424.021107,298.421222 429.838259,296.015698 C452.074256,286.82261 472.106724,272.867503 497.131709,268.883219 C524.31135,264.555726 548.668726,270.962082 575.307623,275.98396 C602.150339,281.072027 632.28639,285.692473 655.479088,290.997498 C664.45231,293.049395 672.582181,294.798533 681.940163,296.333166 C685.354127,296.892718 688.893917,297.370759 692.550175,297.741547 C710.947933,299.605905 732.582873,298.928681 752.981382,297.339502 C873.921788,287.9172 992.383093,263.8546 1100.41949,227.844662 C1212.71528,190.416537 1314.07141,140.403076 1398,81.8743633" id="Stroke-23" stroke="#3D8C81"></path>
                        <path d="M5,317.337861 C23.2365161,304.263875 42.2048212,291.073838 66.2280841,283.0865 C90.036176,275.160565 120.263014,273.863728 140.494279,282.993781 C148.473275,286.595697 154.616561,291.384538 163.031096,294.76049 C183.335124,302.906249 212.230397,299.306789 234.664305,291.893572 C238.174606,290.741032 241.615262,289.513581 245.01226,288.241919 C263.403658,281.325454 281.468661,273.551185 300.091861,270.662775 C306.371318,269.688305 312.967814,269.47892 319.277416,270.016199 C327.683635,270.732161 335.579472,272.534961 342.552258,275.828019 C348.567689,278.669762 353.961515,282.48659 357.893842,287.339291 C361.299155,291.523924 363.462299,296.099696 367.518323,299.974243 C378.995145,310.935341 401.158791,312.082354 420.952438,307.863335 C427.948092,306.37185 434.666206,304.274928 440.567295,301.734675 C463.203901,291.993659 483.567179,277.379065 509.497875,273.726799 C537.341201,269.804357 562.105609,277.745643 589.022765,283.4672 C616.163407,289.261213 646.556561,293.591986 671.192074,298.012408 C680.777055,299.732314 689.652077,301.113887 699.549939,302.296514 C703.143398,302.725723 706.842883,303.084318 710.63592,303.350809 C729.680107,304.6894 751.418608,303.859842 772.117636,302.216076 C894.829514,292.472604 1015.26079,268.863045 1125.91374,233.430285 C1241.49795,196.749811 1346.76747,147.517279 1436,89.6434635" id="Stroke-25" stroke="#368B75"></path>
                        <path d="M6,323.911715 C24.389609,310.286497 43.5268222,296.479046 68.1052218,288.243539 C92.5099777,280.056505 123.863606,278.966782 144.311986,289.157777 C152.35471,293.166926 158.376096,298.478098 166.880484,302.224634 C187.451559,311.286024 217.347411,307.543169 240.214327,299.634088 C243.784943,298.405082 247.281735,297.093856 250.730696,295.733543 C269.424962,288.330668 287.474561,279.806163 306.807254,276.201365 C313.323576,274.969291 320.273488,274.524443 326.990489,274.851483 C335.982536,275.288967 344.575306,276.92662 352.080462,280.158973 C358.536477,282.940344 364.23449,286.793029 368.26781,291.802932 C371.737567,296.098011 373.78802,300.845914 377.853573,304.863653 C389.405566,316.279973 412.254806,317.28993 432.594009,312.774575 C439.748759,311.18601 446.601971,308.959318 452.601521,306.296983 C475.621285,296.007814 496.361845,280.790963 523.21529,277.48498 C551.743827,273.97406 576.93154,283.437959 604.14579,289.844376 C631.60335,296.329332 662.269682,300.35198 688.369284,303.881308 C698.572679,305.261869 708.202113,306.276734 718.644657,307.102003 C722.42115,307.400204 726.283946,307.638274 730.214327,307.799647 C749.919262,308.609576 771.777588,307.627844 792.789531,305.934355 C917.35974,295.894302 1039.71417,272.664061 1153.18989,238.038362 C1272.00906,202.061554 1381.39947,153.881813 1476,96.8149406" id="Stroke-27" stroke="#2F896A"></path>
                        <path d="M6,331.083192 C24.5302191,316.870202 43.8233494,302.407624 68.9391344,293.901961 C93.9260352,285.433183 126.387179,284.546716 147.035672,295.827969 C155.137706,300.254774 161.031039,306.103493 169.619507,310.229687 C190.440538,320.233492 221.319733,316.335985 244.605154,307.91024 C248.235739,306.60144 251.78525,305.202887 255.282793,303.750235 C274.266185,295.840264 292.300616,286.569239 312.3182,282.210671 C319.072147,280.726667 326.362419,280.03446 333.486388,280.153107 C343.053959,280.311712 352.341935,281.790183 360.372251,284.969663 C367.264437,287.697917 373.263788,291.597268 377.395357,296.777141 C380.928239,301.193496 382.851108,306.131157 386.935905,310.298538 C398.517811,322.213598 422.089065,323.096377 442.945436,318.251542 C450.260652,316.568975 457.246383,314.207111 463.330963,311.40816 C486.754624,300.572599 507.82303,284.677657 535.58198,281.716413 C564.778404,278.602096 590.36919,289.619007 617.862056,296.728576 C645.617888,303.922365 676.530343,307.642209 704.081416,310.295465 C714.894175,311.336234 725.277666,311.990942 736.254649,312.458765 C740.21264,312.627207 744.232995,312.749542 748.299083,312.80118 C768.65239,313.10794 790.613631,311.947294 811.925254,310.198949 C938.269169,299.83613 1062.46571,276.924447 1178.68598,243.015523 C1300.66134,207.647802 1414.09605,160.395758 1514,103.986418" id="Stroke-29" stroke="#28885E"></path>
                        <path d="M7,337.657046 C25.6842128,322.932529 45.1440319,307.891257 70.8159801,299.160579 C96.399555,290.455022 129.997036,289.776786 150.854195,302.086122 C159.021975,306.907294 164.788078,313.262002 173.466344,317.745587 C194.549115,328.637797 226.435271,324.606368 250.154688,315.709042 C253.846616,314.327451 257.45121,312.849056 261.000701,311.311231 C280.285853,302.937746 298.318182,292.969457 319.032903,287.880544 C326.028956,286.153402 333.660258,285.217841 341.200067,285.127777 C351.346371,285.005854 361.338801,286.319438 369.901663,289.428784 C377.233534,292.090262 383.537156,296.015085 387.769721,301.337428 C391.367038,305.85226 393.180252,310.9473 397.271419,315.247695 C408.937746,327.582151 433.183244,328.323492 454.587277,323.201495 C462.060546,321.424113 469.192798,318.948889 475.36438,316.028248 C499.208558,304.703487 520.620909,288.210165 549.300672,285.613631 C579.185431,282.907428 605.194238,295.422624 632.985068,303.196297 C661.057653,311.060646 692.227466,314.453663 721.258642,316.221242 C732.683761,316.917245 743.833363,317.210719 755.349975,317.317937 C759.493127,317.356536 763.673708,317.356536 767.878201,317.304458 C788.895471,317.077154 810.972182,315.773986 832.59663,313.980674 C960.799378,303.349466 1086.91755,280.877009 1205.9617,247.86157 C1331.17223,213.2887 1448.72962,167.21033 1554,111.755518" id="Stroke-31" stroke="#208753"></path>
                        <path d="M7,344.2309 C25.8250871,328.957179 45.4410919,313.30082 71.6505021,304.323806 C97.8162612,295.358423 132.561554,294.870482 153.579593,308.252436 C161.82135,313.472242 167.431564,320.35913 176.207528,325.205482 C197.512418,337.02382 230.408772,332.834995 254.547869,323.44473 C258.297713,321.987642 261.955057,320.42525 265.553161,318.798576 C285.127593,309.940945 303.147212,299.253381 324.546679,293.424413 C331.778223,291.449996 339.74664,290.268408 347.698429,289.970868 C358.413752,289.56925 369.099974,290.728799 378.193968,293.769707 C385.956601,296.378385 392.565596,300.332117 396.897455,305.810893 C400.556879,310.435008 402.261353,315.700119 406.35417,320.14424 C418.096335,332.928665 443.001407,333.531092 464.938199,328.119659 C472.56676,326.243811 479.838838,323.649213 486.095505,320.599734 C510.343731,308.758131 532.087211,291.622031 561.667115,289.385583 C592.223974,287.075056 618.632932,301.118822 646.703753,309.574224 C675.073896,318.126356 706.474678,321.200324 736.973335,322.094168 C749.001311,322.446196 760.913924,322.396606 772.960608,322.130902 C777.286231,322.04519 781.624326,321.91846 785.964499,321.762956 C807.632109,321.003188 829.810022,319.554058 851.733303,317.711269 C981.71194,306.784939 1109.67119,284.691063 1231.46211,252.47899 C1359.82566,218.607795 1481.42847,173.577625 1592,118.926995" id="Stroke-33" stroke="#198647"></path>
                        <path d="M8,352 C26.9789046,336.137018 46.7614186,319.823192 73.5258741,310.575051 C100.28929,301.326296 136.147111,301.06131 157.396498,315.518393 C165.694571,321.164071 171.195085,328.578164 180.053501,333.811642 C201.635559,346.561649 235.523342,342.231701 260.095285,332.322934 C284.667227,322.414168 305.105728,307.822138 331.259939,300.027741 C357.413111,292.23273 393.79385,294.197431 407.271201,311.37553 C410.996081,316.121359 412.589785,321.571365 416.688921,326.171206 C432.610367,344.035079 473.461378,338.691804 498.128964,326.301246 C522.79551,313.9113 544.886972,296.081164 575.383585,294.203565 C606.635986,292.279961 633.457619,307.894519 661.825135,317.055558 C705.90098,331.289365 756.961884,330.171148 805.541268,327.354443 C1100.0979,310.275101 1387.75576,240.434062 1632,126.696095" id="Stroke-35" stroke="#12853C"></path>
                    </g>
                </g>
            </g>
        </g>
    </g>
</svg>