<!DOCTYPE svg PUBLIC "-//W3C//DTD SVG 1.1//EN" "http://www.w3.org/Graphics/SVG/1.1/DTD/svg11.dtd">
<!-- Uploaded to: SVG Repo, www.svgrepo.com, Transformed by: SVG Repo Mixer Tools -->
<svg fill="#000000" width="800px" height="800px" viewBox="0 0 24 24" id="bracket-2" data-name="Flat Line" xmlns="http://www.w3.org/2000/svg" class="icon flat-line">
<g id="SVGRepo_bgCarrier" stroke-width="0"/>
<g id="SVGRepo_tracerCarrier" stroke-linecap="round" stroke-linejoin="round"/>
<g id="SVGRepo_iconCarrier">
<path id="primary" d="M15,3h2a1,1,0,0,1,1,1v6a2,2,0,0,0,2,2h0a2,2,0,0,0-2,2v6a1,1,0,0,1-1,1H15" style="fill: none; stroke: #082ee7; stroke-linecap: round; stroke-linejoin: round; stroke-width: 2;"/>
<path id="primary-2" data-name="primary" d="M9,3H7A1,1,0,0,0,6,4v6a2,2,0,0,1-2,2H4a2,2,0,0,1,2,2v6a1,1,0,0,0,1,1H9" style="fill: none; stroke: #082ee7; stroke-linecap: round; stroke-linejoin: round; stroke-width: 2;"/>
</g>
</svg>