<svg width="79" height="79" viewBox="0 0 79 79" fill="none" xmlns="http://www.w3.org/2000/svg">
<g filter="url(#filter0_d_234_1878)">
<circle cx="43.5" cy="39.5" r="28.5" fill="white"/>
<circle cx="43.5" cy="39.5" r="28.5" stroke="#F3F5F7"/>
</g>
<path d="M60.6466 48.1482C59.4354 48.4563 58.6863 48.1615 58.0143 47.1521C56.5055 44.8916 54.8401 42.7347 53.233 40.538C53.0258 40.2538 52.8107 39.9749 52.5424 39.6216C50.6405 42.1875 48.7413 44.6313 46.959 47.1733C46.3215 48.0818 45.6521 48.4776 44.4621 48.1561L51.6127 38.5591L44.9562 29.8918C46.101 29.6686 46.8926 29.7829 47.5938 30.8082C49.1424 33.0713 50.8504 35.2255 52.553 37.5046C54.2663 35.2335 55.953 33.0766 57.5468 30.8347C58.1869 29.9263 58.8749 29.581 60.0251 29.9157C59.1538 31.0711 58.3012 32.208 57.4432 33.3369C56.2851 34.859 55.1482 36.3996 53.9476 37.8897C53.5199 38.421 53.589 38.7663 53.9715 39.2683C56.1921 42.1876 58.3862 45.136 60.6466 48.1482ZM27.3532 38.3997C27.5444 37.4408 27.6719 36.4633 27.9376 35.523C29.5313 29.8307 36.0657 27.464 40.5547 30.9915C43.1844 33.0607 43.8379 35.9772 43.7077 39.2657H28.8858C28.6627 45.1652 32.9101 48.7272 38.3235 46.9104C40.2227 46.2729 41.341 44.7854 41.9015 42.926C42.1857 41.9936 42.6558 41.8476 43.5324 42.1132C43.0835 44.4401 42.0662 46.3844 39.9412 47.601C36.7537 49.4232 32.2035 48.8335 29.8102 46.3021C28.3971 44.8146 27.7968 42.9632 27.5312 40.963C27.4913 40.6443 27.409 40.3308 27.3452 40.0147C27.3505 39.4764 27.3532 38.9381 27.3532 38.3997ZM28.9124 38.004H42.3079C42.2202 33.738 39.564 30.7072 35.9329 30.6807C31.9485 30.6488 29.0851 33.6079 28.9124 38.004Z" fill="black"/>
<defs>
<filter id="filter0_d_234_1878" x="0.5" y="0.5" width="78" height="78" filterUnits="userSpaceOnUse" color-interpolation-filters="sRGB">
<feFlood flood-opacity="0" result="BackgroundImageFix"/>
<feColorMatrix in="SourceAlpha" type="matrix" values="0 0 0 0 0 0 0 0 0 0 0 0 0 0 0 0 0 0 127 0" result="hardAlpha"/>
<feOffset dx="-4"/>
<feGaussianBlur stdDeviation="5"/>
<feColorMatrix type="matrix" values="0 0 0 0 0 0 0 0 0 0 0 0 0 0 0 0 0 0 0.0284104 0"/>
<feBlend mode="normal" in2="BackgroundImageFix" result="effect1_dropShadow_234_1878"/>
<feBlend mode="normal" in="SourceGraphic" in2="effect1_dropShadow_234_1878" result="shape"/>
</filter>
</defs>
</svg>
