<svg width="264" height="85" viewBox="0 0 264 85" fill="none" xmlns="http://www.w3.org/2000/svg">
<g filter="url(#filter0_d_265_1929)">
<circle cx="228.5" cy="39.5" r="28.5" fill="white"/>
<circle cx="228.5" cy="39.5" r="28.5" stroke="#F3F5F7"/>
</g>
<path d="M228.972 41.822C230.543 41.822 231.816 40.5484 231.816 38.9774C231.816 37.4063 230.543 36.1327 228.972 36.1327C227.401 36.1327 226.127 37.4063 226.127 38.9774C226.127 40.5484 227.401 41.822 228.972 41.822Z" fill="#00D8FF"/>
<path d="M228.972 45.494C224.977 45.494 221.486 45.0237 218.874 44.1283C217.179 43.5503 215.74 42.7797 214.714 41.9013C213.626 40.972 213.048 39.9577 213.048 38.9773C213.048 37.096 215.111 35.2543 218.573 34.053C221.407 33.067 225.101 32.5173 228.966 32.5173C232.763 32.5173 236.406 33.05 239.223 34.0247C240.872 34.5913 242.26 35.328 243.246 36.144C244.317 37.0393 244.884 38.0197 244.884 38.9773C244.884 40.9323 242.577 42.91 238.86 44.1397C236.231 45.0123 232.717 45.494 228.972 45.494ZM228.972 33.8773C225.305 33.8773 221.679 34.41 219.027 35.3337C215.842 36.4443 214.414 37.963 214.414 38.9773C214.414 40.0313 215.95 41.6917 219.316 42.842C221.786 43.6863 225.13 44.134 228.972 44.134C232.576 44.134 235.936 43.6807 238.435 42.8477C241.931 41.686 243.529 40.0257 243.529 38.9773C243.529 38.439 243.121 37.8043 242.379 37.1867C241.523 36.4727 240.277 35.821 238.786 35.3053C236.106 34.3873 232.621 33.8773 228.972 33.8773Z" fill="#00D8FF"/>
<path d="M222.517 53.1554C221.939 53.1554 221.429 53.0307 220.999 52.7814C219.372 51.8407 218.806 49.132 219.491 45.5337C220.052 42.5814 221.424 39.1134 223.356 35.7644C225.254 32.4777 227.532 29.5877 229.782 27.6327C231.097 26.488 232.428 25.6494 233.63 25.2074C234.939 24.7257 236.072 24.7257 236.899 25.2017C238.594 26.1764 239.155 29.1684 238.361 32.999C237.8 35.719 236.463 39 234.593 42.247C232.598 45.7037 230.445 48.4917 228.365 50.3107C227.017 51.4894 225.628 52.3507 224.359 52.7984C223.696 53.0364 223.073 53.1554 222.517 53.1554ZM223.94 36.1044L224.529 36.4444C222.699 39.6177 221.344 43.0234 220.823 45.7887C220.194 49.1037 220.8 51.0984 221.673 51.6027C221.888 51.7274 222.172 51.7954 222.517 51.7954C223.645 51.7954 225.419 51.0814 227.47 49.2907C229.436 47.5737 231.493 44.899 233.414 41.5727C235.216 38.4504 236.497 35.311 237.03 32.7327C237.772 29.123 237.132 26.913 236.219 26.386C235.755 26.1197 235.001 26.1537 234.094 26.488C233.046 26.8734 231.862 27.627 230.672 28.664C228.535 30.5227 226.354 33.288 224.529 36.45L223.94 36.1044Z" fill="#00D8FF"/>
<path d="M235.426 53.1724C233.885 53.1724 231.93 52.243 229.89 50.4864C227.612 48.5257 225.294 45.6074 223.356 42.2584C221.452 38.9717 220.092 35.5547 219.52 32.625C219.185 30.9137 219.123 29.344 219.338 28.0804C219.576 26.7034 220.137 25.723 220.97 25.2414C222.659 24.261 225.532 25.2697 228.456 27.8707C230.53 29.7124 232.706 32.5117 234.582 35.753C236.582 39.2097 237.925 42.468 238.458 45.1767C238.803 46.9334 238.86 48.5654 238.616 49.8914C238.356 51.3024 237.766 52.3054 236.916 52.7984C236.491 53.0477 235.987 53.1724 235.426 53.1724ZM224.535 41.5784C226.371 44.7517 228.649 47.6247 230.779 49.455C233.335 51.6537 235.364 52.1297 236.242 51.6197C237.154 51.0927 237.823 48.9337 237.132 45.443C236.622 42.8817 235.335 39.765 233.409 36.4387C231.601 33.3164 229.521 30.636 227.555 28.8907C224.801 26.4427 222.568 25.893 221.656 26.42C221.191 26.6864 220.846 27.3607 220.681 28.3127C220.494 29.412 220.551 30.8174 220.857 32.3644C221.401 35.1467 222.704 38.4164 224.535 41.5784Z" fill="#00D8FF"/>
<g filter="url(#filter1_d_265_1929)">
<circle cx="165.5" cy="39.5" r="28.5" fill="white"/>
<circle cx="165.5" cy="39.5" r="28.5" stroke="#F3F5F7"/>
</g>
<g filter="url(#filter2_d_265_1929)">
<circle cx="165" cy="39" r="28" fill="#F7DF1E"/>
</g>
<mask id="mask0_265_1929" style="mask-type:luminance" maskUnits="userSpaceOnUse" x="137" y="11" width="56" height="56">
<circle cx="165" cy="39" r="28" fill="white"/>
</mask>
<g mask="url(#mask0_265_1929)">
</g>
<path d="M149 46.6999L152.947 44.3112C153.709 45.6613 154.401 46.8037 156.063 46.8037C157.656 46.8037 158.66 46.1806 158.66 43.7573V27.2771H163.507V43.8258C163.507 48.846 160.564 51.1311 156.271 51.1311C152.393 51.1311 150.142 49.1229 149 46.6995" fill="black"/>
<path d="M166.139 46.1806L170.086 43.8955C171.125 45.5922 172.475 46.8385 174.864 46.8385C176.872 46.8385 178.153 45.8344 178.153 44.4495C178.153 42.7876 176.837 42.199 174.621 41.2299L173.41 40.7102C169.913 39.2217 167.593 37.3522 167.593 33.4052C167.593 29.7699 170.363 27 174.691 27C177.772 27 179.988 28.0734 181.58 30.8778L177.806 33.3012C176.975 31.8126 176.076 31.2241 174.691 31.2241C173.271 31.2241 172.371 32.1243 172.371 33.3012C172.371 34.7554 173.271 35.3441 175.348 36.2443L176.56 36.7636C180.68 38.5294 183 40.3296 183 44.3802C183 48.7428 179.572 51.1315 174.968 51.1315C170.467 51.1315 167.558 48.9851 166.139 46.1806Z" fill="black"/>
<g filter="url(#filter3_d_265_1929)">
<circle cx="39.5" cy="39.5" r="28.5" fill="white"/>
<circle cx="39.5" cy="39.5" r="28.5" stroke="#F3F5F7"/>
</g>
<path d="M22 21L25.1875 57L39.5 61L53.8075 57.0025L57 21H22Z" fill="#FF5722"/>
<path d="M50.0875 32.7725H39.5H33.3125L33.7125 37.295H39.5H49.6875L48.485 50.855L39.5 53.3625L39.4925 53.365L30.5125 50.855L29.885 43.7625H34.285L34.6125 47.4425L39.495 48.77L39.5 48.7675L44.3875 47.44L44.8975 41.7125H39.5H29.705L28.52 28.36H39.5H50.4775L50.0875 32.7725Z" fill="#FAFAFA"/>
<g filter="url(#filter4_d_265_1929)">
<circle cx="102.5" cy="39.5" r="28.5" fill="white"/>
<circle cx="102.5" cy="39.5" r="28.5" stroke="#F3F5F7"/>
</g>
<path d="M85 22L88.1875 58L102.5 62L116.807 58.0025L120 22H85Z" fill="#2196F3"/>
<path d="M113.185 33.7725L112.782 38.295L111.567 51.8525L102.5 54.36L102.492 54.3625L93.4299 51.8525L92.7974 44.7625H97.2374L97.5674 48.44L102.495 49.77L102.497 49.7675L107.432 48.4375L108.105 42.31L92.5849 42.3525L92.1449 38.1625L108.477 37.97L108.807 33.485L91.7074 33.5325L91.4199 29.36H102.5H113.58L113.185 33.7725Z" fill="#FAFAFA"/>
<defs>
<filter id="filter0_d_265_1929" x="185.5" y="0.5" width="78" height="78" filterUnits="userSpaceOnUse" color-interpolation-filters="sRGB">
<feFlood flood-opacity="0" result="BackgroundImageFix"/>
<feColorMatrix in="SourceAlpha" type="matrix" values="0 0 0 0 0 0 0 0 0 0 0 0 0 0 0 0 0 0 127 0" result="hardAlpha"/>
<feOffset dx="-4"/>
<feGaussianBlur stdDeviation="5"/>
<feColorMatrix type="matrix" values="0 0 0 0 0 0 0 0 0 0 0 0 0 0 0 0 0 0 0.0284104 0"/>
<feBlend mode="normal" in2="BackgroundImageFix" result="effect1_dropShadow_265_1929"/>
<feBlend mode="normal" in="SourceGraphic" in2="effect1_dropShadow_265_1929" result="shape"/>
</filter>
<filter id="filter1_d_265_1929" x="122.5" y="0.5" width="78" height="78" filterUnits="userSpaceOnUse" color-interpolation-filters="sRGB">
<feFlood flood-opacity="0" result="BackgroundImageFix"/>
<feColorMatrix in="SourceAlpha" type="matrix" values="0 0 0 0 0 0 0 0 0 0 0 0 0 0 0 0 0 0 127 0" result="hardAlpha"/>
<feOffset dx="-4"/>
<feGaussianBlur stdDeviation="5"/>
<feColorMatrix type="matrix" values="0 0 0 0 0 0 0 0 0 0 0 0 0 0 0 0 0 0 0.0284104 0"/>
<feBlend mode="normal" in2="BackgroundImageFix" result="effect1_dropShadow_265_1929"/>
<feBlend mode="normal" in="SourceGraphic" in2="effect1_dropShadow_265_1929" result="shape"/>
</filter>
<filter id="filter2_d_265_1929" x="127" y="7" width="76" height="76" filterUnits="userSpaceOnUse" color-interpolation-filters="sRGB">
<feFlood flood-opacity="0" result="BackgroundImageFix"/>
<feColorMatrix in="SourceAlpha" type="matrix" values="0 0 0 0 0 0 0 0 0 0 0 0 0 0 0 0 0 0 127 0" result="hardAlpha"/>
<feOffset dy="6"/>
<feGaussianBlur stdDeviation="5"/>
<feColorMatrix type="matrix" values="0 0 0 0 0 0 0 0 0 0 0 0 0 0 0 0 0 0 0.0284104 0"/>
<feBlend mode="normal" in2="BackgroundImageFix" result="effect1_dropShadow_265_1929"/>
<feBlend mode="normal" in="SourceGraphic" in2="effect1_dropShadow_265_1929" result="shape"/>
</filter>
<filter id="filter3_d_265_1929" x="0.5" y="6.5" width="78" height="78" filterUnits="userSpaceOnUse" color-interpolation-filters="sRGB">
<feFlood flood-opacity="0" result="BackgroundImageFix"/>
<feColorMatrix in="SourceAlpha" type="matrix" values="0 0 0 0 0 0 0 0 0 0 0 0 0 0 0 0 0 0 127 0" result="hardAlpha"/>
<feOffset dy="6"/>
<feGaussianBlur stdDeviation="5"/>
<feColorMatrix type="matrix" values="0 0 0 0 0 0 0 0 0 0 0 0 0 0 0 0 0 0 0.0284104 0"/>
<feBlend mode="normal" in2="BackgroundImageFix" result="effect1_dropShadow_265_1929"/>
<feBlend mode="normal" in="SourceGraphic" in2="effect1_dropShadow_265_1929" result="shape"/>
</filter>
<filter id="filter4_d_265_1929" x="63.5" y="6.5" width="78" height="78" filterUnits="userSpaceOnUse" color-interpolation-filters="sRGB">
<feFlood flood-opacity="0" result="BackgroundImageFix"/>
<feColorMatrix in="SourceAlpha" type="matrix" values="0 0 0 0 0 0 0 0 0 0 0 0 0 0 0 0 0 0 127 0" result="hardAlpha"/>
<feOffset dy="6"/>
<feGaussianBlur stdDeviation="5"/>
<feColorMatrix type="matrix" values="0 0 0 0 0 0 0 0 0 0 0 0 0 0 0 0 0 0 0.0284104 0"/>
<feBlend mode="normal" in2="BackgroundImageFix" result="effect1_dropShadow_265_1929"/>
<feBlend mode="normal" in="SourceGraphic" in2="effect1_dropShadow_265_1929" result="shape"/>
</filter>
</defs>
</svg>
