<svg width="81" height="83" viewBox="0 0 81 83" fill="none" xmlns="http://www.w3.org/2000/svg">
<g filter="url(#filter0_d_265_1824)">
<circle cx="43.5" cy="39.5" r="28.5" fill="white"/>
<circle cx="43.5" cy="39.5" r="28.5" stroke="#F3F5F7"/>
</g>
<g filter="url(#filter1_d_265_1824)">
<circle cx="43" cy="39" r="28" fill="#F7DF1E"/>
</g>
<mask id="mask0_265_1824" style="mask-type:luminance" maskUnits="userSpaceOnUse" x="15" y="11" width="56" height="56">
<circle cx="43" cy="39" r="28" fill="white"/>
</mask>
<g mask="url(#mask0_265_1824)">
</g>
<path d="M27.0001 46.6999L30.9471 44.3112C31.7086 45.6613 32.4013 46.8037 34.0628 46.8037C35.6555 46.8037 36.6596 46.1806 36.6596 43.7573V27.2771H41.5066V43.8258C41.5066 48.846 38.5639 51.1311 34.2706 51.1311C30.3932 51.1311 28.1425 49.1229 27 46.6995" fill="black"/>
<path d="M44.1392 46.1806L48.0857 43.8955C49.1247 45.5922 50.4749 46.8385 52.8637 46.8385C54.872 46.8385 56.1527 45.8344 56.1527 44.4495C56.1527 42.7876 54.8371 42.199 52.6213 41.2299L51.4099 40.7102C47.9128 39.2217 45.5931 37.3522 45.5931 33.4052C45.5931 29.7699 48.3628 27 52.6907 27C55.7721 27 57.9879 28.0734 59.5803 30.8778L55.8065 33.3012C54.9755 31.8126 54.0756 31.2241 52.6908 31.2241C51.2713 31.2241 50.371 32.1243 50.371 33.3012C50.371 34.7554 51.2713 35.3441 53.3483 36.2443L54.56 36.7636C58.6801 38.5294 60.9998 40.3296 60.9998 44.3802C60.9998 48.7428 57.5723 51.1315 52.9677 51.1315C48.4668 51.1315 45.5584 48.9851 44.1392 46.1806Z" fill="black"/>
<defs>
<filter id="filter0_d_265_1824" x="0.5" y="0.5" width="78" height="78" filterUnits="userSpaceOnUse" color-interpolation-filters="sRGB">
<feFlood flood-opacity="0" result="BackgroundImageFix"/>
<feColorMatrix in="SourceAlpha" type="matrix" values="0 0 0 0 0 0 0 0 0 0 0 0 0 0 0 0 0 0 127 0" result="hardAlpha"/>
<feOffset dx="-4"/>
<feGaussianBlur stdDeviation="5"/>
<feColorMatrix type="matrix" values="0 0 0 0 0 0 0 0 0 0 0 0 0 0 0 0 0 0 0.0284104 0"/>
<feBlend mode="normal" in2="BackgroundImageFix" result="effect1_dropShadow_265_1824"/>
<feBlend mode="normal" in="SourceGraphic" in2="effect1_dropShadow_265_1824" result="shape"/>
</filter>
<filter id="filter1_d_265_1824" x="5" y="7" width="76" height="76" filterUnits="userSpaceOnUse" color-interpolation-filters="sRGB">
<feFlood flood-opacity="0" result="BackgroundImageFix"/>
<feColorMatrix in="SourceAlpha" type="matrix" values="0 0 0 0 0 0 0 0 0 0 0 0 0 0 0 0 0 0 127 0" result="hardAlpha"/>
<feOffset dy="6"/>
<feGaussianBlur stdDeviation="5"/>
<feColorMatrix type="matrix" values="0 0 0 0 0 0 0 0 0 0 0 0 0 0 0 0 0 0 0.0284104 0"/>
<feBlend mode="normal" in2="BackgroundImageFix" result="effect1_dropShadow_265_1824"/>
<feBlend mode="normal" in="SourceGraphic" in2="effect1_dropShadow_265_1824" result="shape"/>
</filter>
</defs>
</svg>
