<svg width="79" height="79" viewBox="0 0 79 79" fill="none" xmlns="http://www.w3.org/2000/svg">
<g filter="url(#filter0_d_265_1841)">
<circle cx="43.5" cy="39.5" r="28.5" fill="white"/>
<circle cx="43.5" cy="39.5" r="28.5" stroke="#F3F5F7"/>
</g>
<path fill-rule="evenodd" clip-rule="evenodd" d="M45.3445 62L44.1199 61.5816C44.1199 61.5816 44.2694 55.3388 42.0291 54.8908C40.5356 53.1584 42.2681 -18.5897 47.6445 54.6518C47.6445 54.6518 45.7928 55.5777 45.4641 57.1609C45.1055 58.7142 45.3445 62 45.3445 62Z" fill="white"/>
<path fill-rule="evenodd" clip-rule="evenodd" d="M45.3445 62L44.1199 61.5816C44.1199 61.5816 44.2694 55.3388 42.0291 54.8908C40.5356 53.1584 42.2681 -18.5897 47.6445 54.6518C47.6445 54.6518 45.7928 55.5777 45.4641 57.1609C45.1055 58.7142 45.3445 62 45.3445 62Z" fill="#A6A385"/>
<path fill-rule="evenodd" clip-rule="evenodd" d="M46.0016 55.9664C46.0016 55.9664 56.7249 48.917 54.2158 34.2506C51.7964 23.5872 46.091 20.0924 45.4639 18.7481C44.7769 17.7923 44.1196 16.1197 44.1196 16.1197L44.5679 45.7805C44.5679 45.8104 43.6417 54.8611 46.0016 55.9664Z" fill="white"/>
<path fill-rule="evenodd" clip-rule="evenodd" d="M46.0016 55.9664C46.0016 55.9664 56.7249 48.917 54.2158 34.2506C51.7964 23.5872 46.091 20.0924 45.4639 18.7481C44.7769 17.7923 44.1196 16.1197 44.1196 16.1197L44.5679 45.7805C44.5679 45.8104 43.6417 54.8611 46.0016 55.9664Z" fill="#499D4A"/>
<path fill-rule="evenodd" clip-rule="evenodd" d="M43.4943 56.3545C43.4943 56.3545 33.4281 49.4842 34.0256 37.3871C34.5929 25.2896 41.7021 19.3455 43.076 18.2701C43.9722 17.3144 44.0021 16.9558 44.0619 16C44.6891 17.3443 44.5697 36.1026 44.6592 38.313C44.928 46.8259 44.1813 54.7417 43.4943 56.3545Z" fill="white"/>
<path fill-rule="evenodd" clip-rule="evenodd" d="M43.4943 56.3545C43.4943 56.3545 33.4281 49.4842 34.0256 37.3871C34.5929 25.2896 41.7021 19.3455 43.076 18.2701C43.9722 17.3144 44.0021 16.9558 44.0619 16C44.6891 17.3443 44.5697 36.1026 44.6592 38.313C44.928 46.8259 44.1813 54.7417 43.4943 56.3545Z" fill="#58AA50"/>
<defs>
<filter id="filter0_d_265_1841" x="0.5" y="0.5" width="78" height="78" filterUnits="userSpaceOnUse" color-interpolation-filters="sRGB">
<feFlood flood-opacity="0" result="BackgroundImageFix"/>
<feColorMatrix in="SourceAlpha" type="matrix" values="0 0 0 0 0 0 0 0 0 0 0 0 0 0 0 0 0 0 127 0" result="hardAlpha"/>
<feOffset dx="-4"/>
<feGaussianBlur stdDeviation="5"/>
<feColorMatrix type="matrix" values="0 0 0 0 0 0 0 0 0 0 0 0 0 0 0 0 0 0 0.0284104 0"/>
<feBlend mode="normal" in2="BackgroundImageFix" result="effect1_dropShadow_265_1841"/>
<feBlend mode="normal" in="SourceGraphic" in2="effect1_dropShadow_265_1841" result="shape"/>
</filter>
</defs>
</svg>
