<svg width="79" height="79" viewBox="0 0 79 79" fill="none" xmlns="http://www.w3.org/2000/svg">
<g filter="url(#filter0_d_232_1854)">
<circle cx="43.5" cy="39.5" r="28.5" fill="white"/>
<circle cx="43.5" cy="39.5" r="28.5" stroke="#F3F5F7"/>
</g>
<path d="M44 58C43.472 58 42.9793 57.8604 42.5217 57.616L37.8406 54.8581C37.1366 54.474 37.4886 54.3344 37.6998 54.2646C38.6501 53.9504 38.8261 53.8806 39.8116 53.322C39.9172 53.2522 40.058 53.2871 40.1636 53.3569L43.7536 55.4864C43.8944 55.5563 44.0704 55.5563 44.176 55.4864L58.2195 47.4221C58.3602 47.3523 58.4306 47.2127 58.4306 47.0381V30.9444C58.4306 30.7699 58.3602 30.6302 58.2195 30.5604L44.176 22.531C44.0352 22.4612 43.8592 22.4612 43.7536 22.531L29.7101 30.5604C29.5694 30.6302 29.499 30.8048 29.499 30.9444V47.0381C29.499 47.1778 29.5694 47.3523 29.7101 47.4221L33.5466 49.6215C35.6232 50.6688 36.9255 49.4469 36.9255 48.2251V32.3408C36.9255 32.1314 37.1014 31.9219 37.3478 31.9219H39.1429C39.354 31.9219 39.5652 32.0965 39.5652 32.3408V48.2251C39.5652 50.983 38.0518 52.5889 35.412 52.5889C34.6025 52.5889 33.9689 52.5889 32.1739 51.7161L28.4783 49.6215C27.5631 49.0978 27 48.1203 27 47.073V30.9793C27 29.932 27.5631 28.9545 28.4783 28.4309L42.5217 20.3666C43.4017 19.8778 44.5983 19.8778 45.4783 20.3666L59.5217 28.4309C60.4369 28.9545 61 29.932 61 30.9793V47.073C61 48.1203 60.4369 49.0978 59.5217 49.6215L45.4783 57.6858C45.0207 57.8953 44.4928 58 44 58ZM48.3292 46.9334C42.1698 46.9334 40.9027 44.1406 40.9027 41.7667C40.9027 41.5572 41.0787 41.3477 41.3251 41.3477H43.1553C43.3665 41.3477 43.5424 41.4874 43.5424 41.6968C43.824 43.5471 44.6335 44.4548 48.3644 44.4548C51.3209 44.4548 52.588 43.7915 52.588 42.2205C52.588 41.3128 52.236 40.6495 47.6253 40.1957C43.7888 39.8117 41.3954 38.9738 41.3954 35.9366C41.3954 33.1089 43.7888 31.4332 47.8012 31.4332C52.3064 31.4332 54.5238 32.9692 54.8054 36.3206C54.8054 36.4254 54.7702 36.5301 54.6998 36.6348C54.6294 36.7046 54.5238 36.7745 54.4182 36.7745H52.588C52.412 36.7745 52.236 36.6348 52.2008 36.4603C51.7785 34.5402 50.6874 33.9118 47.8012 33.9118C44.5631 33.9118 44.176 35.0289 44.176 35.8668C44.176 36.8792 44.6335 37.1934 48.9979 37.752C53.3271 38.3105 55.3685 39.1135 55.3685 42.1158C55.3333 45.1879 52.7992 46.9334 48.3292 46.9334Z" fill="#539E43"/>
<defs>
<filter id="filter0_d_232_1854" x="0.5" y="0.5" width="78" height="78" filterUnits="userSpaceOnUse" color-interpolation-filters="sRGB">
<feFlood flood-opacity="0" result="BackgroundImageFix"/>
<feColorMatrix in="SourceAlpha" type="matrix" values="0 0 0 0 0 0 0 0 0 0 0 0 0 0 0 0 0 0 127 0" result="hardAlpha"/>
<feOffset dx="-4"/>
<feGaussianBlur stdDeviation="5"/>
<feColorMatrix type="matrix" values="0 0 0 0 0 0 0 0 0 0 0 0 0 0 0 0 0 0 0.0284104 0"/>
<feBlend mode="normal" in2="BackgroundImageFix" result="effect1_dropShadow_232_1854"/>
<feBlend mode="normal" in="SourceGraphic" in2="effect1_dropShadow_232_1854" result="shape"/>
</filter>
</defs>
</svg>
