<svg width="79" height="79" viewBox="0 0 79 79" fill="none" xmlns="http://www.w3.org/2000/svg">
<g filter="url(#filter0_d_234_1931)">
<circle cx="43.5" cy="39.5" r="28.5" fill="white"/>
<circle cx="43.5" cy="39.5" r="28.5" stroke="#F3F5F7"/>
</g>
<path d="M43.9716 41.822C45.5427 41.822 46.8163 40.5484 46.8163 38.9774C46.8163 37.4063 45.5427 36.1327 43.9716 36.1327C42.4006 36.1327 41.127 37.4063 41.127 38.9774C41.127 40.5484 42.4006 41.822 43.9716 41.822Z" fill="#00D8FF"/>
<path d="M43.9717 45.494C39.9767 45.494 36.486 45.0237 33.8737 44.1283C32.1793 43.5503 30.74 42.7797 29.7143 41.9013C28.6263 40.972 28.0483 39.9577 28.0483 38.9773C28.0483 37.096 30.111 35.2543 33.5733 34.053C36.4067 33.067 40.1013 32.5173 43.966 32.5173C47.7627 32.5173 51.4063 33.05 54.2227 34.0247C55.8717 34.5913 57.26 35.328 58.246 36.144C59.317 37.0393 59.8837 38.0197 59.8837 38.9773C59.8837 40.9323 57.5773 42.91 53.86 44.1397C51.2307 45.0123 47.7173 45.494 43.9717 45.494ZM43.9717 33.8773C40.3053 33.8773 36.6787 34.41 34.0267 35.3337C30.842 36.4443 29.414 37.963 29.414 38.9773C29.414 40.0313 30.9497 41.6917 34.3157 42.842C36.7863 43.6863 40.1297 44.134 43.9717 44.134C47.5757 44.134 50.936 43.6807 53.435 42.8477C56.9313 41.686 58.5293 40.0257 58.5293 38.9773C58.5293 38.439 58.1213 37.8043 57.379 37.1867C56.5233 36.4727 55.2767 35.821 53.7863 35.3053C51.106 34.3873 47.621 33.8773 43.9717 33.8773Z" fill="#00D8FF"/>
<path d="M37.5172 53.1553C36.9392 53.1553 36.4292 53.0306 35.9985 52.7813C34.3722 51.8406 33.8055 49.132 34.4912 45.5336C35.0522 42.5813 36.4235 39.1133 38.3559 35.7643C40.2542 32.4776 42.5322 29.5876 44.7819 27.6326C46.0965 26.488 47.4282 25.6493 48.6295 25.2073C49.9385 24.7256 51.0719 24.7256 51.8992 25.2016C53.5935 26.1763 54.1545 29.1683 53.3612 32.999C52.8002 35.719 51.4629 39 49.5929 42.247C47.5982 45.7036 45.4449 48.4916 43.3652 50.3106C42.0165 51.4893 40.6282 52.3506 39.3589 52.7983C38.6959 53.0363 38.0725 53.1553 37.5172 53.1553ZM38.9395 36.1043L39.5289 36.4443C37.6985 39.6176 36.3442 43.0233 35.8229 45.7886C35.1939 49.1036 35.8002 51.0983 36.6729 51.6026C36.8882 51.7273 37.1715 51.7953 37.5172 51.7953C38.6449 51.7953 40.4185 51.0813 42.4699 49.2906C44.4362 47.5736 46.4932 44.899 48.4142 41.5726C50.2162 38.4503 51.4969 35.311 52.0295 32.7326C52.7719 29.123 52.1315 26.913 51.2192 26.386C50.7545 26.1196 50.0009 26.1536 49.0942 26.488C48.0459 26.8733 46.8615 27.627 45.6715 28.664C43.5352 30.5226 41.3535 33.288 39.5289 36.45L38.9395 36.1043Z" fill="#00D8FF"/>
<path d="M50.4261 53.1724C48.8848 53.1724 46.9298 52.243 44.8898 50.4864C42.6118 48.5257 40.2941 45.6074 38.3561 42.2584C36.4521 38.9717 35.0921 35.5547 34.5198 32.625C34.1855 30.9137 34.1231 29.344 34.3385 28.0804C34.5765 26.7034 35.1375 25.723 35.9705 25.2414C37.6591 24.261 40.5321 25.2697 43.4561 27.8707C45.5301 29.7124 47.7061 32.5117 49.5818 35.753C51.5821 39.2097 52.9251 42.468 53.4578 45.1767C53.8035 46.9334 53.8601 48.5654 53.6165 49.8914C53.3558 51.3024 52.7665 52.3054 51.9165 52.7984C51.4915 53.0477 50.9871 53.1724 50.4261 53.1724ZM39.5348 41.5784C41.3708 44.7517 43.6488 47.6247 45.7795 49.455C48.3351 51.6537 50.3638 52.1297 51.2421 51.6197C52.1545 51.0927 52.8231 48.9337 52.1318 45.443C51.6218 42.8817 50.3355 39.765 48.4088 36.4387C46.6011 33.3164 44.5215 30.636 42.5551 28.8907C39.8011 26.4427 37.5685 25.893 36.6561 26.42C36.1915 26.6864 35.8458 27.3607 35.6815 28.3127C35.4945 29.412 35.5511 30.8174 35.8571 32.3644C36.4011 35.1467 37.7045 38.4164 39.5348 41.5784Z" fill="#00D8FF"/>
<defs>
<filter id="filter0_d_234_1931" x="0.5" y="0.5" width="78" height="78" filterUnits="userSpaceOnUse" color-interpolation-filters="sRGB">
<feFlood flood-opacity="0" result="BackgroundImageFix"/>
<feColorMatrix in="SourceAlpha" type="matrix" values="0 0 0 0 0 0 0 0 0 0 0 0 0 0 0 0 0 0 127 0" result="hardAlpha"/>
<feOffset dx="-4"/>
<feGaussianBlur stdDeviation="5"/>
<feColorMatrix type="matrix" values="0 0 0 0 0 0 0 0 0 0 0 0 0 0 0 0 0 0 0.0284104 0"/>
<feBlend mode="normal" in2="BackgroundImageFix" result="effect1_dropShadow_234_1931"/>
<feBlend mode="normal" in="SourceGraphic" in2="effect1_dropShadow_234_1931" result="shape"/>
</filter>
</defs>
</svg>
