<svg width="243" height="223" viewBox="0 0 243 223" fill="none" xmlns="http://www.w3.org/2000/svg">
<path d="M41.7555 89.5975C42.0837 89.5997 42.4103 89.6433 42.7275 89.7273C42.695 89.4338 42.6787 89.1387 42.6789 88.8434C42.6842 86.8017 43.4363 84.8326 44.7932 83.3083C46.15 81.784 48.0175 80.81 50.0428 80.5704C52.0682 80.3308 54.111 80.8422 55.7853 82.0079C57.4597 83.1736 58.6495 84.913 59.13 86.8972C59.7441 86.6557 60.3981 86.5319 61.0578 86.5323C62.3638 86.5623 63.6132 87.0722 64.568 87.9648C65.5227 88.8575 66.116 90.0705 66.2351 91.3729C66.3542 92.6753 65.9906 93.976 65.2136 95.0274C64.4366 96.0787 63.3006 96.8072 62.0217 97.0741V97.1633H42.1847C42.0417 97.1716 41.8985 97.1716 41.7555 97.1633C41.2424 97.187 40.7297 97.1064 40.2487 96.9262C39.7676 96.7459 39.328 96.4699 38.9566 96.1148C38.5851 95.7597 38.2894 95.3328 38.0873 94.8601C37.8853 94.3873 37.7812 93.8784 37.7813 93.3642C37.7812 92.85 37.8853 92.3411 38.0873 91.8683C38.2894 91.3955 38.5851 90.9687 38.9566 90.6136C39.328 90.2585 39.7676 89.9825 40.2487 89.8022C40.7297 89.622 41.2424 89.5413 41.7555 89.5651V89.5975Z" fill="#E3E1F9" stroke="#231F20" stroke-width="3" stroke-linecap="round" stroke-linejoin="round"/>
<path d="M166.455 129.462C166.646 129.461 166.837 129.485 167.022 129.535C167.022 129.364 167.022 129.194 167.022 129.016C167.049 127.844 167.498 126.721 168.287 125.854C169.075 124.987 170.149 124.434 171.312 124.297C172.475 124.16 173.648 124.448 174.616 125.108C175.584 125.767 176.281 126.755 176.58 127.888C176.936 127.748 177.315 127.676 177.698 127.678C178.467 127.683 179.207 127.975 179.774 128.496C180.34 129.018 180.693 129.731 180.764 130.498C180.835 131.265 180.618 132.031 180.156 132.647C179.694 133.264 179.02 133.686 178.265 133.832V133.889H166.706H166.455C165.868 133.889 165.306 133.656 164.891 133.241C164.477 132.826 164.244 132.262 164.244 131.675C164.244 131.088 164.477 130.525 164.891 130.11C165.306 129.695 165.868 129.462 166.455 129.462Z" fill="white" stroke="#231F20" stroke-width="3" stroke-linecap="round" stroke-linejoin="round"/>
<path d="M76.1398 132.859C76.008 132.857 75.8767 132.876 75.751 132.916C75.751 132.794 75.751 132.673 75.751 132.551C75.7614 131.722 75.4657 130.918 74.9206 130.294C74.3755 129.67 73.6193 129.269 72.7972 129.168C71.975 129.068 71.1448 129.275 70.4656 129.749C69.7865 130.224 69.3063 130.933 69.1171 131.74C68.8596 131.638 68.5841 131.588 68.3071 131.594C67.7761 131.601 67.2662 131.804 66.8761 132.165C66.486 132.525 66.2433 133.018 66.195 133.547C66.1466 134.077 66.296 134.605 66.6143 135.031C66.9326 135.457 67.3972 135.749 67.9183 135.852V135.892H76.1398C76.5458 135.892 76.9352 135.731 77.2223 135.443C77.5094 135.156 77.6707 134.766 77.6707 134.36C77.6707 133.953 77.5094 133.563 77.2223 133.276C76.9352 132.988 76.5458 132.827 76.1398 132.827V132.859Z" fill="white" stroke="#231F20" stroke-width="3" stroke-linecap="round" stroke-linejoin="round"/>
<path d="M185.425 49.3353C185.234 49.334 185.043 49.3585 184.858 49.4082C184.858 49.238 184.858 49.0677 184.858 48.8893C184.861 47.6952 184.425 46.5418 183.633 45.6487C182.841 44.7556 181.749 44.1851 180.565 44.0459C179.38 43.9067 178.186 44.2084 177.209 44.8937C176.232 45.5789 175.541 46.5999 175.268 47.7621C174.909 47.6188 174.527 47.5445 174.142 47.5432C173.365 47.5401 172.616 47.8286 172.042 48.3516C171.468 48.8746 171.11 49.5941 171.04 50.3681C170.97 51.1421 171.192 51.9143 171.663 52.5323C172.134 53.1502 172.819 53.5691 173.583 53.7061V53.7628H185.166H185.425C186.011 53.7628 186.574 53.5296 186.989 53.1144C187.403 52.6993 187.636 52.1362 187.636 51.549C187.636 50.9619 187.403 50.3988 186.989 49.9837C186.574 49.5685 186.011 49.3353 185.425 49.3353Z" fill="#E3E1F9" stroke="#231F20" stroke-width="3" stroke-linecap="round" stroke-linejoin="round"/>
<path d="M91.8945 108.346L118.868 138.949" stroke="#231F20" stroke-width="3" stroke-linecap="round" stroke-linejoin="round"/>
<path d="M148.659 104.591L118.868 138.949" stroke="#231F20" stroke-width="3" stroke-linecap="round" stroke-linejoin="round"/>
<path d="M118.22 119.804L118.868 138.252" stroke="#231F20" stroke-width="3" stroke-linecap="round" stroke-linejoin="round"/>
<path d="M105.073 82.0557L118.868 138.949" stroke="#231F20" stroke-width="3" stroke-linecap="round" stroke-linejoin="round"/>
<path d="M133.464 78.9502L118.868 138.949" stroke="#231F20" stroke-width="3" stroke-linecap="round" stroke-linejoin="round"/>
<path d="M137.174 78.747C150.017 78.747 160.429 68.3236 160.429 55.4658C160.429 42.6079 150.017 32.1846 137.174 32.1846C124.33 32.1846 113.918 42.6079 113.918 55.4658C113.918 68.3236 124.33 78.747 137.174 78.747Z" fill="white" stroke="#231F20" stroke-width="3" stroke-linecap="round" stroke-linejoin="round"/>
<path d="M145.678 72.7869C141.173 72.791 136.764 71.4851 132.987 69.0278C129.209 66.5705 126.226 63.0677 124.399 58.9451C122.573 54.8224 121.982 50.2574 122.698 45.8048C123.414 41.3521 125.407 37.2036 128.433 33.8633C125.195 35.179 122.295 37.2085 119.948 39.8009C117.601 42.3933 115.867 45.482 114.877 48.8373C113.886 52.1926 113.664 55.7282 114.226 59.1814C114.789 62.6346 116.121 65.9165 118.125 68.7832C120.128 71.6498 122.752 74.0275 125.8 75.7395C128.848 77.4515 132.242 78.4537 135.73 78.6716C139.218 78.8896 142.71 78.3177 145.947 76.9985C149.184 75.6792 152.082 73.6466 154.426 71.0516C151.649 72.1896 148.679 72.7789 145.678 72.7869Z" fill="#0076B1" stroke="#231F20" stroke-width="3" stroke-linecap="round" stroke-linejoin="round"/>
<path d="M155.536 105.629C168.38 105.629 178.791 95.2055 178.791 82.3476C178.791 69.4898 168.38 59.0664 155.536 59.0664C142.693 59.0664 132.281 69.4898 132.281 82.3476C132.281 95.2055 142.693 105.629 155.536 105.629Z" fill="white" stroke="#231F20" stroke-width="3" stroke-linecap="round" stroke-linejoin="round"/>
<path d="M103.032 87.9267C115.875 87.9267 126.287 77.5033 126.287 64.6455C126.287 51.7876 115.875 41.3643 103.032 41.3643C90.1885 41.3643 79.7769 51.7876 79.7769 64.6455C79.7769 77.5033 90.1885 87.9267 103.032 87.9267Z" fill="#FEFEFE" stroke="#231F20" stroke-width="3" stroke-linecap="round" stroke-linejoin="round"/>
<path d="M110.468 82.4451C105.963 82.4476 101.555 81.1405 97.7791 78.6827C94.0028 76.2248 91.0207 72.7219 89.1952 68.5996C87.3697 64.4772 86.7793 59.9129 87.4957 55.461C88.2121 51.0091 90.2045 46.8613 93.2308 43.5215C90.1109 44.9781 87.353 47.11 85.156 49.7634C82.9591 52.4167 81.3779 55.5252 80.5268 58.8646C79.6756 62.2039 79.5756 65.6908 80.234 69.0736C80.8924 72.4564 82.2927 75.6506 84.334 78.4257C86.3752 81.2009 89.0065 83.4877 92.0378 85.1212C95.0691 86.7546 98.4248 87.6939 101.863 87.8713C105.301 88.0487 108.735 87.4598 111.918 86.147C115.101 84.8342 117.953 82.8303 120.269 80.28C117.2 81.7126 113.854 82.4518 110.468 82.4451Z" fill="#0076B1" stroke="#231F20" stroke-width="3" stroke-linecap="round" stroke-linejoin="round"/>
<path d="M198.458 81.3098C200.552 81.3098 202.249 79.6107 202.249 77.5148C202.249 75.4188 200.552 73.7197 198.458 73.7197C196.365 73.7197 194.667 75.4188 194.667 77.5148C194.667 79.6107 196.365 81.3098 198.458 81.3098Z" fill="#E3E1F9" stroke="#231F20" stroke-width="3" stroke-linecap="round" stroke-linejoin="round"/>
<path d="M64.3303 56.8772C66.4239 56.8772 68.1212 55.1781 68.1212 53.0822C68.1212 50.9862 66.4239 49.2871 64.3303 49.2871C62.2366 49.2871 60.5396 50.9862 60.5396 53.0822C60.5396 55.1781 62.2366 56.8772 64.3303 56.8772Z" fill="#E3E1F9" stroke="#231F20" stroke-width="3" stroke-linecap="round" stroke-linejoin="round"/>
<path d="M109.431 27.1497C111.525 27.1497 113.222 25.4506 113.222 23.3546C113.222 21.2587 111.525 19.5596 109.431 19.5596C107.337 19.5596 105.64 21.2587 105.64 23.3546C105.64 25.4506 107.337 27.1497 109.431 27.1497Z" fill="white" stroke="#231F20" stroke-width="3" stroke-linecap="round" stroke-linejoin="round"/>
<path d="M84.7663 109.465C97.6098 109.465 108.021 99.0414 108.021 86.1835C108.021 73.3257 97.6098 62.9023 84.7663 62.9023C71.9229 62.9023 61.5112 73.3257 61.5112 86.1835C61.5112 99.0414 71.9229 109.465 84.7663 109.465Z" fill="white" stroke="#231F20" stroke-width="3" stroke-linecap="round" stroke-linejoin="round"/>
<path d="M164.041 99.6688C159.535 99.6764 155.123 98.3726 151.343 95.916C147.564 93.4593 144.579 89.9558 142.751 85.8318C140.924 81.7077 140.334 77.1409 141.052 72.687C141.77 68.2331 143.766 64.0842 146.796 60.7451C143.556 62.0592 140.654 64.0877 138.305 66.6796C135.956 69.2715 134.221 72.3603 133.229 75.716C132.237 79.0718 132.014 82.6083 132.575 86.0625C133.137 89.5167 134.469 92.7998 136.473 95.6674C138.477 98.5351 141.1 100.914 144.149 102.626C147.198 104.339 150.593 105.341 154.082 105.559C157.571 105.777 161.064 105.204 164.301 103.884C167.539 102.564 170.437 100.53 172.781 97.9334C170.007 99.0716 167.039 99.6609 164.041 99.6688Z" fill="#0076B1" stroke="#231F20" stroke-width="3" stroke-linecap="round" stroke-linejoin="round"/>
<path d="M92.2021 103.983C87.6994 103.982 83.2938 102.673 79.5197 100.214C75.7457 97.7559 72.7654 94.2538 70.9405 90.1328C69.1156 86.0119 68.5245 81.4493 69.2389 76.9987C69.9534 72.548 71.9426 68.4006 74.9653 65.0596C71.8411 66.5136 69.0787 68.6444 66.8777 71.298C64.6767 73.9516 63.0921 77.0616 62.2386 80.4033C61.3851 83.7449 61.2839 87.2347 61.9423 90.6203C62.6007 94.0059 64.0024 97.2027 66.0459 99.9796C68.0894 102.757 70.7237 105.044 73.7583 106.677C76.793 108.31 80.1522 109.248 83.5931 109.422C87.034 109.597 90.4706 109.004 93.6545 107.686C96.8383 106.368 99.6899 104.358 102.003 101.802C98.9342 103.236 95.5889 103.981 92.2021 103.983Z" fill="#0076B1" stroke="#231F20" stroke-width="3" stroke-linecap="round" stroke-linejoin="round"/>
<path d="M118.219 119.811C131.063 119.811 141.475 109.388 141.475 96.5302C141.475 83.6724 131.063 73.249 118.219 73.249C105.376 73.249 94.9644 83.6724 94.9644 96.5302C94.9644 109.388 105.376 119.811 118.219 119.811Z" fill="white" stroke="#231F20" stroke-width="3" stroke-linecap="round" stroke-linejoin="round"/>
<path d="M126.724 113.851C122.22 113.853 117.813 112.547 114.036 110.089C110.26 107.632 107.277 104.13 105.45 100.008C103.623 95.8868 103.031 91.323 103.744 86.8709C104.458 82.4187 106.448 78.2698 109.471 74.9277C106.233 76.2434 103.333 78.2729 100.986 80.8653C98.6387 83.4578 96.9055 86.5464 95.915 89.9017C94.9245 93.257 94.7021 96.7927 95.2644 100.246C95.8267 103.699 97.1592 106.981 99.1629 109.848C101.167 112.714 103.79 115.092 106.838 116.804C109.886 118.516 113.28 119.518 116.768 119.736C120.256 119.954 123.748 119.382 126.985 118.063C130.222 116.744 133.12 114.711 135.464 112.116C132.69 113.254 129.722 113.843 126.724 113.851Z" fill="#0076B1" stroke="#231F20" stroke-width="3" stroke-linecap="round" stroke-linejoin="round"/>
<path d="M96.7381 150.132L91.2949 152.865C90.8295 153.097 90.4376 153.455 90.1631 153.897C89.8885 154.339 89.7419 154.849 89.7397 155.37V192.007C90.2176 196.921 93.1579 198.722 101.331 199.208L96.7381 150.132Z" fill="#0076B1" stroke="#231F20" stroke-width="3" stroke-linecap="round" stroke-linejoin="round"/>
<path d="M97.135 150.156H149.121V194.091C149.121 194.782 148.985 195.467 148.721 196.105C148.457 196.744 148.069 197.324 147.581 197.813C147.093 198.301 146.513 198.689 145.876 198.953C145.238 199.218 144.554 199.354 143.864 199.354H102.384C100.99 199.354 99.6525 198.8 98.6667 197.813C97.6808 196.826 97.127 195.487 97.127 194.091V150.156H97.135Z" fill="white" stroke="#231F20" stroke-width="3" stroke-linecap="round" stroke-linejoin="round"/>
<path d="M119.24 138.017C120.817 138.017 122.329 138.644 123.444 139.76C124.559 140.876 125.185 142.39 125.185 143.969V149.921H113.303V143.969C113.303 142.391 113.928 140.879 115.041 139.763C116.154 138.647 117.665 138.019 119.24 138.017Z" fill="#E3E1F9" stroke="#231F20" stroke-width="3" stroke-linecap="round" stroke-linejoin="round"/>
<path d="M135.319 174.747C135.319 168.013 129.866 162.555 123.14 162.555C116.414 162.555 110.962 168.013 110.962 174.747C110.962 181.48 116.414 186.939 123.14 186.939C129.866 186.939 135.319 181.48 135.319 174.747Z" fill="#0076B1" stroke="#231F20" stroke-width="3" stroke-linecap="round" stroke-linejoin="round"/>
<path d="M170.578 199.687H73.8398" stroke="#231F20" stroke-width="3" stroke-linecap="round" stroke-linejoin="round"/>
</svg>
