<svg xmlns="http://www.w3.org/2000/svg" viewBox="0 0 1500 1000" width="1500" height="1000">
	<defs>
		<clipPath clipPathUnits="userSpaceOnUse" id="cp1">
			<path d="M14 -32L1514 -32L1514 968L14 968Z" />
		</clipPath>
		<linearGradient id="grd1" gradientUnits="userSpaceOnUse"  x1="692.386" y1="355.389" x2="1500.065" y2="355.389">
			<stop offset="0" stop-color="#0074af"  />
			<stop offset="1" stop-color="#1dffe4"  />
		</linearGradient>
		<linearGradient id="grd2" gradientUnits="userSpaceOnUse"  x1="1186.99" y1="-342.895" x2="1429.978" y2="821.046">
			<stop offset="0" stop-color="#0074af"  />
			<stop offset="1" stop-color="#1dffe4"  />
		</linearGradient>
		<linearGradient id="grd3" gradientUnits="userSpaceOnUse"  x1="1017.425" y1="415.066" x2="1051.95" y2="301.468">
			<stop offset="0" stop-color="#1c75bc"  />
			<stop offset="1" stop-color="#5394bc"  />
		</linearGradient>
	</defs>
	<style>
		tspan { white-space:pre }
		.shp0 { fill: url(#grd1) } 
		.shp1 { fill: url(#grd2) } 
		.shp2 { opacity: 0.4;fill: #ffffff } 
		.shp3 { opacity: 0.2;fill: #ffffff } 
		.shp4 { fill: #bbcee1 } 
		.shp5 { fill: #933e31 } 
		.shp6 { fill: #1c75bc } 
		.shp7 { fill: #9d4d36 } 
		.shp8 { fill: #ffffff } 
		.shp9 { fill: #a7bcce } 
		.shp10 { fill: #2a87c6 } 
		.shp11 { fill: #e8ebf5 } 
		.shp12 { fill: #0f4463 } 
		.shp13 { fill: #0b3b56 } 
		.shp14 { fill: #1f5e77 } 
		.shp15 { fill: #07304b } 
		.shp16 { fill: url(#grd3) } 
		.shp17 { fill: #fed4bd } 
		.shp18 { fill: #f4c5a2 } 
		.shp19 { fill: #ed5561 } 
		.shp20 { fill: #de495a } 
		.shp21 { fill: #ef4136 } 
		.shp22 { fill: #91a6b7 } 
		.shp23 { fill: #79ff68 } 
		.shp24 { fill: #50e85e } 
		.shp25 { fill: #3cc743 } 
		.shp26 { fill: #9263c1 } 
		.shp27 { fill: #8444b2 } 
		.shp28 { fill: #7231a3 } 
		.shp29 { fill: #ffa8e1 } 
		.shp30 { fill: #ff7ad2 } 
		.shp31 { fill: #de64c6 } 
		.shp32 { fill: #fcec32 } 
		.shp33 { fill: #f5d012 } 
		.shp34 { fill: #eaa10c } 
		.txt35 { font-size: 13px;fill: #581919;font-weight: 700;font-family: "OpenSans-Bold", "Open Sans" } 
		.shp36 { fill: #edf0f8 } 
		.shp37 { fill: #f0cec9 } 
		.shp38 { fill: #fffbf0 } 
		.shp39 { fill: #f5ddd8 } 
		.shp40 { fill: #dfbab8 } 
	</style>
	<g id="Page 1" clip-path="url(#cp1)">
		<path id="Path 69" class="shp0" d="M652.67 0.08C652.67 0.08 591.15 138.18 782.67 76.8C974.18 15.41 944.51 100.13 918.69 142.79C890.68 189.05 853.33 217.21 856.67 262.96C861.04 323 949.01 325.18 1022.78 363.34C1126.62 417.06 1101.54 413.38 1049.11 409.7C1011.61 407.07 960.11 404.44 931.82 422.81C863.96 466.88 905.35 499.72 999.24 496.35C1202 489.08 1134.75 557.66 1100.87 588.73C1067 619.79 1072.83 690.8 1232.42 642.8C1392 594.79 1332 710.7 1332 710.7L1500.06 710.7L1500.06 0.08L652.67 0.08Z" />
		<path id="Path 70" class="shp1" d="M1041.7 138.8C997.22 302.97 1139.48 380.16 1187.74 342.48C1236 304.8 1238.19 253.57 1163.07 219.78C1087.94 185.98 1095.5 81.79 1259.75 107.8C1424 133.79 1443 342.79 1324 392.79C1205 442.8 1234 501.66 1362 564.23C1490 626.8 1420 710.7 1420 710.7L1500.06 710.7L1500.06 0.08L1311.81 0.08C1311.81 0.08 1307.51 -0.14 1299.98 -0.14C1252.56 -0.14 1076.93 8.76 1041.7 138.8Z" />
		<path id="Path 82" class="shp2" d="M1068.48 207.21L1068.48 209.35L1077.48 214.54L1077.48 212.4L1068.48 207.21ZM1068.48 211.12L1068.48 213.26L1077.48 218.45L1077.48 216.31L1068.48 211.12ZM1068.48 215.03L1068.48 217.17L1077.48 222.36L1077.48 220.22L1068.48 215.03ZM1136.36 260.23L1136.36 258.09L1080.85 226.08L1080.85 228.22L1136.36 260.23ZM1068.48 218.94L1068.48 221.08L1077.48 226.27L1077.48 224.13L1068.48 218.94ZM1068.48 222.85L1068.48 224.99L1077.48 230.18L1077.48 228.04L1068.48 222.85ZM1136.36 264.14L1136.36 262L1080.85 229.99L1080.85 232.13L1136.36 264.14ZM1068.48 234.58L1068.48 236.72L1077.48 241.91L1077.48 239.77L1068.48 234.58ZM1068.48 238.5L1068.48 240.64L1077.48 245.82L1077.48 243.68L1068.48 238.5ZM1068.48 254.14L1068.48 256.28L1077.48 261.47L1077.48 259.33L1068.48 254.14ZM1068.48 258.05L1068.48 260.19L1077.48 265.38L1077.48 263.24L1068.48 258.05ZM1115.87 285.38L1080.85 265.18L1080.85 267.33L1115.87 287.52L1115.87 285.38ZM1117.71 286.45L1117.71 288.59L1136.35 299.34L1136.35 297.2L1117.71 286.45ZM1098.44 271.42L1080.85 261.27L1080.85 263.41L1098.44 273.56L1098.44 271.42ZM1100.29 272.48L1100.29 274.62L1136.36 295.43L1136.36 293.29L1100.29 272.48ZM1131.61 278.82L1131.61 280.96L1136.36 283.7L1136.36 281.55L1131.61 278.82ZM1105.79 260.01L1080.85 245.63L1080.85 247.77L1105.79 262.16L1105.79 260.01ZM1095.57 222.83L1080.85 214.34L1080.85 216.48L1095.57 224.97L1095.57 222.83ZM1119.7 236.75L1097.42 223.9L1097.42 226.04L1119.7 238.89L1119.7 236.75ZM1106.71 233.17L1091.02 224.12L1091.02 226.26L1106.71 235.31L1106.71 233.17ZM1123.18 242.67L1108.56 234.23L1108.56 236.37L1123.18 244.81L1123.18 242.67ZM1125.02 243.73L1125.02 245.87L1136.36 252.41L1136.36 250.27L1125.02 243.73ZM1083.75 223.84L1083.75 225.98L1095.57 232.79L1095.57 230.65L1083.75 223.84ZM1131.73 251.51L1097.42 231.72L1097.42 233.86L1131.73 253.65L1131.73 251.51ZM1112.09 251.91L1089.66 238.98L1089.66 241.12L1112.09 254.05L1112.09 251.91ZM1131.73 263.24L1113.93 252.98L1113.93 255.12L1131.73 265.38L1131.73 263.24ZM1129.77 273.84L1107.64 261.08L1107.64 263.22L1129.77 275.98L1129.77 273.84ZM1117.71 270.8L1117.71 272.94L1129.76 279.9L1129.76 277.76L1117.71 270.8ZM1085.19 252.04L1080.85 249.54L1080.85 251.68L1085.19 254.18L1085.19 252.04ZM1093.32 256.73L1093.32 258.87L1115.87 271.88L1115.87 269.74L1093.32 256.73ZM1091.47 255.67L1087.04 253.11L1087.04 255.25L1091.47 257.81L1091.47 255.67ZM1111.7 271.24L1087.04 257.02L1087.04 259.16L1111.7 273.38L1111.7 271.24ZM1116.44 171.79L1079.14 150.19L1079.14 152.08L1116.44 173.68L1116.44 171.79ZM1079.14 155.81L1136.35 188.91L1136.35 187.01L1079.14 153.92L1079.14 155.81ZM1118.93 173.19L1118.93 175.09L1136.36 185.18L1136.36 183.28L1118.93 173.19ZM1116.44 179.06L1079.14 157.46L1079.14 159.35L1116.44 180.95L1116.44 179.06ZM1079.14 163.08L1136.35 196.17L1136.35 194.28L1079.14 161.18L1079.14 163.08ZM1118.93 182.36L1136.36 192.45L1136.36 190.55L1118.93 180.46L1118.93 182.36ZM1116.44 191.05L1079.14 169.46L1079.14 171.35L1116.44 192.95L1116.44 191.05ZM1079.14 175.08L1136.35 208.17L1136.35 206.28L1079.14 173.18L1079.14 175.08ZM1118.93 194.36L1136.36 204.45L1136.36 202.55L1118.93 192.46L1118.93 194.36ZM1116.44 198.32L1079.14 176.72L1079.14 178.62L1116.44 200.22L1116.44 198.32ZM1079.14 182.35L1136.35 215.44L1136.35 213.54L1079.14 180.45L1079.14 182.35ZM1118.93 201.62L1136.36 211.72L1136.36 209.82L1118.93 199.73L1118.93 201.62ZM1116.44 210.32L1079.14 188.72L1079.14 190.62L1116.44 212.22L1116.44 210.32ZM1079.14 194.35L1136.35 227.44L1136.35 225.54L1079.14 192.45L1079.14 194.35ZM1118.93 213.62L1136.36 223.72L1136.36 221.82L1118.93 211.73L1118.93 213.62ZM1116.44 217.59L1079.14 195.99L1079.14 197.89L1116.44 219.49L1116.44 217.59ZM1079.14 201.61L1136.35 234.71L1136.35 232.81L1079.14 199.72L1079.14 201.61ZM1118.93 220.89L1136.36 230.98L1136.36 229.09L1118.93 219L1118.93 220.89Z" />
		<path id="Path 83" class="shp3" d="M1015.82 198.95L987.96 182.87C986.6 182.09 984.9 183.07 984.9 184.64L984.9 217.99C984.9 219.61 985.77 221.11 987.18 221.93L1015.03 238.03C1016.43 238.84 1018.17 237.83 1018.17 236.22L1018.17 203.01C1018.17 201.33 1017.27 199.79 1015.82 198.95Z" />
		<path id="Path 86" class="shp4" d="M996.64 284L996.58 284.03L996.58 284.02C996.6 284.01 996.62 284.01 996.64 284Z" />
		<path id="Path 89" class="shp2" d="M917.2 228.77L917.2 230.91L926.2 236.1L926.2 233.96L917.2 228.77ZM917.2 232.68L917.2 234.82L926.2 240.01L926.2 237.87L917.2 232.68ZM917.2 236.59L917.2 238.74L926.2 243.92L926.2 241.78L917.2 236.59ZM985.07 281.8L985.07 279.66L929.57 247.64L929.57 249.78L985.07 281.8ZM917.2 240.51L917.2 242.65L926.2 247.83L926.2 245.69L917.2 240.51ZM917.2 244.42L917.2 246.56L926.2 251.74L926.2 249.6L917.2 244.42ZM985.07 285.71L985.07 283.57L929.57 251.55L929.57 253.69L985.07 285.71ZM917.2 256.15L917.2 258.29L926.2 263.48L926.2 261.34L917.2 256.15ZM917.2 260.06L917.2 262.2L926.2 267.39L926.2 265.25L917.2 260.06ZM917.2 275.71L917.2 277.85L926.2 283.03L926.2 280.89L917.2 275.71ZM917.2 279.62L917.2 281.76L926.2 286.94L926.2 284.8L917.2 279.62ZM964.59 306.95L929.57 286.75L929.57 288.89L964.59 309.09L964.59 306.95ZM966.43 308.01L966.43 310.15L985.07 320.91L985.07 318.76L966.43 308.01ZM947.16 292.99L929.57 282.84L929.57 284.98L947.16 295.13L947.16 292.99ZM949.01 294.05L949.01 296.19L985.07 317L985.07 314.85L949.01 294.05ZM980.33 300.39L980.33 302.53L985.07 305.26L985.07 303.12L980.33 300.39ZM954.51 281.58L929.57 267.19L929.57 269.33L954.51 283.72L954.51 281.58ZM944.29 244.4L929.57 235.91L929.57 238.05L944.29 246.54L944.29 244.4ZM968.42 258.32L946.14 245.46L946.14 247.61L968.42 260.46L968.42 258.32ZM955.43 254.73L939.74 245.69L939.74 247.83L955.43 256.88L955.43 254.73ZM971.89 264.23L957.28 255.8L957.28 257.94L971.89 266.37L971.89 264.23ZM973.74 265.3L973.74 267.44L985.07 273.98L985.07 271.83L973.74 265.3ZM932.47 245.4L932.47 247.54L944.29 254.36L944.29 252.22L932.47 245.4ZM980.45 273.08L946.14 253.28L946.14 255.43L980.45 275.22L980.45 273.08ZM960.8 273.48L938.38 260.54L938.38 262.69L960.8 275.62L960.8 273.48ZM980.45 284.81L962.65 274.54L962.65 276.69L980.45 286.95L980.45 284.81ZM978.48 295.41L956.36 282.64L956.36 284.78L978.48 297.55L978.48 295.41ZM966.43 292.37L966.43 294.51L978.48 301.46L978.48 299.32L966.43 292.37ZM933.91 273.61L929.57 271.11L929.57 273.25L933.91 275.75L933.91 273.61ZM942.04 278.3L942.04 280.44L964.59 293.44L964.59 291.3L942.04 278.3ZM940.19 277.23L935.76 274.67L935.76 276.81L940.19 279.37L940.19 277.23ZM960.41 292.81L935.76 278.59L935.76 280.73L960.41 294.95L960.41 292.81Z" />
		<path id="Path 90" class="shp3" d="M1185.39 256.61L1157.53 240.53C1156.17 239.75 1154.47 240.73 1154.47 242.3L1154.47 275.65C1154.47 277.27 1155.34 278.77 1156.75 279.58L1184.6 295.69C1186 296.49 1187.74 295.49 1187.74 293.88L1187.74 260.67C1187.74 258.99 1186.85 257.44 1185.39 256.61ZM1223.44 192.15L1195.58 176.08C1194.22 175.29 1192.52 176.28 1192.52 177.84L1192.52 211.19C1192.52 212.82 1193.39 214.32 1194.8 215.13L1222.65 231.24C1224.05 232.04 1225.79 231.03 1225.79 229.42L1225.79 196.22C1225.79 194.54 1224.89 192.99 1223.44 192.15ZM1309.46 366.51L1281.6 350.43C1280.24 349.65 1278.54 350.63 1278.54 352.2L1278.54 385.55C1278.54 387.17 1279.41 388.67 1280.81 389.49L1308.67 405.59C1310.06 406.4 1311.81 405.39 1311.81 403.78L1311.81 370.57C1311.81 368.9 1310.91 367.35 1309.46 366.51ZM1066.97 284.47L1039.11 268.39C1037.75 267.6 1036.05 268.59 1036.05 270.16L1036.05 303.51C1036.05 305.13 1036.92 306.63 1038.32 307.44L1066.18 323.55C1067.57 324.35 1069.32 323.35 1069.32 321.74L1069.32 288.53C1069.32 286.85 1068.42 285.3 1066.97 284.47Z" />
		<path id="Path 91" class="shp5" d="M962.1 558.51C954.7 558.58 957.13 552.96 957.13 552.96C946.15 549.62 940.77 551.48 940.76 551.48C938.01 561.17 939.11 567.02 939.01 569.35C938.96 570.5 939.82 571.21 940.9 571.61C946.8 573.81 952.17 575.27 963.17 574.2C971.26 573.41 979.82 565.92 977.88 558.22C976.66 553.44 969.59 558.44 962.1 558.51Z" />
		<path id="Path 92" class="shp6" d="M958.93 488.98C956.76 486.17 953.04 483.76 946.89 485.39L880.75 498.14L883.24 515.13C883.24 515.13 893.37 528.48 911.1 523.42C928.83 518.35 940.34 510.06 940.34 510.06L938.11 556.93C938.11 556.93 948.48 560.14 957.71 554.57C959.26 553.63 960.71 508.45 961.17 496.84C961.3 493.65 960.89 491.52 958.93 488.98Z" />
		<path id="Path 93" class="shp7" d="M993.83 572.07C986.16 572.15 988.68 566.31 988.68 566.31C977.28 562.83 971.69 564.77 971.68 564.77C968.83 574.83 969.97 580.9 969.87 583.32C969.82 584.52 970.71 585.25 971.83 585.67C977.96 587.95 983.53 589.47 994.95 588.36C1003.35 587.54 1012.24 579.76 1010.22 571.77C1008.96 566.8 1001.62 572 993.83 572.07Z" />
		<path id="Path 94" class="shp4" d="M918.69 553.43L861.93 520.62L861.93 528.6L918.69 561.33L918.69 553.43Z" />
		<path id="Path 95" class="shp8" d="M913.51 490.97L861.93 520.62L918.69 553.43L970.34 523.74L913.51 490.97Z" />
		<path id="Path 96" class="shp9" d="M970.34 523.74L918.69 553.43L918.69 561.33L970.34 531.45L970.34 523.74Z" />
		<path id="Path 97" class="shp10" d="M990.55 499.88C988.29 496.95 984.43 494.45 978.04 496.15L909.38 509.39L911.96 527.03C911.96 527.03 922.48 540.89 940.88 535.63C959.29 530.37 971.24 521.77 971.24 521.77L968.93 570.43C968.93 570.43 979.7 573.77 989.28 567.98C990.89 567.01 992.39 520.09 992.88 508.04C993.01 504.72 992.58 502.51 990.55 499.88Z" />
		<path id="Path 98" class="shp11" d="M867.86 400.56L985.09 332.5C990.06 329.62 996.19 329.61 1001.16 332.48L1185.85 439.33C1190.56 442.04 1190.56 448.83 1185.86 451.56L1071.23 518.1C1065.33 521.53 1058.05 521.54 1052.13 518.13L867.87 411.53C863.65 409.09 863.64 403.01 867.86 400.56Z" />
		<path id="Path 99" class="shp9" d="M867.87 411.53L1052.13 518.13C1058.04 521.54 1065.33 521.53 1071.23 518.1L1185.86 451.56C1188.2 450.2 1189.37 447.84 1189.38 445.47L1189.38 454.23L1189.38 454.3L1189.38 454.41L1189.37 454.41C1189.32 456.74 1188.16 459.05 1185.86 460.39L1071.23 526.93C1065.33 530.35 1058.04 530.36 1052.13 526.95L867.87 420.35C865.75 419.13 864.69 416.98 864.71 414.83L864.7 414.83L864.7 406.07C864.71 408.19 865.77 410.32 867.87 411.53Z" />
		<path id="Path 100" class="shp4" d="M867.87 411.53L1052.13 518.13C1054.84 519.69 1057.84 520.5 1060.86 520.63L1060.86 529.45C1057.84 529.32 1054.84 528.51 1052.13 526.95L867.87 420.35C865.75 419.13 864.69 416.98 864.71 414.83L864.7 414.83L864.7 406.07C864.71 408.19 865.77 410.32 867.87 411.53Z" />
		<path id="Path 101" class="shp12" d="M954.48 425.17L974.38 413.66C975.32 413.12 976.47 413.11 977.41 413.65L1038.85 449.19C1039.74 449.7 1039.74 450.98 1038.85 451.49L1019.45 462.72C1018.34 463.37 1016.96 463.37 1015.85 462.72L954.49 427.23C953.69 426.78 953.69 425.63 954.48 425.17Z" />
		<path id="Path 102" class="shp13" d="M954.49 427.23L1015.85 462.72C1016.96 463.36 1018.34 463.36 1019.45 462.72L1038.85 451.49C1039.29 451.24 1039.51 450.79 1039.52 450.35L1039.52 452.69L1039.52 452.71L1039.52 452.73L1039.51 452.73C1039.5 453.17 1039.29 453.6 1038.85 453.85L1019.45 465.08C1018.34 465.72 1016.96 465.73 1015.85 465.08L954.49 429.59C954.09 429.36 953.89 428.96 953.89 428.55L953.89 426.2C953.89 426.61 954.09 427.01 954.49 427.23Z" />
		<path id="Path 103" class="shp14" d="M974.15 416.89L976.64 415.44L979.47 417.08L976.99 418.52L974.15 416.89ZM977.68 418.92L980.18 417.47L983.01 419.11L980.52 420.55L977.68 418.92ZM981.21 420.95L983.71 419.51L986.54 421.14L984.05 422.58L981.21 420.95ZM984.75 422.99L987.24 421.54L990.07 423.17L987.59 424.61L984.75 422.99ZM988.28 425.02L990.77 423.57L993.6 425.21L991.12 426.65L988.28 425.02ZM991.81 427.05L994.3 425.61L997.13 427.24L994.65 428.68L991.81 427.05ZM995.34 429.09L997.83 427.64L1000.67 429.27L998.18 430.71L995.34 429.09ZM998.88 431.12L1001.37 429.67L1004.2 431.31L1001.71 432.75L998.88 431.12ZM1002.41 433.15L1004.9 431.71L1007.73 433.34L1005.25 434.78L1002.41 433.15ZM1005.94 435.18L1008.43 433.74L1011.26 435.37L1008.78 436.81L1005.94 435.18ZM1009.47 437.22L1011.96 435.77L1014.79 437.41L1012.31 438.85L1009.47 437.22ZM1013 439.25L1015.49 437.8L1018.32 439.44L1015.84 440.88L1013 439.25ZM1019.03 439.84L1021.86 441.47L1019.37 442.91L1016.53 441.28L1019.03 439.84ZM973.77 420.38L970.93 418.76L973.42 417.31L976.25 418.94L973.77 420.38ZM979.78 420.98L977.3 422.42L974.46 420.79L976.95 419.35L979.78 420.98ZM983.31 423.01L980.83 424.45L977.99 422.82L980.48 421.38L983.31 423.01ZM986.85 425.04L984.36 426.48L981.52 424.85L984.02 423.41L986.85 425.04ZM990.38 427.07L987.9 428.52L985.06 426.89L987.55 425.44L990.38 427.07ZM993.91 429.11L991.43 430.55L988.59 428.92L991.08 427.48L993.91 429.11ZM997.44 431.14L994.96 432.58L992.12 430.95L994.61 429.51L997.44 431.14ZM1000.97 433.17L998.49 434.62L995.65 432.99L998.14 431.54L1000.97 433.17ZM1004.51 435.21L1002.02 436.65L999.18 435.02L1001.67 433.58L1004.51 435.21ZM1008.04 437.24L1005.56 438.68L1002.72 437.05L1005.21 435.61L1008.04 437.24ZM1011.57 439.27L1009.09 440.71L1006.25 439.08L1008.74 437.64L1011.57 439.27ZM1015.1 441.31L1012.62 442.75L1009.78 441.12L1012.27 439.67L1015.1 441.31ZM1015.8 441.71L1018.63 443.34L1016.15 444.78L1013.31 443.15L1015.8 441.71ZM970.54 422.25L967.7 420.62L970.2 419.18L973.03 420.81L970.54 422.25ZM976.56 422.84L974.08 424.28L971.24 422.66L973.73 421.21L976.56 422.84ZM974.77 424.69L977.26 423.24L980.09 424.88L977.61 426.32L974.77 424.69ZM983.62 426.91L981.14 428.35L978.3 426.72L980.79 425.28L983.62 426.91ZM987.15 428.94L984.67 430.38L981.83 428.75L984.32 427.31L987.15 428.94ZM990.69 430.98L988.2 432.42L985.36 430.79L987.86 429.34L990.69 430.98ZM994.22 433.01L991.73 434.45L988.9 432.82L991.39 431.38L994.22 433.01ZM997.75 435.04L995.27 436.48L992.43 434.85L994.92 433.41L997.75 435.04ZM1001.28 437.07L998.8 438.51L995.96 436.89L998.45 435.44L1001.28 437.07ZM1004.81 439.11L1002.33 440.55L999.49 438.92L1001.98 437.48L1004.81 439.11ZM1008.35 441.14L1005.86 442.58L1003.02 440.95L1005.51 439.51L1008.35 441.14ZM1006.55 442.98L1009.05 441.54L1011.88 443.17L1009.39 444.61L1006.55 442.98ZM1012.58 443.57L1015.41 445.2L1012.93 446.65L1010.09 445.02L1012.58 443.57ZM967.32 424.12L964.48 422.49L966.97 421.05L969.8 422.68L967.32 424.12ZM968.01 424.52L970.5 423.08L973.34 424.71L970.85 426.15L968.01 424.52ZM971.54 426.56L974.04 425.11L976.87 426.75L974.38 428.18L971.54 426.56ZM975.08 428.59L977.57 427.14L980.4 428.78L977.92 430.22L975.08 428.59ZM978.61 430.62L981.1 429.18L983.93 430.81L981.45 432.25L978.61 430.62ZM982.14 432.65L984.63 431.21L987.46 432.84L984.98 434.28L982.14 432.65ZM985.67 434.69L988.16 433.24L990.99 434.88L988.51 436.32L985.67 434.69ZM989.2 436.72L991.7 435.28L994.53 436.91L992.04 438.35L989.2 436.72ZM992.74 438.75L995.23 437.31L998.06 438.94L995.57 440.38L992.74 438.75ZM996.27 440.79L998.76 439.34L1001.59 440.98L999.11 442.41L996.27 440.79ZM999.8 442.82L1002.29 441.37L1005.12 443.01L1002.64 444.45L999.8 442.82ZM1003.33 444.85L1005.82 443.41L1008.65 445.04L1006.17 446.48L1003.33 444.85ZM1009.35 445.44L1012.19 447.07L1009.7 448.51L1006.86 446.89L1009.35 445.44ZM964.1 425.99L961.26 424.36L963.75 422.91L966.58 424.54L964.1 425.99ZM964.79 426.39L967.28 424.95L970.11 426.58L967.63 428.02L964.79 426.39ZM968.32 428.42L970.81 426.98L973.64 428.61L971.16 430.05L968.32 428.42ZM971.85 430.46L974.34 429.01L977.18 430.65L974.69 432.08L971.85 430.46ZM975.38 432.49L977.88 431.04L980.71 432.68L978.22 434.12L975.38 432.49ZM978.92 434.52L981.41 433.08L984.24 434.71L981.76 436.15L978.92 434.52ZM982.45 436.56L984.94 435.11L987.77 436.74L985.29 438.18L982.45 436.56ZM985.98 438.59L988.47 437.14L991.3 438.78L988.82 440.22L985.98 438.59ZM989.51 440.62L992 439.18L994.83 440.81L992.35 442.25L989.51 440.62ZM993.04 442.65L995.54 441.21L998.37 442.84L995.88 444.28L993.04 442.65ZM996.57 444.69L999.07 443.24L1001.9 444.88L999.41 446.31L996.57 444.69ZM1000.11 446.72L1002.6 445.27L1005.43 446.91L1002.95 448.35L1000.11 446.72ZM1006.13 447.31L1008.96 448.94L1006.48 450.38L1003.64 448.75L1006.13 447.31ZM960.53 424.78L963.36 426.41L960.87 427.85L958.03 426.23L960.53 424.78ZM966.89 428.45L964.4 429.89L961.57 428.26L964.06 426.81L966.89 428.45ZM970.42 430.48L967.94 431.92L965.1 430.29L967.59 428.85L970.42 430.48ZM973.95 432.51L971.47 433.95L968.63 432.32L971.12 430.88L973.95 432.51ZM977.48 434.54L975 435.99L972.16 434.36L974.65 432.91L977.48 434.54ZM981.02 436.58L978.53 438.02L975.69 436.39L978.18 434.94L981.02 436.58ZM981.72 436.98L985.25 439.01L985.94 439.41L988.78 441.04L990.22 441.87L992.31 443.08L992.31 443.08L994.54 444.36L998.67 446.74L996.19 448.18L991.87 445.7L989.82 444.52L989.82 444.52L987.67 443.28L986.29 442.49L986.29 442.49L983.5 440.88L982.76 440.46L982.76 440.46L979.22 438.42L981.72 436.98ZM1002.21 448.78L999.72 450.22L996.88 448.59L999.37 447.14L1002.21 448.78ZM1005.74 450.81L1003.25 452.25L1000.42 450.62L1002.91 449.18L1005.74 450.81ZM1023.6 445.35L1026.09 443.9L1028.92 445.53L1026.44 446.97L1023.6 445.35ZM1027.13 447.38L1029.62 445.93L1032.45 447.57L1029.97 449.01L1027.13 447.38ZM1030.66 449.41L1033.15 447.97L1035.98 449.6L1033.5 451.04L1030.66 449.41ZM1025.7 447.4L1023.21 448.84L1020.37 447.21L1022.87 445.77L1025.7 447.4ZM1029.23 449.43L1026.74 450.88L1023.9 449.25L1026.4 447.8L1029.23 449.43ZM1032.76 451.47L1030.28 452.91L1027.44 451.28L1029.93 449.84L1032.76 451.47ZM1022.47 449.27L1019.99 450.71L1017.15 449.08L1019.64 447.64L1022.47 449.27ZM1026 451.3L1023.52 452.74L1020.68 451.11L1023.17 449.67L1026 451.3ZM1029.54 453.33L1027.05 454.78L1024.21 453.15L1026.71 451.7L1029.54 453.33ZM1013.93 450.95L1016.42 449.5L1019.25 451.14L1016.76 452.58L1013.93 450.95ZM1017.46 452.98L1019.95 451.54L1022.78 453.17L1020.3 454.61L1017.46 452.98ZM1020.99 455.01L1023.48 453.57L1026.31 455.2L1023.83 456.64L1020.99 455.01ZM1010.7 452.82L1013.19 451.37L1016.02 453.01L1013.54 454.44L1010.7 452.82ZM1014.23 454.85L1016.72 453.4L1019.56 455.04L1017.07 456.48L1014.23 454.85ZM1017.77 456.88L1020.26 455.44L1023.09 457.07L1020.6 458.51L1017.77 456.88ZM1012.8 454.87L1010.32 456.31L1007.48 454.68L1009.97 453.24L1012.8 454.87ZM1016.33 456.9L1013.85 458.34L1011.01 456.71L1013.5 455.27L1016.33 456.9ZM998.63 406.07L1018.2 394.71C1019.02 394.23 1020.05 394.23 1020.88 394.71L1067.32 421.51C1068.1 421.96 1068.1 423.1 1067.32 423.55L1048.18 434.66C1047.19 435.23 1045.98 435.23 1044.99 434.67L998.63 407.9C997.92 407.5 997.92 406.48 998.63 406.07Z" />
		<path id="Path 104" class="shp15" d="M998.63 407.9L1044.99 434.67C1045.98 435.23 1047.2 435.23 1048.18 434.66L1067.32 423.55C1067.71 423.33 1067.91 422.93 1067.91 422.54L1067.91 424.91L1067.91 424.92L1067.91 424.94L1067.9 424.94C1067.9 425.33 1067.7 425.71 1067.32 425.94L1048.18 437.05C1047.2 437.62 1045.98 437.62 1044.99 437.05L998.63 410.29C998.27 410.08 998.1 409.72 998.1 409.36L998.1 406.99C998.1 407.35 998.28 407.7 998.63 407.9Z" />
		<path id="Path 105" class="shp13" d="M998.63 407.9L1044.99 434.67C1045.45 434.93 1045.95 435.06 1046.45 435.08L1046.45 437.47C1045.95 437.45 1045.45 437.31 1044.99 437.05L998.63 410.29C998.27 410.09 998.1 409.73 998.1 409.37L998.1 406.99C998.1 407.35 998.28 407.7 998.63 407.9Z" />
		<path id="Path 106" class="shp12" d="M1049.4 407.86L1013.31 386.98L1013.31 404.86L1049.4 425.73L1049.4 407.86Z" />
		<path id="Path 107" class="shp15" d="M1018.33 384.09L1013.31 386.98L1049.4 407.86L1054.44 404.97L1018.33 384.09ZM1054.44 404.97L1049.4 407.86L1049.4 425.73L1054.44 422.8L1054.44 404.97Z" />
		<path id="Path 108" class="shp16" d="M976.83 376.45L1086.53 440.33L1086.54 359.6L976.83 295.97L976.83 376.45Z" />
		<path id="Path 109" class="shp15" d="M1086.54 359.6L1090.19 357.39L1090.19 438.12L1086.54 440.33L1086.54 359.6Z" />
		<path id="Path 110" class="shp14" d="M976.83 295.97L980.56 293.81L1090.19 357.39L1086.54 359.6L976.83 295.97Z" />
		<path id="Path 111" fill-rule="evenodd" class="shp13" d="M1086.54 359.6L1086.54 440.34L976.83 376.45L976.83 295.97L1086.54 359.6ZM1083.94 361.1L979.43 300.48L979.43 374.96L1083.94 435.82L1083.94 361.1Z" />
		<path id="Path 112" class="shp17" d="M936.21 395.65C935.07 407.18 926.56 415.78 917.21 414.85C907.85 413.93 901.19 403.84 902.33 392.3C903.47 380.77 911.97 372.17 921.33 373.1C930.68 374.02 937.34 384.11 936.21 395.65Z" />
		<path id="Path 113" class="shp18" d="M950.18 422.53C950.18 422.53 954.25 423.51 955.66 423.65C957.07 423.79 962.41 424.9 964.6 424.24C966.78 423.57 962.68 422.12 961.67 421.37C960.66 420.62 960.7 418.74 962.91 418.07C965.11 417.41 970.1 417.72 972.73 417.35C975.37 416.97 970.11 408.99 965.82 408.24C961.52 407.5 957.84 407.96 954.05 409.83C950.38 411.64 948.38 414.69 946.67 415.28L950.18 422.53Z" />
		<path id="Path 114" class="shp19" d="M950.65 411.64L922.84 418.61L921.44 436.28L954.27 425.03C954.95 418.77 950.65 411.64 950.65 411.64ZM882.06 419.11C882.06 419.11 874.37 428.81 882.06 442.15C882.06 442.15 887.44 449.59 902.2 442.31L882.06 419.11Z" />
		<path id="Path 115" class="shp20" d="M904.86 407.79C904.86 407.79 916.84 406.97 926.25 413.55C926.25 413.55 926.95 415.53 928.83 416.78C930.71 418.03 940.04 421.77 940.04 421.77C940.04 421.77 935.92 476.52 940.64 503.17C940.64 503.17 920.38 519 888.72 503.17C888.72 503.17 884.1 435.96 882.06 419.11C882.06 419.11 887.33 412.59 904.86 407.79Z" />
		<path id="Path 116" class="shp4" d="M899.58 498.16L842.82 465.35L861.93 520.7L918.69 553.43L899.58 498.16Z" />
		<path id="Path 117" class="shp8" d="M849.09 461.71L842.82 465.35L899.58 498.16L905.92 494.48L849.09 461.71Z" />
		<path id="Path 118" class="shp9" d="M905.92 494.48L899.58 498.16L918.69 553.43L925.1 549.74L905.92 494.48Z" />
		<path id="Path 119" class="shp18" d="M987.57 446.77C987.57 446.77 990.67 443.65 991.86 442.76C993.04 441.87 997.21 437.94 999.55 437.42C1001.89 436.9 997.89 440.95 997.41 442.22C996.93 443.48 999.8 441.21 1001.99 440.39C1004.25 439.54 1006.75 439.69 1009.43 440.64C1014.8 442.55 1014.54 453.3 1010.15 452.03C1002.92 449.94 999.67 455.67 995.36 456.88C992.37 457.72 991.12 457.66 989.25 458L987.57 446.77Z" />
		<path id="Path 120" class="shp19" d="M940.04 421.77L963.51 452.88L987.9 445.67C987.9 445.67 993.14 452.27 991.44 459.27L958.88 471.94L932.42 442.83C932.42 442.83 923.56 424.37 940.04 421.77Z" />
		<path id="Path 121" class="shp7" d="M926.96 363.25C926.96 363.25 928.76 367.58 920.12 368.75C911.51 369.92 900.81 374.22 898 383.33C896.21 389.16 898.29 395.42 901.21 400.5C902.22 402.24 903.33 403.97 904.65 405.5C904.65 405.5 910.42 407.06 917.38 403.31C917.38 403.31 921.66 400.45 924.23 394.95C924.23 394.95 929.37 397.1 930.98 392.81C932.16 389.67 935.88 388.88 937.9 387.16C937.9 387.16 949.57 368.1 926.96 363.25Z" />
		<path id="Path 122" class="shp4" d="M1249.11 528.88L1211.51 507.05L1211.51 521.12L1249.12 542.89L1249.11 528.88Z" />
		<path id="Path 123" class="shp8" d="M1250.38 484.71L1211.5 507.05L1249.11 528.88L1288.04 506.51L1250.38 484.71Z" />
		<path id="Path 124" class="shp9" d="M1288.04 506.51L1249.11 528.88L1249.12 542.89L1288.04 520.37L1288.04 506.51Z" />
		<path id="Path 125" class="shp4" d="M1249.11 505.86L1211.51 484.03L1211.51 498.1L1249.12 519.87L1249.11 505.86Z" />
		<path id="Path 126" class="shp8" d="M1250.38 461.69L1211.5 484.03L1249.11 505.86L1288.04 483.49L1250.38 461.69Z" />
		<path id="Path 127" class="shp9" d="M1288.04 483.49L1249.11 505.86L1249.12 519.87L1288.04 497.35L1288.04 483.49Z" />
		<path id="Path 128" class="shp4" d="M1185.51 565.71L1147.9 543.88L1147.9 557.95L1185.51 579.72L1185.51 565.71Z" />
		<path id="Path 129" class="shp8" d="M1186.77 521.54L1147.9 543.88L1185.51 565.71L1224.43 543.33L1186.77 521.54Z" />
		<path id="Path 130" class="shp9" d="M1224.44 543.33L1185.51 565.71L1185.51 579.71L1224.44 557.2L1224.44 543.33Z" />
		<path id="Path 131" class="shp4" d="M1185.51 542.69L1147.9 520.86L1147.9 534.93L1185.51 556.7L1185.51 542.69Z" />
		<path id="Path 132" class="shp8" d="M1186.77 498.52L1147.9 520.86L1185.51 542.69L1224.43 520.32L1186.77 498.52Z" />
		<path id="Path 133" class="shp9" d="M1224.44 520.32L1185.51 542.69L1185.51 556.7L1224.44 534.18L1224.44 520.32Z" />
		<path id="Path 134" class="shp4" d="M1121.91 602.53L1084.3 580.7L1084.3 594.78L1121.91 616.54L1121.91 602.53Z" />
		<path id="Path 135" class="shp8" d="M1123.17 558.37L1084.3 580.7L1121.91 602.53L1160.83 580.16L1123.17 558.37Z" />
		<path id="Path 136" class="shp9" d="M1160.83 580.16L1121.91 602.53L1121.91 616.54L1160.83 594.02L1160.83 580.16Z" />
		<path id="Path 137" class="shp4" d="M1121.91 579.52L1084.3 557.69L1084.3 571.76L1121.91 593.53L1121.91 579.52Z" />
		<path id="Path 138" class="shp8" d="M1123.17 535.35L1084.3 557.69L1121.91 579.52L1160.83 557.15L1123.17 535.35Z" />
		<path id="Path 139" class="shp9" d="M1160.83 557.15L1121.91 579.52L1121.91 593.53L1160.83 571.01L1160.83 557.15Z" />
		<path id="Path 140" fill-rule="evenodd" class="shp6" d="M1133.64 565.73L1131.28 564.37C1129.58 565.04 1127.69 565.48 1125.75 565.7L1125.76 567.62L1120.02 567.62L1120.01 565.7C1118.06 565.48 1116.17 565.03 1114.47 564.37L1112.12 565.73L1108.05 563.38L1110.4 562.02C1109.24 561.03 1108.47 559.94 1108.08 558.81L1104.75 558.81L1104.74 555.49L1108.06 555.49C1108.43 554.36 1109.19 553.27 1110.34 552.28L1107.98 550.92L1112.02 548.57L1114.38 549.93C1116.08 549.26 1117.97 548.82 1119.91 548.6L1119.9 546.67L1125.64 546.67L1125.65 548.6C1127.6 548.82 1129.49 549.26 1131.19 549.93L1133.54 548.56L1137.61 550.92L1135.27 552.28C1136.42 553.27 1137.19 554.36 1137.58 555.49L1140.91 555.49L1140.92 558.81L1137.59 558.81C1137.23 559.94 1136.47 561.03 1135.32 562.02L1137.68 563.38L1133.64 565.73ZM1117.53 560.23C1120.48 561.94 1125.24 561.94 1128.17 560.23C1131.1 558.53 1131.09 555.77 1128.14 554.07C1125.19 552.36 1120.42 552.36 1117.49 554.07C1114.56 555.77 1114.58 558.53 1117.53 560.23Z" />
		<path id="Path 141" class="shp21" d="M1189.65 510.66L1193.3 518.47L1196.96 526.29L1183.46 524.19L1169.97 522.1L1179.81 516.38L1189.65 510.66Z" />
		<path id="Path 142" class="shp22" d="M1235.66 481.82C1233.63 480.64 1234.55 478.93 1238.41 476.68C1240.27 475.6 1241.99 474.91 1243.54 474.6C1245.11 474.3 1246.34 474.4 1247.23 474.92C1247.69 475.18 1248.02 475.48 1248.22 475.83C1248.42 476.17 1248.57 476.5 1248.68 476.84L1252.23 475.97C1252.02 475.35 1251.7 474.83 1251.3 474.41C1250.91 473.98 1250.4 473.61 1249.79 473.25C1247.93 472.17 1245.72 471.77 1243.15 472.05C1240.59 472.33 1237.96 473.25 1235.25 474.83C1232.54 476.4 1230.94 477.92 1230.46 479.37C1229.97 480.83 1230.68 482.11 1232.57 483.2C1233.85 483.94 1235.17 484.39 1236.54 484.54L1239.3 482.94C1237.76 482.7 1236.55 482.33 1235.66 481.82ZM1252.55 486.12C1252.88 485.42 1252.86 484.55 1252.5 483.49C1252.22 482.71 1252.12 482.1 1252.21 481.67C1252.3 481.24 1252.63 480.86 1253.2 480.53C1253.77 480.2 1254.36 480.02 1254.96 479.99C1255.57 479.95 1256.12 480.08 1256.63 480.37C1257.09 480.63 1257.44 480.93 1257.67 481.26C1257.9 481.59 1258.1 481.93 1258.26 482.26L1261.78 481.41C1261.3 480.31 1260.42 479.39 1259.14 478.65C1257.79 477.87 1256.3 477.49 1254.65 477.51C1253.02 477.53 1251.49 477.97 1250.06 478.8C1249.31 479.23 1248.74 479.67 1248.39 480.11C1248.03 480.56 1247.81 481.02 1247.72 481.5C1247.65 481.98 1247.71 482.57 1247.95 483.27C1248.21 484.08 1248.29 484.72 1248.19 485.19C1248.1 485.67 1247.76 486.07 1247.2 486.4C1246.64 486.72 1246.05 486.89 1245.41 486.91C1244.78 486.92 1244.17 486.76 1243.57 486.41C1242.52 485.81 1241.78 484.91 1241.33 483.7L1238.26 485.49C1238.72 486.42 1239.67 487.3 1241.14 488.15C1242.64 489.01 1244.19 489.43 1245.82 489.4C1247.44 489.38 1249.03 488.91 1250.59 488C1251.56 487.44 1252.22 486.81 1252.55 486.12ZM1268.87 484.26C1267.52 483.48 1266.02 483.1 1264.38 483.13C1262.75 483.15 1261.21 483.58 1259.79 484.41C1259.04 484.85 1258.48 485.29 1258.12 485.73C1257.76 486.17 1257.54 486.64 1257.45 487.12C1257.38 487.6 1257.45 488.19 1257.67 488.89C1257.94 489.69 1258.01 490.33 1257.92 490.81C1257.82 491.29 1257.49 491.69 1256.93 492.01C1256.37 492.34 1255.78 492.51 1255.15 492.53C1254.51 492.54 1253.9 492.38 1253.3 492.03C1252.25 491.42 1251.51 490.52 1251.07 489.32L1247.99 491.11C1248.45 492.03 1249.41 492.92 1250.87 493.76C1252.36 494.63 1253.93 495.05 1255.54 495.02C1257.17 494.99 1258.77 494.53 1260.33 493.63C1261.3 493.06 1261.94 492.43 1262.28 491.73C1262.61 491.04 1262.6 490.17 1262.22 489.11C1261.95 488.33 1261.86 487.72 1261.95 487.29C1262.03 486.86 1262.36 486.48 1262.93 486.15C1263.5 485.82 1264.09 485.64 1264.69 485.6C1265.3 485.57 1265.85 485.69 1266.36 485.99C1266.83 486.25 1267.17 486.55 1267.4 486.88C1267.63 487.21 1267.83 487.54 1267.99 487.88L1271.51 487.03C1271.03 485.93 1270.15 485 1268.87 484.26Z" />
		<path id="Path 143" class="shp23" d="M1248.28 358.65L1211.75 337.57C1210.63 336.93 1209.35 336.96 1208.09 337.72L1208.09 337.72L1200.07 342.35L1203.8 347.4L1205.19 349L1205.19 385.19C1205.19 387.34 1206.34 389.33 1208.2 390.41L1235.54 406.21L1235.82 407.73L1241.4 415.55L1249.98 410.51C1249.99 410.5 1250.01 410.49 1250.02 410.48L1250.08 410.45L1250.08 410.44C1250.85 409.97 1251.39 409.13 1251.39 408.1L1251.39 364.04C1251.39 361.82 1250.2 359.76 1248.28 358.65Z" />
		<path id="Path 144" class="shp24" d="M1239.74 363.67L1202.78 342.34C1200.97 341.3 1198.72 342.61 1198.72 344.69L1198.72 388.93C1198.72 391.08 1199.87 393.07 1201.74 394.15L1238.69 415.51C1240.54 416.58 1242.85 415.25 1242.85 413.11L1242.85 369.06C1242.85 366.83 1241.66 364.78 1239.74 363.67Z" />
		<path id="Path 145" class="shp4" d="M1241.45 415.52L1241.4 415.55L1241.4 415.54C1241.41 415.53 1241.44 415.53 1241.45 415.52Z" />
		<path id="Path 146" class="shp25" d="M1242.85 413.11L1242.85 369.06C1242.85 368.32 1242.68 367.61 1242.43 366.94L1251 362C1251.23 362.65 1251.39 363.33 1251.39 364.04L1251.39 408.09C1251.39 409.13 1250.85 409.97 1250.08 410.44L1250.08 410.45L1250.02 410.48C1250.01 410.49 1249.99 410.5 1249.98 410.51L1241.47 415.51C1242.28 415.04 1242.85 414.18 1242.85 413.11Z" />
		<path id="Path 147" class="shp26" d="M1290.07 270.66L1253.54 249.58C1252.43 248.93 1251.15 248.96 1249.89 249.72L1249.89 249.72L1241.87 254.35L1245.6 259.41L1246.99 261L1246.99 297.19C1246.99 299.34 1248.13 301.34 1250 302.41L1277.34 318.22L1277.62 319.74L1283.2 327.56L1291.78 322.51C1291.79 322.5 1291.81 322.5 1291.82 322.49L1291.88 322.45L1291.88 322.45C1292.64 321.97 1293.19 321.13 1293.19 320.1L1293.19 276.05C1293.19 273.82 1292 271.77 1290.07 270.66Z" />
		<path id="Path 148" class="shp27" d="M1281.53 275.67L1244.58 254.35C1242.77 253.31 1240.52 254.61 1240.52 256.69L1240.52 300.93C1240.52 303.08 1241.67 305.08 1243.53 306.15L1280.49 327.52C1282.34 328.59 1284.65 327.25 1284.65 325.12L1284.65 281.06C1284.65 278.84 1283.46 276.78 1281.53 275.67Z" />
		<path id="Path 149" class="shp4" d="M1283.25 327.52L1283.2 327.56L1283.19 327.55C1283.21 327.54 1283.23 327.54 1283.25 327.52Z" />
		<path id="Path 150" class="shp28" d="M1284.65 325.12L1284.65 281.06C1284.65 280.32 1284.47 279.62 1284.23 278.94L1292.8 274C1293.03 274.66 1293.19 275.33 1293.19 276.05L1293.19 320.1C1293.19 321.13 1292.64 321.97 1291.88 322.45L1291.88 322.45L1291.82 322.49C1291.81 322.49 1291.79 322.5 1291.78 322.51L1283.27 327.51C1284.07 327.04 1284.65 326.18 1284.65 325.12Z" />
		<path id="Path 151" class="shp29" d="M1167.93 271.29L1131.4 250.21C1130.29 249.57 1129 249.6 1127.75 250.36L1127.75 250.36L1119.72 254.99L1123.45 260.05L1124.84 261.64L1124.84 297.83C1124.84 299.98 1125.99 301.97 1127.86 303.05L1155.2 318.86L1155.48 320.38L1161.05 328.19L1169.64 323.15C1169.65 323.14 1169.66 323.13 1169.68 323.13L1169.74 323.09L1169.74 323.09C1170.5 322.61 1171.05 321.77 1171.05 320.74L1171.05 276.68C1171.05 274.46 1169.86 272.4 1167.93 271.29Z" />
		<path id="Path 152" class="shp30" d="M1159.39 276.31L1122.43 254.99C1120.63 253.95 1118.38 255.25 1118.38 257.33L1118.38 301.57C1118.38 303.72 1119.52 305.71 1121.39 306.79L1158.34 328.16C1160.19 329.23 1162.51 327.89 1162.51 325.76L1162.51 281.7C1162.51 279.48 1161.32 277.42 1159.39 276.31Z" />
		<path id="Path 153" class="shp4" d="M1161.11 328.16L1161.06 328.19L1161.05 328.19C1161.07 328.18 1161.09 328.17 1161.11 328.16Z" />
		<path id="Path 154" class="shp31" d="M1162.51 325.76L1162.51 281.7C1162.51 280.96 1162.33 280.25 1162.08 279.58L1170.66 274.64C1170.88 275.29 1171.05 275.97 1171.05 276.68L1171.05 320.74C1171.05 321.77 1170.5 322.61 1169.74 323.09L1169.74 323.09L1169.68 323.13C1169.66 323.13 1169.65 323.14 1169.63 323.15L1161.13 328.15C1161.93 327.68 1162.51 326.82 1162.51 325.76Z" />
		<path id="Path 155" class="shp32" d="M1087.94 185.98L1051.41 164.9C1050.3 164.25 1049.02 164.28 1047.76 165.04L1047.76 165.04L1039.74 169.67L1043.47 174.73L1044.86 176.32L1044.86 212.51C1044.86 214.67 1046 216.66 1047.87 217.74L1075.21 233.54L1075.49 235.06L1081.07 242.88L1089.65 237.83C1089.66 237.83 1089.68 237.82 1089.69 237.81L1089.75 237.77L1089.75 237.77C1090.51 237.29 1091.06 236.45 1091.06 235.42L1091.06 191.37C1091.06 189.14 1089.87 187.09 1087.94 185.98Z" />
		<path id="Path 156" class="shp33" d="M1079.4 190.99L1042.44 169.67C1040.64 168.63 1038.39 169.93 1038.39 172.01L1038.39 216.25C1038.39 218.4 1039.54 220.4 1041.4 221.47L1078.36 242.84C1080.2 243.91 1082.52 242.57 1082.52 240.44L1082.52 196.38C1082.52 194.16 1081.33 192.1 1079.4 190.99Z" />
		<path id="Path 157" class="shp4" d="M1081.12 242.84L1081.07 242.88L1081.06 242.87C1081.08 242.86 1081.1 242.86 1081.12 242.84Z" />
		<path id="Path 158" class="shp34" d="M1082.52 240.44L1082.52 196.39C1082.52 195.64 1082.34 194.94 1082.1 194.26L1090.67 189.32C1090.9 189.98 1091.06 190.65 1091.06 191.37L1091.06 235.42C1091.06 236.45 1090.51 237.29 1089.75 237.77L1089.75 237.77L1089.69 237.81C1089.68 237.82 1089.66 237.82 1089.65 237.83L1081.14 242.83C1081.94 242.37 1082.52 241.5 1082.52 240.44Z" />
		<path id="Path 159" fill-rule="evenodd" class="shp8" d="M1152.05 303.69C1149.79 304.97 1146.85 304.56 1143.91 302.86C1141.62 301.54 1139.33 299.44 1137.38 296.74L1127.33 302.47L1124.41 297.4L1134.45 291.68C1131.36 284.74 1131.82 277.88 1135.83 275.6C1138.08 274.31 1141.03 274.72 1143.97 276.42C1146.92 278.12 1149.86 281.11 1152.1 284.99C1156.58 292.75 1156.56 301.12 1152.05 303.69ZM1149.16 286.67C1147.73 284.19 1145.85 282.28 1143.96 281.19C1142.08 280.1 1140.19 279.84 1138.75 280.66C1135.87 282.3 1135.85 287.65 1138.72 292.61C1140.15 295.09 1142.03 297.01 1143.91 298.09C1145.8 299.18 1147.68 299.44 1149.13 298.62C1152.01 296.98 1152.02 291.63 1149.16 286.67Z" />
		<text id="JS " style="transform: matrix(2.065,1.019,-0.873,2.017,1045.958,207.357)" >
			<tspan x="0" y="0" class="txt35" dx="0 0" >JS</tspan>
		</text>
		<path id="Path 161" class="shp8" d="M1252.62 272.87C1252.22 273.29 1252.02 274.1 1252.02 275.29L1252 280.58L1252 280.71C1252 281.72 1251.68 282.25 1251.04 282.33C1250.39 282.4 1249.48 282.09 1248.29 281.41L1248.28 285.08C1249.47 285.77 1250.38 286.52 1251.02 287.34C1251.66 288.17 1251.98 289.13 1251.98 290.22L1251.96 295.44C1251.96 296.63 1252.15 297.66 1252.55 298.56C1252.94 299.45 1253.57 300.29 1254.44 301.1C1255.3 301.9 1256.5 302.74 1258.01 303.62L1258.02 300.13C1257.04 299.53 1256.38 298.94 1256.03 298.35C1255.67 297.76 1255.51 297.07 1255.51 296.27L1255.52 291.27L1255.52 291.07C1255.53 289.07 1254.43 287.26 1252.21 285.6L1252.21 285.4C1254.4 286.3 1255.51 285.68 1255.54 283.57L1255.56 278.56C1255.56 277.75 1255.75 277.27 1256.1 277.09C1256.45 276.92 1257.11 277.1 1258.08 277.62L1258.09 274.14C1256.6 273.28 1255.42 272.74 1254.54 272.54C1253.65 272.34 1253.02 272.45 1252.62 272.87ZM1273.28 295.17C1272.66 294.37 1272.35 293.46 1272.35 292.46L1272.35 292.32L1272.36 287.04C1272.37 285.33 1271.92 283.87 1271.01 282.64C1270.1 281.42 1268.53 280.17 1266.29 278.87L1266.28 282.36C1267.25 282.96 1267.93 283.54 1268.28 284.12C1268.63 284.69 1268.8 285.39 1268.8 286.2L1268.78 291.21C1268.82 293.37 1269.94 295.27 1272.12 296.9L1272.12 297.09C1271.03 296.66 1270.2 296.57 1269.63 296.85C1269.05 297.13 1268.76 297.76 1268.76 298.76L1268.76 298.91L1268.74 303.92C1268.74 304.72 1268.57 305.23 1268.22 305.4C1267.86 305.57 1267.19 305.39 1266.22 304.87L1266.21 308.35C1268.44 309.64 1270.01 310.19 1270.93 310.02C1271.84 309.84 1272.3 308.91 1272.31 307.19L1272.32 301.96C1272.32 300.87 1272.65 300.28 1273.27 300.19C1273.9 300.1 1274.81 300.4 1276.01 301.1L1276.02 297.42C1274.82 296.72 1273.91 295.98 1273.28 295.17Z" />
		<path id="Path 162" class="shp14" d="M1203.41 370.85L1214.86 383.28L1214.87 380.11L1206.98 371.81L1214.89 372.17L1214.9 368.98L1203.42 368.95L1203.41 370.85ZM1216.04 386.66L1219.23 388.5L1225.59 372.73L1222.39 370.88L1216.04 386.66ZM1226.71 375.8L1226.7 378.99L1234.6 387.76L1226.68 386.93L1226.67 390.1L1238.16 390.91L1238.16 389.01L1226.71 375.8Z" />
		<path id="Path 163" class="shp33" d="M990.48 312.74L990.48 314.88L999.47 320.07L999.47 317.93L990.48 312.74Z" />
		<path id="Path 164" class="shp36" d="M990.48 316.65L990.48 318.79L999.47 323.98L999.47 321.84L990.48 316.65ZM990.48 320.56L990.48 322.7L999.47 327.89L999.47 325.75L990.48 320.56ZM1058.35 365.76L1058.35 363.62L1002.85 331.61L1002.85 333.75L1058.35 365.76ZM990.48 324.47L990.48 326.61L999.47 331.8L999.47 329.66L990.48 324.47ZM990.48 328.38L990.48 330.53L999.47 335.71L999.47 333.57L990.48 328.38Z" />
		<path id="Path 165" class="shp24" d="M1058.35 369.67L1058.35 367.53L1002.85 335.52L1002.85 337.66L1058.35 369.67Z" />
		<path id="Path 166" class="shp36" d="M990.48 340.12L990.48 342.26L999.47 347.45L999.47 345.31L990.48 340.12Z" />
		<path id="Path 167" class="shp33" d="M990.48 344.03L990.48 346.17L999.47 351.36L999.47 349.22L990.48 344.03Z" />
		<path id="Path 168" class="shp36" d="M990.48 359.67L990.48 361.81L999.47 367L999.47 364.86L990.48 359.67ZM990.48 363.58L990.48 365.72L999.47 370.91L999.47 368.77L990.48 363.58Z" />
		<path id="Path 169" class="shp24" d="M1037.86 390.91L1002.85 370.72L1002.85 372.86L1037.86 393.05L1037.86 390.91Z" />
		<path id="Path 170" class="shp36" d="M1039.71 391.98L1039.71 394.12L1058.35 404.87L1058.35 402.73L1039.71 391.98ZM1020.44 376.95L1002.85 366.81L1002.85 368.95L1020.44 379.09L1020.44 376.95ZM1022.29 378.02L1022.29 380.16L1058.35 400.96L1058.35 398.82L1022.29 378.02ZM1053.61 384.35L1053.61 386.49L1058.35 389.23L1058.35 387.09L1053.61 384.35Z" />
		<path id="Path 171" class="shp19" d="M1027.79 365.55L1002.85 351.16L1002.85 353.3L1027.79 367.69L1027.79 365.55Z" />
		<path id="Path 172" class="shp36" d="M1017.57 328.37L1002.85 319.87L1002.85 322.01L1017.57 330.51L1017.57 328.37ZM1041.7 342.28L1019.41 329.43L1019.41 331.57L1041.7 344.42L1041.7 342.28ZM1028.71 338.7L1013.02 329.65L1013.02 331.79L1028.71 340.84L1028.71 338.7Z" />
		<path id="Path 173" class="shp19" d="M1045.17 348.2L1030.55 339.77L1030.55 341.91L1045.17 350.34L1045.17 348.2Z" />
		<path id="Path 174" class="shp36" d="M1047.02 349.26L1047.02 351.4L1058.35 357.94L1058.35 355.8L1047.02 349.26Z" />
		<path id="Path 175" class="shp19" d="M1005.75 329.37L1005.75 331.51L1017.57 338.33L1017.57 336.19L1005.75 329.37Z" />
		<path id="Path 176" class="shp36" d="M1053.73 357.04L1019.41 337.25L1019.41 339.39L1053.73 359.18L1053.73 357.04ZM1034.08 357.45L1011.66 344.51L1011.66 346.65L1034.08 359.59L1034.08 357.45ZM1053.73 368.78L1035.93 358.51L1035.93 360.65L1053.73 370.92L1053.73 368.78ZM1051.76 379.38L1029.63 366.61L1029.63 368.75L1051.76 381.52L1051.76 379.38Z" />
		<path id="Path 177" class="shp24" d="M1039.71 376.33L1039.71 378.47L1051.76 385.43L1051.76 383.29L1039.71 376.33Z" />
		<path id="Path 178" class="shp36" d="M1007.19 357.58L1002.85 355.07L1002.85 357.21L1007.19 359.72L1007.19 357.58ZM1015.32 362.27L1015.32 364.41L1037.86 377.41L1037.86 375.27L1015.32 362.27ZM1013.47 361.2L1009.03 358.64L1009.03 360.78L1013.47 363.34L1013.47 361.2ZM1033.69 376.78L1009.03 362.55L1009.03 364.69L1033.69 378.92L1033.69 376.78ZM1062.26 354.17L1062.26 354.76L1064.73 356.19L1064.73 355.6L1062.26 354.17ZM1062.26 355.24L1062.26 355.83L1064.73 357.26L1064.73 356.67L1062.26 355.24ZM1062.26 356.32L1062.26 356.91L1064.73 358.34L1064.73 357.75L1062.26 356.32ZM1080.96 368.78L1080.96 368.19L1065.66 359.37L1065.66 359.96L1080.96 368.78ZM1062.26 357.4L1062.26 357.99L1064.73 359.42L1064.73 358.83L1062.26 357.4ZM1062.26 358.48L1062.26 359.07L1064.73 360.5L1064.73 359.91L1062.26 358.48ZM1080.96 369.85L1080.96 369.26L1065.66 360.44L1065.66 361.03L1080.96 369.85ZM1062.26 361.71L1062.26 362.3L1064.73 363.73L1064.73 363.14L1062.26 361.71ZM1062.26 362.79L1062.26 363.38L1064.73 364.81L1064.73 364.22L1062.26 362.79ZM1062.26 367.1L1062.26 367.69L1064.73 369.12L1064.73 368.53L1062.26 367.1ZM1062.26 368.18L1062.26 368.77L1064.73 370.2L1064.73 369.61L1062.26 368.18ZM1075.31 375.71L1065.66 370.14L1065.66 370.73L1075.31 376.3L1075.31 375.71ZM1075.82 376L1075.82 376.59L1080.96 379.55L1080.96 378.96L1075.82 376ZM1070.51 371.86L1065.66 369.07L1065.66 369.65L1070.51 372.45L1070.51 371.86ZM1071.02 372.15L1071.02 372.74L1080.96 378.48L1080.96 377.89L1071.02 372.15ZM1079.65 373.9L1079.65 374.49L1080.96 375.24L1080.96 374.65L1079.65 373.9ZM1072.54 368.72L1065.66 364.76L1065.66 365.34L1072.54 369.31L1072.54 368.72ZM1069.72 358.47L1065.66 356.13L1065.66 356.72L1069.72 359.06L1069.72 358.47ZM1076.37 362.31L1070.23 358.77L1070.23 359.36L1076.37 362.9L1076.37 362.31ZM1072.79 361.32L1068.47 358.83L1068.47 359.42L1072.79 361.91L1072.79 361.32ZM1077.33 363.94L1073.3 361.61L1073.3 362.2L1077.33 364.53L1077.33 363.94ZM1077.83 364.23L1077.83 364.82L1080.96 366.62L1080.96 366.03L1077.83 364.23ZM1066.46 358.75L1066.46 359.34L1069.72 361.22L1069.72 360.63L1066.46 358.75ZM1079.68 366.37L1070.23 360.92L1070.23 361.51L1079.68 366.97L1079.68 366.37ZM1074.27 366.48L1068.09 362.92L1068.09 363.51L1074.27 367.07L1074.27 366.48ZM1079.68 369.61L1074.78 366.78L1074.78 367.37L1079.68 370.2L1079.68 369.61ZM1079.14 372.53L1073.04 369.01L1073.04 369.6L1079.14 373.12L1079.14 372.53ZM1075.82 371.69L1075.82 372.28L1079.14 374.2L1079.14 373.61L1075.82 371.69ZM1066.86 366.52L1065.66 365.83L1065.66 366.42L1066.86 367.11L1066.86 366.52ZM1069.1 367.81L1069.1 368.4L1075.31 371.99L1075.31 371.4L1069.1 367.81ZM1068.59 367.52L1067.37 366.81L1067.37 367.4L1068.59 368.11L1068.59 367.52ZM1074.16 371.81L1067.37 367.89L1067.37 368.48L1074.16 372.4L1074.16 371.81ZM1062.26 372.4L1062.26 372.99L1064.73 374.42L1064.73 373.83L1062.26 372.4ZM1062.26 373.48L1062.26 374.07L1064.73 375.5L1064.73 374.91L1062.26 373.48ZM1062.26 374.56L1062.26 375.15L1064.73 376.58L1064.73 375.99L1062.26 374.56ZM1080.96 387.01L1080.96 386.42L1065.66 377.6L1065.66 378.19L1080.96 387.01ZM1062.26 375.63L1062.26 376.22L1064.73 377.65L1064.73 377.06L1062.26 375.63ZM1062.26 376.71L1062.26 377.3L1064.73 378.73L1064.73 378.14L1062.26 376.71ZM1080.96 388.09L1080.96 387.5L1065.66 378.68L1065.66 379.27L1080.96 388.09ZM1062.26 379.94L1062.26 380.53L1064.73 381.96L1064.73 381.37L1062.26 379.94ZM1062.26 381.02L1062.26 381.61L1064.73 383.04L1064.73 382.45L1062.26 381.02ZM1062.26 385.33L1062.26 385.92L1064.73 387.35L1064.73 386.76L1062.26 385.33ZM1062.26 386.41L1062.26 387L1064.73 388.43L1064.73 387.84L1062.26 386.41ZM1075.31 393.94L1065.66 388.38L1065.66 388.97L1075.31 394.53L1075.31 393.94ZM1075.82 394.23L1075.82 394.82L1080.96 397.79L1080.96 397.2L1075.82 394.23ZM1070.51 390.09L1065.66 387.3L1065.66 387.89L1070.51 390.68L1070.51 390.09ZM1071.02 390.39L1071.02 390.98L1080.96 396.71L1080.96 396.12L1071.02 390.39ZM1079.65 392.13L1079.65 392.72L1080.96 393.48L1080.96 392.89L1079.65 392.13ZM1072.54 386.95L1065.66 382.99L1065.66 383.58L1072.54 387.54L1072.54 386.95ZM1069.72 376.71L1065.66 374.37L1065.66 374.96L1069.72 377.3L1069.72 376.71ZM1076.37 380.54L1070.23 377L1070.23 377.59L1076.37 381.13L1076.37 380.54ZM1072.79 379.56L1068.47 377.06L1068.47 377.65L1072.79 380.15L1072.79 379.56ZM1077.33 382.17L1073.3 379.85L1073.3 380.44L1077.33 382.76L1077.33 382.17ZM1077.83 382.47L1077.83 383.06L1080.96 384.86L1080.96 384.27L1077.83 382.47ZM1066.46 376.98L1066.46 377.57L1069.72 379.45L1069.72 378.86L1066.46 376.98ZM1079.68 384.61L1070.23 379.15L1070.23 379.74L1079.68 385.2L1079.68 384.61ZM1074.27 384.72L1068.09 381.16L1068.09 381.75L1074.27 385.31L1074.27 384.72ZM1079.68 387.84L1074.78 385.01L1074.78 385.6L1079.68 388.43L1079.68 387.84ZM1079.14 390.76L1073.04 387.24L1073.04 387.83L1079.14 391.35L1079.14 390.76ZM1075.82 389.92L1075.82 390.51L1079.14 392.43L1079.14 391.84L1075.82 389.92ZM1066.86 384.75L1065.66 384.06L1065.66 384.65L1066.86 385.34L1066.86 384.75ZM1069.1 386.05L1069.1 386.64L1075.31 390.22L1075.31 389.63L1069.1 386.05ZM1068.59 385.75L1067.37 385.05L1067.37 385.64L1068.59 386.34L1068.59 385.75ZM1074.16 390.05L1067.37 386.13L1067.37 386.72L1074.16 390.64L1074.16 390.05ZM1062.26 390.64L1062.26 391.23L1064.73 392.66L1064.73 392.07L1062.26 390.64ZM1062.26 391.71L1062.26 392.3L1064.73 393.73L1064.73 393.14L1062.26 391.71ZM1062.26 392.79L1062.26 393.38L1064.73 394.81L1064.73 394.22L1062.26 392.79ZM1080.96 405.24L1080.96 404.65L1065.66 395.83L1065.66 396.42L1080.96 405.24ZM1062.26 393.87L1062.26 394.46L1064.73 395.89L1064.73 395.3L1062.26 393.87ZM1062.26 394.95L1062.26 395.54L1064.73 396.97L1064.73 396.38L1062.26 394.95ZM1080.96 406.32L1080.96 405.73L1065.66 396.91L1065.66 397.5L1080.96 406.32ZM1062.26 398.18L1062.26 398.77L1064.73 400.2L1064.73 399.61L1062.26 398.18ZM1062.26 399.26L1062.26 399.85L1064.73 401.28L1064.73 400.69L1062.26 399.26ZM1062.26 403.57L1062.26 404.16L1064.73 405.59L1064.73 405L1062.26 403.57ZM1062.26 404.65L1062.26 405.24L1064.73 406.67L1064.73 406.08L1062.26 404.65ZM1075.31 412.18L1065.66 406.61L1065.66 407.2L1075.31 412.77L1075.31 412.18ZM1075.82 412.47L1075.82 413.06L1080.96 416.02L1080.96 415.43L1075.82 412.47ZM1070.51 408.33L1065.66 405.53L1065.66 406.12L1070.51 408.92L1070.51 408.33ZM1071.02 408.62L1071.02 409.21L1080.96 414.94L1080.96 414.35L1071.02 408.62ZM1079.65 410.37L1079.65 410.96L1080.96 411.71L1080.96 411.12L1079.65 410.37ZM1072.54 405.19L1065.66 401.22L1065.66 401.81L1072.54 405.78L1072.54 405.19ZM1069.72 394.94L1065.66 392.6L1065.66 393.19L1069.72 395.53L1069.72 394.94ZM1076.37 398.78L1070.23 395.23L1070.23 395.82L1076.37 399.37L1076.37 398.78ZM1072.79 397.79L1068.47 395.3L1068.47 395.89L1072.79 398.38L1072.79 397.79ZM1077.33 400.4L1073.3 398.08L1073.3 398.67L1077.33 400.99L1077.33 400.4ZM1077.83 400.7L1077.83 401.29L1080.96 403.09L1080.96 402.5L1077.83 400.7ZM1066.46 395.22L1066.46 395.81L1069.72 397.69L1069.72 397.1L1066.46 395.22ZM1079.68 402.84L1070.23 397.39L1070.23 397.98L1079.68 403.43L1079.68 402.84ZM1074.27 402.95L1068.09 399.39L1068.09 399.98L1074.27 403.54L1074.27 402.95ZM1079.68 406.07L1074.78 403.25L1074.78 403.84L1079.68 406.66L1079.68 406.07ZM1079.14 409L1073.04 405.48L1073.04 406.07L1079.14 409.59L1079.14 409ZM1075.82 408.16L1075.82 408.75L1079.14 410.66L1079.14 410.07L1075.82 408.16ZM1066.86 402.99L1065.66 402.3L1065.66 402.89L1066.86 403.58L1066.86 402.99ZM1069.1 404.28L1069.1 404.87L1075.31 408.46L1075.31 407.87L1069.1 404.28ZM1068.59 403.99L1067.37 403.28L1067.37 403.87L1068.59 404.58L1068.59 403.99ZM1074.16 408.28L1067.37 404.36L1067.37 404.95L1074.16 408.87L1074.16 408.28ZM1062.26 408.87L1062.26 409.46L1064.73 410.89L1064.73 410.3L1062.26 408.87ZM1062.26 409.95L1062.26 410.54L1064.73 411.97L1064.73 411.38L1062.26 409.95ZM1062.26 411.02L1062.26 411.61L1064.73 413.04L1064.73 412.45L1062.26 411.02ZM1080.96 423.48L1080.96 422.89L1065.66 414.07L1065.66 414.66L1080.96 423.48ZM1062.26 412.1L1062.26 412.69L1064.73 414.12L1064.73 413.53L1062.26 412.1ZM1062.26 413.18L1062.26 413.77L1064.73 415.2L1064.73 414.61L1062.26 413.18ZM1080.96 424.56L1080.96 423.97L1065.66 415.15L1065.66 415.74L1080.96 424.56ZM1062.26 416.41L1062.26 417L1064.73 418.43L1064.73 417.84L1062.26 416.41ZM1062.26 417.49L1062.26 418.08L1064.73 419.51L1064.73 418.92L1062.26 417.49ZM1079.65 428.6L1079.65 429.19L1080.96 429.95L1080.96 429.36L1079.65 428.6ZM1072.54 423.42L1065.66 419.46L1065.66 420.05L1072.54 424.01L1072.54 423.42ZM1069.72 413.17L1065.66 410.83L1065.66 411.42L1069.72 413.76L1069.72 413.17ZM1076.37 417.01L1070.23 413.47L1070.23 414.06L1076.37 417.6L1076.37 417.01ZM1072.79 416.02L1068.47 413.53L1068.47 414.12L1072.79 416.61L1072.79 416.02ZM1077.33 418.64L1073.3 416.32L1073.3 416.91L1077.33 419.23L1077.33 418.64ZM1077.83 418.93L1077.83 419.52L1080.96 421.32L1080.96 420.73L1077.83 418.93ZM1066.46 413.45L1066.46 414.04L1069.72 415.92L1069.72 415.33L1066.46 413.45ZM1079.68 421.08L1070.23 415.62L1070.23 416.21L1079.68 421.67L1079.68 421.08ZM1074.27 421.19L1068.09 417.62L1068.09 418.21L1074.27 421.78L1074.27 421.19ZM1079.68 424.31L1074.78 421.48L1074.78 422.07L1079.68 424.9L1079.68 424.31ZM1079.14 427.23L1073.04 423.71L1073.04 424.3L1079.14 427.82L1079.14 427.23ZM1075.82 426.39L1075.82 426.98L1079.14 428.9L1079.14 428.31L1075.82 426.39ZM1066.86 421.22L1065.66 420.53L1065.66 421.12L1066.86 421.81L1066.86 421.22ZM1069.1 422.52L1069.1 423.11L1075.31 426.69L1075.31 426.1L1069.1 422.52ZM1068.59 422.22L1067.37 421.52L1067.37 422.11L1068.59 422.81L1068.59 422.22ZM1074.16 426.51L1067.37 422.59L1067.37 423.18L1074.16 427.1L1074.16 426.51Z" />
		<path id="Path 179" class="shp24" d="M984.72 309.41L981.75 307.71C981.61 307.62 981.43 307.73 981.43 307.89L981.43 311.44C981.43 311.61 981.52 311.77 981.67 311.86L984.63 313.57C984.78 313.66 984.97 313.55 984.97 313.38L984.97 309.85C984.97 309.67 984.87 309.5 984.72 309.41ZM984.72 314.72L981.75 313.01C981.61 312.93 981.43 313.03 981.43 313.2L981.43 316.75C981.43 316.92 981.52 317.08 981.67 317.17L984.63 318.88C984.78 318.96 984.97 318.86 984.97 318.69L984.97 315.15C984.97 314.98 984.87 314.81 984.72 314.72ZM984.72 320.03L981.75 318.32C981.61 318.24 981.43 318.34 981.43 318.51L981.43 322.05C981.43 322.23 981.52 322.39 981.67 322.47L984.63 324.18C984.78 324.27 984.97 324.16 984.97 323.99L984.97 320.46C984.97 320.28 984.87 320.12 984.72 320.03ZM984.72 325.33L981.75 323.62C981.61 323.54 981.43 323.64 981.43 323.81L981.43 327.36C981.43 327.53 981.52 327.69 981.67 327.78L984.63 329.49C984.78 329.58 984.97 329.47 984.97 329.3L984.97 325.77C984.97 325.59 984.87 325.42 984.72 325.33ZM984.72 330.64L981.75 328.93C981.61 328.85 981.43 328.95 981.43 329.12L981.43 332.67C981.43 332.84 981.52 333 981.67 333.09L984.63 334.8C984.78 334.88 984.97 334.78 984.97 334.6L984.97 331.07C984.97 330.9 984.87 330.73 984.72 330.64ZM984.72 335.95L981.75 334.24C981.61 334.15 981.43 334.26 981.43 334.42L981.43 337.97C981.43 338.15 981.52 338.31 981.67 338.39L984.63 340.1C984.78 340.19 984.97 340.08 984.97 339.91L984.97 336.38C984.97 336.2 984.87 336.04 984.72 335.95ZM984.72 341.25L981.75 339.54C981.61 339.46 981.43 339.56 981.43 339.73L981.43 343.28C981.43 343.45 981.52 343.61 981.67 343.7L984.63 345.41C984.78 345.5 984.97 345.39 984.97 345.22L984.97 341.69C984.97 341.51 984.87 341.34 984.72 341.25ZM984.72 346.56L981.75 344.85C981.61 344.77 981.43 344.87 981.43 345.04L981.43 348.59C981.43 348.76 981.52 348.92 981.67 349L984.63 350.72C984.78 350.8 984.97 350.7 984.97 350.52L984.97 346.99C984.97 346.81 984.87 346.65 984.72 346.56ZM984.72 351.87L981.75 350.16C981.61 350.07 981.43 350.18 981.43 350.34L981.43 353.89C981.43 354.06 981.52 354.22 981.67 354.31L984.63 356.02C984.78 356.11 984.97 356 984.97 355.83L984.97 352.3C984.97 352.12 984.87 351.96 984.72 351.87ZM984.72 357.17L981.75 355.46C981.61 355.38 981.43 355.48 981.43 355.65L981.43 359.2C981.43 359.37 981.52 359.53 981.67 359.62L984.63 361.33C984.78 361.41 984.97 361.31 984.97 361.14L984.97 357.6C984.97 357.43 984.87 357.26 984.72 357.17ZM984.72 362.48L981.75 360.77C981.61 360.69 981.43 360.79 981.43 360.96L981.43 364.5C981.43 364.68 981.52 364.84 981.67 364.92L984.63 366.64C984.78 366.72 984.97 366.61 984.97 366.44L984.97 362.91C984.97 362.73 984.87 362.57 984.72 362.48ZM984.72 367.78L981.75 366.08C981.61 365.99 981.43 366.1 981.43 366.26L981.43 369.81C981.43 369.98 981.52 370.14 981.67 370.23L984.63 371.94C984.78 372.03 984.97 371.92 984.97 371.75L984.97 368.22C984.97 368.04 984.87 367.87 984.72 367.78Z" />
		<path id="Path 180" class="shp2" d="M1123.91 328.22L1123.91 330.36L1132.9 335.55L1132.9 333.41L1123.91 328.22ZM1123.91 332.13L1123.91 334.27L1132.9 339.46L1132.9 337.32L1123.91 332.13ZM1123.91 336.04L1123.91 338.18L1132.9 343.37L1132.9 341.23L1123.91 336.04ZM1191.78 381.24L1191.78 379.1L1136.28 347.09L1136.28 349.23L1191.78 381.24ZM1123.91 339.95L1123.91 342.09L1132.9 347.28L1132.9 345.14L1123.91 339.95ZM1123.91 343.86L1123.91 346L1132.9 351.19L1132.9 349.05L1123.91 343.86ZM1191.78 385.15L1191.78 383.01L1136.28 351L1136.28 353.14L1191.78 385.15ZM1123.91 355.6L1123.91 357.74L1132.9 362.93L1132.9 360.78L1123.91 355.6ZM1123.91 359.51L1123.91 361.65L1132.9 366.84L1132.9 364.7L1123.91 359.51ZM1123.91 375.15L1123.91 377.29L1132.9 382.48L1132.9 380.34L1123.91 375.15ZM1123.91 379.06L1123.91 381.2L1132.9 386.39L1132.9 384.25L1123.91 379.06ZM1171.29 406.4L1136.28 386.2L1136.28 388.34L1171.29 408.54L1171.29 406.4ZM1173.14 407.46L1173.14 409.6L1191.78 420.35L1191.78 418.21L1173.14 407.46ZM1153.87 392.43L1136.28 382.29L1136.28 384.43L1153.87 394.57L1153.87 392.43ZM1155.72 393.5L1155.72 395.64L1191.78 416.44L1191.78 414.3L1155.72 393.5ZM1187.04 399.83L1187.04 401.97L1191.78 404.71L1191.78 402.57L1187.04 399.83ZM1161.22 381.03L1136.28 366.64L1136.28 368.78L1161.22 383.17L1161.22 381.03ZM1151 343.84L1136.28 335.35L1136.28 337.49L1151 345.99L1151 343.84ZM1175.13 357.76L1152.84 344.91L1152.84 347.05L1175.13 359.9L1175.13 357.76ZM1162.14 354.18L1146.45 345.13L1146.45 347.27L1162.14 356.32L1162.14 354.18ZM1178.6 363.68L1163.99 355.25L1163.99 357.39L1178.6 365.82L1178.6 363.68ZM1180.45 364.74L1180.45 366.88L1191.78 373.42L1191.78 371.28L1180.45 364.74ZM1139.18 344.85L1139.18 346.99L1151 353.81L1151 351.67L1139.18 344.85ZM1187.16 372.52L1152.84 352.73L1152.84 354.87L1187.16 374.66L1187.16 372.52ZM1167.51 372.92L1145.09 359.99L1145.09 362.13L1167.51 375.07L1167.51 372.92ZM1187.16 384.26L1169.36 373.99L1169.36 376.13L1187.16 386.4L1187.16 384.26ZM1185.19 394.86L1163.07 382.09L1163.07 384.23L1185.19 397L1185.19 394.86ZM1173.14 391.82L1173.14 393.96L1185.19 400.91L1185.19 398.77L1173.14 391.82ZM1140.62 373.06L1136.28 370.55L1136.28 372.69L1140.62 375.2L1140.62 373.06ZM1148.75 377.74L1148.75 379.89L1171.29 392.89L1171.29 390.75L1148.75 377.74ZM1146.9 376.68L1142.46 374.12L1142.46 376.26L1146.9 378.82L1146.9 376.68ZM1167.12 392.26L1142.46 378.03L1142.46 380.17L1167.12 394.4L1167.12 392.26ZM1206.58 194.19L1206.58 196.33L1215.58 201.52L1215.58 199.38L1206.58 194.19ZM1206.58 198.1L1206.58 200.24L1215.58 205.43L1215.58 203.29L1206.58 198.1ZM1206.58 202.01L1206.58 204.15L1215.58 209.34L1215.58 207.2L1206.58 202.01ZM1274.45 247.21L1274.45 245.07L1218.95 213.05L1218.95 215.2L1274.45 247.21ZM1206.58 205.92L1206.58 208.06L1215.58 213.25L1215.58 211.11L1206.58 205.92ZM1206.58 209.83L1206.58 211.97L1215.58 217.16L1215.58 215.02L1206.58 209.83ZM1274.45 251.12L1274.45 248.98L1218.95 216.97L1218.95 219.11L1274.45 251.12ZM1206.58 221.57L1206.58 223.71L1215.58 228.89L1215.58 226.75L1206.58 221.57ZM1206.58 225.48L1206.58 227.62L1215.58 232.8L1215.58 230.66L1206.58 225.48ZM1206.58 241.12L1206.58 243.26L1215.58 248.45L1215.58 246.31L1206.58 241.12ZM1206.58 245.03L1206.58 247.17L1215.58 252.36L1215.58 250.22L1206.58 245.03ZM1253.97 272.36L1218.95 252.16L1218.95 254.31L1253.97 274.5L1253.97 272.36ZM1255.81 273.43L1255.81 275.57L1274.45 286.32L1274.45 284.18L1255.81 273.43ZM1236.54 258.4L1218.95 248.25L1218.95 250.39L1236.54 260.54L1236.54 258.4ZM1238.39 259.47L1238.39 261.61L1274.45 282.41L1274.45 280.27L1238.39 259.47ZM1269.71 265.8L1269.71 267.94L1274.46 270.68L1274.46 268.54L1269.71 265.8ZM1243.89 246.99L1218.95 232.61L1218.95 234.75L1243.89 249.13L1243.89 246.99ZM1233.67 209.81L1218.95 201.32L1218.95 203.46L1233.67 211.95L1233.67 209.81ZM1257.8 223.73L1235.51 210.88L1235.51 213.02L1257.8 225.87L1257.8 223.73ZM1244.81 220.15L1229.12 211.1L1229.12 213.24L1244.81 222.29L1244.81 220.15ZM1261.28 229.65L1246.66 221.22L1246.66 223.36L1261.28 231.79L1261.28 229.65ZM1263.12 230.71L1263.12 232.85L1274.45 239.39L1274.45 237.25L1263.12 230.71ZM1221.85 210.82L1221.85 212.96L1233.67 219.78L1233.67 217.63L1221.85 210.82ZM1269.83 238.49L1235.52 218.7L1235.52 220.84L1269.83 240.63L1269.83 238.49ZM1250.19 238.89L1227.76 225.96L1227.76 228.1L1250.19 241.03L1250.19 238.89ZM1269.83 250.22L1252.03 239.96L1252.03 242.1L1269.83 252.37L1269.83 250.22ZM1267.87 260.82L1245.74 248.06L1245.74 250.2L1267.87 262.96L1267.87 260.82ZM1255.81 257.78L1255.81 259.92L1267.86 266.88L1267.86 264.74L1255.81 257.78ZM1223.29 239.02L1218.95 236.52L1218.95 238.66L1223.29 241.16L1223.29 239.02ZM1231.42 243.71L1231.42 245.85L1253.97 258.86L1253.97 256.72L1231.42 243.71ZM1229.57 242.65L1225.14 240.09L1225.14 242.23L1229.57 244.79L1229.57 242.65ZM1249.8 258.22L1225.14 244L1225.14 246.14L1249.8 260.36L1249.8 258.22Z" />
		<path id="Path 181" class="shp12" d="M1044.01 469.01C1044.01 469.01 1038.94 466.74 1032.98 470.69C1027.01 474.64 1023 480.17 1025.42 482.2C1027.85 484.23 1032.56 486.41 1035.62 485.32C1038.67 484.22 1053.79 475.33 1044.01 469.01Z" />
		<path id="Path 182" class="shp19" d="M1169.82 445.67L1122.7 472.36L1092.67 454.99L1139.78 428.3L1169.82 445.67Z" />
		<path id="Path 183" class="shp37" d="M1131.92 471.72L1131.92 472.77L1179.04 445.8L1179.04 445.03L1131.92 471.72Z" />
		<path id="Path 184" class="shp38" d="M1179.04 445.03L1131.92 471.72L1101.89 454.35L1149.01 427.66L1179.04 445.03Z" />
		<path id="Path 185" class="shp39" d="M1131.92 471.72L1131.92 472.77L1101.89 455.4L1101.89 454.35L1131.92 471.72Z" />
		<path id="Path 186" class="shp40" d="M1148.68 430.51L1166.83 440.97L1166.03 441.42L1147.89 430.96L1148.68 430.51ZM1146.8 431.58L1164.94 442.04L1164.15 442.49L1146 432.03L1146.8 431.58ZM1142.41 434.06L1167.39 448.48L1166.6 448.93L1141.62 434.52L1142.41 434.06ZM1140.68 435.04L1165.67 449.46L1164.87 449.92L1139.89 435.5L1140.68 435.04ZM1138.95 436.03L1163.94 450.45L1163.14 450.9L1138.16 436.48L1138.95 436.03ZM1137.22 437.01L1162.21 451.43L1161.41 451.88L1136.43 437.46L1137.22 437.01ZM1135.5 437.99L1160.48 452.41L1159.68 452.86L1134.7 438.44L1135.5 437.99ZM1133.77 438.97L1158.75 453.39L1157.95 453.84L1132.97 439.42L1133.77 438.97ZM1132.04 439.95L1157.02 454.37L1156.23 454.82L1131.24 440.4L1132.04 439.95ZM1130.31 440.93L1155.29 455.35L1154.49 455.8L1129.51 441.38L1130.31 440.93ZM1128.58 441.91L1153.56 456.33L1152.77 456.78L1127.78 442.37L1128.58 441.91ZM1126.85 442.9L1151.83 457.32L1151.04 457.77L1126.06 443.35L1126.85 442.9ZM1125.12 443.88L1150.1 458.3L1149.31 458.75L1124.33 444.33L1125.12 443.88ZM1123.39 444.86L1148.37 459.28L1147.58 459.73L1122.6 445.31L1123.39 444.86ZM1121.66 445.84L1146.64 460.26L1145.85 460.71L1120.87 446.29L1121.66 445.84ZM1119.93 446.82L1144.91 461.24L1144.12 461.69L1119.14 447.27L1119.93 446.82ZM1118.2 447.8L1143.19 462.22L1142.39 462.68L1117.41 448.26L1118.2 447.8Z" />
		<path id="Path 187" class="shp9" d="M1097.85 461.21L1093.44 461.21L1093.44 465.96L1097.85 465.96C1099.48 465.96 1100.82 467.3 1100.82 468.93L1100.82 476.66C1100.82 478.3 1099.48 479.63 1097.85 479.63L1091.39 479.63L1091.39 484.38L1097.85 484.38C1102.11 484.38 1105.57 480.92 1105.57 476.66L1105.57 468.93C1105.57 464.67 1102.11 461.21 1097.85 461.21Z" />
		<path id="Path 188" class="shp4" d="M1096.19 458.58L1096.19 485.35C1096.19 489.49 1090.01 492.86 1082.38 492.86C1074.75 492.86 1068.56 489.49 1068.56 485.35L1068.56 458.58L1096.19 458.58Z" />
		<path id="Path 189" class="shp8" d="M1068.56 458.58C1068.56 462.73 1074.75 466.09 1082.37 466.09C1090.01 466.09 1096.19 462.73 1096.19 458.58C1096.19 454.43 1090.01 451.07 1082.37 451.07C1074.75 451.07 1068.56 454.43 1068.56 458.58Z" />
		<path id="Path 190" class="shp9" d="M1071.31 458.49C1071.31 461.73 1076.27 464.36 1082.37 464.36C1088.49 464.36 1093.44 461.73 1093.44 458.49C1093.44 455.24 1088.49 452.61 1082.37 452.61C1076.27 452.61 1071.31 455.24 1071.31 458.49Z" />
		<path id="Path 191" class="shp7" d="M1082.38 456.46C1077.53 456.46 1073.43 458.11 1071.93 460.41C1073.43 462.71 1077.53 464.36 1082.38 464.36C1087.22 464.36 1091.32 462.71 1092.82 460.41C1091.32 458.11 1087.22 456.46 1082.38 456.46Z" />
		<path id="Path 192" class="shp9" d="M1087.6 465.53L1087.6 492.3C1090.31 491.7 1092.58 490.64 1094.11 489.3L1094.11 462.53C1092.58 463.87 1090.31 464.93 1087.6 465.53Z" />
	</g>
</svg>