<?xml version="1.0" encoding="utf-8"?>
<!-- Generator: Adobe Illustrator 16.0.0, SVG Export Plug-In . SVG Version: 6.00 Build 0)  -->
<!DOCTYPE svg PUBLIC "-//W3C//DTD SVG 1.1//EN" "http://www.w3.org/Graphics/SVG/1.1/DTD/svg11.dtd">
<svg version="1.1" id="Layer_1" xmlns="http://www.w3.org/2000/svg" xmlns:xlink="http://www.w3.org/1999/xlink" x="0px" y="0px"
	 width="750px" height="500px" viewBox="0 0 750 500" enable-background="new 0 0 750 500" xml:space="preserve">
<g id="BACKGROUND" display="none">
	<rect display="inline" fill="#E2E2E2" width="750" height="500"/>
</g>
<g id="OBJECTS">
	<g>
		<g>
			
				<linearGradient id="SVGID_1_" gradientUnits="userSpaceOnUse" x1="239.9849" y1="513.1328" x2="751" y2="513.1328" gradientTransform="matrix(1 0 0 1 0 -291)">
				<stop  offset="0" style="stop-color:#0074AF"/>
				<stop  offset="1" style="stop-color:#1DFFE4"/>
			</linearGradient>
			<path fill="url(#SVGID_1_)" d="M240,0c0,0-2.5,60.5,57,61c90.663,0.762,158.37-1.042,160.376,31.03
				c0.993,33.855-1.569,21.52,0,41.113c4.806,26.707,35.03,18.524,69.646,36.432c83.591,43.245-10.841,7.229-42.688,27.908
				c-31.844,20.68-12.422,36.091,31.639,34.51c95.152-3.416,63.595,28.772,47.695,43.352
				c-15.896,14.578-12.807,49.039,61.729,25.372c113.938-36.177,10.979,144.443,10.979,144.443H751V-0.895L240,0z"/>
			
				<linearGradient id="SVGID_2_" gradientUnits="userSpaceOnUse" x1="586.5264" y1="78.2705" x2="736.4347" y2="796.3495" gradientTransform="matrix(1 0 0 1 0 -291)">
				<stop  offset="0" style="stop-color:#0074AF"/>
				<stop  offset="1" style="stop-color:#1DFFE4"/>
			</linearGradient>
			<path fill="url(#SVGID_2_)" d="M662.656-0.895c0,0-107.603-5.609-126.757,65.096c-20.872,77.041,45.888,113.266,68.532,95.582
				c22.647-17.682,23.674-41.719-11.578-57.58c-35.255-15.861-31.709-64.75,45.37-52.549c77.08,12.2,85.995,110.273,30.152,133.741
				c-55.845,23.465-45.823,60.004,17.833,80.453c76.424,24.549-4.327,181.313-4.327,181.313H751V-0.895H662.656z"/>
		</g>
		<g>
			<g opacity="0.4">
				<g>
					<polygon fill="#FFFFFF" points="548.469,96.306 548.469,97.311 552.69,99.744 552.69,98.739 					"/>
					<polygon fill="#FFFFFF" points="548.469,98.141 548.469,99.146 552.69,101.581 552.69,100.576 					"/>
					<polygon fill="#FFFFFF" points="548.469,99.977 548.469,100.98 552.69,103.415 552.69,102.41 					"/>
					<polygon fill="#FFFFFF" points="580.32,121.188 580.32,120.184 554.273,105.159 554.273,106.164 					"/>
					<polygon fill="#FFFFFF" points="548.469,101.812 548.469,102.816 552.69,105.251 552.69,104.245 					"/>
					<polygon fill="#FFFFFF" points="548.469,103.646 548.469,104.651 552.69,107.086 552.69,106.082 					"/>
					<polygon fill="#FFFFFF" points="580.32,123.023 580.32,122.018 554.273,106.994 554.273,107.999 					"/>
					<polygon fill="#FFFFFF" points="548.469,109.152 548.469,110.157 552.69,112.592 552.69,111.587 					"/>
					<polygon fill="#FFFFFF" points="548.469,110.988 548.469,111.992 552.69,114.428 552.69,113.421 					"/>
					<polygon fill="#FFFFFF" points="548.469,118.33 548.469,119.333 552.69,121.769 552.69,120.764 					"/>
					<polygon fill="#FFFFFF" points="548.469,120.164 548.469,121.17 552.69,123.604 552.69,122.599 					"/>
					<g>
						<polygon fill="#FFFFFF" points="570.705,132.99 554.273,123.513 554.273,124.517 570.705,133.995 						"/>
						<polygon fill="#FFFFFF" points="571.571,133.489 571.571,134.495 580.32,139.541 580.32,138.536 						"/>
					</g>
					<g>
						<polygon fill="#FFFFFF" points="562.529,126.438 554.273,121.678 554.273,122.683 562.529,127.443 						"/>
						<polygon fill="#FFFFFF" points="563.396,126.938 563.396,127.944 580.32,137.706 580.32,136.701 						"/>
					</g>
					<polygon fill="#FFFFFF" points="578.094,129.911 578.094,130.916 580.32,132.2 580.32,131.195 					"/>
					<polygon fill="#FFFFFF" points="565.979,121.086 554.273,114.335 554.273,115.34 565.979,122.092 					"/>
					<polygon fill="#FFFFFF" points="561.182,103.639 554.273,99.653 554.273,100.658 561.182,104.642 					"/>
					<g>
						<polygon fill="#FFFFFF" points="572.505,110.169 562.048,104.138 562.048,105.142 572.505,111.175 						"/>
					</g>
					<polygon fill="#FFFFFF" points="566.411,108.489 559.048,104.242 559.048,105.248 566.411,109.494 					"/>
					<g>
						<polygon fill="#FFFFFF" points="574.136,112.945 567.276,108.988 567.276,109.993 574.136,113.949 						"/>
						<polygon fill="#FFFFFF" points="575.002,113.445 575.002,114.449 580.32,117.518 580.32,116.512 						"/>
					</g>
					<polygon fill="#FFFFFF" points="555.634,104.109 555.634,105.113 561.182,108.313 561.182,107.309 					"/>
					<polygon fill="#FFFFFF" points="578.151,117.097 562.048,107.808 562.048,108.813 578.151,118.102 					"/>
					<polygon fill="#FFFFFF" points="568.931,117.284 558.408,111.215 558.408,112.219 568.931,118.289 					"/>
					<polygon fill="#FFFFFF" points="578.151,122.603 569.797,117.783 569.797,118.789 578.151,123.607 					"/>
					<g>
						<polygon fill="#FFFFFF" points="577.229,127.576 566.844,121.587 566.844,122.592 577.229,128.581 						"/>
					</g>
					<polygon fill="#FFFFFF" points="571.571,126.149 571.571,127.153 577.229,130.416 577.229,129.411 					"/>
					<polygon fill="#FFFFFF" points="556.311,117.345 554.273,116.172 554.273,117.176 556.311,118.35 					"/>
					<g>
						<polygon fill="#FFFFFF" points="560.125,119.546 560.125,120.551 570.705,126.654 570.705,125.649 						"/>
						<polygon fill="#FFFFFF" points="559.259,119.047 557.177,117.845 557.177,118.85 559.259,120.051 						"/>
					</g>
					<polygon fill="#FFFFFF" points="568.748,126.355 557.177,119.681 557.177,120.686 568.748,127.361 					"/>
				</g>
			</g>
			<g opacity="0.4">
				<polygon fill="#FFFFFF" points="570.972,79.682 553.471,69.548 553.471,70.437 570.972,80.572 				"/>
				<polygon fill="#FFFFFF" points="553.471,72.186 580.32,87.716 580.32,86.826 553.471,71.296 				"/>
				<polygon fill="#FFFFFF" points="572.143,80.343 572.143,81.233 580.32,85.968 580.32,85.078 				"/>
				<polygon fill="#FFFFFF" points="570.972,83.094 553.471,72.958 553.471,73.849 570.972,83.983 				"/>
				<polygon fill="#FFFFFF" points="553.471,75.596 580.32,91.126 580.32,90.237 553.471,74.707 				"/>
				<polygon fill="#FFFFFF" points="572.143,84.643 580.32,89.379 580.32,88.489 572.143,83.753 				"/>
				<polygon fill="#FFFFFF" points="570.972,88.725 553.471,78.589 553.471,79.48 570.972,89.614 				"/>
				<polygon fill="#FFFFFF" points="553.471,81.229 580.32,96.759 580.32,95.868 553.471,80.338 				"/>
				<polygon fill="#FFFFFF" points="572.143,90.274 580.32,95.011 580.32,94.119 572.143,89.384 				"/>
				<polygon fill="#FFFFFF" points="570.972,92.136 553.471,82 553.471,82.891 570.972,93.025 				"/>
				<polygon fill="#FFFFFF" points="553.471,84.639 580.32,100.168 580.32,99.278 553.471,83.748 				"/>
				<polygon fill="#FFFFFF" points="572.143,93.686 580.32,98.42 580.32,97.53 572.143,92.795 				"/>
				<polygon fill="#FFFFFF" points="570.972,97.767 553.471,87.631 553.471,88.521 570.972,98.657 				"/>
				<polygon fill="#FFFFFF" points="553.471,90.27 580.32,105.8 580.32,104.909 553.471,89.379 				"/>
				<polygon fill="#FFFFFF" points="572.143,99.316 580.32,104.052 580.32,103.162 572.143,98.427 				"/>
				<polygon fill="#FFFFFF" points="570.972,101.178 553.471,91.041 553.471,91.933 570.972,102.068 				"/>
				<polygon fill="#FFFFFF" points="553.471,93.681 580.32,109.211 580.32,108.32 553.471,92.79 				"/>
				<polygon fill="#FFFFFF" points="572.143,102.727 580.32,107.463 580.32,106.572 572.143,101.836 				"/>
			</g>
			<path opacity="0.2" fill="#FFFFFF" enable-background="new    " d="M523.757,92.429l-13.074-7.543
				c-0.638-0.368-1.437,0.093-1.437,0.829v15.649c0,0.763,0.408,1.466,1.066,1.849l13.071,7.557c0.655,0.379,1.475-0.093,1.475-0.85
				V94.337C524.858,93.549,524.438,92.822,523.757,92.429z"/>
			<g opacity="0.4">
				<g>
					<polygon fill="#FFFFFF" points="477.477,106.425 477.477,107.431 481.696,109.864 481.696,108.859 					"/>
					<polygon fill="#FFFFFF" points="477.477,108.261 477.477,109.266 481.696,111.699 481.696,110.694 					"/>
					<polygon fill="#FFFFFF" points="477.477,110.096 477.477,111.101 481.696,113.536 481.696,112.53 					"/>
					<polygon fill="#FFFFFF" points="509.328,131.308 509.328,130.303 483.279,115.279 483.279,116.284 					"/>
					<polygon fill="#FFFFFF" points="477.477,111.932 477.477,112.937 481.696,115.37 481.696,114.366 					"/>
					<polygon fill="#FFFFFF" points="477.477,113.767 477.477,114.771 481.696,117.205 481.696,116.2 					"/>
					<polygon fill="#FFFFFF" points="509.328,133.143 509.328,132.139 483.279,117.114 483.279,118.119 					"/>
					<polygon fill="#FFFFFF" points="477.477,119.273 477.477,120.277 481.696,122.712 481.696,121.707 					"/>
					<polygon fill="#FFFFFF" points="477.477,121.108 477.477,122.112 481.696,124.547 481.696,123.543 					"/>
					<polygon fill="#FFFFFF" points="477.477,128.449 477.477,129.454 481.696,131.889 481.696,130.885 					"/>
					<polygon fill="#FFFFFF" points="477.477,130.285 477.477,131.288 481.696,133.724 481.696,132.719 					"/>
					<g>
						<polygon fill="#FFFFFF" points="499.713,143.111 483.279,133.632 483.279,134.637 499.713,144.116 						"/>
						<polygon fill="#FFFFFF" points="500.579,143.61 500.579,144.615 509.328,149.661 509.328,148.656 						"/>
					</g>
					<g>
						<polygon fill="#FFFFFF" points="491.536,136.561 483.279,131.798 483.279,132.801 491.536,137.563 						"/>
						<polygon fill="#FFFFFF" points="492.402,137.06 492.402,138.063 509.328,147.826 509.328,146.821 						"/>
					</g>
					<polygon fill="#FFFFFF" points="507.102,140.031 507.102,141.036 509.328,142.32 509.328,141.315 					"/>
					<polygon fill="#FFFFFF" points="494.984,131.207 483.279,124.455 483.279,125.46 494.984,132.211 					"/>
					<polygon fill="#FFFFFF" points="490.188,113.757 483.279,109.773 483.279,110.777 490.188,114.763 					"/>
					<g>
						<polygon fill="#FFFFFF" points="501.513,120.289 491.056,114.258 491.056,115.263 501.513,121.294 						"/>
					</g>
					<polygon fill="#FFFFFF" points="495.417,118.609 488.054,114.363 488.054,115.366 495.417,119.614 					"/>
					<g>
						<polygon fill="#FFFFFF" points="503.143,123.064 496.283,119.108 496.283,120.113 503.143,124.069 						"/>
						<polygon fill="#FFFFFF" points="504.009,123.564 504.009,124.568 509.328,127.637 509.328,126.634 						"/>
					</g>
					<polygon fill="#FFFFFF" points="484.641,114.229 484.641,115.232 490.188,118.434 490.188,117.429 					"/>
					<polygon fill="#FFFFFF" points="507.157,127.217 491.056,117.928 491.056,118.933 507.157,128.221 					"/>
					<polygon fill="#FFFFFF" points="497.938,127.405 487.415,121.334 487.415,122.34 497.938,128.409 					"/>
					<polygon fill="#FFFFFF" points="507.157,132.723 498.805,127.904 498.805,128.908 507.157,133.728 					"/>
					<g>
						<polygon fill="#FFFFFF" points="506.235,137.696 495.851,131.707 495.851,132.71 506.235,138.701 						"/>
					</g>
					<polygon fill="#FFFFFF" points="500.579,136.269 500.579,137.273 506.235,140.536 506.235,139.531 					"/>
					<polygon fill="#FFFFFF" points="485.318,127.467 483.279,126.292 483.279,127.295 485.318,128.471 					"/>
					<g>
						<polygon fill="#FFFFFF" points="489.132,129.667 489.132,130.672 499.713,136.773 499.713,135.77 						"/>
						<polygon fill="#FFFFFF" points="488.266,129.166 486.185,127.966 486.185,128.971 488.266,130.173 						"/>
					</g>
					<polygon fill="#FFFFFF" points="497.755,136.476 486.185,129.801 486.185,130.806 497.755,137.48 					"/>
				</g>
			</g>
			<path opacity="0.2" fill="#FFFFFF" enable-background="new    " d="M603.332,119.486l-13.073-7.544
				c-0.639-0.368-1.436,0.093-1.436,0.83v15.648c0,0.763,0.405,1.468,1.065,1.849l13.071,7.557c0.654,0.379,1.472-0.093,1.472-0.85
				v-15.584C604.434,120.607,604.015,119.881,603.332,119.486z"/>
			<path opacity="0.2" fill="#FFFFFF" enable-background="new    " d="M621.188,89.239l-13.073-7.544
				c-0.64-0.368-1.437,0.092-1.437,0.829v15.649c0,0.763,0.407,1.467,1.066,1.849l13.073,7.559c0.651,0.378,1.472-0.095,1.472-0.851
				V91.146C622.289,90.359,621.868,89.633,621.188,89.239z"/>
			<path opacity="0.2" fill="#FFFFFF" enable-background="new    " d="M661.553,171.063l-13.072-7.545
				c-0.639-0.367-1.436,0.093-1.436,0.83v15.648c0,0.764,0.406,1.468,1.065,1.849l13.07,7.558c0.655,0.378,1.476-0.094,1.476-0.849
				v-15.585C662.656,172.183,662.235,171.456,661.553,171.063z"/>
			<path opacity="0.2" fill="#FFFFFF" enable-background="new    " d="M547.759,132.56l-13.073-7.544
				c-0.639-0.368-1.437,0.094-1.437,0.829v15.649c0,0.763,0.407,1.468,1.067,1.849l13.07,7.558c0.654,0.379,1.474-0.094,1.474-0.85
				l0.001-15.584C548.861,133.681,548.441,132.953,547.759,132.56z"/>
			<path fill="#933E31" d="M498.545,261.165c-3.471,0.033-2.333-2.606-2.333-2.606c-5.147-1.567-7.678-0.694-7.683-0.693
				c-1.287,4.548-0.771,7.293-0.816,8.387c-0.022,0.541,0.377,0.872,0.884,1.063c2.771,1.029,5.292,1.717,10.45,1.213
				c3.797-0.369,7.817-3.885,6.902-7.496C505.381,258.782,502.063,261.131,498.545,261.165z"/>
			<path fill="#1C75BC" d="M497.059,228.537c-1.02-1.322-2.763-2.452-5.651-1.688l-31.032,5.986l1.167,7.969
				c0,0,4.753,6.27,13.072,3.891c8.317-2.376,13.722-6.267,13.722-6.267l-1.047,21.993c0,0,4.867,1.509,9.2-1.106
				c0.727-0.438,1.403-21.645,1.624-27.088C498.172,230.725,497.976,229.726,497.059,228.537z"/>
			<path fill="#9D4D36" d="M513.438,267.527c-3.602,0.033-2.42-2.706-2.42-2.706c-5.347-1.63-7.972-0.722-7.977-0.722
				c-1.339,4.721-0.8,7.57-0.85,8.707c-0.024,0.563,0.393,0.904,0.92,1.102c2.876,1.07,5.494,1.783,10.85,1.261
				c3.942-0.384,8.115-4.034,7.167-7.784C520.537,265.053,517.093,267.492,513.438,267.527z"/>
			<g>
				<polygon fill="#BBCEE1" points="478.173,258.78 451.537,243.381 451.537,247.127 478.174,262.486 				"/>
				<polygon fill="#FFFFFF" points="475.745,229.47 451.537,243.381 478.173,258.78 502.415,244.848 				"/>
				<polygon fill="#A7BCCE" points="502.415,244.848 478.173,258.78 478.174,262.486 502.415,248.463 				"/>
			</g>
			<path fill="#2A87C6" d="M511.896,233.648c-1.061-1.372-2.867-2.545-5.869-1.752l-32.224,6.216l1.212,8.276
				c0,0,4.938,6.506,13.573,4.038c8.638-2.468,14.248-6.507,14.248-6.507l-1.088,22.837c0,0,5.056,1.566,9.553-1.15
				c0.754-0.455,1.46-22.474,1.688-28.126C513.052,235.921,512.848,234.884,511.896,233.648z"/>
			<g>
				<path fill="#E8EBF5" d="M454.321,187.04l55.017-31.937c2.329-1.353,5.205-1.357,7.539-0.01l86.669,50.139
					c2.209,1.274,2.213,4.461,0.007,5.74l-53.794,31.229c-2.771,1.607-6.188,1.611-8.962,0.01l-86.47-50.022
					C452.347,191.045,452.343,188.188,454.321,187.04z"/>
				<path fill="#A7BCCE" d="M454.327,192.188l86.47,50.022c2.774,1.602,6.191,1.598,8.962-0.01l53.794-31.229
					c1.1-0.637,1.646-1.745,1.65-2.855v4.109c0,0.011,0,0.022,0,0.033v0.052l-0.007,0.001c-0.021,1.093-0.564,2.176-1.646,2.803
					l-53.794,31.228c-2.771,1.607-6.188,1.612-8.962,0.011l-86.47-50.024c-0.998-0.574-1.491-1.585-1.485-2.594h-0.001v-4.11
					C452.845,190.623,453.339,191.618,454.327,192.188z"/>
				<path fill="#BBCEE1" d="M454.327,192.188l86.47,50.022c1.271,0.734,2.678,1.114,4.095,1.174v4.143
					c-1.417-0.062-2.823-0.439-4.095-1.174l-86.47-50.024c-0.998-0.574-1.491-1.585-1.485-2.594h-0.001v-4.11
					C452.845,190.623,453.339,191.618,454.327,192.188z"/>
			</g>
			<g>
				<g>
					<g>
						<path fill="#0F4463" d="M494.973,198.59l9.337-5.401c0.438-0.255,0.979-0.256,1.422-0.003l28.835,16.676
							c0.414,0.24,0.416,0.841,0,1.081l-9.106,5.269c-0.521,0.304-1.165,0.304-1.688,0.003l-28.798-16.655
							C494.601,199.344,494.601,198.805,494.973,198.59z"/>
						<path fill="#0B3B56" d="M494.974,199.559l28.798,16.655c0.521,0.301,1.166,0.301,1.688-0.003l9.106-5.269
							c0.208-0.12,0.311-0.328,0.311-0.537v1.102c0,0,0,0.004,0,0.006v0.01l0,0c-0.005,0.207-0.106,0.41-0.311,0.528l-9.106,5.268
							c-0.521,0.303-1.165,0.304-1.688,0.003l-28.798-16.654c-0.188-0.109-0.279-0.299-0.278-0.488l0,0v-1.103
							C494.695,199.264,494.787,199.451,494.974,199.559z"/>
					</g>
					<g>
						<polygon fill="#1F5E77" points="504.202,194.704 505.372,194.025 506.7,194.792 505.535,195.467 						"/>
						<polygon fill="#1F5E77" points="505.859,195.658 507.029,194.979 508.356,195.745 507.191,196.422 						"/>
						<polygon fill="#1F5E77" points="507.517,196.611 508.688,195.934 510.014,196.7 508.849,197.376 						"/>
						<polygon fill="#1F5E77" points="509.175,197.564 510.344,196.888 511.672,197.653 510.506,198.329 						"/>
						<polygon fill="#1F5E77" points="510.832,198.52 512.002,197.841 513.329,198.607 512.164,199.284 						"/>
						<polygon fill="#1F5E77" points="512.489,199.475 513.658,198.796 514.986,199.562 513.821,200.237 						"/>
						<polygon fill="#1F5E77" points="514.146,200.428 515.315,199.749 516.645,200.516 515.479,201.192 						"/>
						<polygon fill="#1F5E77" points="515.804,201.382 516.973,200.703 518.302,201.47 517.136,202.146 						"/>
						<polygon fill="#1F5E77" points="517.461,202.336 518.631,201.658 519.959,202.424 518.794,203.1 						"/>
						<polygon fill="#1F5E77" points="519.118,203.29 520.288,202.611 521.615,203.379 520.451,204.054 						"/>
						<polygon fill="#1F5E77" points="520.775,204.244 521.945,203.565 523.273,204.331 522.107,205.008 						"/>
						<polygon fill="#1F5E77" points="522.434,205.197 523.604,204.519 524.931,205.286 523.765,205.962 						"/>
						<polygon fill="#1F5E77" points="525.261,205.474 526.588,206.239 525.423,206.915 524.091,206.152 						"/>
						<polygon fill="#1F5E77" points="504.021,196.344 502.689,195.58 503.858,194.901 505.188,195.668 						"/>
						<polygon fill="#1F5E77" points="506.845,196.622 505.679,197.297 504.347,196.533 505.516,195.856 						"/>
						<polygon fill="#1F5E77" points="508.502,197.577 507.337,198.252 506.004,197.488 507.174,196.81 						"/>
						<polygon fill="#1F5E77" points="510.159,198.529 508.994,199.207 507.661,198.441 508.831,197.764 						"/>
						<polygon fill="#1F5E77" points="511.816,199.483 510.651,200.16 509.319,199.396 510.488,198.718 						"/>
						<polygon fill="#1F5E77" points="513.474,200.438 512.308,201.114 510.977,200.35 512.146,199.671 						"/>
						<polygon fill="#1F5E77" points="515.131,201.392 513.966,202.068 512.634,201.305 513.804,200.626 						"/>
						<polygon fill="#1F5E77" points="516.788,202.347 515.623,203.022 514.291,202.258 515.461,201.579 						"/>
						<polygon fill="#1F5E77" points="518.446,203.3 517.28,203.977 515.948,203.213 517.118,202.534 						"/>
						<polygon fill="#1F5E77" points="520.104,204.255 518.938,204.93 517.605,204.166 518.775,203.487 						"/>
						<polygon fill="#1F5E77" points="521.761,205.208 520.596,205.885 519.263,205.119 520.433,204.441 						"/>
						<polygon fill="#1F5E77" points="523.418,206.161 522.253,206.838 520.92,206.074 522.09,205.396 						"/>
						<polygon fill="#1F5E77" points="523.747,206.35 525.075,207.116 523.91,207.793 522.577,207.027 						"/>
						<polygon fill="#1F5E77" points="502.509,197.221 501.177,196.456 502.347,195.777 503.674,196.545 						"/>
						<polygon fill="#1F5E77" points="505.331,197.498 504.166,198.174 502.834,197.41 504.004,196.732 						"/>
						<polygon fill="#1F5E77" points="504.492,198.364 505.661,197.687 506.989,198.453 505.823,199.128 						"/>
						<polygon fill="#1F5E77" points="508.646,199.406 507.48,200.082 506.149,199.317 507.318,198.641 						"/>
						<polygon fill="#1F5E77" points="510.304,200.359 509.139,201.037 507.806,200.272 508.976,199.594 						"/>
						<polygon fill="#1F5E77" points="511.961,201.314 510.796,201.99 509.463,201.226 510.633,200.549 						"/>
						<polygon fill="#1F5E77" points="513.618,202.268 512.453,202.945 511.121,202.181 512.29,201.502 						"/>
						<polygon fill="#1F5E77" points="515.275,203.223 514.11,203.898 512.778,203.134 513.947,202.456 						"/>
						<polygon fill="#1F5E77" points="516.933,204.177 515.768,204.852 514.436,204.089 515.605,203.41 						"/>
						<polygon fill="#1F5E77" points="518.59,205.131 517.425,205.807 516.093,205.042 517.263,204.364 						"/>
						<polygon fill="#1F5E77" points="520.248,206.084 519.082,206.76 517.751,205.995 518.92,205.318 						"/>
						<polygon fill="#1F5E77" points="519.408,206.95 520.577,206.271 521.905,207.037 520.739,207.715 						"/>
						<polygon fill="#1F5E77" points="522.234,207.227 523.563,207.992 522.396,208.668 521.064,207.904 						"/>
						<polygon fill="#1F5E77" points="500.996,198.097 499.664,197.333 500.833,196.654 502.162,197.42 						"/>
						<polygon fill="#1F5E77" points="501.321,198.286 502.49,197.607 503.819,198.375 502.653,199.05 						"/>
						<polygon fill="#1F5E77" points="502.979,199.241 504.148,198.563 505.476,199.328 504.311,200.005 						"/>
						<polygon fill="#1F5E77" points="504.636,200.193 505.806,199.516 507.133,200.282 505.968,200.958 						"/>
						<polygon fill="#1F5E77" points="506.294,201.148 507.463,200.47 508.791,201.236 507.625,201.913 						"/>
						<polygon fill="#1F5E77" points="507.951,202.103 509.12,201.424 510.448,202.189 509.282,202.866 						"/>
						<polygon fill="#1F5E77" points="509.608,203.057 510.777,202.378 512.105,203.145 510.94,203.821 						"/>
						<polygon fill="#1F5E77" points="511.266,204.011 512.435,203.332 513.763,204.098 512.598,204.774 						"/>
						<polygon fill="#1F5E77" points="512.923,204.965 514.092,204.287 515.422,205.053 514.255,205.728 						"/>
						<polygon fill="#1F5E77" points="514.58,205.919 515.749,205.24 517.078,206.008 515.912,206.683 						"/>
						<polygon fill="#1F5E77" points="516.237,206.872 517.407,206.193 518.734,206.961 517.569,207.637 						"/>
						<polygon fill="#1F5E77" points="517.895,207.827 519.064,207.148 520.392,207.916 519.227,208.591 						"/>
						<polygon fill="#1F5E77" points="520.722,208.102 522.05,208.868 520.884,209.545 519.553,208.78 						"/>
						<polygon fill="#1F5E77" points="499.483,198.974 498.151,198.209 499.32,197.53 500.648,198.297 						"/>
						<polygon fill="#1F5E77" points="499.809,199.163 500.978,198.484 502.306,199.251 501.141,199.926 						"/>
						<polygon fill="#1F5E77" points="501.466,200.117 502.635,199.438 503.964,200.205 502.798,200.882 						"/>
						<polygon fill="#1F5E77" points="503.123,201.07 504.292,200.392 505.621,201.159 504.455,201.835 						"/>
						<polygon fill="#1F5E77" points="504.78,202.023 505.95,201.347 507.278,202.113 506.113,202.789 						"/>
						<polygon fill="#1F5E77" points="506.438,202.979 507.607,202.3 508.936,203.066 507.771,203.743 						"/>
						<polygon fill="#1F5E77" points="508.096,203.934 509.265,203.255 510.593,204.021 509.427,204.696 						"/>
						<polygon fill="#1F5E77" points="509.753,204.887 510.922,204.208 512.25,204.975 511.084,205.651 						"/>
						<polygon fill="#1F5E77" points="511.41,205.842 512.58,205.162 513.907,205.929 512.742,206.604 						"/>
						<polygon fill="#1F5E77" points="513.067,206.795 514.236,206.117 515.566,206.883 514.399,207.56 						"/>
						<polygon fill="#1F5E77" points="514.725,207.749 515.894,207.07 517.223,207.838 516.057,208.513 						"/>
						<polygon fill="#1F5E77" points="516.382,208.703 517.551,208.025 518.881,208.791 517.714,209.467 						"/>
						<polygon fill="#1F5E77" points="519.209,208.978 520.537,209.745 519.373,210.421 518.039,209.656 						"/>
						<polygon fill="#1F5E77" points="497.808,198.407 499.136,199.173 497.971,199.85 496.639,199.085 						"/>
						<polygon fill="#1F5E77" points="500.793,200.127 499.628,200.803 498.296,200.039 499.465,199.36 						"/>
						<polygon fill="#1F5E77" points="502.45,201.081 501.285,201.756 499.953,200.993 501.123,200.315 						"/>
						<polygon fill="#1F5E77" points="504.107,202.036 502.942,202.711 501.61,201.947 502.78,201.269 						"/>
						<polygon fill="#1F5E77" points="505.766,202.989 504.6,203.666 503.268,202.9 504.438,202.224 						"/>
						<polygon fill="#1F5E77" points="507.423,203.942 506.257,204.619 504.925,203.854 506.094,203.177 						"/>
						<polygon fill="#1F5E77" points="507.752,204.131 509.409,205.085 509.409,205.085 509.735,205.273 511.066,206.04 
							511.066,206.038 511.741,206.428 512.723,206.993 512.725,206.993 513.771,207.597 515.709,208.714 514.544,209.389 
							512.517,208.223 511.555,207.672 511.557,207.671 510.548,207.09 509.897,206.717 509.898,206.716 508.588,205.963 
							508.239,205.764 508.24,205.764 506.582,204.809 						"/>
						<polygon fill="#1F5E77" points="517.368,209.667 516.201,210.345 514.869,209.58 516.039,208.901 						"/>
						<polygon fill="#1F5E77" points="519.025,210.621 517.858,211.297 516.527,210.533 517.696,209.854 						"/>
					</g>
					<g>
						<polygon fill="#1F5E77" points="527.405,208.058 528.574,207.38 529.902,208.146 528.737,208.822 						"/>
						<polygon fill="#1F5E77" points="529.063,209.013 530.231,208.334 531.561,209.1 530.395,209.777 						"/>
						<polygon fill="#1F5E77" points="530.72,209.967 531.89,209.288 533.218,210.055 532.052,210.73 						"/>
						<polygon fill="#1F5E77" points="528.39,209.021 527.224,209.699 525.893,208.935 527.063,208.256 						"/>
						<polygon fill="#1F5E77" points="530.047,209.977 528.882,210.652 527.55,209.889 528.72,209.211 						"/>
						<polygon fill="#1F5E77" points="531.704,210.93 530.539,211.607 529.207,210.843 530.377,210.164 						"/>
						<polygon fill="#1F5E77" points="526.877,209.898 525.712,210.575 524.379,209.811 525.549,209.132 						"/>
						<polygon fill="#1F5E77" points="528.534,210.853 527.369,211.528 526.037,210.766 527.206,210.086 						"/>
						<polygon fill="#1F5E77" points="530.191,211.807 529.026,212.483 527.694,211.719 528.864,211.04 						"/>
						<polygon fill="#1F5E77" points="522.867,210.687 524.036,210.009 525.364,210.774 524.198,211.451 						"/>
						<polygon fill="#1F5E77" points="524.524,211.641 525.693,210.962 527.021,211.729 525.856,212.405 						"/>
						<polygon fill="#1F5E77" points="526.182,212.596 527.351,211.917 528.681,212.683 527.514,213.359 						"/>
						<polygon fill="#1F5E77" points="521.354,211.563 522.523,210.885 523.852,211.651 522.686,212.328 						"/>
						<polygon fill="#1F5E77" points="523.012,212.517 524.181,211.839 525.509,212.605 524.343,213.281 						"/>
						<polygon fill="#1F5E77" points="524.669,213.472 525.839,212.793 527.166,213.559 526,214.236 						"/>
						<polygon fill="#1F5E77" points="522.34,212.528 521.173,213.204 519.841,212.44 521.01,211.762 						"/>
						<polygon fill="#1F5E77" points="523.996,213.482 522.832,214.158 521.498,213.394 522.668,212.715 						"/>
					</g>
				</g>
				<g>
					<path fill="#1F5E77" d="M515.688,189.628l9.186-5.331c0.39-0.227,0.869-0.227,1.26-0.002l21.791,12.577
						c0.369,0.212,0.37,0.745,0.001,0.959l-8.979,5.213c-0.462,0.27-1.033,0.27-1.497,0.003l-21.758-12.559
						C515.356,190.296,515.355,189.82,515.688,189.628z"/>
					<path fill="#07304B" d="M515.688,190.488l21.76,12.559c0.464,0.267,1.033,0.267,1.497-0.003l8.979-5.213
						c0.186-0.106,0.274-0.291,0.274-0.477v1.113c0,0.003,0,0.004,0,0.007v0.008l0,0c-0.005,0.183-0.096,0.363-0.274,0.469
						l-8.979,5.213c-0.462,0.269-1.033,0.269-1.497,0.001l-21.76-12.558c-0.166-0.097-0.247-0.266-0.246-0.435l0,0v-1.114
						C515.44,190.225,515.523,190.393,515.688,190.488z"/>
					<path fill="#0B3B56" d="M515.688,190.486l21.76,12.561c0.213,0.121,0.446,0.187,0.685,0.195v1.119
						c-0.236-0.01-0.472-0.073-0.685-0.196l-21.76-12.558c-0.166-0.097-0.247-0.266-0.246-0.435l0,0v-1.114
						C515.44,190.225,515.523,190.393,515.688,190.486z"/>
				</g>
				<g>
					<polygon fill="#0F4463" points="539.515,190.468 522.577,180.667 522.577,189.058 539.515,198.853 					"/>
					<polygon fill="#07304B" points="524.935,179.314 522.577,180.667 539.515,190.468 541.878,189.11 					"/>
					<polygon fill="#07304B" points="541.878,189.11 539.515,190.468 539.515,198.853 541.878,197.479 					"/>
				</g>
				<g>
					<g>
						
							<linearGradient id="SVGID_3_" gradientUnits="userSpaceOnUse" x1="524.5107" y1="484.8457" x2="540.7117" y2="431.5391" gradientTransform="matrix(1 0 0 1 0 -291)">
							<stop  offset="0" style="stop-color:#1C75BC"/>
							<stop  offset="0.2787" style="stop-color:#2077BC"/>
							<stop  offset="0.5411" style="stop-color:#2B7EBC"/>
							<stop  offset="0.7962" style="stop-color:#3E88BC"/>
							<stop  offset="1" style="stop-color:#5394BC"/>
						</linearGradient>
						<polygon fill="url(#SVGID_3_)" points="505.459,137.96 556.942,167.82 556.941,205.706 505.459,175.727 						"/>
						<polygon fill="#07304B" points="556.942,167.82 558.654,166.781 558.654,204.667 556.941,205.706 						"/>
						<polygon fill="#1F5E77" points="505.459,137.96 507.212,136.944 558.654,166.781 556.942,167.82 						"/>
					</g>
					<path fill="#0B3B56" d="M505.459,137.96v37.767l51.482,29.979l0.001-37.886L505.459,137.96z M555.723,203.586l-49.045-28.561
						v-34.948l49.045,28.446V203.586z"/>
				</g>
			</g>
			
				<ellipse transform="matrix(-0.9952 -0.0982 0.0982 -0.9952 936.5522 414.0019)" fill="#FED4BD" cx="478.465" cy="183.951" rx="7.987" ry="9.845"/>
			<path fill="#F4C5A2" d="M492.954,197.35c0,0,1.908,0.459,2.57,0.525c0.66,0.067,3.168,0.588,4.191,0.276
				c1.025-0.312-0.898-0.991-1.374-1.343c-0.476-0.353-0.453-1.238,0.581-1.55s3.374-0.165,4.61-0.341
				c1.238-0.177-1.229-3.924-3.245-4.271c-2.016-0.346-3.742-0.134-5.523,0.746c-1.72,0.848-2.657,2.279-3.459,2.557L492.954,197.35
				z"/>
			<path fill="#ED5561" d="M493.174,192.239l-13.051,3.271l-0.657,8.291l15.407-5.279
				C495.193,195.588,493.174,192.239,493.174,192.239z"/>
			<path fill="#ED5561" d="M460.985,195.748c0,0-3.609,4.548,0,10.811c0,0,2.521,3.491,9.454,0.074L460.985,195.748z"/>
			<path fill="#DE495A" d="M471.683,190.435c0,0,5.624-0.385,10.039,2.701c0,0,0.327,0.929,1.21,1.517
				c0.886,0.589,5.262,2.344,5.262,2.344s-1.932,25.689,0.285,38.198c0,0-9.514,7.427-24.365,0c0,0-2.171-31.542-3.126-39.446
				C460.985,195.748,463.46,192.687,471.683,190.435z"/>
			<g>
				<polygon fill="#BBCEE1" points="469.206,232.843 442.571,217.445 451.537,243.42 478.174,258.78 				"/>
				<polygon fill="#FFFFFF" points="445.512,215.738 442.571,217.445 469.206,232.843 472.181,231.115 				"/>
				<polygon fill="#A7BCCE" points="472.181,231.115 469.206,232.843 478.174,258.78 481.182,257.048 				"/>
			</g>
			<path fill="#F4C5A2" d="M510.5,208.727c0,0,1.454-1.465,2.01-1.882c0.559-0.418,2.516-2.263,3.609-2.507
				c1.098-0.243-0.776,1.657-1.002,2.251c-0.229,0.596,1.12-0.474,2.146-0.857c1.063-0.397,2.234-0.327,3.491,0.119
				c2.521,0.896,2.398,5.939,0.337,5.344c-3.39-0.979-4.915,1.711-6.938,2.277c-1.402,0.392-1.992,0.368-2.868,0.524L510.5,208.727z
				"/>
			<path fill="#ED5561" d="M488.191,196.996l11.016,14.596l11.448-3.38c0,0,2.455,3.096,1.657,6.379l-15.277,5.946l-12.416-13.66
				C484.619,206.877,480.461,198.213,488.191,196.996z"/>
			<path fill="#9D4D36" d="M482.055,169.531c0,0,0.851,2.032-3.207,2.583c-4.043,0.551-9.063,2.568-10.38,6.843
				c-0.843,2.736,0.134,5.67,1.508,8.058c0.47,0.816,0.993,1.629,1.609,2.345c0,0,2.71,0.732,5.976-1.028
				c0,0,2.013-1.341,3.218-3.92c0,0,2.412,1.005,3.168-1.005c0.553-1.477,2.297-1.844,3.246-2.651
				C487.19,180.755,492.665,171.81,482.055,169.531z"/>
			<g>
				<polygon fill="#BBCEE1" points="633.234,247.257 615.586,237.013 615.586,243.616 633.237,253.832 				"/>
				<polygon fill="#FFFFFF" points="633.827,226.53 615.586,237.013 633.234,247.257 651.502,236.76 				"/>
				<polygon fill="#A7BCCE" points="651.502,236.76 633.234,247.257 633.237,253.832 651.502,243.264 				"/>
			</g>
			<g>
				<polygon fill="#BBCEE1" points="633.234,236.457 615.586,226.212 615.586,232.816 633.237,243.032 				"/>
				<polygon fill="#FFFFFF" points="633.827,215.729 615.586,226.212 633.234,236.457 651.502,225.958 				"/>
				<polygon fill="#A7BCCE" points="651.502,225.958 633.234,236.457 633.237,243.032 651.502,232.464 				"/>
			</g>
			<g>
				<polygon fill="#BBCEE1" points="603.387,264.54 585.738,254.296 585.738,260.898 603.389,271.114 				"/>
				<polygon fill="#FFFFFF" points="603.979,243.813 585.738,254.296 603.387,264.54 621.653,254.041 				"/>
				<polygon fill="#A7BCCE" points="621.654,254.041 603.387,264.54 603.389,271.114 621.654,260.546 				"/>
			</g>
			<g>
				<polygon fill="#BBCEE1" points="603.387,253.739 585.738,243.494 585.738,250.099 603.389,260.314 				"/>
				<polygon fill="#FFFFFF" points="603.979,233.013 585.738,243.494 603.387,253.739 621.653,243.241 				"/>
				<polygon fill="#A7BCCE" points="621.654,243.241 603.387,253.739 603.389,260.314 621.654,249.747 				"/>
			</g>
			<g>
				<polygon fill="#BBCEE1" points="573.539,281.823 555.891,271.579 555.891,278.182 573.541,288.396 				"/>
				<polygon fill="#FFFFFF" points="574.132,261.096 555.891,271.579 573.539,281.823 591.806,271.324 				"/>
				<polygon fill="#A7BCCE" points="591.807,271.324 573.539,281.823 573.541,288.396 591.807,277.829 				"/>
			</g>
			<g>
				<polygon fill="#BBCEE1" points="573.539,271.023 555.891,260.777 555.891,267.381 573.541,277.598 				"/>
				<polygon fill="#FFFFFF" points="574.132,250.294 555.891,260.777 573.539,271.023 591.806,260.523 				"/>
				<polygon fill="#A7BCCE" points="591.807,260.523 573.539,271.023 573.541,277.598 591.807,267.029 				"/>
			</g>
			<g>
				<path fill="#1C75BC" d="M579.045,264.551l-1.107-0.639c-0.798,0.313-1.683,0.521-2.596,0.623l0.004,0.902l-2.689,0.002
					l-0.006-0.904c-0.913-0.104-1.802-0.311-2.603-0.623l-1.102,0.639l-1.91-1.104l1.102-0.641
					c-0.544-0.463-0.903-0.976-1.086-1.502h-1.562l-0.009-1.563h1.562c0.175-0.527,0.531-1.04,1.068-1.507l-1.106-0.639l1.897-1.104
					l1.104,0.64c0.798-0.313,1.686-0.521,2.594-0.624l-0.003-0.904h2.694l0.003,0.904c0.914,0.104,1.8,0.313,2.602,0.624
					l1.103-0.641l1.911,1.104l-1.104,0.641c0.544,0.461,0.904,0.975,1.085,1.503h1.563l0.009,1.559l-1.563,0.003
					c-0.173,0.528-0.531,1.041-1.067,1.504l1.108,0.641L579.045,264.551z M571.484,261.973c1.384,0.799,3.619,0.799,4.994,0
					c1.377-0.801,1.367-2.096-0.018-2.896c-1.383-0.8-3.62-0.8-4.995,0C570.094,259.877,570.1,261.172,571.484,261.973"/>
			</g>
			<polygon fill="#EF4136" points="605.329,238.709 607.046,242.375 608.762,246.041 602.427,245.059 596.094,244.076 
				600.711,241.393 			"/>
			<g>
				<path fill="#91A6B7" d="M626.923,225.174c-0.955-0.551-0.521-1.355,1.289-2.409c0.873-0.508,1.679-0.831,2.41-0.978
					c0.732-0.145,1.311-0.093,1.729,0.15c0.212,0.123,0.369,0.265,0.462,0.425c0.095,0.158,0.166,0.316,0.216,0.474l1.669-0.407
					c-0.104-0.289-0.249-0.532-0.437-0.731c-0.186-0.2-0.423-0.377-0.711-0.545c-0.875-0.505-1.912-0.691-3.114-0.564
					c-1.201,0.131-2.438,0.567-3.711,1.307c-1.271,0.738-2.021,1.449-2.247,2.132c-0.228,0.686,0.104,1.283,0.99,1.796
					c0.604,0.347,1.225,0.558,1.863,0.631l1.295-0.753C627.908,225.59,627.34,225.414,626.923,225.174z"/>
				<path fill="#91A6B7" d="M634.851,227.191c0.153-0.325,0.145-0.738-0.026-1.233c-0.13-0.366-0.175-0.65-0.132-0.852
					s0.194-0.381,0.465-0.535c0.266-0.155,0.542-0.241,0.825-0.257c0.282-0.017,0.545,0.041,0.779,0.178
					c0.218,0.126,0.381,0.267,0.49,0.422c0.108,0.154,0.2,0.311,0.274,0.467l1.65-0.397c-0.224-0.518-0.637-0.95-1.236-1.298
					c-0.636-0.365-1.334-0.543-2.105-0.531c-0.768,0.008-1.486,0.213-2.157,0.602c-0.35,0.203-0.614,0.41-0.78,0.618
					c-0.167,0.209-0.271,0.426-0.313,0.65c-0.034,0.225-0.004,0.5,0.105,0.831c0.126,0.378,0.158,0.679,0.111,0.901
					c-0.044,0.225-0.196,0.412-0.461,0.566c-0.263,0.151-0.542,0.23-0.842,0.237c-0.296,0.01-0.585-0.069-0.865-0.231
					c-0.492-0.284-0.839-0.706-1.051-1.271l-1.441,0.839c0.219,0.435,0.664,0.85,1.354,1.248c0.701,0.405,1.43,0.599,2.193,0.587
					c0.764-0.011,1.51-0.23,2.237-0.654C634.386,227.811,634.691,227.517,634.851,227.191z"/>
				<path fill="#91A6B7" d="M642.506,226.321c-0.635-0.365-1.335-0.545-2.105-0.532c-0.765,0.012-1.486,0.214-2.155,0.602
					c-0.352,0.203-0.614,0.412-0.783,0.619c-0.168,0.208-0.271,0.426-0.313,0.65c-0.032,0.225-0.002,0.503,0.104,0.831
					c0.127,0.378,0.16,0.679,0.117,0.903c-0.047,0.223-0.202,0.41-0.465,0.563c-0.265,0.153-0.541,0.232-0.839,0.242
					c-0.301,0.006-0.584-0.071-0.864-0.232c-0.493-0.285-0.845-0.708-1.052-1.271l-1.441,0.838c0.215,0.434,0.664,0.851,1.35,1.246
					c0.703,0.405,1.438,0.603,2.194,0.589c0.764-0.012,1.515-0.229,2.243-0.654c0.459-0.267,0.761-0.562,0.919-0.887
					c0.153-0.326,0.146-0.736-0.027-1.233c-0.129-0.366-0.171-0.648-0.128-0.851c0.038-0.204,0.194-0.382,0.462-0.537
					c0.268-0.155,0.541-0.24,0.825-0.257c0.283-0.016,0.544,0.041,0.784,0.18c0.216,0.126,0.377,0.265,0.484,0.42
					c0.108,0.155,0.201,0.311,0.274,0.469l1.652-0.399C643.521,227.102,643.106,226.668,642.506,226.321z"/>
			</g>
			<g>
				<g>
					<g>
						<path fill="#79FF68" d="M632.842,167.373l-17.141-9.892c-0.524-0.302-1.127-0.288-1.717,0.069v-0.002l-3.766,2.174
							l1.749,2.373l0.653,0.748v16.981c0,1.011,0.539,1.946,1.413,2.452l12.83,7.416l0.132,0.713l2.617,3.67l4.025-2.368
							c0.008-0.003,0.015-0.007,0.021-0.011l0.028-0.016v-0.002c0.356-0.224,0.61-0.619,0.61-1.104l0.001-20.673
							C634.304,168.858,633.746,167.896,632.842,167.373z"/>
						<path fill="#50E85E" d="M628.834,169.729l-17.343-10.008c-0.849-0.488-1.903,0.124-1.903,1.1v20.762
							c0,1.011,0.539,1.943,1.414,2.451l17.341,10.026c0.869,0.5,1.954-0.126,1.954-1.127v-20.674
							C630.297,171.215,629.738,170.25,628.834,169.729z"/>
					</g>
				</g>
				<g>
					<path fill="#BBCEE1" d="M629.641,194.062l-0.023,0.015l-0.002-0.004C629.622,194.067,629.633,194.066,629.641,194.062z"/>
					<path fill="#3CC743" d="M630.297,192.933v-20.674c0-0.349-0.083-0.68-0.198-0.997l4.022-2.317
						c0.105,0.307,0.183,0.625,0.183,0.959l-0.001,20.673c0,0.484-0.254,0.88-0.612,1.104v0.002l-0.026,0.016
						c-0.007,0.004-0.014,0.008-0.021,0.011l-3.991,2.348C630.026,193.836,630.297,193.431,630.297,192.933z"/>
				</g>
			</g>
			<g>
				<g>
					<g>
						<path fill="#9263C1" d="M652.456,126.079l-17.142-9.891c-0.524-0.304-1.125-0.29-1.717,0.067h-0.002l-3.764,2.173l1.751,2.373
							l0.651,0.747v16.982c0,1.011,0.539,1.945,1.412,2.452l12.83,7.417l0.134,0.713l2.615,3.668l4.026-2.366
							c0.007-0.005,0.014-0.009,0.021-0.012l0.025-0.016v-0.004c0.36-0.224,0.613-0.616,0.613-1.102l0.001-20.673
							C653.918,127.565,653.36,126.6,652.456,126.079z"/>
						<path fill="#8444B2" d="M648.448,128.434l-17.343-10.006c-0.849-0.489-1.903,0.122-1.903,1.099v20.761
							c0,1.012,0.539,1.946,1.414,2.451l17.341,10.025c0.869,0.502,1.954-0.124,1.954-1.126v-20.673
							C649.911,129.92,649.354,128.956,648.448,128.434z"/>
					</g>
				</g>
				<g>
					<path fill="#BBCEE1" d="M649.255,152.767l-0.023,0.015l-0.003-0.003C649.235,152.773,649.246,152.772,649.255,152.767z"/>
					<path fill="#7231A3" d="M649.911,151.638v-20.674c0-0.348-0.081-0.679-0.198-0.995l4.022-2.317
						c0.105,0.305,0.183,0.624,0.183,0.958l-0.001,20.673c0,0.485-0.253,0.878-0.613,1.102v0.004l-0.025,0.016
						c-0.009,0.003-0.016,0.007-0.021,0.012l-3.992,2.347C649.641,152.542,649.911,152.136,649.911,151.638z"/>
				</g>
			</g>
			<g>
				<g>
					<g>
						<path fill="#FFA8E1" d="M595.137,126.378l-17.141-9.891c-0.524-0.303-1.125-0.289-1.716,0.068v-0.002l-3.767,2.174l1.75,2.373
							l0.652,0.748v16.981c0,1.011,0.539,1.945,1.415,2.452l12.83,7.417l0.13,0.715l2.618,3.668l4.024-2.367
							c0.009-0.005,0.017-0.008,0.021-0.013l0.027-0.015v-0.002c0.357-0.225,0.612-0.619,0.612-1.104v-20.673
							C596.6,127.865,596.043,126.9,595.137,126.378z"/>
						<path fill="#FF7AD2" d="M591.131,128.734l-17.344-10.008c-0.848-0.488-1.903,0.123-1.903,1.1v20.761
							c0,1.011,0.538,1.944,1.414,2.451l17.341,10.026c0.868,0.5,1.953-0.126,1.953-1.127v-20.674
							C592.592,130.219,592.035,129.255,591.131,128.734z"/>
					</g>
				</g>
				<g>
					<path fill="#BBCEE1" d="M591.936,153.066l-0.022,0.016l-0.001-0.005C591.918,153.072,591.928,153.071,591.936,153.066z"/>
					<path fill="#DE64C6" d="M592.592,151.938v-20.674c0-0.348-0.081-0.679-0.198-0.995l4.023-2.318
						c0.107,0.306,0.183,0.624,0.183,0.958v20.673c0,0.485-0.255,0.88-0.612,1.104v0.002l-0.027,0.015
						c-0.006,0.005-0.014,0.008-0.021,0.013l-3.991,2.346C592.323,152.841,592.592,152.436,592.592,151.938z"/>
				</g>
			</g>
			<g>
				<g>
					<g>
						<path fill="#FCEC32" d="M557.601,86.342L540.46,76.45c-0.524-0.303-1.126-0.29-1.716,0.068h-0.001l-3.764,2.172l1.749,2.373
							l0.651,0.748v16.981c0,1.012,0.539,1.945,1.414,2.453l12.828,7.416l0.133,0.714l2.618,3.668l4.026-2.367
							c0.006-0.004,0.013-0.007,0.021-0.012l0.027-0.016v-0.003c0.356-0.225,0.611-0.617,0.611-1.102l0.002-20.674
							C559.063,87.827,558.505,86.861,557.601,86.342z"/>
						<path fill="#F5D012" d="M553.594,88.697l-17.343-10.008c-0.848-0.489-1.903,0.123-1.903,1.099v20.762
							c0,1.01,0.538,1.945,1.413,2.45l17.342,10.027c0.868,0.502,1.953-0.125,1.953-1.127V91.227
							C555.056,90.182,554.498,89.218,553.594,88.697z"/>
					</g>
				</g>
				<g>
					<path fill="#BBCEE1" d="M554.399,113.028l-0.024,0.016l-0.003-0.004C554.381,113.036,554.392,113.034,554.399,113.028z"/>
					<path fill="#EAA10C" d="M555.056,111.9V91.227c0-0.348-0.081-0.679-0.196-0.996l4.021-2.317
						c0.107,0.306,0.185,0.625,0.185,0.958l-0.003,20.674c0,0.484-0.255,0.877-0.611,1.102v0.003l-0.027,0.016
						c-0.008,0.003-0.015,0.008-0.021,0.012l-3.993,2.348C554.786,112.805,555.056,112.398,555.056,111.9z"/>
				</g>
			</g>
			<path fill="#FFFFFF" d="M587.71,132.809c-1.053-1.822-2.433-3.228-3.815-4.025c-1.382-0.797-2.765-0.988-3.821-0.385
				c-1.878,1.071-2.095,4.29-0.646,7.548l-4.713,2.685l1.373,2.376l4.711-2.685c0.919,1.263,1.992,2.251,3.066,2.871
				c1.381,0.796,2.761,0.988,3.817,0.388C589.801,140.376,589.813,136.449,587.71,132.809z M586.313,139.204
				c-0.678,0.386-1.563,0.263-2.444-0.247c-0.884-0.511-1.769-1.409-2.438-2.572c-1.345-2.329-1.338-4.842,0.018-5.609
				c0.677-0.386,1.562-0.263,2.442,0.248c0.888,0.51,1.77,1.407,2.44,2.572C587.673,135.921,587.666,138.434,586.313,139.204z"/>
			<g>
				<path fill="#FFFFFF" d="M634.883,127.121c-0.19,0.194-0.283,0.574-0.285,1.133l-0.007,2.48v0.063
					c-0.002,0.472-0.153,0.725-0.454,0.759c-0.301,0.034-0.73-0.111-1.289-0.433l-0.004,1.728c0.558,0.32,0.986,0.674,1.287,1.06
					c0.299,0.386,0.449,0.836,0.447,1.349l-0.006,2.452c-0.003,0.558,0.086,1.042,0.273,1.462c0.187,0.419,0.479,0.813,0.888,1.191
					c0.403,0.378,0.965,0.771,1.676,1.182l0.005-1.634c-0.46-0.283-0.771-0.561-0.936-0.834c-0.165-0.28-0.243-0.603-0.242-0.978
					l0.006-2.348v-0.093c0.002-0.938-0.512-1.789-1.552-2.568V133c1.025,0.419,1.545,0.13,1.562-0.863l0.008-2.348
					c0-0.38,0.086-0.606,0.252-0.69c0.165-0.084,0.479,0.005,0.936,0.25l0.004-1.635c-0.701-0.405-1.257-0.656-1.67-0.75
					C635.364,126.869,635.067,126.923,634.883,127.121z"/>
				<path fill="#FFFFFF" d="M644.576,137.584c-0.289-0.375-0.438-0.801-0.438-1.272v-0.063l0.007-2.481
					c0.005-0.801-0.204-1.486-0.636-2.063c-0.425-0.573-1.161-1.159-2.212-1.768l-0.007,1.636c0.457,0.281,0.772,0.555,0.938,0.828
					c0.162,0.268,0.241,0.597,0.24,0.977l-0.006,2.349c0.019,1.014,0.541,1.904,1.567,2.67v0.093
					c-0.513-0.204-0.903-0.245-1.168-0.117c-0.271,0.133-0.409,0.429-0.41,0.899v0.07l-0.007,2.349c0,0.38-0.082,0.616-0.248,0.698
					c-0.166,0.077-0.481-0.007-0.938-0.253l-0.004,1.636c1.047,0.604,1.784,0.862,2.215,0.782c0.429-0.082,0.646-0.521,0.646-1.327
					l0.007-2.453c0.001-0.513,0.152-0.788,0.444-0.832c0.296-0.043,0.723,0.1,1.289,0.425l0.004-1.727
					C645.297,138.312,644.871,137.963,644.576,137.584z"/>
			</g>
			<g>
				<polygon fill="#1F5E77" points="611.788,173.099 617.161,178.933 617.164,177.446 613.462,173.551 617.176,173.719 
					617.18,172.223 611.79,172.205 				"/>
				<polygon fill="#1F5E77" points="617.713,180.519 619.211,181.384 622.196,173.982 620.692,173.115 				"/>
				<polygon fill="#1F5E77" points="622.721,175.423 622.717,176.918 626.422,181.033 622.706,180.646 622.701,182.133 
					628.094,182.514 628.096,181.619 				"/>
			</g>
			<g>
				<g>
					<polygon fill="#F5D012" points="511.863,145.829 511.863,146.834 516.084,149.268 516.084,148.265 					"/>
					<polygon fill="#EDF0F8" points="511.863,147.665 511.863,148.668 516.084,151.104 516.084,150.099 					"/>
					<polygon fill="#EDF0F8" points="511.863,149.5 511.863,150.505 516.084,152.938 516.084,151.934 					"/>
					<polygon fill="#EDF0F8" points="543.715,170.713 543.715,169.707 517.668,154.683 517.668,155.688 					"/>
					<polygon fill="#EDF0F8" points="511.863,151.335 511.863,152.34 516.084,154.773 516.084,153.771 					"/>
					<polygon fill="#EDF0F8" points="511.863,153.17 511.863,154.175 516.084,156.61 516.084,155.604 					"/>
					<polygon fill="#50E85E" points="543.715,172.547 543.715,171.542 517.668,156.519 517.668,157.523 					"/>
					<polygon fill="#EDF0F8" points="511.863,158.676 511.863,159.681 516.084,162.116 516.084,161.111 					"/>
					<polygon fill="#F5D012" points="511.863,160.512 511.863,161.516 516.084,163.951 516.084,162.946 					"/>
					<polygon fill="#EDF0F8" points="511.863,167.854 511.863,168.858 516.084,171.292 516.084,170.287 					"/>
					<polygon fill="#EDF0F8" points="511.863,169.688 511.863,170.693 516.084,173.127 516.084,172.122 					"/>
					<g>
						<polygon fill="#50E85E" points="534.1,182.515 517.668,173.036 517.668,174.041 534.1,183.519 						"/>
						<polygon fill="#EDF0F8" points="534.966,183.015 534.966,184.018 543.715,189.064 543.715,188.062 						"/>
					</g>
					<g>
						<polygon fill="#EDF0F8" points="525.924,175.963 517.668,171.2 517.668,172.205 525.924,176.968 						"/>
						<polygon fill="#EDF0F8" points="526.79,176.462 526.79,177.467 543.715,187.229 543.715,186.225 						"/>
					</g>
					<polygon fill="#EDF0F8" points="541.488,179.435 541.488,180.439 543.715,181.724 543.715,180.719 					"/>
					<polygon fill="#ED5561" points="529.372,170.609 517.668,163.86 517.668,164.865 529.372,171.614 					"/>
					<polygon fill="#EDF0F8" points="524.576,153.162 517.668,149.178 517.668,150.181 524.576,154.167 					"/>
					<g>
						<polygon fill="#EDF0F8" points="535.899,159.693 525.441,153.661 525.441,154.666 535.899,160.697 						"/>
					</g>
					<polygon fill="#EDF0F8" points="529.805,158.013 522.442,153.766 522.442,154.771 529.805,159.018 					"/>
					<g>
						<polygon fill="#ED5561" points="537.53,162.469 530.671,158.513 530.671,159.518 537.53,163.474 						"/>
						<polygon fill="#EDF0F8" points="538.396,162.968 538.396,163.973 543.715,167.041 543.715,166.036 						"/>
					</g>
					<polygon fill="#ED5561" points="519.028,153.632 519.028,154.638 524.576,157.837 524.576,156.831 					"/>
					<polygon fill="#EDF0F8" points="541.545,166.619 525.441,157.332 525.441,158.337 541.545,167.625 					"/>
					<polygon fill="#EDF0F8" points="532.325,166.808 521.802,160.738 521.802,161.743 532.325,167.813 					"/>
					<polygon fill="#EDF0F8" points="541.545,172.125 533.191,167.308 533.191,168.313 541.545,173.131 					"/>
					<g>
						<polygon fill="#EDF0F8" points="540.622,177.1 530.238,171.109 530.238,172.114 540.622,178.104 						"/>
					</g>
					<polygon fill="#50E85E" points="534.966,175.672 534.966,176.677 540.622,179.94 540.622,178.936 					"/>
					<polygon fill="#EDF0F8" points="519.703,166.87 517.668,165.694 517.668,166.699 519.703,167.875 					"/>
					<g>
						<polygon fill="#EDF0F8" points="523.52,169.071 523.52,170.074 534.1,176.179 534.1,175.173 						"/>
						<polygon fill="#EDF0F8" points="522.653,168.571 520.57,167.369 520.57,168.374 522.653,169.575 						"/>
					</g>
					<polygon fill="#EDF0F8" points="532.143,175.879 520.57,169.205 520.57,170.208 532.143,176.884 					"/>
				</g>
				<g>
					<polygon fill="#EDF0F8" points="545.548,165.27 545.548,165.546 546.71,166.218 546.71,165.94 					"/>
					<polygon fill="#EDF0F8" points="545.548,165.775 545.548,166.053 546.71,166.723 546.71,166.447 					"/>
					<polygon fill="#EDF0F8" points="545.548,166.281 545.548,166.559 546.71,167.229 546.71,166.952 					"/>
					<polygon fill="#EDF0F8" points="554.323,172.126 554.323,171.849 547.146,167.709 547.146,167.986 					"/>
					<polygon fill="#EDF0F8" points="545.548,166.787 545.548,167.063 546.71,167.734 546.71,167.458 					"/>
					<polygon fill="#EDF0F8" points="545.548,167.293 545.548,167.569 546.71,168.24 546.71,167.963 					"/>
					<polygon fill="#EDF0F8" points="554.323,172.632 554.323,172.354 547.146,168.216 547.146,168.492 					"/>
					<polygon fill="#EDF0F8" points="545.548,168.81 545.548,169.086 546.71,169.757 546.71,169.479 					"/>
					<polygon fill="#EDF0F8" points="545.548,169.314 545.548,169.592 546.71,170.264 546.71,169.986 					"/>
					<polygon fill="#EDF0F8" points="545.548,171.339 545.548,171.614 546.71,172.286 546.71,172.009 					"/>
					<polygon fill="#EDF0F8" points="545.548,171.844 545.548,172.121 546.71,172.791 546.71,172.515 					"/>
					<g>
						<polygon fill="#EDF0F8" points="551.675,175.378 547.146,172.767 547.146,173.043 551.675,175.655 						"/>
						<polygon fill="#EDF0F8" points="551.912,175.516 551.912,175.793 554.323,177.183 554.323,176.906 						"/>
					</g>
					<g>
						<polygon fill="#EDF0F8" points="549.421,173.573 547.146,172.261 547.146,172.538 549.421,173.849 						"/>
						<polygon fill="#EDF0F8" points="549.66,173.71 549.66,173.987 554.323,176.677 554.323,176.4 						"/>
					</g>
					<polygon fill="#EDF0F8" points="553.71,174.53 553.71,174.806 554.323,175.16 554.323,174.884 					"/>
					<polygon fill="#EDF0F8" points="550.371,172.099 547.146,170.238 547.146,170.516 550.371,172.375 					"/>
					<polygon fill="#EDF0F8" points="549.05,167.289 547.146,166.192 547.146,166.47 549.05,167.568 					"/>
					<g>
						<polygon fill="#EDF0F8" points="552.169,169.09 549.288,167.428 549.288,167.705 552.169,169.367 						"/>
					</g>
					<polygon fill="#EDF0F8" points="550.49,168.627 548.462,167.457 548.462,167.732 550.49,168.903 					"/>
					<g>
						<polygon fill="#EDF0F8" points="552.619,169.854 550.729,168.765 550.729,169.041 552.619,170.132 						"/>
						<polygon fill="#EDF0F8" points="552.857,169.992 552.857,170.27 554.323,171.114 554.323,170.838 						"/>
					</g>
					<polygon fill="#EDF0F8" points="547.521,167.42 547.521,167.697 549.05,168.578 549.05,168.302 					"/>
					<polygon fill="#EDF0F8" points="553.726,170.998 549.288,168.438 549.288,168.716 553.726,171.274 					"/>
					<polygon fill="#EDF0F8" points="551.185,171.051 548.285,169.378 548.285,169.654 551.185,171.326 					"/>
					<polygon fill="#EDF0F8" points="553.726,172.516 551.424,171.188 551.424,171.464 553.726,172.793 					"/>
					<g>
						<polygon fill="#EDF0F8" points="553.471,173.886 550.609,172.234 550.609,172.512 553.471,174.163 						"/>
					</g>
					<polygon fill="#EDF0F8" points="551.912,173.493 551.912,173.771 553.471,174.669 553.471,174.393 					"/>
					<polygon fill="#EDF0F8" points="547.708,171.067 547.146,170.744 547.146,171.02 547.708,171.345 					"/>
					<g>
						<polygon fill="#EDF0F8" points="548.759,171.673 548.759,171.95 551.675,173.633 551.675,173.355 						"/>
						<polygon fill="#EDF0F8" points="548.521,171.536 547.945,171.205 547.945,171.482 548.521,171.813 						"/>
					</g>
					<polygon fill="#EDF0F8" points="551.135,173.549 547.945,171.711 547.945,171.987 551.135,173.826 					"/>
				</g>
				<g>
					<polygon fill="#EDF0F8" points="545.548,173.826 545.548,174.104 546.71,174.775 546.71,174.498 					"/>
					<polygon fill="#EDF0F8" points="545.548,174.333 545.548,174.609 546.71,175.28 546.71,175.003 					"/>
					<polygon fill="#EDF0F8" points="545.548,174.838 545.548,175.115 546.71,175.786 546.71,175.509 					"/>
					<polygon fill="#EDF0F8" points="554.323,180.682 554.323,180.405 547.146,176.266 547.146,176.543 					"/>
					<polygon fill="#EDF0F8" points="545.548,175.344 545.548,175.621 546.71,176.291 546.71,176.014 					"/>
					<polygon fill="#EDF0F8" points="545.548,175.85 545.548,176.126 546.71,176.797 546.71,176.521 					"/>
					<polygon fill="#EDF0F8" points="554.323,181.188 554.323,180.911 547.146,176.772 547.146,177.049 					"/>
					<polygon fill="#EDF0F8" points="545.548,177.366 545.548,177.643 546.71,178.314 546.71,178.037 					"/>
					<polygon fill="#EDF0F8" points="545.548,177.872 545.548,178.149 546.71,178.82 546.71,178.543 					"/>
					<polygon fill="#EDF0F8" points="545.548,179.895 545.548,180.172 546.71,180.842 546.71,180.566 					"/>
					<polygon fill="#EDF0F8" points="545.548,180.401 545.548,180.678 546.71,181.349 546.71,181.071 					"/>
					<g>
						<polygon fill="#EDF0F8" points="551.675,183.936 547.146,181.322 547.146,181.6 551.675,184.212 						"/>
						<polygon fill="#EDF0F8" points="551.912,184.073 551.912,184.351 554.323,185.74 554.323,185.464 						"/>
					</g>
					<g>
						<polygon fill="#EDF0F8" points="549.421,182.13 547.146,180.817 547.146,181.096 549.421,182.406 						"/>
						<polygon fill="#EDF0F8" points="549.66,182.267 549.66,182.544 554.323,185.234 554.323,184.957 						"/>
					</g>
					<polygon fill="#EDF0F8" points="553.71,183.086 553.71,183.363 554.323,183.717 554.323,183.439 					"/>
					<polygon fill="#EDF0F8" points="550.371,180.654 547.146,178.794 547.146,179.071 550.371,180.932 					"/>
					<polygon fill="#EDF0F8" points="549.05,175.847 547.146,174.749 547.146,175.025 549.05,176.124 					"/>
					<g>
						<polygon fill="#EDF0F8" points="552.169,177.647 549.288,175.985 549.288,176.262 552.169,177.924 						"/>
					</g>
					<polygon fill="#EDF0F8" points="550.49,177.184 548.462,176.013 548.462,176.29 550.49,177.461 					"/>
					<g>
						<polygon fill="#EDF0F8" points="552.619,178.411 550.729,177.321 550.729,177.599 552.619,178.688 						"/>
						<polygon fill="#EDF0F8" points="552.857,178.549 552.857,178.826 554.323,179.671 554.323,179.395 						"/>
					</g>
					<polygon fill="#EDF0F8" points="547.521,175.977 547.521,176.254 549.05,177.136 549.05,176.858 					"/>
					<polygon fill="#EDF0F8" points="553.726,179.556 549.288,176.996 549.288,177.272 553.726,179.831 					"/>
					<polygon fill="#EDF0F8" points="551.185,179.606 548.285,177.934 548.285,178.211 551.185,179.884 					"/>
					<polygon fill="#EDF0F8" points="553.726,181.073 551.424,179.745 551.424,180.021 553.726,181.35 					"/>
					<g>
						<polygon fill="#EDF0F8" points="553.471,182.443 550.609,180.792 550.609,181.069 553.471,182.721 						"/>
					</g>
					<polygon fill="#EDF0F8" points="551.912,182.05 551.912,182.326 553.471,183.226 553.471,182.949 					"/>
					<polygon fill="#EDF0F8" points="547.708,179.623 547.146,179.301 547.146,179.577 547.708,179.9 					"/>
					<g>
						<polygon fill="#EDF0F8" points="548.759,180.23 548.759,180.508 551.675,182.188 551.675,181.913 						"/>
						<polygon fill="#EDF0F8" points="548.521,180.093 547.945,179.762 547.945,180.039 548.521,180.37 						"/>
					</g>
					<polygon fill="#EDF0F8" points="551.135,182.106 547.945,180.268 547.945,180.543 551.135,182.384 					"/>
				</g>
				<g>
					<polygon fill="#EDF0F8" points="545.548,182.384 545.548,182.661 546.71,183.331 546.71,183.055 					"/>
					<polygon fill="#EDF0F8" points="545.548,182.891 545.548,183.166 546.71,183.838 546.71,183.561 					"/>
					<polygon fill="#EDF0F8" points="545.548,183.396 545.548,183.672 546.71,184.342 546.71,184.065 					"/>
					<polygon fill="#EDF0F8" points="554.323,189.239 554.323,188.962 547.146,184.823 547.146,185.101 					"/>
					<polygon fill="#EDF0F8" points="545.548,183.9 545.548,184.177 546.71,184.849 546.71,184.571 					"/>
					<polygon fill="#EDF0F8" points="545.548,184.406 545.548,184.684 546.71,185.354 546.71,185.076 					"/>
					<polygon fill="#EDF0F8" points="554.323,189.746 554.323,189.469 547.146,185.33 547.146,185.604 					"/>
					<polygon fill="#EDF0F8" points="545.548,185.923 545.548,186.199 546.71,186.871 546.71,186.594 					"/>
					<polygon fill="#EDF0F8" points="545.548,186.43 545.548,186.706 546.71,187.377 546.71,187.101 					"/>
					<polygon fill="#EDF0F8" points="545.548,188.452 545.548,188.729 546.71,189.399 546.71,189.122 					"/>
					<polygon fill="#EDF0F8" points="545.548,188.957 545.548,189.234 546.71,189.906 546.71,189.628 					"/>
					<g>
						<polygon fill="#EDF0F8" points="551.675,192.492 547.146,189.88 547.146,190.157 551.675,192.768 						"/>
						<polygon fill="#EDF0F8" points="551.912,192.63 551.912,192.906 554.323,194.297 554.323,194.02 						"/>
					</g>
					<g>
						<polygon fill="#EDF0F8" points="549.421,190.687 547.146,189.374 547.146,189.65 549.421,190.964 						"/>
						<polygon fill="#EDF0F8" points="549.66,190.824 549.66,191.101 554.323,193.792 554.323,193.515 						"/>
					</g>
					<polygon fill="#EDF0F8" points="553.71,191.644 553.71,191.921 554.323,192.274 554.323,191.997 					"/>
					<polygon fill="#EDF0F8" points="550.371,189.212 547.146,187.352 547.146,187.628 550.371,189.489 					"/>
					<polygon fill="#EDF0F8" points="549.05,184.404 547.146,183.306 547.146,183.582 549.05,184.68 					"/>
					<g>
						<polygon fill="#EDF0F8" points="552.169,186.203 549.288,184.541 549.288,184.818 552.169,186.48 						"/>
					</g>
					<polygon fill="#EDF0F8" points="550.49,185.741 548.462,184.57 548.462,184.848 550.49,186.019 					"/>
					<g>
						<polygon fill="#EDF0F8" points="552.619,186.968 550.729,185.878 550.729,186.155 552.619,187.245 						"/>
						<polygon fill="#EDF0F8" points="552.857,187.105 552.857,187.383 554.323,188.229 554.323,187.951 						"/>
					</g>
					<polygon fill="#EDF0F8" points="547.521,184.534 547.521,184.811 549.05,185.692 549.05,185.416 					"/>
					<polygon fill="#EDF0F8" points="553.726,188.111 549.288,185.554 549.288,185.829 553.726,188.389 					"/>
					<polygon fill="#EDF0F8" points="551.185,188.164 548.285,186.491 548.285,186.769 551.185,188.441 					"/>
					<polygon fill="#EDF0F8" points="553.726,189.63 551.424,188.302 551.424,188.578 553.726,189.906 					"/>
					<g>
						<polygon fill="#EDF0F8" points="553.471,191 550.609,189.35 550.609,189.627 553.471,191.276 						"/>
					</g>
					<polygon fill="#EDF0F8" points="551.912,190.606 551.912,190.884 553.471,191.782 553.471,191.505 					"/>
					<polygon fill="#EDF0F8" points="547.708,188.181 547.146,187.857 547.146,188.134 547.708,188.458 					"/>
					<g>
						<polygon fill="#EDF0F8" points="548.759,188.788 548.759,189.064 551.675,190.746 551.675,190.47 						"/>
						<polygon fill="#EDF0F8" points="548.521,188.65 547.945,188.319 547.945,188.597 548.521,188.926 						"/>
					</g>
					<polygon fill="#EDF0F8" points="551.135,190.664 547.945,188.823 547.945,189.101 551.135,190.94 					"/>
				</g>
				<g>
					<polygon fill="#EDF0F8" points="545.548,190.94 545.548,191.217 546.71,191.889 546.71,191.611 					"/>
					<polygon fill="#EDF0F8" points="545.548,191.446 545.548,191.724 546.71,192.394 546.71,192.117 					"/>
					<polygon fill="#EDF0F8" points="545.548,191.953 545.548,192.229 546.71,192.899 546.71,192.622 					"/>
					<polygon fill="#EDF0F8" points="554.323,197.797 554.323,197.52 547.146,193.381 547.146,193.658 					"/>
					<polygon fill="#EDF0F8" points="545.548,192.457 545.548,192.734 546.71,193.404 546.71,193.129 					"/>
					<polygon fill="#EDF0F8" points="545.548,192.964 545.548,193.239 546.71,193.911 546.71,193.634 					"/>
					<polygon fill="#EDF0F8" points="554.323,198.302 554.323,198.026 547.146,193.885 547.146,194.162 					"/>
					<polygon fill="#EDF0F8" points="545.548,194.479 545.548,194.757 546.71,195.429 546.71,195.151 					"/>
					<polygon fill="#EDF0F8" points="545.548,194.986 545.548,195.263 546.71,195.934 546.71,195.656 					"/>
					<polygon fill="#EDF0F8" points="553.71,200.2 553.71,200.477 554.323,200.831 554.323,200.555 					"/>
					<polygon fill="#EDF0F8" points="550.371,197.77 547.146,195.909 547.146,196.185 550.371,198.045 					"/>
					<polygon fill="#EDF0F8" points="549.05,192.96 547.146,191.863 547.146,192.139 549.05,193.237 					"/>
					<g>
						<polygon fill="#EDF0F8" points="552.169,194.761 549.288,193.099 549.288,193.375 552.169,195.038 						"/>
					</g>
					<polygon fill="#EDF0F8" points="550.49,194.297 548.462,193.127 548.462,193.404 550.49,194.574 					"/>
					<g>
						<polygon fill="#EDF0F8" points="552.619,195.525 550.729,194.436 550.729,194.712 552.619,195.801 						"/>
						<polygon fill="#EDF0F8" points="552.857,195.663 552.857,195.939 554.323,196.786 554.323,196.509 						"/>
					</g>
					<polygon fill="#EDF0F8" points="547.521,193.09 547.521,193.367 549.05,194.249 549.05,193.972 					"/>
					<polygon fill="#EDF0F8" points="553.726,196.669 549.288,194.109 549.288,194.387 553.726,196.946 					"/>
					<polygon fill="#EDF0F8" points="551.185,196.722 548.285,195.049 548.285,195.326 551.185,196.998 					"/>
					<polygon fill="#EDF0F8" points="553.726,198.187 551.424,196.858 551.424,197.136 553.726,198.462 					"/>
					<g>
						<polygon fill="#EDF0F8" points="553.471,199.557 550.609,197.906 550.609,198.184 553.471,199.834 						"/>
					</g>
					<polygon fill="#EDF0F8" points="551.912,199.163 551.912,199.44 553.471,200.339 553.471,200.063 					"/>
					<polygon fill="#EDF0F8" points="547.708,196.738 547.146,196.414 547.146,196.691 547.708,197.014 					"/>
					<g>
						<polygon fill="#EDF0F8" points="548.759,197.345 548.759,197.621 551.675,199.304 551.675,199.026 						"/>
						<polygon fill="#EDF0F8" points="548.521,197.206 547.945,196.875 547.945,197.151 548.521,197.483 						"/>
					</g>
					<polygon fill="#EDF0F8" points="551.135,199.221 547.945,197.381 547.945,197.658 551.135,199.498 					"/>
				</g>
				<g>
					<path fill="#50E85E" d="M509.16,144.269l-1.393-0.803c-0.066-0.038-0.15,0.011-0.15,0.089v1.664
						c0,0.082,0.043,0.156,0.113,0.197l1.39,0.804c0.07,0.04,0.157-0.011,0.157-0.091v-1.657
						C509.277,144.387,509.233,144.311,509.16,144.269z"/>
					<path fill="#50E85E" d="M509.16,146.759l-1.393-0.802c-0.066-0.039-0.15,0.009-0.15,0.088v1.664
						c0,0.081,0.043,0.156,0.113,0.197l1.39,0.804c0.07,0.04,0.157-0.01,0.157-0.091v-1.657
						C509.277,146.879,509.233,146.801,509.16,146.759z"/>
					<path fill="#50E85E" d="M509.16,149.249l-1.393-0.802c-0.066-0.039-0.15,0.008-0.15,0.087v1.666
						c0,0.08,0.043,0.155,0.113,0.196l1.39,0.803c0.07,0.04,0.157-0.01,0.157-0.09v-1.657
						C509.277,149.368,509.233,149.291,509.16,149.249z"/>
					<path fill="#50E85E" d="M509.16,151.739l-1.393-0.804c-0.066-0.038-0.15,0.012-0.15,0.089v1.666
						c0,0.079,0.043,0.155,0.113,0.195l1.39,0.805c0.07,0.039,0.157-0.011,0.157-0.09v-1.658
						C509.277,151.858,509.233,151.781,509.16,151.739z"/>
					<path fill="#50E85E" d="M509.16,154.229l-1.393-0.801c-0.066-0.04-0.15,0.009-0.15,0.087v1.665
						c0,0.082,0.043,0.155,0.113,0.196l1.39,0.804c0.07,0.041,0.157-0.011,0.157-0.091v-1.657
						C509.277,154.349,509.233,154.271,509.16,154.229z"/>
					<path fill="#50E85E" d="M509.16,156.719l-1.393-0.802c-0.066-0.039-0.15,0.01-0.15,0.087v1.666
						c0,0.081,0.043,0.155,0.113,0.196l1.39,0.804c0.07,0.041,0.157-0.01,0.157-0.09v-1.658
						C509.277,156.838,509.233,156.761,509.16,156.719z"/>
					<path fill="#50E85E" d="M509.16,159.209l-1.393-0.802c-0.066-0.039-0.15,0.011-0.15,0.089v1.664
						c0,0.081,0.043,0.155,0.113,0.197l1.39,0.804c0.07,0.04,0.157-0.011,0.157-0.091v-1.657
						C509.277,159.328,509.233,159.252,509.16,159.209z"/>
					<path fill="#50E85E" d="M509.16,161.699l-1.393-0.802c-0.066-0.04-0.15,0.009-0.15,0.088v1.665
						c0,0.081,0.043,0.155,0.113,0.195l1.39,0.806c0.07,0.039,0.157-0.011,0.157-0.091v-1.658
						C509.277,161.818,509.233,161.742,509.16,161.699z"/>
					<path fill="#50E85E" d="M509.16,164.19l-1.393-0.804c-0.066-0.038-0.15,0.01-0.15,0.089v1.664c0,0.081,0.043,0.157,0.113,0.196
						l1.39,0.804c0.07,0.041,0.157-0.008,0.157-0.089v-1.659C509.277,164.309,509.233,164.232,509.16,164.19z"/>
					<path fill="#50E85E" d="M509.16,166.68l-1.393-0.803c-0.066-0.038-0.15,0.011-0.15,0.09v1.663c0,0.081,0.043,0.156,0.113,0.197
						l1.39,0.804c0.07,0.04,0.157-0.011,0.157-0.091v-1.658C509.277,166.8,509.233,166.722,509.16,166.68z"/>
					<path fill="#50E85E" d="M509.16,169.17l-1.393-0.803c-0.066-0.039-0.15,0.011-0.15,0.088v1.665
						c0,0.081,0.043,0.156,0.113,0.197l1.39,0.804c0.07,0.041,0.157-0.011,0.157-0.091v-1.657
						C509.277,169.289,509.233,169.212,509.16,169.17z"/>
					<path fill="#50E85E" d="M509.16,171.66l-1.393-0.802c-0.066-0.041-0.15,0.01-0.15,0.087v1.665c0,0.081,0.043,0.157,0.113,0.196
						l1.39,0.805c0.07,0.041,0.157-0.01,0.157-0.091v-1.657C509.277,171.778,509.233,171.702,509.16,171.66z"/>
				</g>
			</g>
			<g opacity="0.4">
				<g>
					<polygon fill="#FFFFFF" points="574.479,153.094 574.479,154.099 578.7,156.532 578.7,155.529 					"/>
					<polygon fill="#FFFFFF" points="574.479,154.929 574.479,155.934 578.7,158.368 578.7,157.363 					"/>
					<polygon fill="#FFFFFF" points="574.479,156.765 574.479,157.768 578.7,160.203 578.7,159.198 					"/>
					<polygon fill="#FFFFFF" points="606.331,177.977 606.331,176.971 580.284,161.947 580.284,162.951 					"/>
					<polygon fill="#FFFFFF" points="574.479,158.6 574.479,159.604 578.7,162.038 578.7,161.034 					"/>
					<polygon fill="#FFFFFF" points="574.479,160.435 574.479,161.439 578.7,163.873 578.7,162.869 					"/>
					<polygon fill="#FFFFFF" points="606.331,179.813 606.331,178.808 580.284,163.783 580.284,164.787 					"/>
					<polygon fill="#FFFFFF" points="574.479,165.94 574.479,166.945 578.7,169.381 578.7,168.375 					"/>
					<polygon fill="#FFFFFF" points="574.479,167.775 574.479,168.78 578.7,171.216 578.7,170.211 					"/>
					<polygon fill="#FFFFFF" points="574.479,175.117 574.479,176.123 578.7,178.557 578.7,177.552 					"/>
					<polygon fill="#FFFFFF" points="574.479,176.953 574.479,177.958 578.7,180.392 578.7,179.387 					"/>
					<g>
						<polygon fill="#FFFFFF" points="596.717,189.779 580.284,180.3 580.284,181.306 596.717,190.783 						"/>
						<polygon fill="#FFFFFF" points="597.583,190.279 597.583,191.283 606.331,196.329 606.331,195.324 						"/>
					</g>
					<g>
						<polygon fill="#FFFFFF" points="588.54,183.227 580.284,178.465 580.284,179.47 588.54,184.232 						"/>
						<polygon fill="#FFFFFF" points="589.406,183.727 589.406,184.731 606.331,194.494 606.331,193.489 						"/>
					</g>
					<polygon fill="#FFFFFF" points="604.105,186.699 604.105,187.704 606.331,188.988 606.331,187.983 					"/>
					<polygon fill="#FFFFFF" points="591.988,177.874 580.284,171.124 580.284,172.13 591.988,178.879 					"/>
					<polygon fill="#FFFFFF" points="587.191,160.426 580.284,156.441 580.284,157.445 587.191,161.432 					"/>
					<g>
						<polygon fill="#FFFFFF" points="598.516,166.959 588.058,160.925 588.058,161.93 598.516,167.962 						"/>
					</g>
					<polygon fill="#FFFFFF" points="592.421,165.277 585.058,161.029 585.058,162.035 592.421,166.281 					"/>
					<g>
						<polygon fill="#FFFFFF" points="600.146,169.732 593.287,165.778 593.287,166.781 600.146,170.737 						"/>
						<polygon fill="#FFFFFF" points="601.012,170.232 601.012,171.237 606.331,174.307 606.331,173.301 						"/>
					</g>
					<polygon fill="#FFFFFF" points="581.646,160.896 581.646,161.9 587.191,165.101 587.191,164.096 					"/>
					<polygon fill="#FFFFFF" points="604.161,173.884 588.058,164.597 588.058,165.6 604.161,174.889 					"/>
					<polygon fill="#FFFFFF" points="594.941,174.072 584.418,168.003 584.418,169.008 594.941,175.077 					"/>
					<polygon fill="#FFFFFF" points="604.161,179.391 595.808,174.572 595.808,175.578 604.161,180.395 					"/>
					<g>
						<polygon fill="#FFFFFF" points="603.239,184.364 592.854,178.375 592.854,179.379 603.239,185.368 						"/>
					</g>
					<polygon fill="#FFFFFF" points="597.583,182.937 597.583,183.941 603.239,187.205 603.239,186.199 					"/>
					<polygon fill="#FFFFFF" points="582.32,174.133 580.284,172.959 580.284,173.964 582.32,175.14 					"/>
					<g>
						<polygon fill="#FFFFFF" points="586.137,176.334 586.137,177.339 596.717,183.442 596.717,182.438 						"/>
						<polygon fill="#FFFFFF" points="585.271,175.835 583.188,174.633 583.188,175.639 585.271,176.84 						"/>
					</g>
					<polygon fill="#FFFFFF" points="594.76,183.145 583.188,176.469 583.188,177.473 594.76,184.149 					"/>
				</g>
			</g>
			<g opacity="0.4">
				<g>
					<polygon fill="#FFFFFF" points="613.276,90.195 613.276,91.2 617.497,93.634 617.497,92.629 					"/>
					<polygon fill="#FFFFFF" points="613.276,92.03 613.276,93.035 617.497,95.469 617.497,94.465 					"/>
					<polygon fill="#FFFFFF" points="613.276,93.865 613.276,94.871 617.497,97.306 617.497,96.3 					"/>
					<polygon fill="#FFFFFF" points="645.127,115.078 645.127,114.072 619.08,99.049 619.08,100.054 					"/>
					<polygon fill="#FFFFFF" points="613.276,95.701 613.276,96.706 617.497,99.14 617.497,98.136 					"/>
					<polygon fill="#FFFFFF" points="613.276,97.536 613.276,98.541 617.497,100.977 617.497,99.97 					"/>
					<polygon fill="#FFFFFF" points="645.127,116.912 645.127,115.909 619.08,100.884 619.08,101.889 					"/>
					<polygon fill="#FFFFFF" points="613.276,103.043 613.276,104.047 617.497,106.481 617.497,105.477 					"/>
					<polygon fill="#FFFFFF" points="613.276,104.878 613.276,105.882 617.497,108.317 617.497,107.313 					"/>
					<polygon fill="#FFFFFF" points="613.276,112.219 613.276,113.225 617.497,115.658 617.497,114.654 					"/>
					<polygon fill="#FFFFFF" points="613.276,114.055 613.276,115.059 617.497,117.493 617.497,116.488 					"/>
					<g>
						<polygon fill="#FFFFFF" points="635.512,126.881 619.08,117.401 619.08,118.407 635.512,127.886 						"/>
						<polygon fill="#FFFFFF" points="636.378,127.38 636.378,128.385 645.127,133.431 645.127,132.426 						"/>
					</g>
					<g>
						<polygon fill="#FFFFFF" points="627.336,120.33 619.08,115.567 619.08,116.57 627.336,121.333 						"/>
						<polygon fill="#FFFFFF" points="628.202,120.829 628.202,121.833 645.127,131.596 645.127,130.591 						"/>
					</g>
					<polygon fill="#FFFFFF" points="642.9,123.801 642.9,124.806 645.127,126.09 645.127,125.085 					"/>
					<polygon fill="#FFFFFF" points="630.784,114.977 619.08,108.225 619.08,109.229 630.784,115.98 					"/>
					<polygon fill="#FFFFFF" points="625.988,97.527 619.08,93.543 619.08,94.547 625.988,98.533 					"/>
					<g>
						<polygon fill="#FFFFFF" points="637.313,104.059 626.854,98.027 626.854,99.032 637.313,105.063 						"/>
					</g>
					<polygon fill="#FFFFFF" points="631.217,102.379 623.854,98.133 623.854,99.136 631.217,103.384 					"/>
					<g>
						<polygon fill="#FFFFFF" points="638.942,106.834 632.083,102.878 632.083,103.883 638.942,107.839 						"/>
						<polygon fill="#FFFFFF" points="639.809,107.334 639.809,108.339 645.127,111.407 645.127,110.403 						"/>
					</g>
					<polygon fill="#FFFFFF" points="620.44,97.999 620.44,99.002 625.988,102.203 625.988,101.198 					"/>
					<polygon fill="#FFFFFF" points="642.957,110.986 626.854,101.697 626.854,102.703 642.957,111.99 					"/>
					<polygon fill="#FFFFFF" points="633.738,111.175 623.214,105.104 623.214,106.109 633.738,112.179 					"/>
					<polygon fill="#FFFFFF" points="642.957,116.492 634.604,111.675 634.604,112.678 642.957,117.497 					"/>
					<g>
						<polygon fill="#FFFFFF" points="642.034,121.466 631.65,115.477 631.65,116.48 642.034,122.471 						"/>
					</g>
					<polygon fill="#FFFFFF" points="636.378,120.038 636.378,121.043 642.034,124.306 642.034,123.301 					"/>
					<polygon fill="#FFFFFF" points="621.117,111.236 619.08,110.062 619.08,111.065 621.117,112.241 					"/>
					<g>
						<polygon fill="#FFFFFF" points="624.932,113.437 624.932,114.441 635.512,120.544 635.512,119.539 						"/>
						<polygon fill="#FFFFFF" points="624.065,112.937 621.983,111.735 621.983,112.74 624.065,113.942 						"/>
					</g>
					<polygon fill="#FFFFFF" points="633.555,120.246 621.983,113.57 621.983,114.575 633.555,121.25 					"/>
				</g>
			</g>
			<path fill="#0F4463" d="M536.984,219.163c0,0-2.381-1.063-5.18,0.79c-2.798,1.853-4.682,4.445-3.545,5.399
				c1.14,0.955,3.352,1.978,4.783,1.463C534.481,226.301,541.576,222.128,536.984,219.163z"/>
			<g>
				<polygon fill="#ED5561" points="596.021,208.208 573.911,220.734 559.818,212.584 581.929,200.06 				"/>
				<g>
					<polygon fill="#F0CEC9" points="578.24,220.435 578.24,220.927 600.352,208.27 600.352,207.907 					"/>
					<polygon fill="#FFFBF0" points="600.352,207.907 578.24,220.435 564.148,212.282 586.258,199.76 					"/>
					<polygon fill="#F5DDD8" points="578.24,220.435 578.24,220.927 564.148,212.774 564.148,212.282 					"/>
				</g>
				<polygon fill="#DFBAB8" points="586.105,201.097 594.619,206.008 594.247,206.218 585.732,201.307 				"/>
				<polygon fill="#DFBAB8" points="585.221,201.599 593.735,206.508 593.361,206.72 584.849,201.809 				"/>
				<polygon fill="#DFBAB8" points="583.162,202.764 594.886,209.529 594.514,209.741 582.79,202.975 				"/>
				<polygon fill="#DFBAB8" points="582.352,203.225 594.075,209.99 593.702,210.202 581.979,203.435 				"/>
				<polygon fill="#DFBAB8" points="581.54,203.685 593.264,210.451 592.89,210.662 581.166,203.895 				"/>
				<polygon fill="#DFBAB8" points="580.729,204.145 592.452,210.912 592.079,211.123 580.354,204.356 				"/>
				<polygon fill="#DFBAB8" points="579.917,204.605 591.641,211.372 591.267,211.584 579.543,204.817 				"/>
				<polygon fill="#DFBAB8" points="579.105,205.066 590.828,211.832 590.456,212.044 578.732,205.277 				"/>
				<polygon fill="#DFBAB8" points="578.294,205.527 590.018,212.293 589.645,212.505 577.921,205.738 				"/>
				<polygon fill="#DFBAB8" points="577.482,205.987 589.206,212.755 588.832,212.965 577.108,206.198 				"/>
				<polygon fill="#DFBAB8" points="576.671,206.447 588.395,213.215 588.021,213.425 576.297,206.66 				"/>
				<polygon fill="#DFBAB8" points="575.859,206.908 587.583,213.675 587.211,213.886 575.487,207.12 				"/>
				<polygon fill="#DFBAB8" points="575.047,207.369 586.771,214.136 586.398,214.348 574.675,207.581 				"/>
				<polygon fill="#DFBAB8" points="574.236,207.829 585.96,214.597 585.587,214.807 573.863,208.041 				"/>
				<polygon fill="#DFBAB8" points="573.425,208.289 585.148,215.057 584.774,215.268 573.051,208.502 				"/>
				<polygon fill="#DFBAB8" points="572.613,208.751 584.337,215.517 583.964,215.729 572.239,208.962 				"/>
				<polygon fill="#DFBAB8" points="571.803,209.211 583.525,215.979 583.153,216.189 571.43,209.422 				"/>
			</g>
			<g>
				<path fill="#A7BCCE" d="M562.248,215.503h-2.066v2.229h2.066c0.77,0,1.396,0.626,1.396,1.395v3.626
					c0,0.769-0.627,1.393-1.396,1.393h-3.032v2.231h3.032c1.999,0,3.626-1.627,3.626-3.624v-3.626
					C565.874,217.129,564.247,215.503,562.248,215.503z"/>
				<path fill="#BBCEE1" d="M561.472,214.269v12.561c0,1.946-2.9,3.525-6.48,3.525c-3.581,0-6.483-1.579-6.483-3.525v-12.561
					H561.472z"/>
				<ellipse fill="#FFFFFF" cx="554.989" cy="214.269" rx="6.481" ry="3.525"/>
				<ellipse fill="#A7BCCE" cx="554.989" cy="214.226" rx="5.19" ry="2.756"/>
				<path fill="#9D4D36" d="M554.989,213.271c-2.271,0-4.198,0.777-4.902,1.854c0.704,1.08,2.631,1.855,4.902,1.855
					c2.271,0,4.195-0.775,4.9-1.855C559.188,214.049,557.262,213.271,554.989,213.271z"/>
				<path fill="#A7BCCE" d="M557.439,217.531v12.562c1.271-0.283,2.338-0.78,3.055-1.409v-12.56
					C559.777,216.751,558.712,217.248,557.439,217.531z"/>
			</g>
			<g>
				<path d="M542.814,89.774l1.353,0.23l-1.244,7.312c-0.494,2.902-2.013,3.561-3.814,3.254c-0.499-0.084-1.084-0.301-1.401-0.506
					l0.396-1.116c0.262,0.161,0.646,0.327,1.099,0.403c1.213,0.206,2.022-0.239,2.39-2.379L542.814,89.774z"/>
				<path d="M544.67,99.565c0.541,0.492,1.371,0.968,2.303,1.126c1.387,0.235,2.323-0.389,2.513-1.491
					c0.174-1.021-0.288-1.701-1.604-2.508c-1.604-0.923-2.502-2.027-2.239-3.566c0.289-1.704,1.856-2.738,3.895-2.391
					c1.073,0.183,1.806,0.575,2.225,0.93l-0.566,1.087c-0.312-0.253-0.955-0.695-1.902-0.857c-1.432-0.244-2.126,0.556-2.254,1.301
					c-0.173,1.021,0.38,1.632,1.726,2.463c1.651,1.014,2.401,2.06,2.128,3.664c-0.288,1.688-1.73,2.941-4.204,2.521
					c-1.01-0.172-2.062-0.669-2.555-1.152L544.67,99.565z"/>
			</g>
		</g>
	</g>
</g>
<g id="DESIGNED_BY_FREEPIK">
</g>
</svg>
