<svg id="Layer_1" data-name="Layer 1" xmlns="http://www.w3.org/2000/svg" viewBox="0 0 12 9"><defs><style>.cls-1{fill:#fcd669;stroke:#fcd669;stroke-miterlimit:10;stroke-width:0.3px;}</style></defs><title>DOUBLE QUOTE</title><path class="cls-1" d="M9.21,5.63a4.6,4.6,0,0,0-2.5-4.16L7.36.29A6.05,6.05,0,0,1,10.83,5.8c0,1.83-.92,2.91-2.17,2.91A1.74,1.74,0,0,1,6.88,6.86,1.65,1.65,0,0,1,8.56,5.1a2.15,2.15,0,0,1,1.52.8m-6.4-.27A4.61,4.61,0,0,0,1.17,1.47L1.82.29A6.05,6.05,0,0,1,5.29,5.8c0,1.83-.92,2.91-2.17,2.91A1.74,1.74,0,0,1,1.34,6.86,1.65,1.65,0,0,1,3,5.1a2.15,2.15,0,0,1,1.51.8"/></svg>