<?xml version="1.0" encoding="UTF-8"?>
<svg width="1130px" height="832px" viewBox="0 0 1130 832" version="1.1" xmlns="http://www.w3.org/2000/svg" xmlns:xlink="http://www.w3.org/1999/xlink">
    <!-- Generator: Sketch 53.2 (72643) - https://sketchapp.com -->
    <title>help</title>
    <desc>Created with Sketch.</desc>
    <defs>
        <linearGradient x1="50.0388782%" y1="99.9911902%" x2="50.0388782%" y2="0.00772962824%" id="linearGradient-1">
            <stop stop-color="#808080" stop-opacity="0.25" offset="0%"></stop>
            <stop stop-color="#808080" stop-opacity="0.12" offset="54%"></stop>
            <stop stop-color="#808080" stop-opacity="0.1" offset="100%"></stop>
        </linearGradient>
    </defs>
    <g id="Page-1" stroke="none" stroke-width="1" fill="none" fill-rule="evenodd">
        <g id="Artboard" transform="translate(-1554.000000, -3447.000000)" fill-rule="nonzero">
            <g id="help" transform="translate(1554.000000, 3447.000000)">
                <path d="M656.54,124.69 C584.1,122.18 515.1,98.78 449.22,73.2 C383.34,47.62 318.07,19.27 247.37,5.71 C201.89,-3.01 149.88,-4.22 113.24,20.14 C77.97,43.6 66.58,84.14 60.46,121.69 C55.85,149.97 53.14,179.69 65.76,206.2 C74.53,224.57 90.1,240.02 100.87,257.62 C138.32,318.88 111.87,394.41 71.25,454.21 C52.25,482.27 30.12,509.03 15.43,538.9 C0.74,568.77 -6.06,602.98 6.79,633.44 C19.54,663.64 49.9,686.32 82.79,702.27 C149.6,734.67 228.33,743.95 305.1,749.2 C475.05,760.78 645.9,755.78 816.29,750.78 C879.35,748.91 942.68,747.02 1004.72,737.27 C1039.16,731.86 1074.72,723.27 1099.72,702.52 C1131.47,676.18 1139.34,631.58 1118.06,598.52 C1082.38,543.13 983.71,529.37 958.77,469.92 C945.04,437.2 959.14,400.75 979.09,370.4 C1021.89,305.29 1093.63,248.18 1097.41,173.76 C1100.01,122.65 1065.52,71.46 1012.2,47.28 C956.3,21.93 878.8,25.12 837.56,67.08 C795.12,110.29 720.5,126.91 656.54,124.69 Z" id="Path" fill="#15BE51" opacity="0.1"></path>
                <polygon id="Path" fill="#D0D2D5" points="664.18 755.89 469.18 753.39 469.75 748.39 479.18 665.89 650.43 665.89 663.03 748.39 663.99 754.64"></polygon>
                <polygon id="Path" fill="#000000" opacity="0.1" points="663.99 754.64 566.68 754.64 469.18 753.39 469.75 748.39 663.03 748.39"></polygon>
                <rect id="Rectangle" fill="#D0D2D5" x="436.68" y="749.64" width="258.75" height="6.25"></rect>
                <path d="M942.3,170.37 C942.32127,166.054912 940.627479,161.908115 937.591254,158.841884 C934.555029,155.775653 930.425089,154.041165 926.11,154.02 L203.5,154.02 C199.183175,154.03852 195.050667,155.771842 192.012281,158.838361 C188.973896,161.90488 187.278734,166.053187 187.3,170.37 L187.299802,608.37 L942.300198,608.37 L942.3,170.37 Z" id="Path" fill="#444053"></path>
                <path d="M187.3,604.02 L187.3,655.32 C187.3,664.267013 194.552987,671.52 203.5,671.52 L926.11,671.52 C935.053107,671.51448 942.300002,664.263109 942.3,655.32 L942.3,604.02 L187.3,604.02 Z" id="Path" fill="#D0D2D5"></path>
                <rect id="Rectangle" fill="#15BE51" opacity="0.1" x="218.55" y="181.52" width="696.25" height="393.75"></rect>
                <path d="M568.55,652.05 C573.730003,652.053335 578.625084,649.679516 581.83,645.61 L581.83,645.61 C582.309812,644.997033 582.747484,644.352219 583.14,643.68 L573.88,642.16 L583.88,642.24 C585.829327,638.01545 585.945142,633.172908 584.2,628.86 L570.77,635.86 L583.16,626.76 C579.987294,621.3177 574.046648,618.096525 567.754717,618.40685 C561.462786,618.717175 555.867945,622.507294 553.246176,628.235384 C550.624407,633.963475 551.412554,640.675112 555.29,645.64 L555.29,645.64 C558.494689,649.695125 563.38144,652.057423 568.55,652.05 Z" id="Path" fill="#15BE51"></path>
                <polygon id="Path" fill="#000000" opacity="0.1" points="585.43 671.52 663.22 749.64 651.29 671.52"></polygon>
                <rect id="Rectangle" fill="#FFFFFF" x="239" y="252.56" width="457" height="274" rx="2.6"></rect>
                <rect id="Rectangle" fill="#FFFFFF" x="219" y="181.56" width="696" height="23"></rect>
                <rect id="Rectangle" fill="#15BE51" x="222" y="185.56" width="20" height="14" rx="0.78"></rect>
                <rect id="Rectangle" fill="#15BE51" opacity="0.3" x="460" y="185.56" width="210" height="14" rx="0.58"></rect>
                <path d="M663.77,194 L663.26,194 L663.07,193.84 C663.711705,193.078491 664.065627,192.115823 664.07,191.12 C664.053444,188.83622 662.190608,186.997221 659.906804,187.010077 C657.623,187.022934 655.780986,188.882788 655.790142,191.16661 C655.799298,193.450432 657.656166,195.295457 659.94,195.29 C660.935518,195.283938 661.897629,194.930221 662.66,194.29 L662.85,194.45 L662.85,194.97 L666.05,198.17 L667.05,197.17 L663.77,194 Z M659.93,194 C658.759294,194.004044 657.701799,193.301405 657.251919,192.220582 C656.80204,191.13976 657.04866,189.894298 657.876479,189.066479 C658.704298,188.23866 659.94976,187.99204 661.030582,188.441919 C662.111405,188.891799 662.814044,189.949294 662.81,191.12 C662.815372,191.885458 662.513669,192.621122 661.972396,193.162396 C661.431122,193.703669 660.695458,194.005372 659.93,194 L659.93,194 Z" id="Shape" fill="#444053"></path>
                <circle id="Oval" fill="#15BE51" cx="905" cy="192.56" r="7"></circle>
                <rect id="Rectangle" fill="#FFFFFF" x="729" y="229.56" width="65" height="44" rx="2.43"></rect>
                <rect id="Rectangle" fill="#FFFFFF" x="811" y="229.56" width="84" height="7" rx="0.61"></rect>
                <rect id="Rectangle" fill="#FFFFFF" x="811" y="244.56" width="84" height="7" rx="0.61"></rect>
                <rect id="Rectangle" fill="#FFFFFF" x="811" y="259.56" width="84" height="7" rx="0.61"></rect>
                <rect id="Rectangle" fill="#FFFFFF" x="729" y="298.56" width="65" height="44" rx="2.43"></rect>
                <rect id="Rectangle" fill="#FFFFFF" x="811" y="298.56" width="84" height="7" rx="0.61"></rect>
                <rect id="Rectangle" fill="#FFFFFF" x="811" y="313.56" width="84" height="7" rx="0.61"></rect>
                <rect id="Rectangle" fill="#FFFFFF" x="811" y="328.56" width="84" height="7" rx="0.66"></rect>
                <rect id="Rectangle" fill="#FFFFFF" x="729" y="367.56" width="65" height="44" rx="2.43"></rect>
                <rect id="Rectangle" fill="#FFFFFF" x="811" y="367.56" width="84" height="7" rx="0.66"></rect>
                <rect id="Rectangle" fill="#FFFFFF" x="811" y="382.56" width="84" height="7" rx="0.66"></rect>
                <rect id="Rectangle" fill="#FFFFFF" x="811" y="397.56" width="84" height="7" rx="0.66"></rect>
                <rect id="Rectangle" fill="#FFFFFF" x="729" y="436.56" width="65" height="44" rx="2.43"></rect>
                <rect id="Rectangle" fill="#FFFFFF" x="811" y="436.56" width="84" height="7" rx="0.66"></rect>
                <rect id="Rectangle" fill="#FFFFFF" x="811" y="451.56" width="84" height="7" rx="0.66"></rect>
                <rect id="Rectangle" fill="#FFFFFF" x="811" y="466.56" width="84" height="7" rx="0.66"></rect>
                <rect id="Rectangle" fill="#FFFFFF" x="729" y="505.56" width="65" height="44" rx="2.43"></rect>
                <rect id="Rectangle" fill="#FFFFFF" x="811" y="505.56" width="84" height="7" rx="0.66"></rect>
                <rect id="Rectangle" fill="#FFFFFF" x="811" y="520.56" width="84" height="7" rx="0.66"></rect>
                <rect id="Rectangle" fill="#FFFFFF" x="811" y="535.56" width="84" height="7" rx="0.66"></rect>
                <rect id="Rectangle" fill="#15BE51" opacity="0.1" x="304.92" y="325.17" width="102.83" height="5.33"></rect>
                <rect id="Rectangle" fill="#15BE51" opacity="0.1" x="314.06" y="296.99" width="9.9" height="28.18"></rect>
                <rect id="Rectangle" fill="#15BE51" opacity="0.1" x="328.53" y="296.99" width="9.9" height="28.18"></rect>
                <rect id="Rectangle" fill="#15BE51" opacity="0.1" x="343" y="296.99" width="9.9" height="28.18"></rect>
                <rect id="Rectangle" fill="#15BE51" opacity="0.1" x="357.47" y="296.99" width="9.9" height="28.18"></rect>
                <rect id="Rectangle" fill="#15BE51" opacity="0.1" x="371.94" y="296.99" width="9.9" height="28.18"></rect>
                <rect id="Rectangle" fill="#15BE51" opacity="0.1" x="386.42" y="296.99" width="9.9" height="28.18"></rect>
                <rect id="Rectangle" fill="#15BE51" opacity="0.1" x="314.06" y="302.32" width="9.9" height="3.05"></rect>
                <rect id="Rectangle" fill="#15BE51" opacity="0.1" x="328.53" y="302.32" width="9.9" height="3.05"></rect>
                <rect id="Rectangle" fill="#15BE51" opacity="0.1" x="343" y="302.32" width="9.9" height="3.05"></rect>
                <rect id="Rectangle" fill="#15BE51" opacity="0.1" x="357.47" y="302.32" width="9.9" height="3.05"></rect>
                <rect id="Rectangle" fill="#15BE51" opacity="0.1" x="371.94" y="302.32" width="9.9" height="3.05"></rect>
                <rect id="Rectangle" fill="#15BE51" opacity="0.1" x="386.42" y="302.32" width="9.9" height="3.05"></rect>
                <rect id="Rectangle" fill="#15BE51" opacity="0.1" x="314.06" y="316.03" width="9.9" height="3.05"></rect>
                <rect id="Rectangle" fill="#15BE51" opacity="0.1" x="328.53" y="316.03" width="9.9" height="3.05"></rect>
                <rect id="Rectangle" fill="#15BE51" opacity="0.1" x="343" y="316.03" width="9.9" height="3.05"></rect>
                <rect id="Rectangle" fill="#15BE51" opacity="0.1" x="357.47" y="316.03" width="9.9" height="3.05"></rect>
                <rect id="Rectangle" fill="#15BE51" opacity="0.1" x="371.94" y="316.03" width="9.9" height="3.05"></rect>
                <rect id="Rectangle" fill="#15BE51" opacity="0.1" x="386.42" y="316.03" width="9.9" height="3.05"></rect>
                <rect id="Rectangle" fill="#15BE51" opacity="0.1" x="530.37" y="338.88" width="102.83" height="5.33"></rect>
                <rect id="Rectangle" fill="#15BE51" opacity="0.1" x="539.51" y="310.7" width="9.9" height="28.18"></rect>
                <rect id="Rectangle" fill="#15BE51" opacity="0.1" x="553.98" y="310.7" width="9.9" height="28.18"></rect>
                <rect id="Rectangle" fill="#15BE51" opacity="0.1" x="568.45" y="310.7" width="9.9" height="28.18"></rect>
                <rect id="Rectangle" fill="#15BE51" opacity="0.1" x="582.93" y="310.7" width="9.9" height="28.18"></rect>
                <rect id="Rectangle" fill="#15BE51" opacity="0.1" x="597.4" y="310.7" width="9.9" height="28.18"></rect>
                <rect id="Rectangle" fill="#15BE51" opacity="0.1" x="611.87" y="310.7" width="9.9" height="28.18"></rect>
                <rect id="Rectangle" fill="#15BE51" opacity="0.1" x="539.51" y="316.03" width="9.9" height="3.05"></rect>
                <rect id="Rectangle" fill="#15BE51" opacity="0.1" x="553.98" y="316.03" width="9.9" height="3.05"></rect>
                <rect id="Rectangle" fill="#15BE51" opacity="0.1" x="568.45" y="316.03" width="9.9" height="3.05"></rect>
                <rect id="Rectangle" fill="#15BE51" opacity="0.1" x="582.93" y="316.03" width="9.9" height="3.05"></rect>
                <rect id="Rectangle" fill="#15BE51" opacity="0.1" x="597.4" y="316.03" width="9.9" height="3.05"></rect>
                <rect id="Rectangle" fill="#15BE51" opacity="0.1" x="611.87" y="316.03" width="9.9" height="3.05"></rect>
                <rect id="Rectangle" fill="#15BE51" opacity="0.1" x="539.51" y="329.74" width="9.9" height="3.05"></rect>
                <rect id="Rectangle" fill="#15BE51" opacity="0.1" x="553.98" y="329.74" width="9.9" height="3.05"></rect>
                <rect id="Rectangle" fill="#15BE51" opacity="0.1" x="568.45" y="329.74" width="9.9" height="3.05"></rect>
                <rect id="Rectangle" fill="#15BE51" opacity="0.1" x="582.93" y="329.74" width="9.9" height="3.05"></rect>
                <rect id="Rectangle" fill="#15BE51" opacity="0.1" x="597.4" y="329.74" width="9.9" height="3.05"></rect>
                <rect id="Rectangle" fill="#15BE51" opacity="0.1" x="611.87" y="329.74" width="9.9" height="3.05"></rect>
                <rect id="Rectangle" fill="#15BE51" opacity="0.1" x="530.37" y="377.72" width="102.83" height="5.33"></rect>
                <rect id="Rectangle" fill="#15BE51" opacity="0.1" x="539.51" y="349.54" width="9.9" height="28.18"></rect>
                <rect id="Rectangle" fill="#15BE51" opacity="0.1" x="553.98" y="349.54" width="9.9" height="28.18"></rect>
                <rect id="Rectangle" fill="#15BE51" opacity="0.1" x="568.45" y="349.54" width="9.9" height="28.18"></rect>
                <rect id="Rectangle" fill="#15BE51" opacity="0.1" x="582.93" y="349.54" width="9.9" height="28.18"></rect>
                <rect id="Rectangle" fill="#15BE51" opacity="0.1" x="597.4" y="349.54" width="9.9" height="28.18"></rect>
                <rect id="Rectangle" fill="#15BE51" opacity="0.1" x="611.87" y="349.54" width="9.9" height="28.18"></rect>
                <rect id="Rectangle" fill="#15BE51" opacity="0.1" x="539.51" y="354.87" width="9.9" height="3.05"></rect>
                <rect id="Rectangle" fill="#15BE51" opacity="0.1" x="553.98" y="354.87" width="9.9" height="3.05"></rect>
                <rect id="Rectangle" fill="#15BE51" opacity="0.1" x="568.45" y="354.87" width="9.9" height="3.05"></rect>
                <rect id="Rectangle" fill="#15BE51" opacity="0.1" x="582.93" y="354.87" width="9.9" height="3.05"></rect>
                <rect id="Rectangle" fill="#15BE51" opacity="0.1" x="597.4" y="354.87" width="9.9" height="3.05"></rect>
                <rect id="Rectangle" fill="#15BE51" opacity="0.1" x="611.87" y="354.87" width="9.9" height="3.05"></rect>
                <rect id="Rectangle" fill="#15BE51" opacity="0.1" x="539.51" y="368.58" width="9.9" height="3.05"></rect>
                <rect id="Rectangle" fill="#15BE51" opacity="0.1" x="553.98" y="368.58" width="9.9" height="3.05"></rect>
                <rect id="Rectangle" fill="#15BE51" opacity="0.1" x="568.45" y="368.58" width="9.9" height="3.05"></rect>
                <rect id="Rectangle" fill="#15BE51" opacity="0.1" x="582.93" y="368.58" width="9.9" height="3.05"></rect>
                <rect id="Rectangle" fill="#15BE51" opacity="0.1" x="597.4" y="368.58" width="9.9" height="3.05"></rect>
                <rect id="Rectangle" fill="#15BE51" opacity="0.1" x="611.87" y="368.58" width="9.9" height="3.05"></rect>
                <path d="M368,385.44 C367.233053,384.457124 366.531541,383.424899 365.9,382.35 L380.71,379.92 L364.71,380.04 C361.608344,373.287056 361.420305,365.555746 364.19,358.66 L385.64,369.78 L365.83,355.22 C370.854144,346.404985 380.396103,341.150804 390.531582,341.618329 C400.667061,342.085854 409.684804,348.196148 413.87611,357.43625 C418.067416,366.676351 416.724631,377.486176 410.4,385.42 C411.605458,386.941049 412.638443,388.591143 413.48,390.34 L394.26,400.34 L414.75,393.47 C417.661936,402.100331 416.026296,411.617125 410.4,418.78 C419.126379,429.844516 417.876127,445.759333 407.529026,455.325456 C397.181925,464.891579 381.218075,464.891579 370.870974,455.325456 C360.523873,445.759333 359.273621,429.844516 368,418.78 C360.30346,408.988029 360.30346,395.201971 368,385.41 L368,385.44 Z" id="Path" fill="#15BE51" opacity="0.1"></path>
                <path d="M416.18,402.12 C416.18078,408.165163 414.144568,414.034244 410.4,418.78 C419.126379,429.844516 417.876127,445.759333 407.529026,455.325456 C397.181925,464.891579 381.218075,464.891579 370.870974,455.325456 C360.523873,445.759333 359.273621,429.844516 368,418.78 C364.37,414.21 416.18,399.09 416.18,402.12 Z" id="Path" fill="#15BE51" opacity="0.1"></path>
                <path d="M393.52,469.66 C393.567011,469.731097 393.6104,469.804524 393.65,469.88 L384.49,469.88 C384.54,469.81 384.57,469.73 384.62,469.66 C383.831582,468.288768 383.424177,466.731654 383.44,465.15 C383.435785,464.065978 383.621945,462.989636 383.99,461.97 L383.99,461.97 C384.5,462.05 385.13,462.14 385.86,462.22 C387.984698,462.432532 390.125302,462.432532 392.25,462.22 C392.863333,462.16 393.493333,462.08 394.14,461.98 C394.135277,461.996332 394.135277,462.013668 394.14,462.03 C394.504137,463.033069 394.686984,464.092904 394.68,465.16 C394.700122,466.736434 394.299713,468.289745 393.52,469.66 Z" id="Path" fill="#3F3D56" opacity="0.2"></path>
                <path d="M360.6,469.88 L309.6,469.88 C309.49,469.59 309.39,469.28 309.3,468.98 C307.503218,463.201518 307.711123,456.985509 309.89,451.34 C299.64282,444.255347 295.573123,431.079446 300.04,419.45 C299.015147,418.744435 298.042615,417.965741 297.13,417.12 L310.55,410.43 L295.29,415.27 C290.330767,409.73684 287.870979,402.404503 288.49,395 L312.3,399.3 L289.08,391.23 C291.2638,381.309672 298.830647,373.454482 308.662411,370.901382 C318.494174,368.348283 328.926907,371.529365 335.661508,379.133774 C342.396108,386.738183 344.292801,397.478935 340.57,406.93 C342.180489,408.050716 343.665706,409.34148 345,410.78 L329.58,425.99 L347.13,413.37 C352.473273,420.763396 353.722052,430.354923 350.45,438.87 C360.402852,445.762189 364.551412,458.436754 360.6,469.88 Z" id="Path" fill="#15BE51" opacity="0.1"></path>
                <path d="M360.6,469.88 L309.6,469.88 C309.49,469.59 309.39,469.28 309.3,468.98 C307.503218,463.201518 307.711123,456.985509 309.89,451.34 C305.09,448.02 350.12,418.27 351.01,421.17 C352.806743,426.951877 352.598852,433.171018 350.42,438.82 C360.406488,445.710121 364.570672,458.415382 360.6,469.88 Z" id="Path" fill="#15BE51" opacity="0.1"></path>
                <path d="M591.35,433.34 C588.252592,438.538443 583.492885,442.540684 577.84,444.7 C578.0818,446.623994 578.118673,448.568221 577.95,450.5 L556.34,449.2 L577.45,453.78 C576.828664,456.657344 575.740977,459.413716 574.23,461.94 C572.389926,465.033874 569.940368,467.721584 567.03,469.84 L537.61,469.84 L537.61,470.61 L507.61,470.61 C507.67,470.35 507.73,470.1 507.8,469.84 C510.020607,461.446868 516.141765,454.633591 524.25,451.53 C522.670373,439.174953 529.747446,427.34265 541.38,422.89 C541.221754,421.653133 541.148249,420.406894 541.16,419.16 L555.11,424.67 L541.31,416.56 C542.13218,409.173054 545.963118,402.45173 551.9,397.98 L564.61,418.56 L555.08,395.9 C565.752158,389.994646 579.058214,391.977526 587.544867,400.737942 C596.03152,409.498357 597.591092,422.860643 591.35,433.34 L591.35,433.34 Z" id="Path" fill="#15BE51" opacity="0.1"></path>
                <path d="M574.23,461.98 C572.389926,465.073874 569.940368,467.761584 567.03,469.88 L537.61,469.88 L537.61,470.65 L507.61,470.65 C507.67,470.39 507.73,470.14 507.8,469.88 C510.020607,461.486868 516.141765,454.673591 524.25,451.57 C524,449.57 529.81,449.87 537.56,451.17 C552.75,453.72 575.26,460.26 574.23,461.98 Z" id="Path" fill="#15BE51" opacity="0.1"></path>
                <path d="M446.71,389.97 C446.71,389.97 450.41,409.97 442.15,416.5 C433.89,423.03 449.15,462.17 474.33,457.6 C499.51,453.03 509.77,420.2 509.77,420.2 C509.77,420.2 484.55,414.98 493.9,388.45 L446.71,389.97 Z" id="Path" fill="#EE8E9E"></path>
                <path d="M446.71,389.97 C446.71,389.97 450.41,409.97 442.15,416.5 C433.89,423.03 449.15,462.17 474.33,457.6 C499.51,453.03 509.77,420.2 509.77,420.2 C509.77,420.2 484.55,414.98 493.9,388.45 L446.71,389.97 Z" id="Path" fill="#000000" opacity="0.1"></path>
                <circle id="Oval" fill="#EE8E9E" cx="469" cy="362.9" r="41.75"></circle>
                <path d="M537.61,442.27 L537.61,470.65 L399.75,470.65 L399.75,443.56 C399.749555,436.537197 403.952074,430.196 410.42,427.46 L414.37,425.78 C424.37,421.52 436.52,416.23 440.49,414.03 C440.924797,413.812886 441.333998,413.547912 441.71,413.24 C443.88,411.07 443.45,413.89 443.45,413.89 C443.45,413.89 443.39,414.43 443.35,415.36 C443.11,421.75 444.03,446.86 473.46,444.77 C502.17,442.77 503.46,423.35 503.17,417.64 C503.153734,417.111456 503.110343,416.584095 503.04,416.06 C505.025646,416.532392 506.968911,417.167883 508.85,417.96 C514.85,420.18 523.71,423.74 526.08,425.42 C526.82,425.94 527.72,426.48 528.7,427.03 C529.811797,427.649893 530.851475,428.391083 531.8,429.24 C535.498495,432.561674 537.610771,437.298845 537.61,442.27 L537.61,442.27 Z" id="Path" fill="#15BE51"></path>
                <path d="M508.85,417.96 C506.42,429.22 498.79,450.31 471.29,450.86 C441.99,451.44 440.29,422.3 440.48,414.03 C440.921114,413.818584 441.334273,413.553221 441.71,413.24 C443.89,411.07 443.45,413.89 443.45,413.89 C443.45,413.89 439.76,447.16 473.45,444.77 C507.14,442.38 503,416.07 503,416.07 C503,415.91 505.51,416.78 508.85,417.96 Z" id="Path" fill="#000000" opacity="0.1"></path>
                <path d="M419.58,364.99 C422.416167,364.281068 425.398228,365.370134 427.11,367.74 C428.63,369.87 428.86,372.44 429.05,374.9 C430.86,375.28 431.88,373.23 432.05,371.68 C432.72,365.37 432.77,358.94 434.89,352.84 C437.01,346.74 441.64,340.84 448.75,338.51 C451.17948,337.668234 453.775393,337.421331 456.32,337.79 C457.83,338.04 459.25,338.57 460.75,338.79 C465.95,339.65 471.6,337.19 476.47,338.9 C479.53,339.98 481.47,342.47 482.9,344.96 C483.521998,346.302705 484.36733,347.530127 485.4,348.59 C487.47,350.45 490.71,350.93 493.68,351.51 C496.65,352.09 499.89,353.1 501.16,355.39 C502.3,357.46 501.46,359.85 501.08,362.09 C500.492356,365.638467 501.086098,369.281727 502.77,372.46 C503.32,373.46 504.44,374.67 505.77,374.34 C506.365566,374.138703 506.869325,373.730729 507.19,373.19 C510.6,368.41 510.51,362.19 514.79,357.88 C516.22,356.44 518.07,355.32 519.46,353.88 C521.596699,351.712515 522.50533,348.618664 521.88,345.64 C521.11,342.34 518.47,339.64 516.34,336.74 C513.573789,333.066104 511.558729,328.883072 510.41,324.43 C510.209511,323.912058 510.209511,323.337942 510.41,322.82 C510.814099,322.294821 511.334365,321.870393 511.93,321.58 C514.328085,319.972274 515.158806,316.83352 513.87,314.25 C512.66,311.78 510,309.9 507,308.78 C503.957139,307.780307 500.815846,307.109807 497.63,306.78 C495.53,307.08 493.07,305.89 492.42,304.21 C492.13,303.46 492.13,302.65 491.84,301.9 C491.041583,300.371507 489.549452,299.327014 487.84,299.1 C486.051301,298.810688 484.21985,298.940773 482.49,299.48 C480.49,300.04 478.22,300.88 476.49,299.9 C475.58,299.39 475.08,298.46 474.1,298.04 C472.1,297.2 470.04,298.9 468.61,300.3 C467.232094,301.76892 465.539909,302.907299 463.66,303.63 C461.651464,304.395195 459.408966,304.245451 457.52,303.22 C456.15,302.35 455.46,300.95 454.37,299.84 C452.311132,298.004013 449.676655,296.94315 446.92,296.84 C444.085353,296.689577 441.245084,297.000285 438.51,297.76 C433.289656,299.03223 428.30431,301.124927 423.74,303.96 C421.44398,305.221729 419.496035,307.032253 418.07,309.23 C417.226141,310.915159 416.791061,312.775384 416.8,314.66 C416.58,320.57 418.54,326.79 423.65,330.93 C420.53,332.23 419.48,335.42 418.75,338.25 C417.58,342.77 416.41,347.36 416.85,351.96 C417.07,354.34 417.72,356.72 417.37,359.09 C417.089433,360.20585 416.935132,361.349692 416.91,362.5 C417.210682,363.79582 418.266378,364.780346 419.58,364.99 L419.58,364.99 Z" id="Path" fill="#454B69"></path>
                <g id="Group" opacity="0.1" transform="translate(416.000000, 311.000000)" fill="#000000">
                    <path d="M105.23,32.78 C104.781009,33.7599833 104.172775,34.6588176 103.43,35.44 C102.04,36.9 100.19,38.03 98.76,39.44 C94.48,43.72 94.57,49.98 91.16,54.76 C90.8416692,55.3005757 90.3366065,55.7060485 89.74,55.9 C88.44,56.24 87.32,55.06 86.74,54.02 C86.0791724,52.7537065 85.5786525,51.4100287 85.25,50.02 C85.18,50.37 85.11,50.72 85.05,51.02 C84.462356,54.5684672 85.0560984,58.2117269 86.74,61.39 C87.29,62.39 88.41,63.6 89.74,63.27 C90.335566,63.0687027 90.8393255,62.6607285 91.16,62.12 C94.57,57.34 94.48,51.12 98.76,46.81 C100.19,45.37 102.04,44.25 103.43,42.81 C105.566699,40.642515 106.47533,37.5486636 105.85,34.57 C105.69646,33.9562364 105.488986,33.3572403 105.23,32.78 Z" id="Path"></path>
                    <path d="M95.91,3.18 C95.3123529,3.46723656 94.7914108,3.89221567 94.39,4.42 C94.1901618,4.93461366 94.1901618,5.50538634 94.39,6.02 C94.7846167,7.57386852 95.2892224,9.09771108 95.9,10.58 L95.9,10.58 C98.2980855,8.97227441 99.1288064,5.83351961 97.84,3.25 C97.6452939,2.8381514 97.4108488,2.44629316 97.14,2.08 C96.7849183,2.50379898 96.3706685,2.8742663 95.91,3.18 Z" id="Path"></path>
                    <path d="M7.71,12.45 C4.16707869,9.53081288 1.83315438,5.40101399 1.16,0.86 C0.980619399,1.75614429 0.880234269,2.66630281 0.86,3.58 C0.630508392,7.94650973 1.7815918,12.2744434 4.15,15.95 C4.8661647,14.3854421 6.13349624,13.1394701 7.71,12.45 L7.71,12.45 Z" id="Path"></path>
                    <path d="M85.08,43.72 C85.46,41.47 86.3,39.08 85.16,37.02 C83.89,34.72 80.65,33.72 77.68,33.14 C74.71,32.56 71.47,32.07 69.4,30.22 C68.3673303,29.1601272 67.5219979,27.9327046 66.9,26.59 C65.49,24.1 63.53,21.59 60.47,20.53 C55.6,18.82 49.95,21.27 44.75,20.42 C43.25,20.17 41.83,19.65 40.32,19.42 C37.7754714,19.0481802 35.1788088,19.2951547 32.75,20.14 C25.64,22.48 21.01,28.38 18.89,34.47 C16.77,40.56 16.72,46.99 16.05,53.31 C15.88,54.85 14.86,56.91 13.05,56.53 C12.86,54.06 12.63,51.53 11.11,49.36 C9.39565159,46.9938595 6.41407685,45.9089306 3.58,46.62 C2.73977499,46.4321801 1.99265731,45.9541664 1.47,45.27 C1.57993374,46.1867159 1.57993374,47.1132841 1.47,48.03 C1.189433,49.1458503 1.03513174,50.2896922 1.01,51.44 C1.2735471,52.7492758 2.30681033,53.7667036 3.62,54.01 C6.45616671,53.3010678 9.43822836,54.3901341 11.15,56.76 C12.67,58.89 12.9,61.46 13.09,63.92 C14.9,64.3 15.92,62.25 16.09,60.7 C16.76,54.39 16.81,47.96 18.93,41.86 C21.05,35.76 25.68,29.86 32.79,27.53 C35.2194796,26.6882341 37.8153932,26.4413309 40.36,26.81 C41.87,27.06 43.29,27.59 44.79,27.81 C49.99,28.67 55.64,26.21 60.51,27.92 C63.57,29 65.51,31.49 66.94,33.98 C67.5619979,35.3227046 68.4073303,36.5501272 69.44,37.61 C71.51,39.47 74.75,39.95 77.72,40.53 C80.69,41.11 83.72,42.05 85.05,44.17 C85,44.02 85.05,43.87 85.08,43.72 Z" id="Path"></path>
                    <path d="M1.43,40.61 C1.59471042,38.7472105 1.48351162,36.8703095 1.1,35.04 C0.806947536,36.9723956 0.743172379,38.9326425 0.91,40.88 C0.91,41.38 1.02,41.88 1.09,42.37 C1.2,41.78 1.35,41.2 1.43,40.61 Z" id="Path"></path>
                </g>
                <ellipse id="Oval" fill="#15BE51" cx="957.08" cy="758.54" rx="59.47" ry="11.44"></ellipse>
                <ellipse id="Oval" fill="#3F3D56" cx="956.09" cy="753.68" rx="6.92" ry="9.06"></ellipse>
                <ellipse id="Oval" fill="#3F3D56" cx="956.09" cy="742.6" rx="6.92" ry="9.06"></ellipse>
                <ellipse id="Oval" fill="#3F3D56" cx="956.09" cy="731.53" rx="6.92" ry="9.06"></ellipse>
                <ellipse id="Oval" fill="#3F3D56" cx="956.09" cy="720.45" rx="6.92" ry="9.06"></ellipse>
                <ellipse id="Oval" fill="#3F3D56" cx="956.09" cy="709.37" rx="6.92" ry="9.06"></ellipse>
                <ellipse id="Oval" fill="#3F3D56" cx="956.09" cy="698.29" rx="6.92" ry="9.06"></ellipse>
                <ellipse id="Oval" fill="#3F3D56" cx="956.09" cy="687.21" rx="6.92" ry="9.06"></ellipse>
                <path d="M982,611.41 C982.943987,610.202437 983.805921,608.932922 984.58,607.61 L966.38,604.61 L986.06,604.76 C989.868584,596.457884 990.096391,586.955078 986.69,578.48 L960.31,592.18 L984.65,574.29 C978.434326,563.543517 966.737998,557.167511 954.337864,557.765981 C941.937729,558.36445 930.909786,565.837201 925.757909,577.132318 C920.606032,588.427434 922.192735,601.653919 929.87,611.41 C928.403402,613.272137 927.136451,615.28317 926.09,617.41 L949.71,629.68 L924.53,621.23 C920.938479,631.845851 922.946792,643.557252 929.87,652.37 C919.183273,665.965392 920.738403,685.490755 933.442403,697.223155 C946.146402,708.955555 965.733598,708.955555 978.437597,697.223155 C991.141597,685.490755 992.696727,665.965392 982.01,652.37 C991.46399,640.338295 991.46399,623.401705 982.01,611.37 L982,611.41 Z" id="Path" fill="#15BE51"></path>
                <path d="M922.78,631.91 C922.765824,639.347031 925.264194,646.570807 929.87,652.41 C919.183273,666.005392 920.738403,685.530755 933.442403,697.263155 C946.146402,708.995555 965.733598,708.995555 978.437597,697.263155 C991.141597,685.530755 992.696727,666.005392 982.01,652.41 C986.45,646.78 922.78,628.19 922.78,631.91 Z" id="Path" fill="#000000" opacity="0.1"></path>
                <ellipse id="Oval" fill="#15BE51" opacity="0.1" cx="290" cy="810.56" rx="99" ry="21"></ellipse>
                <path d="M323.15,808.12 C321.15,807.39 319.01,807.51 316.92,807.28 C312.580421,806.77849 308.539794,804.818116 305.46,801.72 C303.479346,799.717423 301.921783,797.336867 300.88,794.72 C301.54,794.96 302.2,795.21 302.88,795.48 C300.88,790.81 302.98,785.57 304.82,780.85 C307.94,772.85 310.89,764.806667 313.67,756.72 C320.67,736.23 326.67,714.92 326.54,693.12 C326.54,685.24 325.09,677.79 324.81,669.92 C324.6,664.08 325.5,658.25 325.46,652.4 C325.46,651.58 325.46,650.77 325.4,649.95 C329.025574,646.776093 330.972495,642.099051 330.67,637.29 C330.568382,636.053691 330.391387,634.824739 330.14,633.61 C329.785893,631.499744 329.318552,629.41006 328.74,627.35 C328.08,625.18 327.18,623.1 326.41,620.98 C324.92,616.87 323.91,612.59 322.64,608.41 C323.110498,608.45823 323.569917,608.583218 324,608.78 C323.679696,608.404234 323.459547,607.953617 323.36,607.47 C322.613282,604.808972 322.210009,602.063359 322.16,599.3 L323.01,598.92 C323.39283,596.221967 323.25364,593.475504 322.6,590.83 C323.08,586.54 323.83,582.22 324.29,577.95 C324.46,576.35 324.39,574.34 322.92,573.95 C322.62,571.66 322.5,569.34 322.38,567.03 C321.96,558.97 321.543333,550.913333 321.13,542.86 C320.71,534.77 320.29,526.69 320.13,518.59 C320.02,513.45 319.96,508.13 318.74,503.21 C318.950829,500.852746 318.709851,498.476914 318.03,496.21 C316.17,490.32 310.39,485.65 304.53,485.98 C302.782325,483.4794 300.621411,481.294815 298.14,479.52 C299.31,476.9 300.71,474.2 301.86,472.08 C311.24,469.03 318.1,459.78 318.1,448.78 C318.113842,444.753433 317.171321,440.781132 315.35,437.19 C315.522086,436.748686 315.668989,436.297961 315.79,435.84 C316.292164,433.680325 316.135419,431.419704 315.34,429.35 C315.058506,428.555338 314.724434,427.780291 314.34,427.03 C314.08,426.53 313.8,426.03 313.51,425.55 L313,424.78 C312.69,424.31 312.37,423.86 312,423.42 C311.289766,422.466378 310.528663,421.551718 309.72,420.68 C308.724226,419.602317 307.62569,418.624352 306.44,417.76 C304.831943,416.564856 302.993067,415.71693 301.04,415.27 C299.910652,415.04701 298.761028,414.943108 297.61,414.96 C296.92,414.96 296.22,414.96 295.53,415.02 C294.13,415.1 292.74,415.2 291.35,415.19 C290.89,415.19 290.42,415.19 289.96,415.12 C287.513082,414.79384 285.093295,414.28916 282.72,413.61 L281.52,413.36 C281.11,413.28 280.71,413.21 280.3,413.16 C279.202953,413.013397 278.096718,412.946555 276.99,412.96 L275.88,412.96 C274.771329,413.013375 273.666371,413.126875 272.57,413.3 L271.47,413.47 C268.692292,413.905001 265.985061,414.708762 263.42,415.86 C263.09,416.01 262.75,416.18 262.42,416.36 L262.22,416.47 C261.95,416.61 261.68,416.76 261.42,416.92 L261.27,417.01 L260.42,417.55 L260.35,417.6 C252.41,422.94 247.72,433.06 246.53,443.1 C245.2,454.37 247.53,465.73 249.86,476.82 L251.96,486.82 C252.05,487.27 252.15,487.71 252.24,488.16 C249.287128,490.582921 247.015966,493.732909 245.65,497.3 C243.65,502.3 243.6,507.71 243.76,513.13 C243.76,514.23 243.82,515.33 243.93,516.43 C243.68,518.51 243.46,520.6 243.32,522.7 C242.69,532.4 243.87,542.15 243.56,551.87 C243.32,559.36 242.19,566.87 242.74,574.31 C243.22,580.91 244.99,587.31 246.74,593.68 L249.26,602.76 C249.341705,603.22982 249.560955,603.66484 249.89,604.01 C250.303771,604.287862 250.810156,604.392012 251.3,604.3 C249.660726,608.023762 248.290547,611.860264 247.2,615.78 C246.446531,618.180601 245.95041,620.654503 245.72,623.16 C245.39,627.74 246.45,632.29 247.51,636.74 C249.11,643.406667 250.703333,650.1 252.29,656.82 C253.41,661.52 254.526667,666.216667 255.64,670.91 C257.84,680.17 260.05,689.49 260.46,699.02 C260.688599,703.806071 260.352956,708.602414 259.46,713.31 C256.574984,727.407769 256.15544,741.898932 258.22,756.14 C259.888915,768.154831 262.595704,780.00247 266.31,791.55 C267.12,791.12 267.94,790.72 268.78,790.35 L268.43,791 C267.276667,793 266.21,795.05 265.23,797.15 C264.569409,798.514811 263.998205,799.921108 263.52,801.36 C262.24,805.36 262.04,809.62 261.86,813.83 C261.768408,814.639297 261.839812,815.458742 262.07,816.24 C262.62,817.75 264.2,818.52 265.67,818.94 C269.99,820.17 274.48,819.73 278.97,819.15 C278.990797,819.249286 279.020931,819.346384 279.06,819.44 C279.61,820.95 281.18,821.72 282.66,822.14 C288.84,823.9 295.36,822.24 301.73,821.64 C308.1,821.04 314.36,821.48 320.49,820.01 C321.403642,819.814728 322.280981,819.47729 323.09,819.01 C324.666102,817.907579 325.822268,816.303752 326.37,814.46 C326.561898,813.98229 326.689675,813.481266 326.75,812.97 C327,810.78 325.13,808.85 323.15,808.12 Z M302,715.51 C301.655194,717.852742 300.981905,720.135192 300,722.29 C295.189565,732.51917 291.740205,743.334562 289.74,754.46 C288.42754,761.809402 287.668741,769.246974 287.47,776.71 C287.37,782.21 287.58,787.97 285.29,792.91 L286.12,792.78 C285.86,793.26 285.61,793.78 285.37,794.16 L285.25,794.38 C283.864995,792.021716 282.938703,789.422671 282.52,786.72 C282.52,786.63 282.07,786.56 281.38,786.52 C278.553064,770.723887 277.573146,754.652554 278.46,738.63 C278.473482,736.686553 278.742454,734.753316 279.26,732.88 C279.77,731.27 280.63,729.8 281.26,728.24 C282.258978,725.61927 282.930721,722.885275 283.26,720.1 C284.349145,712.981547 284.770978,705.776918 284.52,698.58 C284.28,691.79 285.85,685.04 287.19,678.28 C287.83,675.07 288.42,671.85 288.74,668.63 L288.8,667.98 C294.74967,677.795248 298.907652,688.589749 301.08,699.86 C302.287821,704.98444 302.599087,710.279339 302,715.51 Z M259.2,570.99 L259.52,571.27 C260.486593,572.120378 261.376675,573.053961 262.18,574.06 C262.57972,574.498348 262.867862,575.026607 263.02,575.6 C263.32,577.06 262.11,578.3 261.12,579.37 C260.689817,579.833776 260.285856,580.3212 259.91,580.83 C259.696667,577.55 259.47,574.27 259.23,570.99 L259.2,570.99 Z" id="Shape" fill="url(#linearGradient-1)"></path>
                <path d="M245.36,508.31 L244.26,516.8 C243.89,519.68 243.52,522.55 243.32,525.44 C242.65,535.06 243.89,544.72 243.57,554.36 C243.31,561.78 242.13,569.19 242.7,576.6 C243.21,583.14 245.07,589.5 246.93,595.8 L249.57,604.8 C249.660234,605.270322 249.890255,605.702482 250.23,606.04 C250.738687,606.341122 251.342813,606.437639 251.92,606.31 L263.64,605.25 C262.89,601.81 262.06,598.25 261.64,594.72 C261.32,591.96 261.13,589.18 260.93,586.4 C260.31,577.74 259.6,569.08 258.93,560.4 L257.68,545.2 C257.15,538.6 256.6,531.97 254.94,525.56 C253.274314,519.085387 249.9759,513.146175 245.36,508.31 Z" id="Path" fill="#15BE51"></path>
                <path d="M245.36,508.31 L244.26,516.8 C243.89,519.68 243.52,522.55 243.32,525.44 C242.65,535.06 243.89,544.72 243.57,554.36 C243.31,561.78 242.13,569.19 242.7,576.6 C243.21,583.14 245.07,589.5 246.93,595.8 L249.57,604.8 C249.660234,605.270322 249.890255,605.702482 250.23,606.04 C250.738687,606.341122 251.342813,606.437639 251.92,606.31 L263.64,605.25 C262.89,601.81 262.06,598.25 261.64,594.72 C261.32,591.96 261.13,589.18 260.93,586.4 C260.31,577.74 259.6,569.08 258.93,560.4 L257.68,545.2 C257.15,538.6 256.6,531.97 254.94,525.56 C253.274314,519.085387 249.9759,513.146175 245.36,508.31 Z" id="Path" fill="#000000" opacity="0.1"></path>
                <path d="M266.24,797.33 C265.551978,798.683758 264.950764,800.079911 264.44,801.51 C263.1,805.46 262.9,809.7 262.7,813.87 C262.611618,814.673353 262.686449,815.486281 262.92,816.26 C263.5,817.76 265.16,818.52 266.71,818.93 C273.2,820.68 280.04,819.04 286.71,818.44 C293.38,817.84 299.97,818.28 306.41,816.83 C307.360987,816.646403 308.280476,816.326434 309.14,815.88 C310.770614,814.818501 311.988243,813.230289 312.59,811.38 C312.783925,810.905765 312.915035,810.408218 312.98,809.9 C313.19,807.7 311.28,805.8 309.2,805.08 C307.12,804.36 304.85,804.47 302.66,804.25 C293.386355,803.301182 285.905655,796.242912 284.42,787.04 C284.34,786.56 273.58,786.85 272.42,787.47 C271.1,788.2 270.3,790.01 269.55,791.24 C268.37,793.22 267.266667,795.25 266.24,797.33 Z" id="Path" fill="#A26565"></path>
                <path d="M266.24,797.33 C265.551978,798.683758 264.950764,800.079911 264.44,801.51 C263.1,805.46 262.9,809.7 262.7,813.87 C262.611618,814.673353 262.686449,815.486281 262.92,816.26 C263.5,817.76 265.16,818.52 266.71,818.93 C273.2,820.68 280.04,819.04 286.71,818.44 C293.38,817.84 299.97,818.28 306.41,816.83 C307.360987,816.646403 308.280476,816.326434 309.14,815.88 C310.770614,814.818501 311.988243,813.230289 312.59,811.38 C312.783925,810.905765 312.915035,810.408218 312.98,809.9 C313.19,807.7 311.28,805.8 309.2,805.08 C307.12,804.36 304.85,804.47 302.66,804.25 C293.386355,803.301182 285.905655,796.242912 284.42,787.04 C284.34,786.56 273.58,786.85 272.42,787.47 C271.1,788.2 270.3,790.01 269.55,791.24 C268.37,793.22 267.266667,795.25 266.24,797.33 Z" id="Path" fill="#000000" opacity="0.1"></path>
                <path d="M284.09,800.51 C283.397725,801.858326 282.796384,803.251433 282.29,804.68 C280.94,808.68 280.74,812.87 280.55,817.04 C280.456778,817.843303 280.531699,818.657214 280.77,819.43 C281.34,820.93 283,821.69 284.55,822.11 C291.04,823.85 297.89,822.21 304.55,821.61 C311.21,821.01 317.82,821.45 324.25,820 C325.205406,819.806897 326.125916,819.469714 326.98,819 C328.612852,817.940921 329.831161,816.351822 330.43,814.5 C330.623925,814.025765 330.755035,813.528218 330.82,813.02 C331.03,810.83 329.12,808.92 327.04,808.2 C324.96,807.48 322.69,807.6 320.5,807.37 C311.230999,806.418924 303.752976,799.367279 302.26,790.17 C302.18,789.69 291.42,789.97 290.26,790.59 C288.93,791.32 288.13,793.13 287.38,794.36 C286.24,796.39 285.12,798.43 284.09,800.51 Z" id="Path" fill="#A26565"></path>
                <path d="M330.62,694.28 C330.76,715.89 324.48,737.01 317.11,757.28 C314.19,765.32 311.093333,773.29 307.82,781.19 C305.88,785.87 303.69,791.07 305.77,795.69 C299.77,793.41 293.67,792.07 287.36,793.12 C289.76,788.22 289.53,782.52 289.64,777.12 C289.843651,769.719245 290.632782,762.346219 292,755.07 C294.118038,743.995701 297.748705,733.265214 302.79,723.18 C303.809057,721.053282 304.513105,718.789548 304.88,716.46 C305.7,711.32 305.06,706.04 303.99,700.95 C301.688076,689.707458 297.313571,678.991617 291.09,669.35 L291.03,669.99 C290.656462,673.205955 290.11573,676.400279 289.41,679.56 C288,686.25 286.35,692.95 286.6,699.68 C286.860847,706.816087 286.418716,713.960524 285.28,721.01 C284.913302,723.77802 284.190659,726.487093 283.13,729.07 C282.44,730.62 281.54,732.07 281,733.68 C280.45945,735.532383 280.17679,737.450431 280.16,739.38 C279.36,755.65 280.16,772.17 283.48,788.12 C277.91,787.68 272.34,789.29 267.36,791.79 C263.466222,780.372524 260.621122,768.623932 258.86,756.69 C256.6902,742.576437 257.130842,728.184386 260.16,714.23 C261.104059,709.576312 261.456848,704.822059 261.21,700.08 C260.78,690.63 258.46,681.39 256.15,672.21 L252.63,658.21 C250.963333,651.543333 249.296667,644.906667 247.63,638.3 C246.52,633.89 245.4,629.38 245.75,624.84 C245.994113,622.34926 246.517397,619.893848 247.31,617.52 C249.806699,609.446154 253.541128,601.808623 258.38,594.88 C277.65,595.96 297.15,594.16 316.38,592.68 C317.312417,592.495905 318.279971,592.659536 319.1,593.14 C319.755435,593.805812 320.146394,594.687247 320.2,595.62 L327.43,636.62 C328.600659,642.318427 329.286444,648.105789 329.48,653.92 C329.48,659.72 328.58,665.5 328.8,671.29 C329.1,679.09 330.58,686.47 330.62,694.28 Z" id="Path" fill="#454B69"></path>
                <path d="M291.05,669.99 C290.676462,673.205955 290.13573,676.400279 289.43,679.56 C285.24,672.31 280.72,665.24 276.86,657.81 C275.86,655.9 274.92,653.96 273.97,652.02 L271.12,646.22 C270.59,645.13 270.06,644.04 269.58,642.93 C268.798437,641.335429 268.198023,639.658298 267.79,637.93 C269.19,637.67 272.65,641.45 273.69,642.44 C275.811369,644.540563 277.814452,646.757309 279.69,649.08 C281.967927,651.66188 284.059843,654.40209 285.95,657.28 C288.370173,661.190892 290.095609,665.49095 291.05,669.99 Z" id="Path" fill="#000000" opacity="0.1"></path>
                <path d="M307.1,471.08 C307.1,471.08 296.4,488.13 298.38,491.7 C300.36,495.27 264.68,488.53 264.68,488.53 C264.68,488.53 284.11,471.48 282.12,464.34 C280.13,457.2 307.1,471.08 307.1,471.08 Z" id="Path" fill="#EFB7B9"></path>
                <circle id="Oval" fill="#EFB7B9" cx="297.59" cy="452.05" r="24.19"></circle>
                <path d="M307.46,488.96 C304.869795,485.366007 301.355708,482.539534 297.29,480.78 C294.947221,479.940952 292.524536,479.344495 290.06,479 L280.41,477.3 C278.05,476.88 275.52,476.49 273.32,477.46 C272.20763,478.030494 271.194608,478.776753 270.32,479.67 C266.97,482.78 263.72,486.19 259.51,487.99 C258.36,488.48 257.16,488.84 256.01,489.33 C251.3,491.33 247.78,495.59 245.79,500.33 C243.69,505.27 243.63,510.64 243.79,516.01 C243.787216,517.863815 243.971483,519.713181 244.34,521.53 C244.821369,523.260452 245.433119,524.951957 246.17,526.59 C247.499606,530.095726 248.614995,533.678993 249.51,537.32 C252.01,546.886667 254.09,556.553333 255.75,566.32 C255.890822,567.719045 256.301748,569.077478 256.96,570.32 C257.892271,571.56371 259.020278,572.647813 260.3,573.53 C261.315132,574.363439 262.24928,575.290891 263.09,576.3 C263.508976,576.712149 263.821304,577.220111 264,577.78 C264.31,579.22 263,580.46 262,581.51 C259.848001,583.705825 258.292211,586.414691 257.48,589.38 C256.978426,589.988589 256.721715,590.762287 256.76,591.55 C256.968302,592.09792 257.047021,592.686601 256.99,593.27 C256.793156,593.800756 256.482559,594.282011 256.08,594.68 C255.146566,595.89642 254.7822,597.455908 255.08,598.96 C262.575542,602.216905 270.597557,604.093677 278.76,604.5 C280.76,604.6 282.76,604.6 284.76,604.84 C286.18,605.02 287.58,605.31 289,605.48 C291.060674,605.673424 293.132093,605.72688 295.2,605.64 C305.97,605.42 317.05,605.15 326.94,600.88 C327.87,595.81 325.86,590.64 324.6,585.64 C322.6,577.64 322.1,569.45 320.6,561.38 C319.6,555.87 318.1,550.44 317.25,544.89 C316.4,539.34 316.25,533.59 317.73,528.19 C319.08,523.41 319.49,518.53 320.89,513.76 C322.29,508.99 323.27,503.82 321.69,499.1 C319.69,493.26 313.62,488.63 307.46,488.96 Z" id="Path" fill="#15BE51"></path>
                <path d="M319.34,439.22 C320.52,434.93 318.2,430.46 315.44,426.97 C312.44,423.22 308.62,419.84 303.93,418.9 C300.12,418.13 296.17,419.06 292.29,418.75 C288.86,418.48 285.56,417.24 282.15,416.75 C279.056044,416.416514 275.930047,416.534413 272.87,417.1 C269.966045,417.531709 267.127398,418.324515 264.42,419.46 C254.12,424.03 248.09,435.29 246.69,446.46 C245.29,457.63 247.74,468.89 250.18,479.88 L252.39,489.82 C254.69,500.17 256.99,510.56 257.6,521.14 C258.21,531.72 257.07,542.58 252.72,552.24 C266.78771,544.683248 277.687824,532.343028 283.45,517.45 C285.01,513.36 286.17,509.11 287.91,505.09 C289.4,501.63 291.31,498.35 292.63,494.82 C294.122033,490.8359 294.838235,486.603183 294.74,482.35 C294.66,479.15 294.13,475.97 294.22,472.77 C294.31,469.57 295.13,466.24 297.34,463.92 C299.34,461.87 302.09,460.92 304.62,459.59 C308.602803,457.544105 312.082859,454.641212 314.81,451.09 C316.4,449.01 316.49,448.09 316.89,445.73 C317.29,443.37 318.72,441.49 319.34,439.22 Z" id="Path" fill="#A26565"></path>
                <path d="M319.37,620.93 C319.62,623.42 319.17,625.93 319.71,628.4 C320.12,630.24 321.07,631.9 321.63,633.7 C322.184026,635.778356 322.469682,637.919093 322.48,640.07 C322.56,641.87 322.42,644.07 320.82,644.91 C320.12,645.28 319.28,645.28 318.55,645.6 C317.82,645.92 317.2,646.79 317.62,647.47 C318.04,648.15 318.76,648.04 319.42,648.17 C320.08,648.3 320.79,648.98 320.42,649.53 C320.269382,649.710119 320.066823,649.839338 319.84,649.9 C319.172364,650.105608 318.538834,650.408894 317.96,650.8 C317.383388,651.219658 317.086884,651.924336 317.19,652.63 C317.271682,652.96549 317.502271,653.245223 317.816009,653.389426 C318.129747,653.533628 318.492198,653.526473 318.8,653.37 C318.50658,653.996945 318.346535,654.677987 318.33,655.37 C320.89,656.47 323.76,655.03 326.16,653.64 C327.197771,653.06103 328.199598,652.41986 329.16,651.72 C333.101898,648.693589 335.288956,643.911273 335,638.95 C334.885695,637.722713 334.695329,636.503703 334.43,635.3 C334.060781,633.203257 333.569953,631.129758 332.96,629.09 C332.27,626.94 331.33,624.89 330.52,622.78 C328.8,618.29 327.69,613.59 326.13,609.04 C326.025781,608.568272 325.760609,608.147532 325.38,607.85 C325.035965,607.680411 324.65221,607.607809 324.27,607.64 C322.519276,607.548097 320.764462,607.709769 319.06,608.12 C318.06,608.42 316.35,609.12 315.88,610.12 C315.41,611.12 316.16,611.96 316.61,612.79 C318.047289,615.299522 318.984572,618.063827 319.37,620.93 Z" id="Path" fill="#EFB7B9"></path>
                <path d="M317.74,499.42 C318.25349,499.945808 318.684982,500.545852 319.02,501.2 C322.46,507.45 322.5,514.92 322.66,522.05 C322.84,530.05 323.28,538.05 323.72,546.1 L325.03,570.1 C325.16,572.39 325.28,574.68 325.61,576.95 C327.15,577.34 327.21,579.34 327.04,580.95 C325.93,590.73 323.18,600.8 326.04,610.21 C326.150267,610.692851 326.380731,611.140019 326.71,611.51 C325.257675,611.054884 323.704018,611.034029 322.24,611.45 C320.81,611.75 319.43,612.28 317.99,612.61 C316.17,613.02 314.11,613.2 312.87,614.61 C311.464659,610.383391 310.345462,606.066965 309.52,601.69 C308.84,597.69 308.65,593.57 307.03,589.87 C306.38,588.38 305.5,587 304.7,585.57 C300.51,578.09 298.45,569.64 296.44,561.3 C295.538044,557.346252 295.321566,553.267002 295.8,549.24 C296.090914,547.403303 296.257958,545.549118 296.3,543.69 C296.178263,541.727911 295.920983,539.776589 295.53,537.85 C294.68045,532.195526 295.07981,526.423593 296.7,520.94 C298.2,515.85 299.52,510.49 302.7,506.21 C305.88,501.93 312.43,499.49 317.74,499.42 Z" id="Path" fill="#000000" opacity="0.1"></path>
                <path d="M318.93,498.62 C319.44361,499.149441 319.875059,499.752796 320.21,500.41 C323.65,506.65 323.69,514.13 323.85,521.26 C324.03,529.26 324.47,537.26 324.91,545.26 L326.22,569.26 C326.35,571.55 326.47,573.84 326.8,576.11 C328.34,576.5 328.4,578.5 328.22,580.11 C327.12,589.89 324.37,599.95 327.22,609.37 C327.330267,609.852851 327.560731,610.300019 327.89,610.67 C326.437675,610.214884 324.884018,610.194029 323.42,610.61 C321.99,610.91 320.61,611.44 319.17,611.76 C317.35,612.18 315.29,612.35 314.05,613.76 C312.649156,609.513952 311.539909,605.177196 310.73,600.78 C310.05,596.78 309.86,592.67 308.24,588.97 C307.536476,587.498224 306.758812,586.06305 305.91,584.67 C301.71,577.19 299.66,568.73 297.65,560.39 C296.747847,556.43628 296.531368,552.356996 297.01,548.33 C297.763187,544.560064 297.670973,540.670013 296.74,536.94 C295.890302,531.288855 296.289675,525.520144 297.91,520.04 C299.41,514.95 300.73,509.59 303.91,505.31 C307.09,501.03 313.62,498.7 318.93,498.62 Z" id="Path" fill="#15BE51"></path>
                <g id="Group" opacity="0.1" transform="translate(252.000000, 416.000000)" fill="#000000">
                    <path d="M63.44,10.97 C60.44,7.22 56.62,3.84 51.93,2.9 C48.12,2.13 44.17,3.06 40.29,2.75 C36.86,2.48 33.56,1.24 30.15,0.75 C27.0560443,0.41651438 23.9300467,0.534412996 20.87,1.1 C17.966045,1.5317093 15.1273975,2.32451498 12.42,3.46 C10.9575044,4.11501978 9.56112539,4.90864525 8.25,5.83 C10.6598921,4.8937649 13.1646993,4.2231338 15.72,3.83 C18.7765971,3.26368903 21.8994025,3.14578376 24.99,3.48 C28.41,3.92 31.7,5.15 35.14,5.42 C39.01,5.73 42.96,4.81 46.78,5.57 C51.47,6.51 55.31,9.9 58.28,13.65 C61.05,17.13 63.36,21.6 62.19,25.9 C61.57,28.16 60.13,30.14 59.74,32.47 C59.35,34.8 59.25,35.75 57.65,37.83 C55.5984917,40.4974722 53.1180531,42.8055642 50.31,44.66 C51.08,44.3 51.87,43.94 52.62,43.55 C56.6028029,41.5041054 60.0828595,38.6012123 62.81,35.05 C64.4,32.97 64.49,32.05 64.89,29.69 C65.29,27.33 66.72,25.39 67.34,23.12 C68.52,18.93 66.2,14.46 63.44,10.97 Z" id="Path"></path>
                    <path d="M45.34,47.98 C45.7541933,47.5505054 46.2059957,47.1589434 46.69,46.81 C44.38,47.93 41.95,48.91 40.18,50.81 C37.97,53.12 37.18,56.46 37.06,59.66 C36.94,62.86 37.51,66.04 37.58,69.23 C37.6782809,73.4864427 36.9620981,77.7224435 35.47,81.71 C34.15,85.24 32.24,88.51 30.75,91.98 C29.02,95.98 27.86,100.24 26.3,104.33 C21.3008209,117.242436 12.4238531,128.288863 0.89,135.95 C0.83,136.08 0.78,136.22 0.72,136.35 C14.7877102,128.793248 25.6878237,116.453028 31.45,101.56 C33.01,97.47 34.17,93.22 35.91,89.2 C37.4,85.74 39.31,82.46 40.63,78.93 C42.1220331,74.9459004 42.8382347,70.7131826 42.74,66.46 C42.66,63.26 42.13,60.08 42.22,56.88 C42.31,53.68 43.13,50.3 45.34,47.98 Z" id="Path"></path>
                </g>
            </g>
        </g>
    </g>
</svg>