<svg xmlns="http://www.w3.org/2000/svg" width="1297" height="370" viewBox="0 0 1297 370">
  <g id="Group_29" data-name="Group 29" transform="translate(-36 -5594)" opacity="0.347">
    <g id="Polygon_4" data-name="Polygon 4" transform="translate(118.773 5904.42) rotate(-30)" fill="none" opacity="0.428">
      <path d="M8,0l8,13H0Z" stroke="none"/>
      <path d="M 7.999999523162842 1.908047676086426 L 1.789566993713379 12 L 14.2104320526123 12 L 7.999999523162842 1.908047676086426 M 7.999999523162842 0 L 16 13 L -9.5367431640625e-07 13 L 7.999999523162842 0 Z" stroke="none" fill="#fff"/>
    </g>
    <g id="Polygon_18" data-name="Polygon 18" transform="translate(249.273 5786.322) rotate(30)" fill="none" opacity="0.488">
      <path d="M9.5,0,19,16H0Z" stroke="none"/>
      <path d="M 9.5 1.958708763122559 L 1.756732940673828 15 L 17.24326705932617 15 L 9.5 1.958708763122559 M 9.5 0 L 19 16 L 0 16 L 9.5 0 Z" stroke="none" fill="#fff"/>
    </g>
    <g id="Polygon_5" data-name="Polygon 5" transform="matrix(0.809, 0.588, -0.588, 0.809, 346.959, 5892.737)" fill="none" opacity="0.367">
      <path d="M7.5,0,15,12H0Z" stroke="none"/>
      <path d="M 7.500000476837158 1.886799812316895 L 1.804250717163086 11 L 13.19575023651123 11 L 7.500000476837158 1.886799812316895 M 7.500000476837158 0 L 15 12 L 9.5367431640625e-07 12 L 7.500000476837158 0 Z" stroke="none" fill="#fff"/>
    </g>
    <g id="Polygon_19" data-name="Polygon 19" transform="matrix(0.966, -0.259, 0.259, 0.966, 458.253, 5792.731)" fill="none" opacity="0.491">
      <path d="M7,0l7,12H0Z" stroke="none"/>
      <path d="M 7 1.984635353088379 L 1.741037368774414 11 L 12.25896263122559 11 L 7 1.984635353088379 M 7 0 L 14 12 L 0 12 L 7 0 Z" stroke="none" fill="#fff"/>
    </g>
    <g id="Polygon_17" data-name="Polygon 17" transform="translate(103.58 5671.871) rotate(60)" fill="none" opacity="0.527">
      <path d="M6.5,0,13,10H0Z" stroke="none"/>
      <path d="M 6.5 1.834897994995117 L 1.842683792114258 9 L 11.15731620788574 9 L 6.5 1.834897994995117 M 6.5 0 L 13 10 L 0 10 L 6.5 0 Z" stroke="none" fill="#fff"/>
    </g>
    <g id="Polygon_6" data-name="Polygon 6" transform="translate(573.387 5913.986) rotate(49)" fill="none" opacity="0.614">
      <path d="M6.5,0,13,11H0Z" stroke="none"/>
      <path d="M 6.5 1.965688705444336 L 1.75245189666748 10 L 11.24754810333252 10 L 6.5 1.965688705444336 M 6.5 0 L 13 11 L 0 11 L 6.5 0 Z" stroke="none" fill="#fff"/>
    </g>
    <g id="Polygon_9" data-name="Polygon 9" transform="matrix(-0.309, 0.951, -0.951, -0.309, 771.825, 5782.135)" fill="none" opacity="0.424">
      <path d="M5,0l5,9H0Z" stroke="none"/>
      <path d="M 5 2.059127807617188 L 1.699515342712402 8 L 8.300484657287598 8 L 5 2.059127807617188 M 5 0 L 10 9 L 0 9 L 5 0 Z" stroke="none" fill="#fff"/>
    </g>
    <g id="Polygon_10" data-name="Polygon 10" transform="translate(950.667 5902.367) rotate(13)" fill="none" opacity="0.457">
      <path d="M8,0l8,13H0Z" stroke="none"/>
      <path d="M 7.999999523162842 1.908047676086426 L 1.789566993713379 12 L 14.2104320526123 12 L 7.999999523162842 1.908047676086426 M 7.999999523162842 0 L 16 13 L -9.5367431640625e-07 13 L 7.999999523162842 0 Z" stroke="none" fill="#fff"/>
    </g>
    <g id="Polygon_21" data-name="Polygon 21" transform="translate(707.667 5815.367) rotate(13)" fill="none" opacity="0.457">
      <path d="M8,0l8,13H0Z" stroke="none"/>
      <path d="M 7.999999523162842 1.908047676086426 L 1.789566993713379 12 L 14.2104320526123 12 L 7.999999523162842 1.908047676086426 M 7.999999523162842 0 L 16 13 L -9.5367431640625e-07 13 L 7.999999523162842 0 Z" stroke="none" fill="#fff"/>
    </g>
    <g id="Polygon_12" data-name="Polygon 12" transform="matrix(0.616, -0.788, 0.788, 0.616, 750.568, 5926.063)" fill="none" opacity="0.768">
      <path d="M5.5,0,11,9H0Z" stroke="none"/>
      <path d="M 5.5 1.917726516723633 L 1.783055305480957 8 L 9.216944694519043 8 L 5.5 1.917726516723633 M 5.5 0 L 11 9 L 0 9 L 5.5 0 Z" stroke="none" fill="#fff"/>
    </g>
    <g id="Polygon_22" data-name="Polygon 22" transform="matrix(0.616, -0.788, 0.788, 0.616, 1043.568, 5890.063)" fill="none" opacity="0.768">
      <path d="M5.5,0,11,9H0Z" stroke="none"/>
      <path d="M 5.5 1.917726516723633 L 1.783055305480957 8 L 9.216944694519043 8 L 5.5 1.917726516723633 M 5.5 0 L 11 9 L 0 9 L 5.5 0 Z" stroke="none" fill="#fff"/>
    </g>
    <g id="Polygon_13" data-name="Polygon 13" transform="translate(1033.941 5632.992) rotate(20)" fill="none" opacity="0.442">
      <path d="M7.5,0,15,12H0Z" stroke="none"/>
      <path d="M 7.500000476837158 1.886799812316895 L 1.804250717163086 11 L 13.19575023651123 11 L 7.500000476837158 1.886799812316895 M 7.500000476837158 0 L 15 12 L 9.5367431640625e-07 12 L 7.500000476837158 0 Z" stroke="none" fill="#fff"/>
    </g>
    <g id="Polygon_14" data-name="Polygon 14" transform="translate(1215 5867)" fill="none" opacity="0.631">
      <path d="M6,0l6,10H0Z" stroke="none"/>
      <path d="M 6 1.943650245666504 L 1.766189575195312 9 L 10.23381042480469 9 L 6 1.943650245666504 M 6 0 L 12 10 L 0 10 L 6 0 Z" stroke="none" fill="#fff"/>
    </g>
    <g id="Polygon_16" data-name="Polygon 16" transform="matrix(0.921, -0.391, 0.391, 0.921, 1066.629, 5826.348)" fill="none" opacity="0.509">
      <path d="M6,0l6,10H0Z" stroke="none"/>
      <path d="M 6 1.943650245666504 L 1.766189575195312 9 L 10.23381042480469 9 L 6 1.943650245666504 M 6 0 L 12 10 L 0 10 L 6 0 Z" stroke="none" fill="#fff"/>
    </g>
    <g id="Polygon_20" data-name="Polygon 20" transform="matrix(0.921, -0.391, 0.391, 0.921, 1317.629, 5920.348)" fill="none" opacity="0.509">
      <path d="M6,0l6,10H0Z" stroke="none"/>
      <path d="M 6 1.943650245666504 L 1.766189575195312 9 L 10.23381042480469 9 L 6 1.943650245666504 M 6 0 L 12 10 L 0 10 L 6 0 Z" stroke="none" fill="#fff"/>
    </g>
    <g id="Polygon_15" data-name="Polygon 15" transform="translate(1233.913 5683.529) rotate(-19)" fill="none" opacity="0.553">
      <path d="M7,0l7,12H0Z" stroke="none"/>
      <path d="M 7 1.984635353088379 L 1.741037368774414 11 L 12.25896263122559 11 L 7 1.984635353088379 M 7 0 L 14 12 L 0 12 L 7 0 Z" stroke="none" fill="#fff"/>
    </g>
    <g id="Polygon_11" data-name="Polygon 11" transform="translate(871 5670)" fill="none" opacity="0.613">
      <path d="M5.5,0,11,10H0Z" stroke="none"/>
      <path d="M 5.5 2.075047492980957 L 1.691275596618652 9 L 9.308724403381348 9 L 5.5 2.075047492980957 M 5.5 0 L 11 10 L 0 10 L 5.5 0 Z" stroke="none" fill="#fff"/>
    </g>
    <g id="Polygon_7" data-name="Polygon 7" transform="translate(584.282 5659.854) rotate(-45)" fill="none" opacity="0.598">
      <path d="M5,0l5,9H0Z" stroke="none"/>
      <path d="M 5 2.059127807617188 L 1.699515342712402 8 L 8.300484657287598 8 L 5 2.059127807617188 M 5 0 L 10 9 L 0 9 L 5 0 Z" stroke="none" fill="#fff"/>
    </g>
    <g id="Polygon_8" data-name="Polygon 8" transform="translate(313 5639)" fill="none" opacity="0.708">
      <path d="M5.5,0,11,9H0Z" stroke="none"/>
      <path d="M 5.5 1.917726516723633 L 1.783055305480957 8 L 9.216944694519043 8 L 5.5 1.917726516723633 M 5.5 0 L 11 9 L 0 9 L 5.5 0 Z" stroke="none" fill="#fff"/>
    </g>
    <g id="Ellipse_6" data-name="Ellipse 6" transform="translate(87 5796)" fill="none" stroke="#fff" stroke-width="1">
      <circle cx="4" cy="4" r="4" stroke="none"/>
      <circle cx="4" cy="4" r="3.5" fill="none"/>
    </g>
    <g id="Ellipse_13" data-name="Ellipse 13" transform="translate(44 5912)" fill="none" stroke="#fff" stroke-width="1" opacity="0.629">
      <circle cx="4" cy="4" r="4" stroke="none"/>
      <circle cx="4" cy="4" r="3.5" fill="none"/>
    </g>
    <g id="Ellipse_12" data-name="Ellipse 12" transform="translate(36 5631)" fill="none" stroke="#fff" stroke-width="1">
      <circle cx="4" cy="4" r="4" stroke="none"/>
      <circle cx="4" cy="4" r="3.5" fill="none"/>
    </g>
    <g id="Ellipse_8" data-name="Ellipse 8" transform="translate(227 5852)" fill="none" stroke="#fff" stroke-width="1" opacity="0.527">
      <circle cx="4" cy="4" r="4" stroke="none"/>
      <circle cx="4" cy="4" r="3.5" fill="none"/>
    </g>
    <g id="Ellipse_16" data-name="Ellipse 16" transform="translate(349 5749)" fill="none" stroke="#fff" stroke-width="1">
      <circle cx="4" cy="4" r="4" stroke="none"/>
      <circle cx="4" cy="4" r="3.5" fill="none"/>
    </g>
    <g id="Ellipse_18" data-name="Ellipse 18" transform="translate(510 5627)" fill="none" stroke="#fff" stroke-width="1" opacity="0.629">
      <circle cx="4" cy="4" r="4" stroke="none"/>
      <circle cx="4" cy="4" r="3.5" fill="none"/>
    </g>
    <g id="Ellipse_9" data-name="Ellipse 9" transform="translate(195 5916)" fill="none" stroke="#fff" stroke-width="1" opacity="0.527">
      <circle cx="4" cy="4" r="4" stroke="none"/>
      <circle cx="4" cy="4" r="3.5" fill="none"/>
    </g>
    <g id="Ellipse_17" data-name="Ellipse 17" transform="translate(388 5948)" fill="none" stroke="#fff" stroke-width="1">
      <circle cx="4" cy="4" r="4" stroke="none"/>
      <circle cx="4" cy="4" r="3.5" fill="none"/>
    </g>
    <g id="Ellipse_45" data-name="Ellipse 45" transform="translate(273 5936)" fill="none" stroke="#fff" stroke-width="1" opacity="0.553">
      <circle cx="4" cy="4" r="4" stroke="none"/>
      <circle cx="4" cy="4" r="3.5" fill="none"/>
    </g>
    <g id="Ellipse_36" data-name="Ellipse 36" transform="translate(1114 5873)" fill="none" stroke="#fff" stroke-width="1">
      <circle cx="4" cy="4" r="4" stroke="none"/>
      <circle cx="4" cy="4" r="3.5" fill="none"/>
    </g>
    <g id="Ellipse_48" data-name="Ellipse 48" transform="translate(1098 5666)" fill="none" stroke="#fff" stroke-width="1" opacity="0.7">
      <circle cx="4" cy="4" r="4" stroke="none"/>
      <circle cx="4" cy="4" r="3.5" fill="none"/>
    </g>
    <g id="Ellipse_41" data-name="Ellipse 41" transform="translate(1287 5956)" fill="none" stroke="#fff" stroke-width="1">
      <circle cx="4" cy="4" r="4" stroke="none"/>
      <circle cx="4" cy="4" r="3.5" fill="none"/>
    </g>
    <g id="Ellipse_37" data-name="Ellipse 37" transform="translate(1146 5746)" fill="none" stroke="#fff" stroke-width="1">
      <circle cx="4" cy="4" r="4" stroke="none"/>
      <circle cx="4" cy="4" r="3.5" fill="none"/>
    </g>
    <g id="Ellipse_39" data-name="Ellipse 39" transform="translate(1309 5751)" fill="none" stroke="#fff" stroke-width="1">
      <circle cx="4" cy="4" r="4" stroke="none"/>
      <circle cx="4" cy="4" r="3.5" fill="none"/>
    </g>
    <g id="Ellipse_38" data-name="Ellipse 38" transform="translate(869 5827)" fill="none" stroke="#fff" stroke-width="1" opacity="0.7">
      <circle cx="4" cy="4" r="4" stroke="none"/>
      <circle cx="4" cy="4" r="3.5" fill="none"/>
    </g>
    <g id="Ellipse_34" data-name="Ellipse 34" transform="translate(986 5786)" fill="none" stroke="#fff" stroke-width="1">
      <circle cx="4" cy="4" r="4" stroke="none"/>
      <circle cx="4" cy="4" r="3.5" fill="none"/>
    </g>
    <g id="Ellipse_40" data-name="Ellipse 40" transform="translate(1325 5625)" fill="none" stroke="#fff" stroke-width="1" opacity="0.527">
      <circle cx="4" cy="4" r="4" stroke="none"/>
      <circle cx="4" cy="4" r="3.5" fill="none"/>
    </g>
    <g id="Ellipse_33" data-name="Ellipse 33" transform="translate(1134 5611)" fill="none" stroke="#fff" stroke-width="1" opacity="0.7">
      <circle cx="4" cy="4" r="4" stroke="none"/>
      <circle cx="4" cy="4" r="3.5" fill="none"/>
    </g>
    <g id="Ellipse_32" data-name="Ellipse 32" transform="translate(933 5611)" fill="none" stroke="#fff" stroke-width="1">
      <circle cx="4" cy="4" r="4" stroke="none"/>
      <circle cx="4" cy="4" r="3.5" fill="none"/>
    </g>
    <g id="Ellipse_11" data-name="Ellipse 11" transform="translate(170 5648)" fill="none" stroke="#fff" stroke-width="1" opacity="0.553">
      <circle cx="4" cy="4" r="4" stroke="none"/>
      <circle cx="4" cy="4" r="3.5" fill="none"/>
    </g>
    <g id="Ellipse_7" data-name="Ellipse 7" transform="translate(229 5700)" fill="none" stroke="#fff" stroke-width="1" opacity="0.413">
      <circle cx="6" cy="6" r="6" stroke="none"/>
      <circle cx="6" cy="6" r="5.5" fill="none"/>
    </g>
    <g id="Ellipse_26" data-name="Ellipse 26" transform="translate(677 5615)" fill="none" stroke="#fff" stroke-width="1" opacity="0.553">
      <circle cx="6" cy="6" r="6" stroke="none"/>
      <circle cx="6" cy="6" r="5.5" fill="none"/>
    </g>
    <g id="Ellipse_14" data-name="Ellipse 14" transform="translate(400 5831)" fill="none" stroke="#fff" stroke-width="1">
      <circle cx="3.5" cy="3.5" r="3.5" stroke="none"/>
      <circle cx="3.5" cy="3.5" r="3" fill="none"/>
    </g>
    <g id="Ellipse_15" data-name="Ellipse 15" transform="translate(435 5903)" fill="none" stroke="#fff" stroke-width="1">
      <circle cx="3.5" cy="3.5" r="3.5" stroke="none"/>
      <circle cx="3.5" cy="3.5" r="3" fill="none"/>
    </g>
    <g id="Ellipse_47" data-name="Ellipse 47" transform="translate(510 5948)" fill="none" stroke="#fff" stroke-width="1">
      <circle cx="3.5" cy="3.5" r="3.5" stroke="none"/>
      <circle cx="3.5" cy="3.5" r="3" fill="none"/>
    </g>
    <g id="Ellipse_35" data-name="Ellipse 35" transform="translate(584 5828)" fill="none" stroke="#fff" stroke-width="1">
      <circle cx="3.5" cy="3.5" r="3.5" stroke="none"/>
      <circle cx="3.5" cy="3.5" r="3" fill="none"/>
    </g>
    <g id="Ellipse_46" data-name="Ellipse 46" transform="translate(424 5743)" fill="none" stroke="#fff" stroke-width="1">
      <circle cx="3.5" cy="3.5" r="3.5" stroke="none"/>
      <circle cx="3.5" cy="3.5" r="3" fill="none"/>
    </g>
    <g id="Ellipse_31" data-name="Ellipse 31" transform="translate(792 5653)" fill="none" stroke="#fff" stroke-width="1">
      <circle cx="3.5" cy="3.5" r="3.5" stroke="none"/>
      <circle cx="3.5" cy="3.5" r="3" fill="none"/>
    </g>
    <g id="Ellipse_24" data-name="Ellipse 24" transform="translate(838 5912)" fill="none" stroke="#fff" stroke-width="1">
      <circle cx="3.5" cy="3.5" r="3.5" stroke="none"/>
      <circle cx="3.5" cy="3.5" r="3" fill="none"/>
    </g>
    <g id="Ellipse_23" data-name="Ellipse 23" transform="translate(1154 5670)" fill="none" stroke="#fff" stroke-width="1" opacity="0.7">
      <circle cx="3.5" cy="3.5" r="3.5" stroke="none"/>
      <circle cx="3.5" cy="3.5" r="3" fill="none"/>
    </g>
    <g id="Ellipse_22" data-name="Ellipse 22" transform="translate(676 5706)" fill="none" stroke="#fff" stroke-width="1">
      <circle cx="3.5" cy="3.5" r="3.5" stroke="none"/>
      <circle cx="3.5" cy="3.5" r="3" fill="none"/>
    </g>
    <g id="Ellipse_21" data-name="Ellipse 21" transform="translate(638 5768)" fill="none" stroke="#fff" stroke-width="1" opacity="0.7">
      <circle cx="3.5" cy="3.5" r="3.5" stroke="none"/>
      <circle cx="3.5" cy="3.5" r="3" fill="none"/>
    </g>
    <g id="Ellipse_29" data-name="Ellipse 29" transform="translate(1118 5939)" fill="none" stroke="#fff" stroke-width="1">
      <circle cx="3.5" cy="3.5" r="3.5" stroke="none"/>
      <circle cx="3.5" cy="3.5" r="3" fill="none"/>
    </g>
    <g id="Ellipse_20" data-name="Ellipse 20" transform="translate(657 5810)" fill="none" stroke="#fff" stroke-width="1">
      <circle cx="3.5" cy="3.5" r="3.5" stroke="none"/>
      <circle cx="3.5" cy="3.5" r="3" fill="none"/>
    </g>
    <g id="Ellipse_44" data-name="Ellipse 44" transform="translate(963 5699)" fill="none" stroke="#fff" stroke-width="1">
      <circle cx="3.5" cy="3.5" r="3.5" stroke="none"/>
      <circle cx="3.5" cy="3.5" r="3" fill="none"/>
    </g>
    <g id="Ellipse_43" data-name="Ellipse 43" transform="translate(669 5924)" fill="none" stroke="#fff" stroke-width="1" opacity="0.553">
      <circle cx="3.5" cy="3.5" r="3.5" stroke="none"/>
      <circle cx="3.5" cy="3.5" r="3" fill="none"/>
    </g>
    <g id="Ellipse_30" data-name="Ellipse 30" transform="translate(1067 5746)" fill="none" stroke="#fff" stroke-width="1" opacity="0.527">
      <circle cx="3.5" cy="3.5" r="3.5" stroke="none"/>
      <circle cx="3.5" cy="3.5" r="3" fill="none"/>
    </g>
    <g id="Ellipse_19" data-name="Ellipse 19" transform="translate(511 5736)" fill="none" stroke="#fff" stroke-width="1">
      <circle cx="3.5" cy="3.5" r="3.5" stroke="none"/>
      <circle cx="3.5" cy="3.5" r="3" fill="none"/>
    </g>
    <g id="Ellipse_10" data-name="Ellipse 10" transform="translate(412 5653)" fill="none" stroke="#fff" stroke-width="1" opacity="0.413">
      <circle cx="6" cy="6" r="6" stroke="none"/>
      <circle cx="6" cy="6" r="5.5" fill="none"/>
    </g>
    <g id="Ellipse_28" data-name="Ellipse 28" transform="translate(1203 5757)" fill="none" stroke="#fff" stroke-width="1" opacity="0.413">
      <circle cx="6" cy="6" r="6" stroke="none"/>
      <circle cx="6" cy="6" r="5.5" fill="none"/>
    </g>
    <g id="Ellipse_27" data-name="Ellipse 27" transform="translate(990 5839)" fill="none" stroke="#fff" stroke-width="1" opacity="0.526">
      <circle cx="6" cy="6" r="6" stroke="none"/>
      <circle cx="6" cy="6" r="5.5" fill="none"/>
    </g>
    <g id="Ellipse_42" data-name="Ellipse 42" transform="translate(1275 5594)" fill="none" stroke="#fff" stroke-width="1" opacity="0.413">
      <circle cx="6" cy="6" r="6" stroke="none"/>
      <circle cx="6" cy="6" r="5.5" fill="none"/>
    </g>
    <g id="Ellipse_25" data-name="Ellipse 25" transform="translate(783 5724)" fill="none" stroke="#fff" stroke-width="1" opacity="0.413">
      <circle cx="6" cy="6" r="6" stroke="none"/>
      <circle cx="6" cy="6" r="5.5" fill="none"/>
    </g>
    <g id="Rectangle_24" data-name="Rectangle 24" transform="translate(44 5734.343) rotate(45)" fill="none" stroke="#fff" stroke-width="1" opacity="0.553">
      <rect width="8" height="8" stroke="none"/>
      <rect x="0.5" y="0.5" width="7" height="7" fill="none"/>
    </g>
    <g id="Rectangle_28" data-name="Rectangle 28" transform="translate(330 5834.343) rotate(45)" fill="none" stroke="#fff" stroke-width="1" opacity="0.527">
      <rect width="8" height="8" stroke="none"/>
      <rect x="0.5" y="0.5" width="7" height="7" fill="none"/>
    </g>
    <g id="Rectangle_46" data-name="Rectangle 46" transform="translate(248 5617.343) rotate(45)" fill="none" stroke="#fff" stroke-width="1" opacity="0.464">
      <rect width="8" height="8" stroke="none"/>
      <rect x="0.5" y="0.5" width="7" height="7" fill="none"/>
    </g>
    <g id="Rectangle_27" data-name="Rectangle 27" transform="translate(382 5619.343) rotate(45)" fill="none" stroke="#fff" stroke-width="1" opacity="0.464">
      <rect width="8" height="8" stroke="none"/>
      <rect x="0.5" y="0.5" width="7" height="7" fill="none"/>
    </g>
    <g id="Rectangle_31" data-name="Rectangle 31" transform="translate(592 5728)" fill="none" stroke="#fff" stroke-width="1" opacity="0.22">
      <rect width="12" height="12" stroke="none"/>
      <rect x="0.5" y="0.5" width="11" height="11" fill="none"/>
    </g>
    <g id="Rectangle_26" data-name="Rectangle 26" transform="translate(72 5869)" fill="none" stroke="#fff" stroke-width="1" opacity="0.464">
      <rect width="8" height="8" stroke="none"/>
      <rect x="0.5" y="0.5" width="7" height="7" fill="none"/>
    </g>
    <g id="Rectangle_39" data-name="Rectangle 39" transform="translate(871 5743)" fill="none" stroke="#fff" stroke-width="1" opacity="0.7">
      <rect width="8" height="8" stroke="none"/>
      <rect x="0.5" y="0.5" width="7" height="7" fill="none"/>
    </g>
    <g id="Rectangle_37" data-name="Rectangle 37" transform="translate(925 5781)" fill="none" stroke="#fff" stroke-width="1" opacity="0.464">
      <rect width="8" height="8" stroke="none"/>
      <rect x="0.5" y="0.5" width="7" height="7" fill="none"/>
    </g>
    <g id="Rectangle_42" data-name="Rectangle 42" transform="translate(1222 5942)" fill="none" stroke="#fff" stroke-width="1" opacity="0.464">
      <rect width="8" height="8" stroke="none"/>
      <rect x="0.5" y="0.5" width="7" height="7" fill="none"/>
    </g>
    <g id="Rectangle_44" data-name="Rectangle 44" transform="translate(1267 5728)" fill="none" stroke="#fff" stroke-width="1" opacity="0.553">
      <rect width="8" height="8" stroke="none"/>
      <rect x="0.5" y="0.5" width="7" height="7" fill="none"/>
    </g>
    <g id="Rectangle_35" data-name="Rectangle 35" transform="translate(741 5696)" fill="none" stroke="#fff" stroke-width="1" opacity="0.7">
      <rect width="8" height="8" stroke="none"/>
      <rect x="0.5" y="0.5" width="7" height="7" fill="none"/>
    </g>
    <g id="Rectangle_33" data-name="Rectangle 33" transform="translate(737 5611)" fill="none" stroke="#fff" stroke-width="1" opacity="0.464">
      <rect width="8" height="8" stroke="none"/>
      <rect x="0.5" y="0.5" width="7" height="7" fill="none"/>
    </g>
    <g id="Rectangle_32" data-name="Rectangle 32" transform="translate(723 5892)" fill="none" stroke="#fff" stroke-width="1" opacity="0.464">
      <rect width="8" height="8" stroke="none"/>
      <rect x="0.5" y="0.5" width="7" height="7" fill="none"/>
    </g>
    <g id="Group_28" data-name="Group 28">
      <g id="Rectangle_25" data-name="Rectangle 25" transform="translate(180 5786)" fill="none" stroke="#fff" stroke-width="1" opacity="0.503">
        <rect width="12" height="12" stroke="none"/>
        <rect x="0.5" y="0.5" width="11" height="11" fill="none"/>
      </g>
      <g id="Rectangle_38" data-name="Rectangle 38" transform="translate(833 5617)" fill="none" stroke="#fff" stroke-width="1" opacity="0.503">
        <rect width="12" height="12" stroke="none"/>
        <rect x="0.5" y="0.5" width="11" height="11" fill="none"/>
      </g>
      <g id="Rectangle_36" data-name="Rectangle 36" transform="translate(1009 5936)" fill="none" stroke="#fff" stroke-width="1" opacity="0.503">
        <rect width="12" height="12" stroke="none"/>
        <rect x="0.5" y="0.5" width="11" height="11" fill="none"/>
      </g>
      <g id="Rectangle_34" data-name="Rectangle 34" transform="translate(795 5856)" fill="none" stroke="#fff" stroke-width="1" opacity="0.503">
        <rect width="12" height="12" stroke="none"/>
        <rect x="0.5" y="0.5" width="11" height="11" fill="none"/>
      </g>
      <g id="Rectangle_40" data-name="Rectangle 40" transform="translate(1221 5617)" fill="none" stroke="#fff" stroke-width="1" opacity="0.503">
        <rect width="8" height="8" stroke="none"/>
        <rect x="0.5" y="0.5" width="7" height="7" fill="none"/>
      </g>
      <g id="Rectangle_43" data-name="Rectangle 43" transform="translate(1317 5847)" fill="none" stroke="#fff" stroke-width="1" opacity="0.503">
        <rect width="8" height="8" stroke="none"/>
        <rect x="0.5" y="0.5" width="7" height="7" fill="none"/>
      </g>
      <g id="Rectangle_41" data-name="Rectangle 41" transform="translate(1153 5813)" fill="none" stroke="#fff" stroke-width="1" opacity="0.503">
        <rect width="8" height="8" stroke="none"/>
        <rect x="0.5" y="0.5" width="7" height="7" fill="none"/>
      </g>
      <g id="Rectangle_45" data-name="Rectangle 45" transform="translate(1044 5710)" fill="none" stroke="#fff" stroke-width="1" opacity="0.503">
        <rect width="8" height="8" stroke="none"/>
        <rect x="0.5" y="0.5" width="7" height="7" fill="none"/>
      </g>
      <g id="Rectangle_30" data-name="Rectangle 30" transform="translate(467 5692)" fill="none" stroke="#fff" stroke-width="1" opacity="0.503">
        <rect width="8" height="8" stroke="none"/>
        <rect x="0.5" y="0.5" width="7" height="7" fill="none"/>
      </g>
    </g>
    <g id="Rectangle_29" data-name="Rectangle 29" transform="translate(511 5860)" fill="none" stroke="#fff" stroke-width="1">
      <rect width="8" height="8" stroke="none"/>
      <rect x="0.5" y="0.5" width="7" height="7" fill="none"/>
    </g>
  </g>
</svg>
