<svg width="813" height="823" viewBox="0 0 813 823" fill="none" xmlns="http://www.w3.org/2000/svg">
<ellipse cx="406.5" cy="411.05" rx="406.5" ry="411.05" fill="#07A977"/>
<rect x="168" y="232" width="475" height="360" fill="white"/>
<path d="M618 203H196C171.187 203 151 223.187 151 248V578C151 602.813 171.187 623 196 623H352.729L337.729 653H317C308.716 653 302 659.716 302 668C302 676.284 308.716 683 317 683C343.839 683 477.055 683 497 683C505.284 683 512 676.284 512 668C512 659.716 505.284 653 497 653H476.27L461.27 623H618C642.813 623 663 602.813 663 578V248C663 223.187 642.813 203 618 203ZM371.271 653L386.271 623H427.73L442.73 653H371.271ZM633 578C633 586.271 626.271 593 618 593H196C187.729 593 181 586.271 181 578V563H633V578ZM633 533H181V248C181 239.729 187.729 233 196 233H618C626.271 233 633 239.729 633 248V533Z" fill="black"/>
<path d="M368.5 283.5H297V454H405.5H527V283.5H448.5L405.5 311L368.5 283.5Z" fill="#BFF5BF" stroke="black"/>
<path d="M527 263H467C442.493 263 420.695 274.814 407 293.047C393.305 274.814 371.507 263 347 263H287C278.716 263 272 269.716 272 278V458C272 466.284 278.716 473 287 473H377C385.271 473 392 479.729 392 488C392 496.284 398.716 503 407 503C415.284 503 422 496.284 422 488C422 479.729 428.729 473 437 473H527C535.284 473 542 466.284 542 458V278C542 269.716 535.284 263 527 263ZM392 445.57C387.307 443.906 382.257 443 377 443H302V293H347C371.813 293 392 313.187 392 338V445.57ZM512 443H437C431.743 443 426.693 443.906 422 445.57V391.785V338C422 313.187 442.187 293 467 293H512V443Z" fill="black"/>
</svg>
