<svg width="611" height="618" viewBox="0 0 611 618" fill="none" xmlns="http://www.w3.org/2000/svg">
<ellipse cx="305.5" cy="308.92" rx="305.5" ry="308.92" fill="#07A977"/>
<path d="M306.163 199.369C284.522 199.369 266.979 216.912 266.979 238.553C266.979 260.194 284.522 277.737 306.163 277.737C327.804 277.737 345.347 260.194 345.347 238.553C345.065 217.03 327.686 199.651 306.163 199.369ZM306.163 121.002C315.253 120.916 324.225 123.069 332.285 127.271C340.691 130.997 348.049 136.74 353.705 143.989L419.534 227.581C423.936 233.062 426.332 239.882 426.326 246.912V497.165C426.326 514.477 412.291 528.512 394.979 528.512H217.347C200.035 528.512 186 514.477 186 497.165V246.912C185.994 239.883 188.39 233.062 192.792 227.581L258.621 143.989C270.121 129.462 287.635 120.994 306.163 121.002Z" fill="#BFF5BF"/>
<path d="M309.7 369H299.4C298.7 366.1 297.5 363.4 295.9 361H309.7C315.2 361 319.7 356.5 319.7 351C319.7 345.5 315.2 341 309.7 341H243C237.5 341 233 345.5 233 351C233 356.5 237.5 361 243 361H262C268.2 360.8 274.1 363.9 277.7 369H243C237.5 369 233 373.5 233 379C233 384.5 237.5 389 243 389H277.8C277.1 390.2 276.2 391.3 275.3 392.3C275.3 392.3 275.3 392.5 275.2 392.5C271.7 396 267 398 262.1 398H243.1C237.6 397.9 233.1 402.3 233.1 407.8C233.1 410.6 234.2 413.2 236.2 415.1L283.9 460.1C287.9 463.9 294.3 463.7 298 459.7C301.8 455.7 301.6 449.3 297.6 445.6L267.8 417.4C276 416.2 283.6 412.3 289.4 406.4C294.3 401.7 297.8 395.6 299.4 389H309.7C315.2 389 319.7 384.5 319.7 379C319.7 373.5 315.2 369 309.7 369Z" fill="black"/>
<path d="M427 212.1L361.2 128.9C350 114.8 333.8 105.5 316 102.9V60C316 54.5 311.5 50 306 50C300.5 50 296 54.5 296 60V102.9C278.2 105.4 262 114.7 250.9 128.9L184.9 212.2C179.2 219.5 176 228.5 176 237.8V487.7C176.1 510.3 194.5 528.6 217.1 528.5C217.2 528.5 217.2 528.5 217.3 528.5H394.6C417.2 528.7 435.7 510.5 435.9 487.9C435.9 487.8 435.9 487.8 435.9 487.7V237.8C435.9 228.5 432.7 219.5 427 212.1ZM306 200.4C322.1 200.4 335.1 213.4 335.1 229.5C335.1 245.6 322.1 258.6 306 258.6C289.9 258.6 276.9 245.6 276.9 229.5C276.9 213.5 289.9 200.4 306 200.4ZM416 487.7C416 499.4 406.4 508.5 394.7 508.5H217.3C205.6 508.5 196 499.4 196 487.7V237.8C196 233 197.6 228.3 200.6 224.6L266.5 141.3C273.9 132 284.3 125.5 296 123.2V181.4C269.4 186.9 252.4 212.9 257.9 239.5C263.4 266.1 289.4 283.1 316 277.6C342.6 272.1 359.6 246.1 354.1 219.5C350.1 200.4 335.2 185.4 316 181.4V123.2C320.1 124 324.1 125.4 327.9 127.2C334.7 130.5 340.7 135.3 345.4 141.3L411.4 224.5C414.4 228.3 416 233 416 237.8V487.7Z" fill="black"/>
<path d="M358.499 408.689C353.72 408.685 349.848 404.786 349.852 399.979C349.856 395.171 353.734 391.278 358.513 391.282C363.293 391.286 367.164 395.185 367.16 399.993C367.16 400.107 367.158 400.22 367.154 400.334C367.154 404.179 370.253 407.297 374.077 407.297C377.9 407.297 381 404.179 381 400.334C381.023 390.499 374.727 381.774 365.423 378.748V375.963C365.423 372.117 362.324 369 358.5 369C354.676 369 351.577 372.117 351.577 375.963V378.748C339.907 383.043 333.908 396.039 338.179 407.776C341.322 416.417 349.357 422.284 358.5 422.615C363.28 422.615 367.154 426.512 367.154 431.318C367.154 436.125 363.279 440.022 358.5 440.022C353.72 440.022 349.846 436.125 349.846 431.318C349.846 427.473 346.747 424.355 342.923 424.355C339.1 424.355 336 427.473 336 431.318C335.977 441.153 342.273 449.878 351.577 452.904V456.037C351.577 459.883 354.676 463 358.5 463C362.324 463 365.423 459.883 365.423 456.037V452.904C374.727 449.878 381.023 441.153 381 431.318C380.814 418.899 370.848 408.876 358.499 408.689Z" fill="black"/>
<circle cx="306.5" cy="229.5" r="32.5" fill="white"/>
</svg>
