<svg width="234" height="215" viewBox="0 0 234 215" fill="none" xmlns="http://www.w3.org/2000/svg">
<path d="M87.8983 71.5367C87.5745 71.5378 87.2522 71.5797 86.9389 71.6617C86.9703 71.3709 86.9859 71.0787 86.9857 70.7862C86.9857 68.7601 86.2438 66.8045 84.9007 65.2903C83.5576 63.7762 81.7068 62.8087 79.6994 62.5715C77.6919 62.3344 75.6674 62.8439 74.0099 64.0036C72.3524 65.1633 71.1771 66.8924 70.7071 68.8629C70.1015 68.6223 69.4554 68.5002 68.8039 68.5033C67.4972 68.5141 66.2412 69.0117 65.2802 69.8991C64.3191 70.7866 63.7216 72.0006 63.6039 73.3051C63.4862 74.6096 63.8567 75.9113 64.6434 76.9572C65.43 78.0031 66.5766 78.7183 67.8601 78.9639V79.0578H87.4693C87.6122 79.0659 87.7554 79.0659 87.8983 79.0578C88.8934 79.0578 89.8476 78.6616 90.5512 77.9564C91.2548 77.2512 91.6501 76.2946 91.6501 75.2973C91.6501 74.2999 91.2548 73.3434 90.5512 72.6382C89.8476 71.9329 88.8934 71.5367 87.8983 71.5367Z" fill="#E3E1F9" stroke="#231F20" stroke-width="3" stroke-linecap="round" stroke-linejoin="round"/>
<path d="M178.339 42.1404C178.015 42.1412 177.692 42.1859 177.38 42.2733C177.589 40.1908 177.003 38.1062 175.74 36.4396C174.477 34.773 172.63 33.6484 170.572 33.2924C168.515 32.9364 166.399 33.3756 164.651 34.5213C162.904 35.6671 161.655 37.4342 161.156 39.4665C160.549 39.2311 159.903 39.1092 159.252 39.1069C157.948 39.1251 156.697 39.6278 155.742 40.5178C154.786 41.4077 154.194 42.6215 154.081 43.924C153.967 45.2264 154.34 46.5247 155.127 47.5674C155.914 48.6101 157.059 49.3229 158.34 49.5676V49.6614H177.949C178.092 49.6692 178.235 49.6692 178.378 49.6614C179.373 49.6614 180.327 49.2653 181.031 48.56C181.735 47.8548 182.13 46.8983 182.13 45.9009C182.13 44.9035 181.735 43.947 181.031 43.2418C180.327 42.5366 179.373 42.1404 178.378 42.1404H178.339Z" fill="#E3E1F9" stroke="#231F20" stroke-width="3" stroke-linecap="round" stroke-linejoin="round"/>
<path d="M179.322 92.8803C179.512 92.8821 179.701 92.9084 179.884 92.9585C179.884 92.7865 179.884 92.6145 179.884 92.4425C179.877 91.2578 180.306 90.1122 181.089 89.2247C181.872 88.3371 182.953 87.77 184.127 87.6316C185.301 87.4932 186.485 87.7934 187.452 88.4747C188.419 89.1559 189.101 90.1705 189.369 91.3245C189.767 91.17 190.192 91.1005 190.619 91.1205C191.045 91.1405 191.462 91.2494 191.844 91.4404C192.226 91.6314 192.564 91.9002 192.836 92.2296C193.108 92.559 193.309 92.9418 193.425 93.3534C193.541 93.765 193.57 94.1964 193.511 94.6199C193.451 95.0434 193.304 95.4498 193.078 95.813C192.853 96.1762 192.554 96.4882 192.201 96.729C191.849 96.9698 191.45 97.1342 191.03 97.2116V97.2585H179.572C179.489 97.2665 179.405 97.2665 179.322 97.2585C178.743 97.2585 178.187 97.0278 177.778 96.6173C177.368 96.2068 177.138 95.65 177.138 95.0694C177.138 94.4888 177.368 93.932 177.778 93.5215C178.187 93.1109 178.743 92.8803 179.322 92.8803Z" fill="white" stroke="#231F20" stroke-width="3" stroke-linecap="round" stroke-linejoin="round"/>
<path d="M39.7802 36.2609C39.9696 36.2602 40.1584 36.2839 40.3418 36.3313C40.3418 36.1671 40.3418 35.9951 40.3418 35.8231C40.3432 34.6443 40.7758 33.5069 41.5579 32.6264C42.3399 31.7459 43.4169 31.1835 44.585 31.0457C45.753 30.9079 46.9309 31.2043 47.8955 31.8788C48.8601 32.5532 49.5444 33.5588 49.8188 34.7051C50.1708 34.5632 50.547 34.4915 50.9264 34.494C51.6874 34.4994 52.4193 34.7884 52.9795 35.3048C53.5397 35.8211 53.8883 36.5279 53.9574 37.2876C54.0264 38.0473 53.8111 38.8056 53.3532 39.4149C52.8954 40.0243 52.2277 40.4411 51.4802 40.5844V40.6547H40.0454H39.7802C39.201 40.6547 38.6454 40.4241 38.2359 40.0136C37.8263 39.603 37.5962 39.0462 37.5962 38.4656C37.5962 37.8851 37.8263 37.3283 38.2359 36.9177C38.6454 36.5072 39.201 36.2766 39.7802 36.2766V36.2609Z" fill="white" stroke="#231F20" stroke-width="3" stroke-linecap="round" stroke-linejoin="round"/>
<path d="M104.52 156.544L112.952 174.909C113.518 176.12 114.416 177.144 115.542 177.862C116.668 178.579 117.975 178.96 119.309 178.96C120.643 178.96 121.95 178.579 123.075 177.862C124.201 177.144 125.1 176.12 125.666 174.909L134.246 156.513L120.346 139.164L104.52 156.544Z" fill="#0076B1" stroke="#231F20" stroke-width="3" stroke-linecap="round" stroke-linejoin="round"/>
<path d="M149.214 144.229C153.838 148.097 157.524 152.968 159.993 158.474C160.234 158.993 160.636 159.419 161.139 159.688C161.642 159.957 162.22 160.055 162.783 159.967C163.347 159.879 163.867 159.609 164.264 159.199C164.661 158.788 164.914 158.26 164.985 157.692C166.701 143.205 163.02 132.909 156 118.961C156.281 119.125 149.214 144.229 149.214 144.229Z" fill="#E3E1F9" stroke="#231F20" stroke-width="3" stroke-linecap="round" stroke-linejoin="round"/>
<path d="M88.9902 144.229C84.3658 148.097 80.6796 152.968 78.2106 158.474C77.9702 158.993 77.5681 159.419 77.0648 159.688C76.5616 159.957 75.9846 160.055 75.4209 159.967C74.8573 159.879 74.3376 159.609 73.9403 159.199C73.543 158.788 73.2897 158.26 73.2186 157.692C71.5026 143.221 75.153 132.932 82.2432 118.977C81.9 119.125 88.9902 144.229 88.9902 144.229Z" fill="#E3E1F9" stroke="#231F20" stroke-width="3" stroke-linecap="round" stroke-linejoin="round"/>
<path d="M127.093 155.535L134.199 156.543C135.196 156.706 136.218 156.571 137.138 156.154C138.058 155.736 138.835 155.056 139.37 154.198C141.71 150.109 145.525 141.689 145.525 129.617C145.525 102.34 127.795 84.2718 121.516 78.76C120.91 78.2453 120.142 77.9629 119.348 77.9629C118.554 77.9629 117.785 78.2453 117.179 78.76C110.939 84.2952 93.1709 102.34 93.1709 129.617C93.1709 141.657 96.9695 150.109 99.3251 154.198C99.8606 155.056 100.637 155.736 101.557 156.154C102.477 156.571 103.5 156.706 104.497 156.543L111.602 155.535C116.741 154.815 121.954 154.815 127.093 155.535Z" fill="white" stroke="#231F20" stroke-width="3" stroke-linecap="round" stroke-linejoin="round"/>
<path d="M111.142 154.205C108.802 150.117 104.988 141.696 104.988 129.625C104.988 106.679 117.538 90.2683 125.268 82.3407C123.817 80.8396 122.53 79.6434 121.532 78.7678C120.926 78.2532 120.157 77.9707 119.363 77.9707C118.569 77.9707 117.801 78.2532 117.195 78.7678C110.955 84.3031 93.1865 102.347 93.1865 129.625C93.1865 141.665 96.9851 150.117 99.3407 154.205C99.8762 155.064 100.653 155.744 101.573 156.161C102.493 156.579 103.515 156.714 104.512 156.551L111.618 155.542L112.25 155.464C111.802 155.121 111.426 154.694 111.142 154.205Z" fill="#0076B1" stroke="#231F20" stroke-width="3" stroke-linecap="round" stroke-linejoin="round"/>
<path d="M130.346 147.474L140.4 149.077C141.859 149.308 143.354 149.073 144.672 148.403C145.99 147.733 147.063 146.664 147.74 145.347C151.086 138.811 156.468 125.309 156.468 106.069C156.468 62.4981 131.305 33.6646 122.405 24.8223C121.586 24.0078 120.478 23.5508 119.324 23.5508C118.17 23.5508 117.063 24.0078 116.243 24.8223C107.343 33.6646 82.1807 62.4981 82.1807 106.069C82.1807 125.309 87.5627 138.811 90.9089 145.347C91.5851 146.664 92.6586 147.733 93.9764 148.403C95.2943 149.073 96.7893 149.308 98.2487 149.077L108.326 147.474C115.62 146.307 123.052 146.307 130.346 147.474Z" fill="white" stroke="#231F20" stroke-width="3" stroke-linecap="round" stroke-linejoin="round"/>
<path d="M101.002 145.347C97.6559 138.811 92.2739 125.309 92.2739 106.069C92.2739 65.3596 114.231 37.5268 124.379 26.8316C123.669 26.0497 123.006 25.4008 122.429 24.8223C121.609 24.0078 120.502 23.5508 119.348 23.5508C118.194 23.5508 117.086 24.0078 116.267 24.8223C107.367 33.6646 82.2041 62.4981 82.2041 106.069C82.2041 125.309 87.5861 138.811 90.9323 145.347C91.6085 146.664 92.682 147.733 93.9999 148.403C95.3177 149.073 96.8128 149.308 98.2721 149.077L103.732 148.209C102.568 147.537 101.62 146.543 101.002 145.347Z" fill="#0076B1" stroke="#231F20" stroke-width="3" stroke-linecap="round" stroke-linejoin="round"/>
<path d="M119.683 113.981H119.676C118.258 113.981 117.109 115.133 117.109 116.554V157.435C117.109 158.855 118.258 160.007 119.676 160.007H119.683C121.101 160.007 122.25 158.855 122.25 157.435V116.554C122.25 115.133 121.101 113.981 119.683 113.981Z" fill="#E3E1F9" stroke="#231F20" stroke-width="3" stroke-linecap="round" stroke-linejoin="round"/>
<path d="M119.348 95.3346C128.446 95.3346 135.821 87.9419 135.821 78.8226C135.821 69.7032 128.446 62.3105 119.348 62.3105C110.25 62.3105 102.874 69.7032 102.874 78.8226C102.874 87.9419 110.25 95.3346 119.348 95.3346Z" fill="#0076B1" stroke="#231F20" stroke-width="3" stroke-linecap="round" stroke-linejoin="round"/>
<path d="M102.874 78.8226C102.871 74.687 104.426 70.7027 107.226 67.666C106.337 71.2236 106.657 74.9766 108.135 78.3316C109.613 81.6866 112.164 84.452 115.386 86.1904C118.608 87.9288 122.316 88.541 125.924 87.9302C129.531 87.3193 132.833 85.5203 135.306 82.8176C134.332 86.7249 131.966 90.1402 128.654 92.4203C125.342 94.7004 121.312 95.6879 117.324 95.1967C113.336 94.7056 109.665 92.7697 107.002 89.7538C104.339 86.7378 102.868 82.85 102.866 78.8226H102.874Z" fill="#E3E1F9" stroke="#231F20" stroke-width="3" stroke-linecap="round" stroke-linejoin="round"/>
<path d="M42.6192 101.519C44.6352 101.519 46.2696 99.8808 46.2696 97.8601C46.2696 95.8393 44.6352 94.2012 42.6192 94.2012C40.6031 94.2012 38.9688 95.8393 38.9688 97.8601C38.9688 99.8808 40.6031 101.519 42.6192 101.519Z" fill="#E3E1F9" stroke="#231F20" stroke-width="3" stroke-linecap="round" stroke-linejoin="round"/>
<path d="M84.4038 27.9106C86.4199 27.9106 88.0542 26.2724 88.0542 24.2517C88.0542 22.2309 86.4199 20.5928 84.4038 20.5928C82.3878 20.5928 80.7534 22.2309 80.7534 24.2517C80.7534 26.2724 82.3878 27.9106 84.4038 27.9106Z" fill="white" stroke="#231F20" stroke-width="3" stroke-linecap="round" stroke-linejoin="round"/>
<path d="M192.652 127.147C194.668 127.147 196.303 125.509 196.303 123.488C196.303 121.467 194.668 119.829 192.652 119.829C190.636 119.829 189.002 121.467 189.002 123.488C189.002 125.509 190.636 127.147 192.652 127.147Z" fill="white" stroke="#231F20" stroke-width="3" stroke-linecap="round" stroke-linejoin="round"/>
<path d="M158.34 192.523C158.363 190.924 158.009 189.343 157.308 187.907C156.607 186.472 155.577 185.222 154.304 184.26C153.03 183.298 151.548 182.651 149.978 182.371C148.408 182.091 146.794 182.186 145.267 182.648C144.836 180.729 143.984 178.929 142.774 177.38C141.564 175.831 140.026 174.57 138.27 173.689C136.515 172.808 134.587 172.328 132.624 172.285C130.662 172.242 128.714 172.635 126.922 173.438C126.485 170.861 125.078 168.55 122.992 166.982C120.905 165.413 118.298 164.707 115.708 165.007C113.117 165.308 110.74 166.593 109.066 168.598C107.393 170.603 106.55 173.175 106.712 175.784C103.912 176.815 101.54 178.762 99.9806 181.311C99.7856 181.64 99.614 181.968 99.4424 182.304C97.9862 182.077 96.4981 182.17 95.0816 182.578C93.6651 182.986 92.3544 183.699 91.2407 184.666C90.127 185.634 89.2371 186.833 88.6329 188.18C88.0287 189.528 87.7249 190.991 87.7424 192.468L158.34 192.523Z" fill="white" stroke="#231F20" stroke-width="3" stroke-linecap="round" stroke-linejoin="round"/>
<path d="M168.636 192.522H73.0078" stroke="#231F20" stroke-width="3" stroke-linecap="round" stroke-linejoin="round"/>
<path d="M152.209 174.127C154.01 174.127 155.47 172.664 155.47 170.859C155.47 169.054 154.01 167.591 152.209 167.591C150.408 167.591 148.949 169.054 148.949 170.859C148.949 172.664 150.408 174.127 152.209 174.127Z" fill="white" stroke="#231F20" stroke-width="3" stroke-linecap="round" stroke-linejoin="round"/>
<path d="M93.7326 169.834C95.5332 169.834 96.993 168.371 96.993 166.566C96.993 164.761 95.5332 163.298 93.7326 163.298C91.9319 163.298 90.4722 164.761 90.4722 166.566C90.4722 168.371 91.9319 169.834 93.7326 169.834Z" fill="white" stroke="#231F20" stroke-width="3" stroke-linecap="round" stroke-linejoin="round"/>
<path d="M82.8671 182.906C84.405 182.906 85.6517 181.657 85.6517 180.115C85.6517 178.574 84.405 177.324 82.8671 177.324C81.3292 177.324 80.0825 178.574 80.0825 180.115C80.0825 181.657 81.3292 182.906 82.8671 182.906Z" fill="white" stroke="#231F20" stroke-width="3" stroke-linecap="round" stroke-linejoin="round"/>
</svg>
