<svg width="1065" height="1433" viewBox="0 0 1065 1433" fill="none" xmlns="http://www.w3.org/2000/svg">
<path d="M532.5 0C341.333 0 185.806 155.527 185.806 346.694V531.597H208.919C208.919 480.54 250.315 439.145 301.371 439.145H405.98C486.713 413.883 561.715 372.072 625.553 315.352L694.29 254.242C734.669 308.072 758.221 372.349 762.705 439.145H763.629C814.685 439.145 856.081 480.54 856.081 531.597H879.194V346.694C879.194 155.527 723.667 0 532.5 0Z" fill="#07A977"/>
<path d="M809.855 832.064H255.145V1201.87H809.855V832.064Z" fill="#43D394"/>
<path d="M648.065 485.371C660.829 485.371 671.177 475.023 671.177 462.258C671.177 449.494 660.829 439.146 648.065 439.146C635.3 439.146 624.952 449.494 624.952 462.258C624.952 475.023 635.3 485.371 648.065 485.371Z" fill="black"/>
<path d="M532.5 716.5C596.222 716.5 648.065 664.658 648.065 600.936H601.839C601.839 639.164 570.729 670.274 532.5 670.274C494.271 670.274 463.161 639.164 463.161 600.936H416.935C416.935 664.658 468.778 716.5 532.5 716.5Z" fill="black"/>
<path d="M953.478 917.236L902.306 900.178V808.952C902.306 770.723 871.196 739.613 832.968 739.613H728.729C751.541 712.085 767.836 680.143 777.266 645.775C834.516 638.933 879.194 590.65 879.194 531.597C879.194 474.762 837.868 427.658 783.737 418.066C775.902 353.997 751.587 292.124 712.781 240.374L697.734 220.289L610.206 298.064C529.195 370.084 430.803 416.887 324.507 435.077V346.694H278.281V418.367C225.607 429.114 185.83 475.779 185.83 531.597C185.83 590.65 230.507 638.933 287.734 645.775C297.188 680.143 313.459 712.085 336.271 739.613H232.032C193.803 739.613 162.694 770.723 162.694 808.952V900.178L111.545 917.236C45.3493 939.262 0.903198 1000.95 0.903198 1070.68V1433H1064.1V1070.68C1064.1 1000.95 1019.63 939.262 953.478 917.236ZM786.742 577.823V466.511C813.576 476.08 832.968 501.504 832.968 531.597C832.968 562.083 813.044 587.761 785.632 597.029C786.118 590.65 786.742 584.294 786.742 577.823ZM232.032 531.597C232.032 501.504 251.424 476.08 278.258 466.511V577.823C278.258 584.294 278.882 590.65 279.367 597.029C251.956 587.761 232.032 562.083 232.032 531.597ZM324.484 577.823V481.881C348.29 478.114 371.634 472.682 394.632 466.303C396.619 477.05 405.61 485.371 416.935 485.371C429.694 485.371 440.048 475.016 440.048 462.258C440.048 458.791 439.17 455.578 437.806 452.62C512.068 426.086 580.945 385.893 640.876 332.618L690.107 288.865C722.742 340.453 740.516 401.124 740.516 462.258V577.823C740.516 641.476 712.157 699.905 662.787 739.613H402.189C352.866 699.882 324.484 641.452 324.484 577.823ZM208.919 808.952C208.919 796.193 219.297 785.839 232.032 785.839H832.968C845.726 785.839 856.081 796.193 856.081 808.952V1201.87H208.919V808.952ZM856.081 1248.1C856.081 1273.59 835.348 1294.32 809.855 1294.32H255.145C229.652 1294.32 208.919 1273.59 208.919 1248.1H856.081ZM47.129 1386.77V1070.68C47.129 1020.87 78.8861 976.798 126.152 961.058L162.694 948.877V1248.1C162.694 1299.08 204.158 1340.55 255.145 1340.55H370.71C400.803 1340.55 426.227 1359.94 435.796 1386.77H47.129ZM581.06 1386.77H483.94C480.427 1369.6 472.799 1354.05 462.583 1340.55H602.44C592.201 1354.05 584.573 1369.6 581.06 1386.77ZM1017.87 1386.77H629.204C638.773 1359.94 664.197 1340.55 694.29 1340.55H809.855C860.842 1340.55 902.306 1299.08 902.306 1248.1V948.877L938.848 961.058C986.114 976.821 1017.87 1020.87 1017.87 1070.68V1386.77Z" fill="black"/>
<path d="M421.558 933.762L341.819 1040.08L421.558 1146.4L458.539 1118.67L399.601 1040.08L458.539 961.497L421.558 933.762Z" fill="black"/>
<path d="M606.461 961.497L665.399 1040.08L606.461 1118.67L643.442 1146.4L723.181 1040.08L643.442 933.762L606.461 961.497Z" fill="black"/>
<path d="M508.447 1162.3L577.724 931.163L533.444 917.892L464.167 1149.03L508.447 1162.3Z" fill="black"/>
</svg>
