<svg width="1876" height="1897" viewBox="0 0 1876 1897" fill="none" xmlns="http://www.w3.org/2000/svg">
<ellipse cx="938" cy="948.5" rx="938" ry="948.5" fill="#07A977"/>
<g clip-path="url(#clip0)">
<path d="M1452 1537H443.5L427.5 1509L435.5 1304.5V1169L453.5 1123.5L489 1086.5L545 1061.5L592.5 1046V961.5L608 909.5L657 879.5H772.5V869L740.5 821.5L698.5 750L657 728.5L619 690.5L627.5 618L669 580H719H740.5L809.5 563L979.5 484.5L1090 377.5L1115 406L1170 526L1197 563L1236.5 588L1252 638V706L1197 743L1170 759.5L1132 821.5L1115 879.5H1146L1227 889L1267.5 902L1293.5 926V1040.5L1399.5 1093.5L1452 1183V1537Z" fill="white" stroke="black"/>
<path d="M1181 654.5L1160.5 496.5L1115.8 398.5L1108.5 382.5H1099L1066 407L981.5 472.5L897 522.5L787.5 565L709 589V666L718.5 768.5L741 825.5L793.5 889H914.5L1099 881.5L1124 849.5L1168 734L1181 654.5Z" fill="white"/>
<path d="M938.5 125C747.333 125 591.806 280.527 591.806 471.694V656.597H614.919C614.919 605.54 656.315 564.145 707.371 564.145H811.98C892.713 538.883 967.715 497.072 1031.55 440.352L1100.29 379.242C1140.67 433.072 1164.22 497.349 1168.7 564.145H1169.63C1220.69 564.145 1262.08 605.54 1262.08 656.597H1285.19V471.694C1285.19 280.527 1129.67 125 938.5 125Z" fill="#43D394"/>
<path d="M1215.85 957.064H661.145V1326.87H1215.85V957.064Z" fill="#BFF5BF"/>
<path d="M1054.06 610.371C1066.83 610.371 1077.18 600.023 1077.18 587.258C1077.18 574.494 1066.83 564.146 1054.06 564.146C1041.3 564.146 1030.95 574.494 1030.95 587.258C1030.95 600.023 1041.3 610.371 1054.06 610.371Z" fill="black"/>
<path d="M938.5 841.5C1002.22 841.5 1054.06 789.658 1054.06 725.936H1007.84C1007.84 764.164 976.729 795.274 938.5 795.274C900.271 795.274 869.161 764.164 869.161 725.936H822.936C822.936 789.658 874.778 841.5 938.5 841.5Z" fill="black"/>
<path d="M1359.48 1042.24L1308.31 1025.18V933.952C1308.31 895.723 1277.2 864.613 1238.97 864.613H1134.73C1157.54 837.085 1173.84 805.143 1183.27 770.775C1240.52 763.933 1285.19 715.65 1285.19 656.597C1285.19 599.762 1243.87 552.658 1189.74 543.066C1181.9 478.997 1157.59 417.124 1118.78 365.374L1103.73 345.289L1016.21 423.064C935.195 495.084 836.803 541.887 730.507 560.077V471.694H684.281V543.367C631.607 554.114 591.83 600.779 591.83 656.597C591.83 715.65 636.507 763.933 693.734 770.775C703.188 805.143 719.459 837.085 742.272 864.613H638.032C599.804 864.613 568.694 895.723 568.694 933.952V1025.18L517.545 1042.24C451.349 1064.26 406.903 1125.95 406.903 1195.68V1558H1470.1V1376.84V1195.68C1470.1 1125.95 1425.63 1064.26 1359.48 1042.24ZM1192.74 702.823V591.511C1219.58 601.08 1238.97 626.504 1238.97 656.597C1238.97 687.083 1219.04 712.761 1191.63 722.029C1192.12 715.65 1192.74 709.294 1192.74 702.823ZM638.032 656.597C638.032 626.504 657.424 601.08 684.258 591.511V702.823C684.258 709.294 684.882 715.65 685.368 722.029C657.956 712.761 638.032 687.083 638.032 656.597ZM730.484 702.823V606.881C754.29 603.114 777.634 597.682 800.632 591.303C802.619 602.05 811.61 610.371 822.936 610.371C835.694 610.371 846.048 600.016 846.048 587.258C846.048 583.791 845.17 580.578 843.807 577.62C918.068 551.086 986.945 510.893 1046.88 457.618L1096.11 413.865C1128.74 465.453 1146.52 526.124 1146.52 587.258V702.823C1146.52 766.476 1118.16 824.905 1068.79 864.613H808.19C758.867 824.882 730.484 766.452 730.484 702.823ZM614.919 933.952C614.919 921.193 625.297 910.839 638.032 910.839H1238.97C1251.73 910.839 1262.08 921.193 1262.08 933.952V1326.87H614.919V933.952ZM1262.08 1373.1C1262.08 1398.59 1241.35 1419.32 1215.85 1419.32H661.145C635.652 1419.32 614.919 1398.59 614.919 1373.1H1262.08ZM453.129 1511.77V1195.68C453.129 1145.87 484.886 1101.8 532.152 1086.06L568.694 1073.88V1373.1C568.694 1424.08 610.158 1465.55 661.145 1465.55H776.71C806.803 1465.55 832.227 1484.94 841.796 1511.77H453.129ZM987.06 1511.77H889.94C886.427 1494.6 878.799 1479.05 868.584 1465.55H1008.44C998.201 1479.05 990.574 1494.6 987.06 1511.77ZM1423.87 1511.77H1035.2C1044.77 1484.94 1070.2 1465.55 1100.29 1465.55H1215.85C1266.84 1465.55 1308.31 1424.08 1308.31 1373.1V1073.88L1344.85 1086.06C1392.11 1101.82 1423.87 1145.87 1423.87 1195.68V1511.77Z" fill="black"/>
<path d="M827.558 1058.76L747.819 1165.08L827.558 1271.4L864.539 1243.67L805.601 1165.08L864.539 1086.5L827.558 1058.76Z" fill="black"/>
<path d="M1012.46 1086.5L1071.4 1165.08L1012.46 1243.67L1049.44 1271.4L1129.18 1165.08L1049.44 1058.76L1012.46 1086.5Z" fill="black"/>
<path d="M914.447 1287.3L983.724 1056.16L939.444 1042.89L870.167 1274.03L914.447 1287.3Z" fill="black"/>
</g>
<defs>
<clipPath id="clip0">
<rect width="1433" height="1433" fill="white" transform="translate(222 125)"/>
</clipPath>
</defs>
</svg>
