<svg width="1433" height="1433" viewBox="0 0 1433 1433" fill="none" xmlns="http://www.w3.org/2000/svg">
<g clip-path="url(#clip0)">
<path d="M716.5 0C525.333 0 369.806 155.527 369.806 346.694V531.597H392.919C392.919 480.54 434.315 439.145 485.371 439.145H589.98C670.713 413.883 745.715 372.072 809.553 315.352L878.29 254.242C918.669 308.072 942.221 372.349 946.705 439.145H947.629C998.685 439.145 1040.08 480.54 1040.08 531.597H1063.19V346.694C1063.19 155.527 907.667 0 716.5 0Z" fill="#07A977"/>
<path d="M993.855 832.064H439.145V1201.87H993.855V832.064Z" fill="#BFF5BF"/>
<path d="M832.065 485.371C844.829 485.371 855.177 475.023 855.177 462.258C855.177 449.494 844.829 439.146 832.065 439.146C819.3 439.146 808.952 449.494 808.952 462.258C808.952 475.023 819.3 485.371 832.065 485.371Z" fill="black"/>
<path d="M716.5 716.5C780.222 716.5 832.065 664.658 832.065 600.936H785.839C785.839 639.164 754.729 670.274 716.5 670.274C678.271 670.274 647.161 639.164 647.161 600.936H600.936C600.936 664.658 652.778 716.5 716.5 716.5Z" fill="black"/>
<path d="M1137.48 917.236L1086.31 900.178V808.952C1086.31 770.723 1055.2 739.613 1016.97 739.613H912.729C935.541 712.085 951.836 680.143 961.266 645.775C1018.52 638.933 1063.19 590.65 1063.19 531.597C1063.19 474.762 1021.87 427.658 967.737 418.066C959.902 353.997 935.587 292.124 896.781 240.374L881.734 220.289L794.206 298.064C713.195 370.084 614.803 416.887 508.507 435.077V346.694H462.281V418.367C409.607 429.114 369.83 475.779 369.83 531.597C369.83 590.65 414.507 638.933 471.734 645.775C481.188 680.143 497.459 712.085 520.271 739.613H416.032C377.803 739.613 346.694 770.723 346.694 808.952V900.178L295.545 917.236C229.349 939.262 184.903 1000.95 184.903 1070.68V1433H1248.1V1070.68C1248.1 1000.95 1203.63 939.262 1137.48 917.236ZM970.742 577.823V466.511C997.576 476.08 1016.97 501.504 1016.97 531.597C1016.97 562.083 997.044 587.761 969.632 597.029C970.118 590.65 970.742 584.294 970.742 577.823ZM416.032 531.597C416.032 501.504 435.424 476.08 462.258 466.511V577.823C462.258 584.294 462.882 590.65 463.367 597.029C435.956 587.761 416.032 562.083 416.032 531.597ZM508.484 577.823V481.881C532.29 478.114 555.634 472.682 578.632 466.303C580.619 477.05 589.61 485.371 600.935 485.371C613.694 485.371 624.048 475.016 624.048 462.258C624.048 458.791 623.17 455.578 621.806 452.62C696.068 426.086 764.945 385.893 824.876 332.618L874.107 288.865C906.742 340.453 924.516 401.124 924.516 462.258V577.823C924.516 641.476 896.157 699.905 846.787 739.613H586.189C536.866 699.882 508.484 641.452 508.484 577.823ZM392.919 808.952C392.919 796.193 403.297 785.839 416.032 785.839H1016.97C1029.73 785.839 1040.08 796.193 1040.08 808.952V1201.87H392.919V808.952ZM1040.08 1248.1C1040.08 1273.59 1019.35 1294.32 993.855 1294.32H439.145C413.652 1294.32 392.919 1273.59 392.919 1248.1H1040.08ZM231.129 1386.77V1070.68C231.129 1020.87 262.886 976.798 310.152 961.058L346.694 948.877V1248.1C346.694 1299.08 388.158 1340.55 439.145 1340.55H554.71C584.803 1340.55 610.227 1359.94 619.796 1386.77H231.129ZM765.06 1386.77H667.94C664.427 1369.6 656.799 1354.05 646.583 1340.55H786.44C776.201 1354.05 768.573 1369.6 765.06 1386.77ZM1201.87 1386.77H813.204C822.773 1359.94 848.197 1340.55 878.29 1340.55H993.855C1044.84 1340.55 1086.31 1299.08 1086.31 1248.1V948.877L1122.85 961.058C1170.11 976.821 1201.87 1020.87 1201.87 1070.68V1386.77Z" fill="black"/>
<path d="M605.558 933.762L525.819 1040.08L605.558 1146.4L642.539 1118.67L583.601 1040.08L642.539 961.497L605.558 933.762Z" fill="black"/>
<path d="M790.461 961.497L849.399 1040.08L790.461 1118.67L827.442 1146.4L907.181 1040.08L827.442 933.762L790.461 961.497Z" fill="black"/>
<path d="M692.447 1162.3L761.724 931.163L717.444 917.892L648.167 1149.03L692.447 1162.3Z" fill="black"/>
</g>
<defs>
<clipPath id="clip0">
<rect width="1433" height="1433" fill="white"/>
</clipPath>
</defs>
</svg>
