<svg width="1876" height="1897" viewBox="0 0 1876 1897" fill="none" xmlns="http://www.w3.org/2000/svg">
<ellipse cx="938" cy="948.5" rx="938" ry="948.5" fill="#43D394"/>
<g clip-path="url(#clip0)">
<path d="M1452 1554H443.5L427.5 1526L435.5 1321.5V1186L453.5 1140.5L489 1103.5L545 1078.5L592.5 1063V978.5L608 926.5L657 896.5H772.5V886L740.5 838.5L698.5 767L657 745.5L619 707.5L627.5 635L669 597H719H740.5L809.5 580L979.5 501.5L1090 394.5L1115 423L1170 543L1197 580L1236.5 605L1252 655V723L1197 760L1170 776.5L1132 838.5L1115 896.5H1146L1227 906L1267.5 919L1293.5 943V1057.5L1399.5 1110.5L1452 1200V1554Z" fill="white" stroke="black"/>
<path d="M1181 671.5L1160.5 513.5L1115.8 415.5L1108.5 399.5H1099L1066 424L981.5 489.5L897 539.5L787.5 582L709 606V683L718.5 785.5L741 842.5L793.5 906H914.5L1099 898.5L1124 866.5L1168 751L1181 671.5Z" fill="white"/>
<path d="M938.5 142C747.333 142 591.806 297.527 591.806 488.694V673.597H614.919C614.919 622.54 656.315 581.145 707.371 581.145H811.98C892.713 555.883 967.715 514.072 1031.55 457.352L1100.29 396.242C1140.67 450.072 1164.22 514.349 1168.7 581.145H1169.63C1220.69 581.145 1262.08 622.54 1262.08 673.597H1285.19V488.694C1285.19 297.527 1129.67 142 938.5 142Z" fill="#07A977"/>
<path d="M1215.85 974.064H661.145V1343.87H1215.85V974.064Z" fill="#BFF5BF"/>
<path d="M1054.06 627.371C1066.83 627.371 1077.18 617.023 1077.18 604.258C1077.18 591.494 1066.83 581.146 1054.06 581.146C1041.3 581.146 1030.95 591.494 1030.95 604.258C1030.95 617.023 1041.3 627.371 1054.06 627.371Z" fill="black"/>
<path d="M938.5 858.5C1002.22 858.5 1054.06 806.658 1054.06 742.936H1007.84C1007.84 781.164 976.729 812.274 938.5 812.274C900.271 812.274 869.161 781.164 869.161 742.936H822.936C822.936 806.658 874.778 858.5 938.5 858.5Z" fill="black"/>
<path d="M1359.48 1059.24L1308.31 1042.18V950.952C1308.31 912.723 1277.2 881.613 1238.97 881.613H1134.73C1157.54 854.085 1173.84 822.143 1183.27 787.775C1240.52 780.933 1285.19 732.65 1285.19 673.597C1285.19 616.762 1243.87 569.658 1189.74 560.066C1181.9 495.997 1157.59 434.124 1118.78 382.374L1103.73 362.289L1016.21 440.064C935.195 512.084 836.803 558.887 730.507 577.077V488.694H684.281V560.367C631.607 571.114 591.83 617.779 591.83 673.597C591.83 732.65 636.507 780.933 693.734 787.775C703.188 822.143 719.459 854.085 742.272 881.613H638.032C599.804 881.613 568.694 912.723 568.694 950.952V1042.18L517.545 1059.24C451.349 1081.26 406.903 1142.95 406.903 1212.68V1575H1470.1V1393.84V1212.68C1470.1 1142.95 1425.63 1081.26 1359.48 1059.24ZM1192.74 719.823V608.511C1219.58 618.08 1238.97 643.504 1238.97 673.597C1238.97 704.083 1219.04 729.761 1191.63 739.029C1192.12 732.65 1192.74 726.294 1192.74 719.823ZM638.032 673.597C638.032 643.504 657.424 618.08 684.258 608.511V719.823C684.258 726.294 684.882 732.65 685.368 739.029C657.956 729.761 638.032 704.083 638.032 673.597ZM730.484 719.823V623.881C754.29 620.114 777.634 614.682 800.632 608.303C802.619 619.05 811.61 627.371 822.936 627.371C835.694 627.371 846.048 617.016 846.048 604.258C846.048 600.791 845.17 597.578 843.807 594.62C918.068 568.086 986.945 527.893 1046.88 474.618L1096.11 430.865C1128.74 482.453 1146.52 543.124 1146.52 604.258V719.823C1146.52 783.476 1118.16 841.905 1068.79 881.613H808.19C758.867 841.882 730.484 783.452 730.484 719.823ZM614.919 950.952C614.919 938.193 625.297 927.839 638.032 927.839H1238.97C1251.73 927.839 1262.08 938.193 1262.08 950.952V1343.87H614.919V950.952ZM1262.08 1390.1C1262.08 1415.59 1241.35 1436.32 1215.85 1436.32H661.145C635.652 1436.32 614.919 1415.59 614.919 1390.1H1262.08ZM453.129 1528.77V1212.68C453.129 1162.87 484.886 1118.8 532.152 1103.06L568.694 1090.88V1390.1C568.694 1441.08 610.158 1482.55 661.145 1482.55H776.71C806.803 1482.55 832.227 1501.94 841.796 1528.77H453.129ZM987.06 1528.77H889.94C886.427 1511.6 878.799 1496.05 868.584 1482.55H1008.44C998.201 1496.05 990.574 1511.6 987.06 1528.77ZM1423.87 1528.77H1035.2C1044.77 1501.94 1070.2 1482.55 1100.29 1482.55H1215.85C1266.84 1482.55 1308.31 1441.08 1308.31 1390.1V1090.88L1344.85 1103.06C1392.11 1118.82 1423.87 1162.87 1423.87 1212.68V1528.77Z" fill="black"/>
<path d="M827.558 1075.76L747.819 1182.08L827.558 1288.4L864.539 1260.67L805.601 1182.08L864.539 1103.5L827.558 1075.76Z" fill="black"/>
<path d="M1012.46 1103.5L1071.4 1182.08L1012.46 1260.67L1049.44 1288.4L1129.18 1182.08L1049.44 1075.76L1012.46 1103.5Z" fill="black"/>
<path d="M914.447 1304.3L983.724 1073.16L939.444 1059.89L870.167 1291.03L914.447 1304.3Z" fill="black"/>
</g>
<defs>
<clipPath id="clip0">
<rect width="1433" height="1433" fill="white" transform="translate(222 142)"/>
</clipPath>
</defs>
</svg>
