<svg xmlns="http://www.w3.org/2000/svg" viewBox="0 0 48 48">
  <g fill="none" fill-rule="evenodd">
    <g>
      <path fill="#E5A03E" d="M6 16a3 3 0 0 1 3-3h34a3 3 0 0 1 3 3v21a3 3 0 0 1-3 3H9a3 3 0 0 1-3-3V16zm0 3v4.17h40V19H6z" transform="rotate(8 26 26.5)"></path>
      <rect width="40" height="27" x="1" y="6" fill="#FDD760" rx="3"></rect>
      <path fill="#E5A03E" d="M30 26a1 1 0 0 1 1-1h4a1 1 0 0 1 0 2h-4a1 1 0 0 1-1-1zm-8 0a1 1 0 0 1 1-1h4a1 1 0 0 1 0 2h-4a1 1 0 0 1-1-1zm-8 0a1 1 0 0 1 1-1h4a1 1 0 0 1 0 2h-4a1 1 0 0 1-1-1zm-8 0a1 1 0 0 1 1-1h4a1 1 0 0 1 0 2H7a1 1 0 0 1-1-1zM5 11a1 1 0 0 1 1-1h6a1 1 0 0 1 1 1v6a1 1 0 0 1-1 1H6a1 1 0 0 1-1-1v-6z"></path>
    </g>
  </g>
</svg>




