<svg width="770" height="779" viewBox="0 0 770 779" fill="none" xmlns="http://www.w3.org/2000/svg">
<ellipse cx="385" cy="389.31" rx="385" ry="389.31" fill="#07A977"/>
<path d="M457 235.5H414L365 240V281L356 290.5H318.5L301 281V245.5L267.5 248.5L263.5 290.5H253.5H214.5L191.5 268.5L157.5 321L146 378L160.5 476.5L214.5 541L288.5 567L429 577L501.5 646L506.5 630.5V577L518 567L570 541L609.5 498.5L631.5 452L637.5 385L623 341.5L590 290.5L553 259.5L506.5 240L457 235.5Z" fill="#BFF5BF" stroke="black"/>
<path d="M470.267 226.864H375C369.477 226.864 366 234.477 366 240C366 245.523 372.477 246.864 378 246.864H470.267C557.241 246.864 628 317.623 628 404.597C628 478.829 575.352 543.749 502.813 558.962C498.182 559.934 494.866 564.018 494.866 568.749V626.853L433.272 565.259C431.397 563.384 428.853 562.33 426.201 562.33H313.733C226.759 562.33 156 491.571 156 404.597C151 375.5 175.5 314.5 192.5 293C197.468 286.717 206.5 266.838 200.5 263.5C187 255.989 164.334 307.5 158.313 318.326C145.703 341 136 374.397 136 404.597C136 502.6 215.73 582.33 313.733 582.33H422.059L497.795 658.066C499.708 659.979 502.265 660.995 504.868 660.995C506.156 660.995 507.456 660.746 508.693 660.233C512.429 658.686 514.866 655.04 514.866 650.995V576.674C551.049 567.298 583.766 546.435 607.673 517.331C633.678 485.674 648 445.638 648 404.597C648 306.595 568.27 226.865 470.267 226.864Z" fill="black"/>
<path d="M421.07 229.795C419.21 227.935 416.63 226.865 414 226.865C411.37 226.865 408.79 227.935 406.93 229.795C405.07 231.655 404 234.235 404 236.865C404 239.495 405.07 242.075 406.93 243.935C408.79 245.795 411.37 246.865 414 246.865C416.63 246.865 419.21 245.795 421.07 243.935C422.93 242.075 424 239.495 424 236.865C424 234.235 422.93 231.655 421.07 229.795Z" fill="black"/>
<path d="M515.064 326.492H268.937C263.414 326.492 258.937 330.969 258.937 336.492C258.937 342.015 263.414 346.492 268.937 346.492H515.063C520.586 346.492 525.064 342.015 525.064 336.492C525.064 330.969 520.587 326.492 515.064 326.492Z" fill="black"/>
<path d="M515.064 379.825H268.937C263.414 379.825 258.937 384.302 258.937 389.825C258.937 395.348 263.414 399.825 268.937 399.825H515.063C520.586 399.825 525.064 395.348 525.064 389.825C525.064 384.302 520.587 379.825 515.064 379.825Z" fill="black"/>
<path d="M515.064 433.158H268.937C263.414 433.158 258.937 437.636 258.937 443.158C258.937 448.68 263.414 453.158 268.937 453.158H515.063C520.586 453.158 525.064 448.68 525.064 443.158C525.064 437.636 520.587 433.158 515.064 433.158Z" fill="black"/>
<path d="M515.063 486.492H383.871C378.348 486.492 373.871 490.97 373.871 496.492C373.871 502.014 378.348 506.492 383.871 506.492H515.063C520.586 506.492 525.063 502.014 525.063 496.492C525.063 490.97 520.586 486.492 515.063 486.492Z" fill="black"/>
<path d="M327.607 486.491H327.446C321.923 486.491 317.446 490.969 317.446 496.491C317.446 502.013 321.923 506.491 327.446 506.491H327.607C333.13 506.491 337.607 502.013 337.607 496.491C337.607 490.969 333.13 486.491 327.607 486.491Z" fill="black"/>
<path d="M360 188V162H351.5L338 164L325 171L310.5 190L303.5 210V280.5L310 287.5H342H365.5V270V242L360 234L345.5 230.5L337 227V213.5L345.5 197L360 188Z" fill="white" stroke="black"/>
<path d="M362.091 220.638H343.894C346.631 200.375 357.835 199.357 362.991 198.888C368.142 198.419 372.085 194.101 372.085 188.929V159.004C372.085 156.255 370.953 153.626 368.955 151.737C366.957 149.848 364.265 148.869 361.524 149.02C329.914 150.798 292.234 166.758 292.234 232.696V284.736C292.234 293.423 299.301 300.49 307.988 300.49H362.091C370.778 300.49 377.846 293.422 377.845 284.734V236.392C377.845 227.705 370.778 220.638 362.091 220.638ZM357.845 280.49H312.234V232.696C312.234 186.686 332.695 173.836 352.085 170.209V180.723C338.694 184.799 323.282 196.837 323.282 230.638C323.282 236.161 327.759 240.638 333.282 240.638H357.845V280.49Z" fill="black"/>
<path d="M258 188V162H249.5L236 164L223 171L208.5 190L201.5 210V280.5L208 287.5H240H263.5V270V242L258 234L243.5 230.5L235 227V213.5L243.5 197L258 188Z" fill="white" stroke="black"/>
<path d="M259.856 220.638H241.66C244.397 200.375 255.601 199.357 260.757 198.888C265.908 198.419 269.851 194.101 269.851 188.929V159.004C269.851 156.255 268.719 153.626 266.721 151.737C264.723 149.848 262.033 148.869 259.29 149.02C227.68 150.798 190 166.758 190 232.696V284.736C190 293.423 197.067 300.49 205.754 300.49H259.857C268.544 300.49 275.611 293.422 275.61 284.735V236.392C275.61 227.705 268.543 220.638 259.856 220.638ZM255.611 280.489H210V232.696C210 186.686 230.461 173.836 249.851 170.209V180.723C236.46 184.799 221.048 196.837 221.048 230.638C221.048 236.161 225.525 240.638 231.048 240.638H255.611V280.489Z" fill="black"/>
</svg>
