<svg width="512" height="512" viewBox="0 0 512 512" fill="none" xmlns="http://www.w3.org/2000/svg">
<rect width="512" height="512" fill="#56CCF2"/>
<path d="M390.544 285.956C395.927 282.881 395.917 275.115 390.526 272.053L265.283 200.926C260.996 198.491 255.743 198.491 251.456 200.926L126.213 272.053C120.821 275.115 120.811 282.881 126.195 285.956L258.369 361.471L390.544 285.956Z" fill="#6772E5"/>
<path d="M258.369 360.616L161.029 305L126.213 324.77C120.822 327.831 120.812 335.597 126.195 338.673L258.369 414.187L390.544 338.672C395.927 335.597 395.918 327.831 390.526 324.77L355.716 305L258.369 360.616Z" fill="#F2C94C"/>
<path d="M258.369 413.616L161.029 358L126.213 377.77C120.822 380.831 120.812 388.597 126.195 391.673L258.369 467.187L390.544 391.672C395.927 388.597 395.918 380.831 390.526 377.77L355.716 358L258.369 413.616Z" fill="#27AE60"/>
<g clip-path="url(#clip0)">
<path d="M262.766 41.6659L261.236 40.9428L259.683 41.6122C254.682 43.7668 250.154 46.7843 246.222 50.5808C237.583 58.9241 232.709 70.1329 232.499 82.1423L232.202 99.1688L213.749 118.803L213.193 150.653L231.461 141.612L231.284 151.767L237.216 151.87L240.426 168.574L277.58 169.223L281.371 152.641L287.303 152.745L287.48 142.59L305.421 152.263L305.977 120.413L288.221 100.147L288.519 83.1203C288.826 65.482 278.718 49.2102 262.766 41.6659ZM220.898 138.482L221.188 121.825L232.007 110.313L231.608 133.181L220.898 138.482ZM271.633 161.627L246.635 161.191L244.869 152.004L273.718 152.508L271.633 161.627ZM298.438 123.173L298.147 139.831L287.628 134.159L288.027 111.291L298.438 123.173ZM279.944 145.124L238.904 144.408L239.988 82.2728C240.163 72.264 244.225 62.9227 251.426 55.969C254.292 53.2013 257.537 50.9305 261.092 49.2034C273.502 55.782 281.276 68.8597 281.029 82.9894L279.944 145.124Z" fill="#0289B5"/>
<path d="M252.805 68.7534C250.646 70.8382 249.428 73.6389 249.376 76.6395C249.268 82.8339 254.219 87.9615 260.414 88.0696C263.415 88.122 266.256 87.0026 268.415 84.918C270.574 82.8334 271.792 80.0326 271.844 77.032C271.952 70.8375 267.001 65.7099 260.806 65.6018C257.806 65.5493 254.964 66.6686 252.805 68.7534ZM264.355 76.9011C264.337 77.9013 263.932 78.835 263.212 79.5298C262.493 80.2246 261.545 80.5976 260.545 80.5804C258.48 80.5443 256.83 78.8352 256.866 76.7702C256.883 75.77 257.289 74.8364 258.009 74.1416C258.728 73.4468 259.675 73.0736 260.676 73.0911C262.74 73.1271 264.391 74.8364 264.355 76.9011Z" fill="#0289B5"/>
<path d="M240.15 186.82L240.359 174.816L247.848 174.947L247.639 186.95L240.15 186.82ZM277.218 187.468L269.729 187.337L269.938 175.334L277.427 175.464L277.218 187.468ZM254.575 192.766L254.884 175.07L262.374 175.201L262.065 192.896L254.575 192.766Z" fill="#0289B5"/>
</g>
<defs>
<clipPath id="clip0">
<rect width="120" height="120" fill="white" transform="translate(175 119.359) rotate(-44)"/>
</clipPath>
</defs>
</svg>
