<svg width="490" height="490" viewBox="0 0 490 490" fill="none" xmlns="http://www.w3.org/2000/svg">
<g clip-path="url(#clip0)">
<path d="M244.95 215.1C169.25 215.1 107.55 276.7 107.55 352.5C107.55 428.2 169.15 489.9 244.95 489.9C320.75 489.9 382.35 428.3 382.35 352.5C382.35 276.7 320.65 215.1 244.95 215.1ZM244.95 458.3C186.55 458.3 139.05 410.8 139.05 352.4C139.05 294 186.55 246.6 244.95 246.6C303.35 246.6 350.85 294.1 350.85 352.5C350.85 410.9 303.35 458.3 244.95 458.3ZM315.35 338L282.95 364.5L292.75 404.6C294.05 410.5 289.55 415.4 284.55 415.4C283.05 415.4 281.45 415 279.95 414L244.55 392.2L209.55 414C208.05 415 206.45 415.4 204.95 415.4C199.75 415.4 195.15 410.5 196.75 404.6L206.55 364.5L174.55 338.1C168.55 333 171.95 323.2 179.65 322.7L221.05 319.7L236.85 281.3C238.35 277.7 241.65 275.9 244.95 275.9C248.25 275.9 251.55 277.7 253.05 281.3L268.85 319.7L310.25 322.7C317.85 323.1 321.35 332.9 315.35 338ZM184.05 0L290.75 190.5C279.95 187.4 268.65 185.4 257.05 184.6L153.65 0H184.05ZM194.25 191.9L86.75 0H117.95L221.95 185.8C212.45 187.1 203.15 189.1 194.25 191.9ZM371.95 0H403.15L312.65 161.6L297.05 133.7L371.95 0ZM336.25 0L279.25 101.8L264.05 74.7L305.85 0H336.25Z" fill="#F2BA0D"/>
</g>
<defs>
<clipPath id="clip0">
<rect width="489.9" height="489.9" fill="white"/>
</clipPath>
</defs>
</svg>
