<svg width="512" height="512" viewBox="0 0 512 512" fill="none" xmlns="http://www.w3.org/2000/svg">
<rect width="512" height="512" fill="#27AE60"/>
<g clip-path="url(#clip0)">
<rect width="400" height="400" transform="translate(56 56)" fill="#27AE60"/>
<path d="M423.622 158.993C423.417 148.193 423.221 137.991 423.221 128.121C423.221 120.389 416.954 114.12 409.22 114.12C349.342 114.12 303.753 96.9122 265.752 59.9644C260.316 54.6776 251.665 54.6795 246.231 59.9644C208.234 96.9122 162.652 114.12 102.778 114.12C95.046 114.12 88.7773 120.389 88.7773 128.121C88.7773 137.993 88.5831 148.199 88.3759 159C86.4568 259.501 83.8284 397.143 251.406 455.228C252.892 455.744 254.441 456.001 255.991 456.001C257.54 456.001 259.091 455.744 260.575 455.228C428.166 397.141 425.541 259.496 423.622 158.993ZM255.992 427.142C112.273 374.933 114.446 260.564 116.374 159.534C116.49 153.471 116.602 147.594 116.68 141.833C172.759 139.466 217.604 122.472 255.992 89.0305C294.385 122.472 339.237 139.468 395.319 141.833C395.398 147.592 395.51 153.465 395.626 159.525C397.552 260.558 399.723 374.931 255.992 427.142Z" fill="#F8F8F8"/>
<path d="M304.206 207.364L236.63 274.936L207.794 246.1C202.326 240.634 193.46 240.634 187.994 246.1C182.526 251.57 182.526 260.433 187.994 265.901L226.73 304.637C229.463 307.37 233.048 308.737 236.63 308.737C240.212 308.737 243.797 307.37 246.53 304.637L324.004 227.165C329.474 221.697 329.474 212.832 324.006 207.366C318.54 201.898 309.674 201.896 304.206 207.364Z" fill="#F8F8F8"/>
</g>
<defs>
<clipPath id="clip0">
<rect width="400" height="400" fill="white" transform="translate(56 56)"/>
</clipPath>
</defs>
</svg>
