<svg xmlns="http://www.w3.org/2000/svg" width="48" height="48"><path d="M44 21.777l-8.82-2.41 4.535-7.937-3.145-3.145-7.593 4.336L26.223 4h-4.446l-2.64 8.266-7.707-3.98-3.145 3.144 3.98 7.71L4 21.778v4.446l8.262 2.636-3.977 7.711 3.145 3.145 7.707-3.98L21.777 44h4.446l2.636-8.266 7.711 3.98 3.14-3.144-4.148-8.043L44 26.223zM24 32.891a8.89 8.89 0 1 1 0-17.782 8.89 8.89 0 0 1 0 17.782zm0 0" fill="#455a64"/><path d="M24 9C15.715 9 9 15.715 9 24s6.715 15 15 15 15-6.715 15-15S32.285 9 24 9zm0 0" fill="#78909c"/><path d="M19.32 26.953h-2.742L16.047 29h-2.125l3.11-10h1.835L22 29h-2.145zm-2.304-1.68h1.859l-.93-3.566zM33 29h-2V19h2zm-7.988-3.516V29H23V19h3.39c.985 0 1.77.305 2.356.922.586.613.879 1.41.879 2.387 0 .98-.29 1.753-.867 2.324-.582.566-1.383.851-2.406.851zm0-1.683h1.379c.382 0 .68-.125.89-.38.207-.25.313-.616.313-1.097 0-.5-.11-.894-.32-1.191a1.028 1.028 0 0 0-.864-.45h-1.398zm0 0" fill="#fff"/></svg>