<?xml version="1.0" encoding="UTF-8" standalone="no"?> <svg id="Layer_1" data-name="Layer 1" xmlns="http://www.w3.org/2000/svg" viewBox="0 0 128 128"><defs><style>.cls-1{fill:#2d3e50;}.cls-2{fill:#1d75b8;}</style></defs><title>b</title><path class="cls-1" d="M52.703,95.43536a14.572,14.572,0,0,1-14.47513-6.13509L37.227,87.83242,23.88933,115.68655l12.858-.50834,7.66648,10.33528L59.31463,94.40278l-.17156-.07307Z"/><path class="cls-1" d="M85.47535,89.80226,80.65561,94.2185a14.56859,14.56859,0,0,1-9.83649,3.80941c-.13344,0-.26371-.00318-.39714-.00634L83.58812,125.5135l7.6633-10.33528,12.858.50834L91.2419,88.81417Z"/><path class="cls-2" d="M84.38227,38.48135c-3.46328-.28428-7.04395-.57857-10.56149-.76318a3.429,3.429,0,0,1-3.28455-2.42937C68.919,31.159,67.2658,27.0346,65.61143,22.909a1.33852,1.33852,0,0,0-1.4615-1.0056,1.47316,1.47316,0,0,0-1.46387.99556,7.01824,7.01824,0,0,0-.335.77854l-.04957.12917L57.5548,35.35073a3.02419,3.02419,0,0,1-2.74608,2.11381c-2.7573.16219-5.52285.34564-8.28842.52907q-2.80182.18575-5.60306.36567a1.49237,1.49237,0,0,0-1.38543,1.4379c-.04776.716.26247,1.18374,1.44384,2.148,1.59833,1.3418,3.1725,2.67237,4.74724,4.00294q2.35686,1.99236,4.71838,3.97938a3.05156,3.05156,0,0,1,1.05691,3.32054c-.88881,3.37658-1.74108,6.75669-2.59451,10.13917l-.81215,3.215a1.6169,1.6169,0,0,0,.17811,1.23619,1.317,1.317,0,0,0,.84519.60394,2.343,2.343,0,0,0,1.93218-.46653c1.6107-1.02387,3.27334-2.05247,4.93718-3.08227,1.89854-1.17427,3.79888-2.35031,5.67678-3.55351a3.88994,3.88994,0,0,1,2.06841-.6753,3.71775,3.71775,0,0,1,2.03007.65643C68.78453,63.28464,71.90338,65.241,74.919,67.133l1.92747,1.21026a1.79456,1.79456,0,0,0,1.99234.16867,1.6547,1.6547,0,0,0,.58447-1.9935l-.48893-2.0165c-.81275-3.35711-1.65321-6.82866-2.545-10.23474a3.95222,3.95222,0,0,1,1.41671-4.3875c2.34088-1.85432,4.65584-3.78176,6.89412-5.64552q1.53671-1.27841,3.08051-2.55557l.00882-.0071c.71248-.58034.69124-.87762.68-1.03744l-.00529-.07491.0006-.07489a1.53858,1.53858,0,0,0-1.06225-1.665,7.40884,7.40884,0,0,0-1.41079-.20643Z"/><path class="cls-1" d="M107.96995,54.10224l-2.587-7.99356,2.14528-8.12328a8.18541,8.18541,0,0,0-2.72527-8.42069l-6.498-5.32595L95.71784,16.2452a8.18538,8.18538,0,0,0-6.8452-5.61054l-8.34591-.96738-6.498-5.32595a8.18534,8.18534,0,0,0-8.79185-1.01908l-7.544,3.69831-8.34591-.96738A8.18538,8.18538,0,0,0,41.39982,9.9491l-4.347,7.18985-7.544,3.69831a8.18538,8.18538,0,0,0-4.57926,7.574l.23022,8.39862-4.347,7.18983a8.18539,8.18539,0,0,0,.24251,8.84739l4.7343,6.94092.2302,8.39862a8.18538,8.18538,0,0,0,4.98727,7.31179L38.74236,78.778l4.7343,6.94092a8.18538,8.18538,0,0,0,8.1486,3.45473l8.28039-1.42311L67.64094,91.03a8.18541,8.18541,0,0,0,8.72283-1.49914l6.1965-5.67391,8.28037-1.42311a8.1854,8.1854,0,0,0,6.5276-5.97709l2.1453-8.12328,6.1965-5.67391A8.18537,8.18537,0,0,0,107.96995,54.10224ZM64,79.56059A32.47758,32.47758,0,1,1,96.47757,47.083,32.47759,32.47759,0,0,1,64,79.56059Z"/><path class="cls-2" d="M54.63113,34.45151l.02048-.0014c.03971-.07307.08408-.18027.11356-.25209L58.087,26.11174A22.27718,22.27718,0,0,0,45.61816,35.0283q.351-.02324.70241-.04639C49.04412,34.80134,51.86012,34.61456,54.63113,34.45151Z"/><path class="cls-2" d="M73.93857,34.70221l.04034.00186c2.8641.15031,5.75235.37147,8.58662.60089A22.28212,22.28212,0,0,0,70.1757,26.18634c1.04219,2.60756,2.12453,5.32975,3.17087,8.0019C73.5436,34.68669,73.56594,34.68763,73.93857,34.70221Z"/><path class="cls-2" d="M79.70678,52.22466c-.46571.38784-.56624.57788-.39094,1.30282.69743,2.665,1.35884,5.34982,2,7.98778a22.14721,22.14721,0,0,0,4.9295-13.95892c0-.2238-.0103-.4451-.01687-.66731C84.1108,48.65207,81.92886,50.46391,79.70678,52.22466Z"/><path class="cls-2" d="M48.60446,52.339a.93915.93915,0,0,0-.10425-.10022q-2.328-1.95423-4.64752-3.91948l-.43748-.36953q-.81661-.69-1.63556-1.38114c-.01433.32774-.025.65645-.025.98772a22.14223,22.14223,0,0,0,4.61089,13.55347c.71911-2.84711,1.45722-5.75615,2.21346-8.63A.84277.84277,0,0,0,48.60446,52.339Z"/><path class="cls-2" d="M63.72947,63.68306a1.10225,1.10225,0,0,0-.457.20912c-1.92429,1.2327-3.84393,2.4201-5.70058,3.56841l-.05026.03118q-.696.43061-1.4023.8686a22.27128,22.27128,0,0,0,15.33083.15864c-2.435-1.52992-4.91061-3.09315-7.33407-4.66624A.92947.92947,0,0,0,63.72947,63.68306Z"/></svg>