<?xml version="1.0" encoding="UTF-8"?>
<svg width="28px" height="28px" viewBox="0 0 28 28" version="1.1" xmlns="http://www.w3.org/2000/svg" xmlns:xlink="http://www.w3.org/1999/xlink">
    <!-- Generator: Sketch 53.2 (72643) - https://sketchapp.com -->
    <title>Group 7</title>
    <desc>Created with Sketch.</desc>
    <g id="Page-1" stroke="none" stroke-width="1" fill="none" fill-rule="evenodd">
        <g id="Group-7" transform="translate(0.000000, 0.000000)" fill="#37B667" fill-rule="nonzero">
            <path d="M23.3352,27.40486 L4.06938,27.40486 C1.82294,27.4022 0.00252,25.58178 -9.05941988e-14,23.33534 L-9.05941988e-14,4.06938 C0.00252,1.82294 1.82294,0.00252 4.06938,-2.13162821e-14 L19.4642,-2.13162821e-14 C20.0774,-2.13162821e-14 20.5744,0.49686 20.5744,1.10978 C20.5744,1.72284 20.0774,2.2197 19.4642,2.2197 L4.06938,2.2197 C3.0478,2.2197 2.2197,3.0478 2.2197,4.06938 L2.2197,23.33534 C2.2197,24.35692 3.0478,25.18516 4.06938,25.18516 L23.3352,25.18516 C24.3572,25.18516 25.1846,24.35692 25.1846,23.33534 L25.1846,7.79758 C25.1846,7.18466 25.6816,6.68766 26.2948,6.68766 C26.908,6.68766 27.405,7.18466 27.405,7.79758 L27.405,23.33534 C27.4022,25.58178 25.5822,27.4022 23.3352,27.40486 Z" id="Path"></path>
            <path d="M11.2518,19.83016 C11.0012,19.83044 10.7814,19.6686 10.7058,19.4306 C10.6624,19.29494 10.6288,19.15648 10.605,19.0162 C10.3516,19.30754 10.0408,19.54498 9.69402,19.71452 C9.31098,19.89708 8.8907,19.98766 8.46664,19.97912 C7.70336,19.97912 7.09716,19.77164 6.64832,19.35668 C6.19948,18.94172 5.97534,18.37836 5.97604,17.66688 C5.97604,16.93748 6.26892,16.37356 6.85454,15.97526 C7.4403,15.57696 8.30018,15.37634 9.43404,15.37326 L10.507,15.37326 L10.507,14.61012 C10.507,14.2359 10.3992,13.94554 10.1836,13.7389 C9.968,13.5324 9.64838,13.42908 9.226,13.42908 C9.00942,13.42614 8.79368,13.45414 8.58508,13.51238 C8.5148,13.53338 8.44942,13.5555 8.38894,13.57902 C8.232,13.64202 8.11916,13.78216 8.09116,13.9489 L8.0717,14.05992 C8.02564,14.3402 7.78344,14.54614 7.49924,14.54642 L6.99062,14.54642 C6.8362,14.54642 6.68822,14.48496 6.57916,14.37562 C6.47024,14.26628 6.4092,14.11802 6.40976,13.96374 L6.40976,13.5863 C6.40934,13.07642 6.70376,12.61204 7.16534,12.39518 C7.34664,12.31062 7.53718,12.23264 7.73696,12.1611 C8.25888,11.97938 8.80838,11.88922 9.36096,11.89482 C10.3264,11.89482 11.109,12.13128 11.7124,12.6042 C12.3144,13.07712 12.6154,13.75038 12.6154,14.62412 L12.6154,17.84258 C12.6154,17.96284 12.6154,18.07568 12.6154,18.1811 C12.6182,18.28232 12.6252,18.3834 12.6406,18.4835 L12.7778,18.50198 C13.0662,18.5409 13.2818,18.78674 13.2818,19.07724 L13.2818,19.2493 C13.2818,19.57004 13.0214,19.83016 12.7008,19.83016 L11.2518,19.83016 Z M9.03168,18.42624 C9.51916,18.4317 9.989,18.24312 10.3362,17.9018 C10.4426,17.79386 10.5028,17.64812 10.5014,17.49664 L10.5014,17.09904 C10.5014,16.7783 10.241,16.51818 9.9204,16.51818 L9.43404,16.51818 C8.98772,16.51818 8.6485,16.62276 8.41666,16.83178 C8.19588,17.01924 8.06918,17.2949 8.07086,17.58456 C8.05812,17.81906 8.15192,18.0467 8.32608,18.2042 C8.49688,18.35218 8.73334,18.42624 9.03546,18.42624 L9.03168,18.42624 Z" id="Shape"></path>
            <path d="M13.7732,9.29054 C13.7732,8.9075 14.084,8.59684 14.4662,8.59684 L16.3044,8.59684 C16.688,8.59684 16.9974,8.9075 16.9974,9.29054 L16.9974,18.35428 L17.4608,18.45326 C17.7814,18.5213 18.0096,18.80438 18.0096,19.13212 C18.0096,19.51516 17.6988,19.82568 17.3166,19.82568 L14.5754,19.82568 C14.1918,19.82568 13.881,19.51516 13.881,19.13212 C13.881,18.80494 14.1078,18.52158 14.4284,18.45228 L14.8904,18.3533 L14.8904,10.08224 L14.336,9.9722 C14.0084,9.9092 13.7732,9.62318 13.7732,9.29054 Z" id="Path"></path>
            <path d="M21.8008,10.49244 L21.8008,12.03888 L22.8074,12.03888 C23.0062,12.03888 23.1686,12.20072 23.1686,12.4005 L23.1686,13.15244 C23.1686,13.35208 23.0062,13.51406 22.8074,13.51406 L21.8008,13.51406 L21.8008,17.48082 C21.8008,17.78294 21.8624,17.99868 21.9856,18.12818 C22.1186,18.26118 22.302,18.33174 22.4896,18.3225 C22.6156,18.32348 22.743,18.3176 22.8676,18.30486 C23.0678,18.28092 23.2484,18.42218 23.2736,18.62112 L23.3716,19.45356 C23.394,19.63472 23.2778,19.80356 23.1,19.84752 C22.9698,19.87902 22.8396,19.90492 22.7094,19.92522 C22.4616,19.96246 22.211,19.98038 21.9604,19.97884 C21.2352,19.97884 20.678,19.77976 20.2874,19.38146 C19.8954,18.98316 19.7008,18.35204 19.7008,17.48824 L19.7008,13.51126 L18.9224,13.51126 C18.7222,13.51126 18.5612,13.34942 18.5612,13.14964 L18.5612,12.3977 C18.5612,12.19806 18.7222,12.03608 18.9224,12.03608 L19.705,12.03608 L19.705,10.49244 C19.705,10.2928 19.8674,10.13082 20.0662,10.13082 L21.4368,10.13082 C21.5334,10.1304 21.6258,10.1682 21.6944,10.2361 C21.763,10.304 21.8008,10.39626 21.8008,10.49244 Z" id="Path"></path>
        </g>
    </g>
</svg>