<?xml version="1.0" encoding="UTF-8"?>
<svg width="20px" height="16px" viewBox="0 0 20 16" version="1.1" xmlns="http://www.w3.org/2000/svg" xmlns:xlink="http://www.w3.org/1999/xlink">
    <!-- Generator: Sketch 53.2 (72643) - https://sketchapp.com -->
    <title>email</title>
    <desc>Created with Sketch.</desc>
    <g id="Page-1" stroke="none" stroke-width="1" fill="none" fill-rule="evenodd">
        <g id="email" fill="#21345D" fill-rule="nonzero">
            <path d="M18,0 L2,0 C0.9,0 0.01,0.9 0.01,2 L0,14 C0,15.1 0.9,16 2,16 L18,16 C19.1,16 20,15.1 20,14 L20,2 C20,0.9 19.1,0 18,0 Z M17.6,4.25 L10.53,8.67 C10.21,8.87 9.79,8.87 9.47,8.67 L2.4,4.25 C2.15,4.09 2,3.82 2,3.53 C2,2.86 2.73,2.46 3.3,2.81 L10,7 L16.7,2.81 C17.27,2.46 18,2.86 18,3.53 C18,3.82 17.85,4.09 17.6,4.25 Z" id="🔹Icon-Color"></path>
        </g>
    </g>
</svg>