<svg width="32" height="32" viewBox="0 0 32 32" fill="none" xmlns="http://www.w3.org/2000/svg">
<g clip-path="url(#clip0_200_1742)">
<path d="M15.9999 0C24.837 0 32 7.164 32 16.0001C32 24.8371 24.837 32 15.9999 32C7.1629 32 0 24.837 0 16.0001C0 7.164 7.16301 0 15.9999 0Z" fill="#536784"/>
<path d="M17.9483 11.0149H20.0103V7.96893H17.5863V7.97992C14.6493 8.08394 14.0473 9.73492 13.9943 11.4689H13.9882V12.99H11.9883V15.9729H13.9882V23.9689H17.0023V15.9729H19.4713L19.9482 12.99H17.0033V12.071C17.0033 11.485 17.3932 11.0149 17.9483 11.0149Z" fill="white"/>
</g>
<defs>
<clipPath id="clip0_200_1742">
<rect width="32" height="32" fill="white"/>
</clipPath>
</defs>
</svg>
