<svg width="32" height="32" viewBox="0 0 32 32" fill="none" xmlns="http://www.w3.org/2000/svg">
<path d="M16 0C7.16429 0 0 7.34325 0 16.408C0 23.6584 4.58571 29.8016 10.9429 31.9731C11.7429 32.1231 12.0357 31.616 12.0357 31.1802C12.0357 30.7873 12.0214 29.7587 12.0143 28.3872C7.56429 29.3801 6.62143 26.1871 6.62143 26.1871C5.89286 24.2941 4.84286 23.787 4.84286 23.787C3.39286 22.7655 4.95 22.7869 4.95 22.7869C6.55714 22.9012 7.4 24.4799 7.4 24.4799C8.82857 26.9871 11.1429 26.2657 12.0571 25.8442C12.2 24.787 12.6143 24.0584 13.0714 23.6512C9.52143 23.2369 5.78571 21.8297 5.78571 15.5437C5.78571 13.7507 6.40714 12.2864 7.42857 11.1434C7.26429 10.7291 6.71429 9.05762 7.58571 6.80036C7.58571 6.80036 8.92857 6.35748 11.9857 8.47902C13.2643 8.11471 14.6286 7.93613 15.9929 7.92899C17.35 7.93613 18.7214 8.11471 20 8.47902C23.0571 6.35748 24.3929 6.80036 24.3929 6.80036C25.2643 9.05762 24.7143 10.7291 24.55 11.1434C25.5714 12.2935 26.1929 13.7579 26.1929 15.5437C26.1929 21.844 22.45 23.2298 18.8857 23.637C19.4571 24.1441 19.9714 25.1442 19.9714 26.6728C19.9714 28.8658 19.95 30.6373 19.95 31.1731C19.95 31.6088 20.2357 32.1231 21.05 31.9588C27.4214 29.7944 32 23.6513 32 16.408C32 7.34325 24.8357 0 16 0Z" fill="#191C3C"/>
</svg>
