<?xml version="1.0" encoding="UTF-8"?>
<svg width="20px" height="20px" viewBox="0 0 20 20" version="1.1" xmlns="http://www.w3.org/2000/svg" xmlns:xlink="http://www.w3.org/1999/xlink">
    <!-- Generator: Sketch 53.2 (72643) - https://sketchapp.com -->
    <title>github</title>
    <desc>Created with Sketch.</desc>
    <g id="Page-1" stroke="none" stroke-width="1" fill="none" fill-rule="evenodd">
        <g id="github" fill="#21345D" fill-rule="nonzero">
            <path d="M10.0000828,0 C4.47791348,0 0,4.47708548 0,10.0000828 C0,14.4183813 2.8653281,18.1668392 6.83866695,19.4891327 C7.33843924,19.5817015 7.52192094,19.2722004 7.52192094,19.0080729 C7.52192094,18.7696129 7.51264748,17.9818671 7.50834195,17.1462637 C4.72630926,17.7511902 4.13926724,15.9663837 4.13926724,15.9663837 C3.68437175,14.8105155 3.02893813,14.503167 3.02893813,14.503167 C2.12163113,13.8825088 3.09732973,13.8952598 3.09732973,13.8952598 C4.10151109,13.9658041 4.63026289,14.9257711 4.63026289,14.9257711 C5.52216934,16.4545643 6.96965432,16.0125854 7.54030223,15.7570689 C7.6300559,15.1107431 7.88921555,14.6695922 8.1752018,14.4198716 C5.9540468,14.1670047 3.61912648,13.3095425 3.61912648,9.47778922 C3.61912648,8.38600695 4.00977022,7.49393502 4.64947216,6.79362451 C4.54564272,6.54175119 4.20335335,5.52465328 4.74634652,4.14721591 C4.74634652,4.14721591 5.58608985,3.87845166 7.49708134,5.17226246 C8.29476305,4.95069344 9.15023805,4.83957773 10.0000828,4.835769 C10.8499276,4.83957773 11.706065,4.95069344 12.505237,5.17226246 C14.4139102,3.87845166 15.2524942,4.14721591 15.2524942,4.14721591 C15.7968123,5.52465328 15.4543573,6.54175119 15.3505278,6.79362451 C15.9917202,7.49393502 16.3797143,8.38600695 16.3797143,9.47778922 C16.3797143,13.3186504 14.0403229,14.1643552 11.8135376,14.411923 C12.1722211,14.7222522 12.4918236,15.3308217 12.4918236,16.2637963 C12.4918236,17.6018216 12.4802319,18.6787001 12.4802319,19.0080729 C12.4802319,19.2741876 12.6602359,19.586007 13.1671289,19.4878079 C17.138315,18.164024 20,14.4168909 20,10.0000828 C20,4.47708548 15.522749,0 10.0000828,0 Z M3.7453562,14.2453291 C3.72333176,14.2950082 3.64516988,14.309912 3.5739631,14.275799 C3.50143152,14.2431763 3.46069464,14.175447 3.48420944,14.1256023 C3.50573706,14.0744327 3.58406453,14.0601914 3.65643049,14.09447 C3.72912767,14.1270927 3.77052696,14.1954843 3.7453562,14.2453291 Z M4.23724916,14.6842386 C4.18955717,14.728453 4.09632596,14.707919 4.03306783,14.638037 C3.96765694,14.5683206 3.95540276,14.4750894 4.00375713,14.4302125 C4.05293948,14.385998 4.14335556,14.4066977 4.20893205,14.4764141 C4.27434291,14.5469585 4.2870939,14.6395273 4.23724916,14.6842386 Z M4.57470635,15.2458084 C4.51343541,15.2883669 4.41324911,15.2484579 4.35131576,15.1595323 C4.29004479,15.0706066 4.29004479,14.963962 4.35264055,14.9212379 C4.41473946,14.8785138 4.51343541,14.9169324 4.57619673,15.0051957 C4.6373021,15.0956117 4.6373021,15.2022562 4.57470635,15.2458084 Z M5.14541869,15.8961855 C5.09060602,15.9566286 4.97386002,15.9404 4.88841185,15.8579327 C4.80097655,15.7772867 4.77663377,15.6628591 4.83161204,15.6024161 C4.88708708,15.5418076 5.00449548,15.5588641 5.09060602,15.6406691 C5.17737895,15.7211494 5.2038745,15.836405 5.14541869,15.8961855 Z M5.88300899,16.1157455 C5.85883183,16.194073 5.74639133,16.2296763 5.63312284,16.1963913 C5.52001997,16.1621127 5.44599803,16.070372 5.46885045,15.9912165 C5.49236523,15.9123923 5.60530251,15.8752984 5.71939898,15.9109018 C5.83233626,15.9450148 5.90652381,16.0360933 5.88300899,16.1157455 Z M6.72241773,16.2088771 C6.72523286,16.2913445 6.62918649,16.3597361 6.51028773,16.3612266 C6.39072656,16.3638761 6.29401781,16.2971405 6.29269303,16.2159978 C6.29269303,16.1327024 6.38658663,16.0649732 6.50614779,16.062986 C6.62504658,16.0606677 6.72241773,16.1269065 6.72241773,16.2088771 Z M7.54704274,16.1772674 C7.56128411,16.2577477 7.4786511,16.3403806 7.36058031,16.3624051 C7.2444967,16.3836015 7.13702411,16.3339223 7.12228596,16.2541045 C7.10787902,16.1716371 7.19200239,16.0890041 7.30792041,16.0676422 C7.4261568,16.0471081 7.53197341,16.0954624 7.54704274,16.1772674 Z" id="Shape"></path>
        </g>
    </g>
</svg>