<?xml version="1.0" encoding="UTF-8"?>
<svg width="32px" height="32px" viewBox="0 0 32 32" version="1.1" xmlns="http://www.w3.org/2000/svg" xmlns:xlink="http://www.w3.org/1999/xlink">
    <title>F4626990-B843-4C6D-B558-3A2CB9F37A41</title>
    <g id="Landing-Page" stroke="none" stroke-width="1" fill="none" fill-rule="evenodd">
        <g transform="translate(-1052.000000, -9101.000000)" fill="#536784" fill-rule="nonzero" id="211904_social_github_icon">
            <g transform="translate(1052.000000, 9101.000000)">
                <path d="M16,0 C7.16428571,0 0,7.34324516 0,16.4080098 C0,23.658393 4.58571429,29.8015747 10.9428571,31.973118 C11.7428571,32.1231259 12.0357143,31.6159563 12.0357143,31.180219 C12.0357143,30.7873411 12.0214286,29.7587153 12.0142857,28.3872143 C7.56428571,29.3801239 6.62142857,26.187098 6.62142857,26.187098 C5.89285714,24.2941408 4.84285714,23.7869712 4.84285714,23.7869712 C3.39285714,22.7654886 4.95,22.7869183 4.95,22.7869183 C6.55714286,22.9012101 7.4,24.4798649 7.4,24.4798649 C8.82857143,26.9871403 11.1428571,26.2656736 12.0571429,25.8442227 C12.2,24.787024 12.6142857,24.0584141 13.0714286,23.6512497 C9.52142857,23.2369421 5.78571429,21.8297249 5.78571429,15.5436785 C5.78571429,13.7507266 6.40714286,12.2863635 7.42857143,11.143446 C7.26428571,10.7291384 6.71428571,9.05762146 7.58571429,6.80035933 C7.58571429,6.80035933 8.92857143,6.35747878 11.9857143,8.47901946 C13.2642857,8.11471449 14.6285714,7.93613363 15.9928571,7.92899039 C17.35,7.93613363 18.7214286,8.11471449 20,8.47901946 C23.0571429,6.35747878 24.3928571,6.80035933 24.3928571,6.80035933 C25.2642857,9.05762146 24.7142857,10.7291384 24.55,11.143446 C25.5714286,12.2935067 26.1928571,13.7578698 26.1928571,15.5436785 C26.1928571,21.8440114 22.45,23.2297989 18.8857143,23.6369633 C19.4571429,24.1441329 19.9714286,25.1441857 19.9714286,26.672838 C19.9714286,28.865811 19.95,30.6373331 19.95,31.1730757 C19.95,31.6088131 20.2357143,32.1231259 21.05,31.9588315 C27.4214286,29.7944315 32,23.6512497 32,16.4080098 C32,7.34324516 24.8357143,0 16,0 Z" id="Path"></path>
            </g>
        </g>
    </g>
</svg>