<svg xmlns="http://www.w3.org/2000/svg" width="48" height="48"><path d="M24 4C12.945 4 4 12.945 4 24s8.945 20 20 20 20-8.945 20-20S35.055 4 24 4zm0 0" fill="#ff3d00"/><path d="M24 8C15.145 8 8 15.145 8 24s7.145 16 16 16 16-7.145 16-16S32.855 8 24 8zm0 28c-6.656 0-12-5.344-12-12s5.344-12 12-12 12 5.344 12 12-5.344 12-12 12zm0-20c-4.453 0-8 3.547-8 8 0 4.453 3.547 8 8 8 4.453 0 8-3.547 8-8 0-4.453-3.547-8-8-8zm0 12c-2.266 0-4-1.734-4-4s1.734-4 4-4 4 1.734 4 4-1.734 4-4 4zm0 0" fill="#fff"/><path d="M43 9s-.602 2.3-2.2 3.8c-1.6 1.598-8 2.4-8 2.4s.802-6.5 2.4-8C36.7 5.601 39 5 39 5v4zm0 0" fill="#1976d2"/><path d="M42.7 5.3a.961.961 0 0 0-1.4 0l-18 18a.961.961 0 0 0 0 1.4c.2.198.5.3.7.3.2 0 .5-.102.7-.3l18-18a.961.961 0 0 0 0-1.4zm0 0" fill="#37474f"/><path d="M38.977 7.727L40.39 9.14l-5.868 5.87-1.414-1.413zm0 0" fill="#42a5f5"/></svg>