<?xml version="1.0" encoding="UTF-8"?>
<svg width="48px" height="48px" viewBox="0 0 48 48" version="1.1" xmlns="http://www.w3.org/2000/svg" xmlns:xlink="http://www.w3.org/1999/xlink">
    <!-- Generator: Sketch 53.2 (72643) - https://sketchapp.com -->
    <title>Group 5</title>
    <desc>Created with Sketch.</desc>
    <g id="Landing-Page" stroke="none" stroke-width="1" fill="none" fill-rule="evenodd">
        <g id="Artboard" transform="translate(-988.000000, -450.000000)">
            <g id="Group-5" transform="translate(989.000000, 451.000000)">
                <circle id="Oval-Copy" stroke="#F3F5F7" fill="#FFFFFF" cx="23" cy="23" r="23"></circle>
                <g id="html" transform="translate(9.000000, 7.000000)" fill-rule="nonzero">
                    <polygon id="Path" fill="#FF5722" points="0 0 2.55 28.8 14 32 25.446 28.802 28 0"></polygon>
                    <polygon id="Path" fill="#FAFAFA" points="22.47 9.418 14 9.418 9.05 9.418 9.37 13.036 14 13.036 22.15 13.036 21.188 23.884 14 25.89 13.994 25.892 6.81 23.884 6.308 18.21 9.828 18.21 10.09 21.154 13.996 22.216 14 22.214 14 22.214 17.91 21.152 18.318 16.57 14 16.57 14 16.57 6.164 16.57 5.216 5.888 14 5.888 22.782 5.888"></polygon>
                </g>
            </g>
        </g>
    </g>
</svg>