<svg xmlns="http://www.w3.org/2000/svg" width="48" height="48"><path d="M25 6l9 4-9 4zm0 0" fill="#ff3d00"/><path d="M23 4h2v15h-2zm0 0" fill="#5d4037"/><path d="M48 44H24l7.61-13.316L34 32h6l1.352.363zm0 0" fill="#90a4ae"/><path d="M41.352 32.363L41 35.793l-4-3.078-3 3.078-2.39-5.11 3.527-6.175a.989.989 0 0 1 1.726 0zm0 0" fill="#b3e5fc"/><path d="M0 44h24l-7.61-13.316L14 32H8l-1.352.363zm0 0" fill="#90a4ae"/><path d="M6.648 32.363L7 35.793l4-3.078 3 3.078 2.39-5.11-3.527-6.175a.989.989 0 0 0-1.726 0zm0 0" fill="#b3e5fc"/><path d="M40 44H8l6.84-11.852L18 30h12l3.16 2.148zm0 0" fill="#546e7a"/><path d="M23 6h2v8h-2zm0 0" fill="#dd2c00"/><path d="M33.16 32.148L31 34l-3.5-3-3.5 3-3.5-3-3.5 3-2.16-1.852.11-.199 7.32-12.71c.949-1.65 2.511-1.65 3.46 0l7.32 12.71zm0 0" fill="#81d4fa"/></svg>