<?xml version="1.0" encoding="UTF-8"?>
<svg width="48px" height="48px" viewBox="0 0 48 48" version="1.1" xmlns="http://www.w3.org/2000/svg" xmlns:xlink="http://www.w3.org/1999/xlink">
    <!-- Generator: Sketch 53.2 (72643) - https://sketchapp.com -->
    <title>Group 2</title>
    <desc>Created with Sketch.</desc>
    <g id="Landing-Page" stroke="none" stroke-width="1" fill="none" fill-rule="evenodd">
        <g id="Artboard" transform="translate(-1115.000000, -450.000000)">
            <g id="Group-2" transform="translate(1116.000000, 451.000000)">
                <circle id="Oval" stroke="#F7DF1E" fill="#F7DF1E" cx="23" cy="23" r="23"></circle>
                <g id="js" transform="translate(7.000000, 12.000000)" fill="#000000" fill-rule="nonzero">
                    <path d="M19.8456973,15.9525223 C20.7952522,17.5667656 22.1246291,18.7062315 24.3086053,18.7062315 C26.2077151,18.7062315 27.4421365,17.7566766 27.4421365,16.4272997 C27.4421365,14.9080119 26.2077151,14.3382789 24.1186944,13.388724 L22.9792285,12.9139466 C19.6557864,11.4896142 17.4718101,9.78041543 17.4718101,6.07715134 C17.4718101,2.65875371 20.0356083,0 24.1186944,0 C27.0623145,0 29.1513353,1.04451039 30.5756677,3.70326409 L27.0623145,5.98219585 C26.3026706,4.5578635 25.4480712,3.98813056 24.1186944,3.98813056 C22.7893175,3.98813056 21.9347181,4.84272997 21.9347181,5.98219585 C21.9347181,7.3115727 22.7893175,7.88130564 24.7833828,8.73590504 L25.9228487,9.21068249 C29.8160237,10.9198813 32,12.5341246 32,16.4272997 C32,20.5103858 28.7715134,22.7893175 24.4035608,22.7893175 C20.1305638,22.7893175 17.3768546,20.7952522 16.0474777,18.1364985 L19.8456973,15.9525223 Z M3.70326409,16.3323442 C4.46290801,17.5667656 5.03264095,18.7062315 6.64688427,18.7062315 C8.16617211,18.7062315 9.115727,18.1364985 9.115727,15.8575668 L9.115727,0.0949554896 L13.6735905,0.0949554896 L13.6735905,15.6676558 C13.6735905,20.4154303 10.9198813,22.504451 6.83679525,22.504451 C3.13353116,22.504451 1.04451039,20.6053412 0,18.3264095 L3.70326409,16.3323442 Z" id="Shape"></path>
                </g>
            </g>
        </g>
    </g>
</svg>