<?xml version="1.0" encoding="UTF-8"?>
<svg width="32px" height="32px" viewBox="0 0 32 32" version="1.1" xmlns="http://www.w3.org/2000/svg" xmlns:xlink="http://www.w3.org/1999/xlink">
    <title>700914FC-179A-41C0-BFA9-93C4B5375C7F</title>
    <g id="Landing-Page" stroke="none" stroke-width="1" fill="none" fill-rule="evenodd">
        <g transform="translate(-1156.000000, -9101.000000)" fill="#536784" id="5279114_linkedin_network_social-network_linkedin-logo_icon">
            <g transform="translate(1156.000000, 9101.000000)">
                <path d="M16,0 C24.830625,0 32,7.169375 32,16 C32,24.830625 24.830625,32 16,32 C7.169375,32 0,24.830625 0,16 C0,7.169375 7.169375,0 16,0 Z M10.9976875,24.9919375 L10.9976875,12.496875 L6.8436875,12.496875 L6.8436875,24.9919375 L10.9976875,24.9919375 Z M25.9739375,24.9919375 L25.9739375,17.8265625 C25.9739375,13.9885 23.92475,12.2030625 21.192125,12.2030625 C18.9886875,12.2030625 18.0016875,13.414875 17.4490625,14.266 L17.4490625,12.496875 L13.296125,12.496875 C13.3511875,13.6691875 13.296125,24.9919375 13.296125,24.9919375 L17.449,24.9919375 L17.449,18.0138125 C17.449,17.6403125 17.475875,17.2669375 17.5859375,17 C17.885625,16.2540625 18.5695,15.4813125 19.716875,15.4813125 C21.219,15.4813125 21.8208125,16.6275625 21.8208125,18.3065625 L21.8208125,24.9919375 L25.9739375,24.9919375 L25.9739375,24.9919375 Z M8.94875,6.471875 C7.5275,6.471875 6.5989375,7.40625 6.5989375,8.6309375 C6.5989375,9.8298125 7.49925,10.7899375 8.89375,10.7899375 L8.9205625,10.7899375 C10.369,10.7899375 11.2705625,9.8298125 11.2705625,8.6309375 C11.2436875,7.40625 10.3690625,6.471875 8.94875,6.471875 Z" id="Shape"></path>
            </g>
        </g>
    </g>
</svg>