<?xml version="1.0" encoding="UTF-8"?>
<svg width="20px" height="20px" viewBox="0 0 20 20" version="1.1" xmlns="http://www.w3.org/2000/svg" xmlns:xlink="http://www.w3.org/1999/xlink">
    <!-- Generator: Sketch 53.2 (72643) - https://sketchapp.com -->
    <title>linkedin-[#161]</title>
    <desc>Created with Sketch.</desc>
    <g id="Page-1" stroke="none" stroke-width="1" fill="none" fill-rule="evenodd">
        <g id="linkedin" fill="#2C7FBA" fill-rule="nonzero">
            <path d="M20,20 L16,20 L16,13.001 C16,11.081 15.153,10.01 13.634,10.01 C11.981,10.01 11,11.126 11,13.001 L11,20 L7,20 L7,7 L11,7 L11,8.462 C11,8.462 12.255,6.26 15.083,6.26 C17.912,6.26 20,7.986 20,11.558 L20,20 L20,20 Z M2.442,4.921 C1.093,4.921 0,3.819 0,2.46 C0,1.102 1.093,0 2.442,0 C3.79,0 4.883,1.102 4.883,2.46 C4.884,3.819 3.79,4.921 2.442,4.921 L2.442,4.921 Z M0,20 L5,20 L5,7 L0,7 L0,20 Z" id="linkedin-[#161]"></path>
        </g>
    </g>
</svg>