<svg width="32" height="32" viewBox="0 0 32 32" fill="none" xmlns="http://www.w3.org/2000/svg">
<g id="5279114_linkedin_network_social network_linkedin logo_icon">
<path id="Shape" fill-rule="evenodd" clip-rule="evenodd" d="M16 0C24.8306 0 32 7.16938 32 16C32 24.8306 24.8306 32 16 32C7.16938 32 0 24.8306 0 16C0 7.16938 7.16938 0 16 0ZM10.9977 24.9919V12.4969H6.84369V24.9919H10.9977ZM25.9739 24.9919V17.8266C25.9739 13.9885 23.9248 12.2031 21.1921 12.2031C18.9887 12.2031 18.0017 13.4149 17.4491 14.266V12.4969H13.2961C13.3512 13.6692 13.2961 24.9919 13.2961 24.9919H17.449V18.0138C17.449 17.6403 17.4759 17.2669 17.5859 17C17.8856 16.2541 18.5695 15.4813 19.7169 15.4813C21.219 15.4813 21.8208 16.6276 21.8208 18.3066V24.9919H25.9739ZM8.94845 6.47192C7.5272 6.47192 6.59863 7.4063 6.59863 8.63099C6.59863 9.82986 7.49895 10.79 8.89345 10.79H8.92026C10.3687 10.79 11.2703 9.82986 11.2703 8.63099C11.2434 7.4063 10.3688 6.47192 8.94845 6.47192Z" fill="#191C3C"/>
</g>
</svg>
