<?xml version="1.0" encoding="UTF-8"?>
<svg width="156px" height="45px" viewBox="0 0 156 45" version="1.1" xmlns="http://www.w3.org/2000/svg" xmlns:xlink="http://www.w3.org/1999/xlink">
    <!-- Generator: Sketch 53.2 (72643) - https://sketchapp.com -->
    <title>MongoDB-01</title>
    <desc>Created with Sketch.</desc>
    <g id="Landing-Page" stroke="none" stroke-width="1" fill="none" fill-rule="evenodd">
        <g transform="translate(-807.000000, -2403.000000)" fill-rule="nonzero" id="MongoDB-01">
            <g transform="translate(807.000000, 2403.000000)">
                <path d="M145.54631,19.4773218 C145.419854,19.5183585 145.251246,19.8056156 145.251246,19.9697624 C145.209094,21.0367171 145.209094,23.9092873 145.209094,25.8790497 C145.209094,25.9200864 145.293398,26.0431965 145.377702,26.0431965 C145.799222,26.0842333 146.810869,26.0842333 147.653909,26.0842333 C148.834164,26.0842333 149.550748,25.9200864 149.930115,25.7559395 C150.941763,25.2634989 151.405434,24.1965443 151.405434,23.0475162 C151.405434,20.4211663 149.508596,19.4362851 146.726565,19.4362851 C146.515805,19.3952484 145.967829,19.3952484 145.54631,19.4773218 Z M152.712146,31.5831533 C152.712146,28.9157667 150.688851,27.4384449 147.021629,27.4384449 C146.853021,27.4384449 145.672766,27.3974082 145.419854,27.4794816 C145.33555,27.5205184 145.209094,27.5615551 145.209094,27.6436285 C145.209094,29.5723542 145.166942,32.6090713 145.251246,33.7991361 C145.293398,34.3326134 145.714918,35.0302376 146.178589,35.2764579 C146.684413,35.5637149 147.822516,35.6047516 148.581252,35.6047516 C150.815307,35.5226782 152.712146,34.3326134 152.712146,31.5831533 Z M139.897945,18 C140.193009,18 140.993896,18.0820734 143.143647,18.0820734 C145.166942,18.0820734 146.768717,18.0410367 148.74986,18.0410367 C151.152523,18.0410367 154.482529,18.8617711 154.482529,22.3909287 C154.482529,24.1144708 153.21797,25.5097192 151.616194,26.1663067 C151.53189,26.2073434 151.53189,26.2483801 151.616194,26.2894168 C153.934553,26.8639309 156,28.2591793 156,30.9265659 C156,33.511879 154.313921,35.1533477 151.911258,36.1792657 C150.435939,36.7948164 148.623404,37 146.726565,37 C145.293398,37 141.49972,36.8358531 139.392121,36.8768898 C139.181361,36.7948164 139.602881,35.8099352 139.771489,35.6457883 C140.277313,35.6047516 140.65668,35.6047516 141.204656,35.4406048 C141.963392,35.2354212 142.047696,35.0302376 142.132,33.9222462 C142.174152,32.9784017 142.174152,29.6133909 142.174152,27.2332613 C142.174152,23.950324 142.216303,21.7343413 142.174152,20.6673866 C142.132,19.8466523 141.836936,19.5593952 141.246808,19.3952484 C140.783136,19.3131749 139.982249,19.1900648 139.349969,19.1079914 C139.265665,19.0259179 139.729337,18.1231102 139.897945,18 Z M123.880193,34.825054 C124.554625,35.3585313 125.861336,35.5637149 126.99944,35.5637149 C128.516911,35.5637149 129.99223,35.2764579 131.425397,34.0043197 C132.900717,32.6911447 133.912364,30.7213823 133.912364,27.5205184 C133.912364,24.4838013 132.732109,21.9805616 130.287294,20.5032397 C128.896279,19.6825054 127.125896,19.3131749 125.060449,19.3131749 C124.470321,19.3131749 123.880193,19.3542117 123.500826,19.5183585 C123.416522,19.5593952 123.205762,19.8056156 123.205762,19.9697624 C123.16361,20.5032397 123.16361,24.6889849 123.16361,27.1101512 C123.16361,29.6133909 123.16361,33.1425486 123.205762,33.5529158 C123.247914,33.9222462 123.458674,34.537797 123.880193,34.825054 Z M117.557397,18 C118.105373,18 120.128668,18.0820734 121.098163,18.0820734 C122.826394,18.0820734 124.090953,18 127.42096,18 C130.20299,18 132.521349,18.7386609 134.207428,20.0928726 C136.230723,21.775378 137.284522,24.1555076 137.284522,27.0280778 C137.284522,31.0907127 135.387683,33.4708423 133.448692,34.825054 C131.551853,36.2203024 129.022735,37 125.481969,37 C123.58513,37 120.339427,36.9589633 117.641701,36.9179266 L117.599549,36.9179266 C117.473093,36.6717063 117.810309,35.7278618 118.063221,35.6868251 C118.779804,35.6047516 118.990564,35.5637149 119.32778,35.4406048 C119.917908,35.2354212 120.002212,34.9071274 120.086516,33.9222462 C120.170819,32.075594 120.128668,29.8185745 120.128668,27.2742981 C120.128668,25.4686825 120.170819,21.9395248 120.086516,20.7904968 C120.002212,19.8466523 119.580692,19.600432 118.737652,19.4362851 C118.316133,19.3542117 117.768157,19.2311015 117.009421,19.1490281 C116.925117,18.9848812 117.430941,18.1641469 117.557397,18 Z" id="XMLID_8_" fill="#8E714E"></path>
                <path d="M84.1747817,36.0484848 C83.4982337,35.9636364 82.9908227,35.8363636 82.3565589,35.5818182 C82.2719904,35.5393939 82.1451377,35.2424242 82.1451377,35.1151515 C82.1028534,34.1393939 82.1028534,31.3393939 82.1028534,29.4727273 C82.1028534,27.9454545 81.8491479,26.630303 81.2148842,25.7393939 C80.4537677,24.6787879 79.3966614,24.0424242 78.0012812,24.0424242 C76.7750379,24.0424242 75.1259522,24.8909091 73.7728562,26.0363636 C73.7305719,26.0787879 73.5191507,26.2484848 73.5614349,25.9515152 C73.5614349,25.6545455 73.6037192,25.0181818 73.6460034,24.5939394 C73.6882877,24.2121212 73.4345822,24 73.4345822,24 C72.5466129,24.4666667 70.0518422,25.0181818 69.1215887,25.1030303 C68.4450407,25.230303 68.2759037,25.8666667 68.9947359,26.1212121 L69.0370202,26.1212121 C69.7981367,26.3333333 70.3055477,26.5878788 70.6861059,26.8424242 C70.9820957,27.0545455 70.9398114,27.3939394 70.9398114,27.6060606 C70.9820957,29.6848485 70.9820957,32.9090909 70.8975272,34.6909091 C70.8552429,35.369697 70.6861059,35.6242424 70.1786949,35.7515152 L70.2209792,35.7090909 C69.8404209,35.7939394 69.5444312,35.8787879 69.0370202,35.9212121 C68.8678832,36.0909091 68.8678832,36.9818182 69.0370202,37.1939394 C69.3330099,37.1939394 70.9398114,37.1090909 72.2929074,37.1090909 C74.1111302,37.1090909 75.0836679,37.1939394 75.5487947,37.1939394 C75.7602159,36.9818182 75.8025002,36.1333333 75.6756474,35.9212121 C75.1259522,35.8787879 74.7453939,35.8363636 74.4071199,35.7090909 C73.8997089,35.5818182 73.7728562,35.3272727 73.7305719,34.7757576 C73.6882877,33.2909091 73.6882877,30.1515152 73.6882877,28.030303 C73.6882877,27.4363636 73.8574247,27.1818182 74.0265617,27.0121212 C74.6608254,26.4606061 75.7179317,26.0787879 76.6059009,26.0787879 C77.4938702,26.0787879 78.0858497,26.3757576 78.5086922,26.7151515 C79.1006717,27.2242424 79.3120929,27.9454545 79.3966614,28.4545455 C79.5235142,29.6424242 79.4812299,32.0181818 79.4812299,34.0969697 C79.4812299,35.2 79.3966614,35.4969697 78.9738189,35.6242424 C78.7623977,35.7090909 78.2972709,35.8363636 77.7052914,35.8787879 C77.4938702,36.0909091 77.5784387,36.9393939 77.7052914,37.1515152 C78.5086922,37.1515152 79.4389457,37.0666667 80.8343259,37.0666667 C82.5679802,37.0666667 83.6673707,37.1515152 84.1324974,37.1515152 C84.2170659,37.1090909 84.2593502,36.2606061 84.1747817,36.0484848 L84.1747817,36.0484848 Z M91.8705152,25.4 C90.3905664,25.4 89.4603129,26.5454545 89.4603129,28.3272727 C89.4603129,30.1515152 90.2637137,32.230303 92.5470632,32.230303 C92.9276215,32.230303 93.6464537,32.0606061 93.9847277,31.6787879 C94.534423,31.169697 94.872697,30.1515152 94.872697,29.0909091 C94.9149812,26.8 93.7733065,25.4 91.8705152,25.4 Z M91.659094,37.7454545 C91.1093987,37.7454545 90.7288404,37.9151515 90.4751349,38.0424242 C89.2911759,38.8060606 88.7837649,39.5272727 88.7837649,40.3757576 C88.7837649,41.1818182 89.0797547,41.8181818 89.7563027,42.369697 C90.5597034,43.0484848 91.659094,43.3878788 93.0967585,43.3878788 C95.9298032,43.3878788 97.1983307,41.8606061 97.1983307,40.3333333 C97.1983307,39.2727273 96.6486355,38.5939394 95.5915292,38.169697 C94.7881285,37.9151515 93.3927482,37.7454545 91.659094,37.7454545 Z M91.8705152,45 C90.1791452,45 88.9529019,44.6181818 87.8957957,43.8121212 C86.8809737,43.0484848 86.4158469,41.8606061 86.4158469,41.0545455 C86.4158469,40.8424242 86.4581312,40.2060606 86.9655422,39.6545455 C87.2615319,39.3151515 87.9380799,38.6787879 89.5448814,37.5757576 C89.5871657,37.5333333 89.6294499,37.5333333 89.6294499,37.4484848 C89.6294499,37.3636364 89.5871657,37.3212121 89.5025972,37.3212121 C88.1917854,36.8121212 87.8112272,36.0060606 87.6843744,35.5818182 L87.6843744,35.5393939 C87.6420902,35.369697 87.5998059,35.2 87.8535114,35.030303 C88.0649327,34.9030303 88.3186382,34.7333333 88.6146279,34.5212121 C89.0797547,34.2242424 89.5871657,33.9272727 89.8831554,33.6727273 C89.9254397,33.630303 89.9254397,33.5454545 89.9254397,33.5030303 C89.9254397,33.4606061 89.8831554,33.3757576 89.7985869,33.3757576 C87.8535114,32.7393939 86.8809737,31.2969697 86.8809737,29.0909091 C86.8809737,27.6484848 87.5152374,26.3757576 88.6569122,25.569697 C89.4180287,24.9757576 91.4053885,24.2121212 92.673916,24.2121212 L92.7584845,24.2121212 C94.0692962,24.2545455 94.7881285,24.5090909 95.8029505,24.8909091 C96.3526457,25.1030303 96.902341,25.1878788 97.6211732,25.1878788 C98.7205637,25.1878788 99.1856905,24.8484848 99.5662487,24.4666667 C99.608533,24.5090909 99.6508172,24.6787879 99.6931015,25.0181818 C99.7353857,25.4 99.608533,25.9090909 99.3125432,26.2909091 C99.101122,26.5878788 98.593711,26.8424242 98.0863,26.8424242 L97.9594472,26.8424242 C97.4520362,26.8 97.240615,26.7151515 97.240615,26.7151515 L97.1137622,26.7575758 C97.071478,26.8 97.1137622,26.8848485 97.1560465,26.969697 L97.1983307,27.0121212 C97.240615,27.2666667 97.3674677,28.030303 97.3674677,28.2 C97.3674677,30.4909091 96.4372142,31.5090909 95.4646765,32.230303 C94.534423,32.9090909 93.4350325,33.3757576 92.2087892,33.5030303 C92.166505,33.5030303 92.0819365,33.5030303 91.828231,33.5454545 C91.7013782,33.5454545 91.489957,33.5878788 91.4476727,33.5878788 L91.489957,33.5878788 C91.2785357,33.630303 90.7288404,33.9272727 90.7288404,34.3939394 C90.7288404,34.8181818 90.982546,35.3272727 92.166505,35.4121212 C92.4202105,35.4545455 92.673916,35.4545455 92.9276215,35.4545455 C94.534423,35.5818182 96.4794985,35.7090909 97.409752,36.0060606 C98.6782795,36.4727273 99.4816802,37.6181818 99.4816802,38.9757576 C99.4816802,41.0545455 98.0017315,42.9636364 95.549245,44.1515152 C94.365286,44.7030303 93.181327,45 91.8705152,45 Z M107.727109,25.5272727 C107.135129,25.5272727 106.627718,25.6545455 106.204876,25.9515152 C105.105485,26.630303 104.55579,27.9454545 104.55579,29.9393939 C104.55579,33.5878788 106.374013,36.1757576 108.995636,36.1757576 C109.756753,36.1757576 110.391017,35.9636364 110.898428,35.4969697 C111.701828,34.8181818 112.124671,33.5030303 112.124671,31.5939394 C112.209239,27.9454545 110.391017,25.5272727 107.727109,25.5272727 Z M108.23452,37.4909091 C103.498684,37.4909091 101.807314,34.0121212 101.807314,30.7454545 C101.807314,28.4545455 102.737567,26.6727273 104.55579,25.4424242 C105.866602,24.6363636 107.431119,24.169697 108.826499,24.169697 C112.462945,24.169697 115,26.7575758 115,30.5333333 C115,33.0787879 113.985178,35.0727273 112.082387,36.3030303 C111.152133,36.8969697 109.545332,37.4909091 108.23452,37.4909091 L108.23452,37.4909091 Z M58.6350946,25.5272727 C58.0431151,25.5272727 57.5357041,25.6545455 57.1128616,25.9515152 C56.0134711,26.630303 55.4637759,27.9454545 55.4637759,29.9393939 C55.4637759,33.5878788 57.2819986,36.1757576 59.9036221,36.1757576 C60.6647386,36.1757576 61.2990024,35.9636364 61.8064134,35.4969697 C62.6098141,34.8181818 63.0326566,33.5030303 63.0326566,31.5939394 C63.0749409,27.9454545 61.2990024,25.5272727 58.6350946,25.5272727 Z M59.1002214,37.4909091 C54.3643854,37.4909091 52.6730154,34.0121212 52.6730154,30.7454545 C52.6730154,28.4545455 53.6032689,26.6727273 55.4214916,25.4424242 C56.7323034,24.6363636 58.2968206,24.169697 59.6922009,24.169697 C63.3286464,24.169697 65.8657014,26.7575758 65.8657014,30.5333333 C65.8657014,33.0787879 64.8508794,35.0727273 62.9480881,36.3030303 C62.0601189,36.8969697 60.4533174,37.4909091 59.1002214,37.4909091 Z M27.3024653,37.1939394 C27.2601811,37.1090909 27.1756126,36.8545455 27.2178968,36.5575758 C27.2178968,36.3454545 27.2601811,36.1757576 27.3024653,36.1333333 C27.8944448,36.0484848 28.1904346,35.9636364 28.5287086,35.8787879 C29.0784038,35.7515152 29.2898251,35.4121212 29.3321093,34.7333333 C29.4166778,33.0363636 29.4166778,29.8545455 29.3743936,27.6484848 L29.3743936,27.6060606 C29.3743936,27.3515152 29.3743936,27.0545455 29.0784038,26.8424242 C28.6132771,26.5454545 28.1058661,26.2909091 27.3870338,26.1212121 C27.1333283,26.0363636 26.9641913,25.9090909 27.0064756,25.7393939 C27.0064756,25.569697 27.1756126,25.3575758 27.5561708,25.3151515 C28.4864243,25.230303 30.8543423,24.6363636 31.8268801,24.2121212 C31.8691643,24.2545455 31.9537328,24.4242424 31.9537328,24.6787879 L31.9114486,24.9757576 C31.8691643,25.2727273 31.8691643,25.6545455 31.8691643,25.9939394 C31.8691643,26.1212121 31.9960171,26.2060606 32.0805856,26.2060606 C32.1228698,26.2060606 32.2074383,26.1636364 32.2497226,26.1636364 C34.0256611,24.7636364 35.6324626,24.2545455 36.4781476,24.2545455 C37.8312436,24.2545455 38.8883498,24.8909091 39.6917506,26.2484848 C39.7340348,26.3333333 39.8186033,26.3757576 39.9031718,26.3757576 C39.9454561,26.3757576 40.0300246,26.3333333 40.0723088,26.2909091 C41.7213946,25.0181818 43.3704804,24.2969697 44.4275866,24.2969697 C47.0069259,24.2969697 48.5291589,26.2060606 48.5291589,29.5151515 C48.5291589,30.4484848 48.5291589,31.6363636 48.4868746,32.7393939 C48.4868746,33.7151515 48.4445904,34.6060606 48.4445904,35.2424242 C48.4445904,35.369697 48.6560116,35.8363636 48.9520014,35.9212121 C49.3325596,36.1333333 49.8822549,36.2181818 50.5588029,36.3030303 L50.6010871,36.3030303 C50.6433714,36.5151515 50.5588029,37.2363636 50.4319501,37.3636364 C50.2628131,37.3636364 50.0091076,37.3636364 49.7554021,37.3212121 C49.2057069,37.2787879 48.4868746,37.2787879 47.6411896,37.2787879 C45.9075354,37.2787879 45.0195661,37.3212121 44.1738811,37.3636364 C44.1315969,37.1515152 44.0893126,36.4727273 44.1738811,36.3030303 C44.6812921,36.2181818 44.9349976,36.1333333 45.2309874,36.0484848 C45.7806826,35.8787879 45.9075354,35.6242424 45.9498196,34.9030303 C45.9498196,34.3515152 46.0766724,29.8545455 45.9075354,28.7515152 C45.7383984,27.6484848 44.8927134,26.3333333 43.0744906,26.3333333 C42.3979426,26.3333333 41.2985521,26.630303 40.2414458,27.4363636 C40.1991616,27.4787879 40.1145931,27.6484848 40.1145931,27.7333333 L40.1145931,27.7757576 C40.2414458,28.369697 40.2414458,29.0484848 40.2414458,30.0666667 L40.2414458,31.8909091 C40.2414458,33.1636364 40.1991616,34.3090909 40.2414458,35.2 C40.2414458,35.7939394 40.6220041,35.9636364 40.9179938,36.0484848 C41.0871308,36.0909091 41.2139836,36.0909091 41.3408363,36.1333333 C41.5945418,36.1757576 41.8482473,36.2606061 42.2288056,36.3454545 C42.2710898,36.4727273 42.2710898,36.8121212 42.1865213,37.1090909 C42.1442371,37.2787879 42.1019528,37.3636364 42.0596686,37.4060606 C41.1294151,37.3636364 40.1568773,37.3636364 38.7192128,37.3636364 C38.2963703,37.3636364 37.5775381,37.4060606 36.9855586,37.4060606 C36.4781476,37.4060606 36.0130208,37.4484848 35.7170311,37.4484848 C35.6747468,37.4060606 35.6324626,37.1939394 35.6324626,36.8969697 C35.6324626,36.6424242 35.6747468,36.430303 35.7593153,36.3878788 C35.8861681,36.3454545 36.0130208,36.3454545 36.1398736,36.3454545 C36.4781476,36.3030303 36.7318531,36.2181818 37.0278428,36.1757576 C37.4929696,36.0484848 37.6621066,35.7939394 37.7043908,35.1575758 C37.7889593,33.7575758 37.8735278,29.769697 37.6621066,28.7515152 C37.3238326,27.1393939 36.3935791,26.3333333 34.9136303,26.3333333 C34.0679453,26.3333333 32.9685548,26.7575758 32.0805856,27.4363636 C31.9537328,27.5636364 31.8268801,27.8181818 31.8268801,28.0727273 L31.8268801,29.7272727 C31.8268801,31.7212121 31.8268801,34.2666667 31.8691643,35.3272727 C31.9114486,35.6666667 31.9960171,36.0484848 32.6302808,36.1757576 C32.7571336,36.2181818 33.0108391,36.2606061 33.2645446,36.3030303 L33.7719556,36.3878788 C33.8142398,36.5575758 33.8142398,37.2363636 33.6873871,37.4484848 C33.3913973,37.4484848 33.0954076,37.4060606 32.6725651,37.4060606 C32.0805856,37.3636364 31.3194691,37.3636364 30.5160683,37.3636364 C29.5435306,37.3636364 28.8246983,37.4060606 28.2750031,37.4060606 C27.9367291,37.1939394 27.6407393,37.1939394 27.3024653,37.1939394 Z" id="XMLID_18_" fill="#442D22"></path>
                <path d="M11.1164269,44 L10.1192412,43.6042737 C10.1192412,43.6042737 10.2300396,37.5364705 8.4203321,37.0967746 C7.20154951,35.4259303 8.60499612,-34.1339583 13,36.8769267 C13,36.8769267 11.485755,37.7563185 11.2272253,39.2952541 C10.9317629,40.8341896 11.1164269,44 11.1164269,44 Z" id="XMLID_19_" fill="#FFFFFF"></path>
                <path d="M11.1164269,44 L10.1192412,43.6042737 C10.1192412,43.6042737 10.2300396,37.5364705 8.4203321,37.0967746 C7.20154951,35.4259303 8.60499612,-34.1339583 13,36.8769267 C13,36.8769267 11.485755,37.7563185 11.2272253,39.2952541 C10.9317629,40.8341896 11.1164269,44 11.1164269,44 Z" id="XMLID_20_" fill="#A6A385"></path>
                <path d="M10.8157409,38 C10.8157409,38 21.0184758,31.2992036 18.6407198,17.2923777 C16.3494277,7.1331058 10.9022048,3.80432309 10.2969578,2.50739477 C9.64847891,1.59954494 9,0 9,0 L9.43231927,28.2730375 C9.43231927,28.3162685 8.56768073,36.9624573 10.8157409,38" id="XMLID_21_" fill="#FFFFFF"></path>
                <path d="M10.8157409,38 C10.8157409,38 21.0184758,31.2992036 18.6407198,17.2923777 C16.3494277,7.1331058 10.9022048,3.80432309 10.2969578,2.50739477 C9.64847891,1.59954494 9,0 9,0 L9.43231927,28.2730375 C9.43231927,28.3162685 8.56768073,36.9624573 10.8157409,38" id="XMLID_22_" fill="#499D4A"></path>
                <path d="M9.73472424,39 C9.73472424,39 -0.578396767,32.3831461 0.0255247336,20.6831461 C0.629446234,8.98314607 7.87650424,3.24269663 9.31662474,2.19101124 C10.2457347,1.27078652 10.2457347,0.920224719 10.3386457,0 C10.9890227,1.31460674 10.8496562,19.4123596 10.9425672,21.5595506 C11.2213002,29.7977528 10.4315567,37.4224719 9.73472424,39 Z" id="XMLID_23_" fill="#FFFFFF"></path>
                <path d="M9.73472424,39 C9.73472424,39 -0.578396767,32.3831461 0.0255247336,20.6831461 C0.629446234,8.98314607 7.87650424,3.24269663 9.31662474,2.19101124 C10.2457347,1.27078652 10.2457347,0.920224719 10.3386457,0 C10.9890227,1.31460674 10.8496562,19.4123596 10.9425672,21.5595506 C11.2213002,29.7977528 10.4315567,37.4224719 9.73472424,39 Z" id="XMLID_24_" fill="#58AA50"></path>
            </g>
        </g>
    </g>
</svg>