<?xml version="1.0" encoding="UTF-8"?>
<svg width="48px" height="48px" viewBox="0 0 48 48" version="1.1" xmlns="http://www.w3.org/2000/svg" xmlns:xlink="http://www.w3.org/1999/xlink">
    <!-- Generator: Sketch 53.2 (72643) - https://sketchapp.com -->
    <title>Group 3</title>
    <desc>Created with Sketch.</desc>
    <defs>
        <linearGradient x1="64.000898%" y1="17.4797081%" x2="32.8910514%" y2="89.7187737%" id="linearGradient-1">
            <stop stop-color="#41873F" offset="0%"></stop>
            <stop stop-color="#418B3D" offset="32.88%"></stop>
            <stop stop-color="#419637" offset="63.52%"></stop>
            <stop stop-color="#3FA92D" offset="93.19%"></stop>
            <stop stop-color="#3FAE2A" offset="100%"></stop>
        </linearGradient>
        <path d="M4.29923251,0.061503386 C4.1642167,-0.016469526 3.99780587,-0.016469526 3.86287585,0.061503386 L0.248672686,2.14712867 C0.113485327,2.22510158 0.0302799097,2.36912415 0.0302799097,2.52524153 L0.0302799097,6.69975169 C0.0302799097,6.85569752 0.113485327,6.99972009 0.248501129,7.07786456 L3.86270429,9.16520542 C3.99780587,9.24317833 4.1642167,9.24317833 4.29940406,9.16520542 L7.91274944,7.07786456 C8.04776524,6.99980587 8.13088488,6.85569752 8.13088488,6.69975169 L8.13088488,2.52506998 C8.13088488,2.36912415 8.04767946,2.22510158 7.91257788,2.14712867 L4.29923251,0.061503386 Z" id="path-2"></path>
        <linearGradient x1="45.0177064%" y1="55.2218545%" x2="130.446553%" y2="-18.3006709%" id="linearGradient-4">
            <stop stop-color="#41873F" offset="13.76%"></stop>
            <stop stop-color="#54A044" offset="40.32%"></stop>
            <stop stop-color="#66B848" offset="71.36%"></stop>
            <stop stop-color="#6CC04A" offset="90.81%"></stop>
        </linearGradient>
        <path d="M4.29923251,0.061503386 C4.1642167,-0.016469526 3.99780587,-0.016469526 3.86287585,0.061503386 L0.248672686,2.14712867 C0.113485327,2.22510158 0.0302799097,2.36912415 0.0302799097,2.52524153 L0.0302799097,6.69975169 C0.0302799097,6.85569752 0.113485327,6.99972009 0.248501129,7.07786456 L3.86270429,9.16520542 C3.99780587,9.24317833 4.1642167,9.24317833 4.29940406,9.16520542 L7.91274944,7.07786456 C8.04776524,6.99980587 8.13088488,6.85569752 8.13088488,6.69975169 L8.13088488,2.52506998 C8.13088488,2.36912415 8.04767946,2.22510158 7.91257788,2.14712867 L4.29923251,0.061503386 Z" id="path-5"></path>
        <linearGradient x1="-4407.17%" y1="50%" x2="5334.53%" y2="50%" id="linearGradient-7">
            <stop stop-color="#6CC04A" offset="9.19%"></stop>
            <stop stop-color="#66B848" offset="28.64%"></stop>
            <stop stop-color="#54A044" offset="59.68%"></stop>
            <stop stop-color="#41873F" offset="86.24%"></stop>
        </linearGradient>
        <linearGradient x1="-4.47793525%" y1="50.0000177%" x2="101.564561%" y2="50.0000177%" id="linearGradient-8">
            <stop stop-color="#6CC04A" offset="9.19%"></stop>
            <stop stop-color="#66B848" offset="28.64%"></stop>
            <stop stop-color="#54A044" offset="59.68%"></stop>
            <stop stop-color="#41873F" offset="86.24%"></stop>
        </linearGradient>
        <linearGradient x1="-9677.72%" y1="50%" x2="63.98%" y2="50%" id="linearGradient-9">
            <stop stop-color="#6CC04A" offset="9.19%"></stop>
            <stop stop-color="#66B848" offset="28.64%"></stop>
            <stop stop-color="#54A044" offset="59.68%"></stop>
            <stop stop-color="#41873F" offset="86.24%"></stop>
        </linearGradient>
        <linearGradient x1="-103.698492%" y1="50%" x2="100.585694%" y2="50%" id="linearGradient-10">
            <stop stop-color="#6CC04A" offset="9.19%"></stop>
            <stop stop-color="#66B848" offset="28.64%"></stop>
            <stop stop-color="#54A044" offset="59.68%"></stop>
            <stop stop-color="#41873F" offset="86.24%"></stop>
        </linearGradient>
        <linearGradient x1="130.347474%" y1="-51.4903462%" x2="4.35800113%" y2="108.766901%" id="linearGradient-11">
            <stop stop-color="#41873F" offset="0%"></stop>
            <stop stop-color="#418B3D" offset="32.88%"></stop>
            <stop stop-color="#419637" offset="63.52%"></stop>
            <stop stop-color="#3FA92D" offset="93.19%"></stop>
            <stop stop-color="#3FAE2A" offset="100%"></stop>
        </linearGradient>
    </defs>
    <g id="Landing-Page" stroke="none" stroke-width="1" fill="none" fill-rule="evenodd">
        <g id="Artboard" transform="translate(-1181.000000, -450.000000)">
            <g id="Group-3" transform="translate(1182.000000, 451.000000)">
                <circle id="Oval-Copy-3" stroke="#F3F5F7" fill="#FFFFFF" cx="23" cy="23" r="23"></circle>
                <g id="node" transform="translate(4.000000, 11.000000)">
                    <g id="Group" transform="translate(14.582393, 13.896163)" fill="#699F63" fill-rule="nonzero">
                        <path d="M4.19912867,9.35451919 C4.07389165,9.35451919 3.94934086,9.32183747 3.83971558,9.25836117 L2.69551242,8.58139503 C2.52472686,8.48575169 2.60818962,8.45195485 2.6644605,8.43231151 C2.89237472,8.35322348 2.9385237,8.3349526 3.18179233,8.19702032 C3.20709707,8.18278104 3.24072235,8.1881851 3.26688488,8.2035395 L4.14586005,8.72541761 C4.17776975,8.74308804 4.22271783,8.74308804 4.2519684,8.72541761 L7.6788307,6.74753047 C7.71074041,6.72934537 7.73115576,6.69263205 7.73115576,6.65480361 L7.73115576,2.70014447 C7.73115576,2.66145824 7.71065463,2.62534537 7.67797291,2.60570203 L4.25256885,0.629530474 C4.22100226,0.611002257 4.17888488,0.611002257 4.14697517,0.629530474 L0.722428894,2.60630248 C0.689146727,2.62534537 0.668045147,2.66265914 0.668045147,2.70014447 L0.668045147,6.65480361 C0.668045147,6.69263205 0.689060948,6.72848758 0.722085779,6.74641535 L1.66084876,7.28879458 C2.17020316,7.54347178 2.48200903,7.24350339 2.48200903,6.94216253 L2.48200903,3.03751242 C2.48200903,2.98235666 2.52644244,2.93878104 2.58159819,2.93878104 L3.0161535,2.93878104 C3.07053725,2.93878104 3.11548533,2.98235666 3.11548533,3.03751242 L3.11548533,6.94216253 C3.11548533,7.62195937 2.74526411,8.01182393 2.10080813,8.01182393 C1.90274492,8.01182393 1.7467991,8.01182393 1.31147178,7.7972912 L0.412853273,7.27995937 C0.190943567,7.15163431 0.0534401806,6.91171106 0.0534401806,6.65480361 L0.0534401806,2.70014447 C0.0534401806,2.44323702 0.190857788,2.20331377 0.412853273,2.07558916 L3.83971558,0.0953860045 C4.05656433,-0.0272776524 4.34478104,-0.0272776524 4.55991422,0.0953860045 L7.98651919,2.07558916 C8.20842889,2.20391422 8.34644695,2.44323702 8.34644695,2.70014447 L8.34644695,6.65480361 C8.34644695,6.91171106 8.20842889,7.15077652 7.98651919,7.27995937 L4.55991422,9.25844695 C4.45037472,9.32183747 4.32608126,9.35451919 4.19912867,9.35451919 Z" id="Path"></path>
                        <path d="M5.25763883,6.63001354 C3.75805418,6.63001354 3.44393228,5.9417246 3.44393228,5.36434763 C3.44393228,5.30944921 3.48802257,5.26561625 3.54300677,5.26561625 L3.98605418,5.26561625 C4.03554853,5.26561625 4.07680813,5.30121445 4.08452822,5.34959368 C4.15143567,5.80061851 4.35087133,6.0282754 5.2577246,6.0282754 C5.97963883,6.0282754 6.2869842,5.8649526 6.2869842,5.48195034 C6.2869842,5.26115576 6.19991874,5.09723251 5.07793228,4.98734989 C4.1403702,4.89462302 3.56041986,4.68746727 3.56041986,3.93733183 C3.56041986,3.24586907 4.1432009,2.83353047 5.12039278,2.83353047 C6.21818962,2.83353047 6.76142664,3.21455982 6.83022122,4.0320316 C6.83279458,4.06016704 6.82284424,4.08727314 6.80405869,4.10828894 C6.78527314,4.12793228 6.75911061,4.13985553 6.73148984,4.13985553 L6.28672686,4.13985553 C6.24066366,4.13985553 6.19991874,4.10717381 6.19056885,4.06248307 C6.08386005,3.58786907 5.82437923,3.43621219 5.12039278,3.43621219 C4.33217156,3.43621219 4.24055982,3.71079007 4.24055982,3.91648758 C4.24055982,4.16576072 4.34872686,4.23832957 5.41289842,4.37917833 C6.46600451,4.51831151 6.96626637,4.71551693 6.96626637,5.45561625 C6.96609481,6.20232054 6.34351242,6.63001354 5.25763883,6.63001354 Z" id="Path"></path>
                    </g>
                    <path d="M24.7814041,16.3786862 C24.7814041,16.7420451 24.4843521,17.0390971 24.1209932,17.0390971 C23.7609797,17.0390971 23.4605824,16.7455621 23.4605824,16.3786862 C23.4605824,16.0047765 23.7681851,15.7181038 24.1209932,15.7181038 C24.4774898,15.7181038 24.7814041,16.0047765 24.7814041,16.3786862 Z M23.5672054,16.3767991 C23.5672054,16.6844018 23.8152777,16.9325598 24.1191919,16.9325598 C24.4267946,16.9325598 24.6749526,16.6791693 24.6749526,16.3767991 C24.6749526,16.0693679 24.4234492,15.8247269 24.1191919,15.8247269 C23.8187088,15.8248126 23.5672054,16.0657652 23.5672054,16.3767991 Z M23.8728352,16.0082077 L24.1281129,16.0082077 C24.2154357,16.0082077 24.3867359,16.0082077 24.3867359,16.2039549 C24.3867359,16.3402573 24.2994131,16.3681354 24.2467449,16.3856343 C24.348307,16.3926682 24.3551693,16.4590609 24.3690655,16.5534176 C24.3761851,16.6127765 24.3867359,16.714167 24.4074944,16.749079 L24.2504334,16.749079 C24.2467449,16.7142528 24.222298,16.5254537 24.222298,16.5150745 C24.2120903,16.4730429 24.197851,16.4521986 24.145526,16.4521986 L24.0163431,16.4521986 L24.0163431,16.749079 L23.872921,16.749079 L23.872921,16.0082077 L23.8728352,16.0082077 Z M24.0128262,16.3331377 L24.1280271,16.3331377 C24.2222122,16.3331377 24.2398826,16.2668307 24.2398826,16.2284018 C24.2398826,16.1269255 24.1698871,16.1269255 24.1314582,16.1269255 L24.0128262,16.1269255 L24.0128262,16.3331377 L24.0128262,16.3331377 Z" id="Shape" fill="#699F63" fill-rule="nonzero"></path>
                    <path d="M8.16982844,7.77816253 C8.16982844,7.62024379 8.0867088,7.47510609 7.95040632,7.39687585 L4.31724605,5.30601806 C4.25582844,5.26990519 4.18694808,5.25111964 4.11720993,5.24820316 C4.11094808,5.24820316 4.08478555,5.24820316 4.07963883,5.24820316 C4.01024379,5.25103386 3.94136343,5.26981941 3.87900226,5.30601806 L0.245841986,7.39687585 C0.110397291,7.47510609 0.0261625282,7.62024379 0.0261625282,7.77816253 L0.0341399549,13.4082528 C0.0341399549,13.4864831 0.0747990971,13.559395 0.143679458,13.5977381 C0.21110158,13.63814 0.294478555,13.63814 0.361643341,13.5977381 L2.52086682,12.3613228 C2.65742664,12.2802619 2.74054628,12.1370971 2.74054628,11.9806366 L2.74054628,9.35023025 C2.74054628,9.19342664 2.82358014,9.04828894 2.95962528,8.97040181 L3.87900226,8.44088939 C3.9475395,8.40134537 4.02242438,8.38195937 4.09893905,8.38195937 C4.17373815,8.38195937 4.25059594,8.40134537 4.31716027,8.44088939 L5.23627991,8.97040181 C5.37232506,9.04837472 5.45570203,9.19351242 5.45570203,9.35023025 L5.45570203,11.9806366 C5.45570203,12.1370971 5.53993679,12.2811196 5.67563883,12.3613228 L7.83426185,13.5977381 C7.90194131,13.63814 7.98651919,13.63814 8.05368397,13.5977381 C8.12059142,13.5593093 8.1627088,13.4864831 8.1627088,13.4082528 L8.16982844,7.77816253 Z" id="Path" fill="#333333" fill-rule="nonzero"></path>
                    <path d="M25.6512867,0.0386862302 C25.5832641,0.00085778781 25.500316,0.00171557562 25.4331512,0.0410880361 C25.366158,0.0805462754 25.3248984,0.152514673 25.3248984,0.230316027 L25.3248984,5.80593679 C25.3248984,5.86074944 25.2955621,5.91153047 25.2482122,5.93897968 C25.2006907,5.96642889 25.1421038,5.96642889 25.0944966,5.93897968 L24.1845553,5.41469977 C24.0487675,5.33646953 23.8817562,5.33664108 23.7460542,5.41487133 L20.1114357,7.51241986 C19.9755621,7.59082167 19.8919278,7.73570203 19.8919278,7.89241986 L19.8919278,12.0883747 C19.8919278,12.2451783 19.9755621,12.3899729 20.1113499,12.4685463 L23.7457968,14.5676388 C23.8816704,14.6460406 24.0489391,14.6460406 24.1848126,14.5676388 L27.8197743,12.4685463 C27.9555621,12.3900587 28.0391964,12.2451783 28.0391964,12.0883747 L28.0391964,1.62885327 C28.0391964,1.46981941 27.9531603,1.32305192 27.8141129,1.2455079 L25.6512867,0.0386862302 Z M25.3140903,10.7097381 C25.3140903,10.7488533 25.2931603,10.7851377 25.2591919,10.8046095 L24.0112822,11.5239503 C23.9773995,11.5434221 23.9356253,11.5434221 23.9017427,11.5239503 L22.653833,10.8046095 C22.6198646,10.7851377 22.5989345,10.7488533 22.5989345,10.7097381 L22.5989345,9.26874041 C22.5989345,9.22962528 22.6198646,9.19334086 22.6537472,9.17369752 L23.9016569,8.45289842 C23.9356253,8.43325508 23.9774853,8.43325508 24.0114537,8.45289842 L25.2593634,9.17369752 C25.293246,9.19334086 25.3141761,9.22962528 25.3141761,9.26874041 L25.3140903,10.7097381 L25.3140903,10.7097381 Z" id="Shape" fill="#333333" fill-rule="nonzero"></path>
                    <g id="Group" transform="translate(29.765237, 5.232506)" fill-rule="nonzero">
                        <path d="M7.98866366,3.99857788 C8.12385102,3.92009029 8.20705643,3.77546727 8.20705643,3.61909255 L8.20705643,2.60227088 C8.20705643,2.44589616 8.12385102,2.30118736 7.9884921,2.22269977 L4.3772912,0.126009029 C4.24141761,0.047006772 4.07363431,0.0469209932 3.93750339,0.125408578 L0.304257336,2.22295711 C0.168469526,2.30135892 0.0848352144,2.4461535 0.0848352144,2.60295711 L0.0848352144,6.79779684 C0.0848352144,6.95554402 0.169498871,7.10111061 0.306487585,7.17908352 L3.91717381,9.23648758 C4.05030248,9.31248758 4.2135395,9.31334537 4.34752596,9.23888939 L6.53145372,8.02503386 C6.60076298,7.98651919 6.64390971,7.91377878 6.64425282,7.83469074 C6.64485327,7.75560271 6.60273589,7.68234763 6.53411287,7.64288939 L2.87779233,5.54431151 C2.80951242,5.50519639 2.76756659,5.43245598 2.76756659,5.35388262 L2.76756659,4.03923702 C2.76756659,3.96083521 2.80934086,3.88826637 2.87736343,3.84915124 L4.01530474,3.19311512 C4.0829842,3.154 4.16670429,3.154 4.23438375,3.19311512 L5.37292551,3.84915124 C5.44094808,3.88826637 5.48272235,3.96083521 5.48272235,4.03923702 L5.48272235,5.07355756 C5.48272235,5.15213093 5.52475395,5.22469977 5.59269074,5.2638149 C5.66071332,5.30310158 5.74451919,5.30275847 5.8123702,5.263386 L7.98866366,3.99857788 Z" id="Path" fill="#333333"></path>
                        <path d="M4.10382844,3.80205869 C4.12990519,3.78696163 4.16198646,3.78696163 4.18806321,3.80205869 L4.8854447,4.20436117 C4.91152144,4.21945824 4.92756208,4.24716479 4.92756208,4.27735892 L4.92756208,5.08265011 C4.92756208,5.11284424 4.91152144,5.14055079 4.8854447,5.15564786 L4.18806321,5.55795034 C4.16198646,5.5730474 4.12990519,5.5730474 4.10382844,5.55795034 L3.40696163,5.15564786 C3.38088488,5.14055079 3.36484424,5.11284424 3.36484424,5.08265011 L3.36484424,4.27735892 C3.36484424,4.24716479 3.38088488,4.21945824 3.40696163,4.20436117 L4.10382844,3.80205869 Z" id="Path" fill="#699F63"></path>
                    </g>
                    <g id="Group" transform="translate(9.950339, 5.318284)">
                        <path d="M4.29923251,0.061503386 C4.1642167,-0.016469526 3.99780587,-0.016469526 3.86287585,0.061503386 L0.248672686,2.14712867 C0.113485327,2.22510158 0.0302799097,2.36912415 0.0302799097,2.52524153 L0.0302799097,6.69975169 C0.0302799097,6.85569752 0.113485327,6.99972009 0.248501129,7.07786456 L3.86270429,9.16520542 C3.99780587,9.24317833 4.1642167,9.24317833 4.29940406,9.16520542 L7.91274944,7.07786456 C8.04776524,6.99980587 8.13088488,6.85569752 8.13088488,6.69975169 L8.13088488,2.52506998 C8.13088488,2.36912415 8.04767946,2.22510158 7.91257788,2.14712867 L4.29923251,0.061503386 Z" id="XMLID_143_" fill="url(#linearGradient-1)" fill-rule="nonzero"></path>
                        <g id="Clipped">
                            <mask id="mask-3" fill="white">
                                <use xlink:href="#path-2"></use>
                            </mask>
                            <g id="SVGID_1_"></g>
                            <g id="Group" mask="url(#mask-3)">
                                <path d="M3.85524153,0.061503386 L0.233489842,2.14712867 C0.0983024831,2.22510158 0,2.36912415 0,2.52524153 L0,6.69975169 C0,6.80294357 0.0440902935,6.90038826 0.11262754,6.97750339 L4.18197291,0.0163837472 C4.07269074,-0.0105507901 3.95448758,0.00420316027 3.85524153,0.061503386 Z" id="Path"></path>
                                <path d="M4.20213093,9.20740858 C4.23730023,9.19771558 4.27161174,9.18381941 4.30386456,9.16520542 L7.92175621,7.07786456 C8.05677201,6.99980587 8.1489842,6.85569752 8.1489842,6.69975169 L8.1489842,2.52506998 C8.1489842,2.41029797 8.09768849,2.3022167 8.01688488,2.22192777 L4.20213093,9.20740858 Z" id="Path"></path>
                                <path d="M7.91969752,2.14712867 L4.29537246,0.061503386 C4.25960271,0.0408306998 4.22134537,0.0260767494 4.18197291,0.0163837472 L0.11262754,6.97750339 C0.147711061,7.01696163 0.188799097,7.05135892 0.234433409,7.07777878 L3.86484876,9.16511964 C3.96769752,9.22447856 4.08993228,9.23837472 4.20204515,9.2073228 L8.01688488,2.22184199 C7.98789165,2.19319187 7.95538149,2.16771558 7.91969752,2.14712867 Z" id="Path" fill="url(#linearGradient-4)" fill-rule="nonzero"></path>
                            </g>
                        </g>
                        <g id="Clipped">
                            <mask id="mask-6" fill="white">
                                <use xlink:href="#path-5"></use>
                            </mask>
                            <g id="SVGID_4_"></g>
                            <g id="Group" mask="url(#mask-6)">
                                <g transform="translate(0.000000, -0.772009)" id="Path">
                                    <path d="M8.1489842,7.47176072 L8.1489842,3.29707901 C8.1489842,3.14113318 8.0547991,2.99711061 7.91969752,2.9191377 L4.29537246,0.833512415 C4.25376975,0.809494357 4.20865011,0.79379684 4.16232957,0.784532731 L8.13534537,7.57203612 C8.14383747,7.53952596 8.1489842,7.50607223 8.1489842,7.47176072 Z" fill="none"></path>
                                    <path d="M0.233489842,2.9191377 C0.0983024831,2.99711061 0,3.14113318 0,3.29725056 L0,7.47176072 C0,7.62770655 0.099503386,7.77172912 0.234433409,7.84987359 L3.86484876,9.93721445 C3.95019865,9.98645147 4.04893002,10.004465 4.14414447,9.99142664 L0.255191874,2.906614 L0.233489842,2.9191377 Z" fill="none"></path>
                                    <polygon fill="url(#linearGradient-7)" fill-rule="nonzero" points="3.75212619 0.0715786682 3.69412619 0.104678668 3.77152619 0.104678668"></polygon>
                                    <path d="M7.92175621,7.84987359 C8.02709255,7.78897065 8.10566591,7.68766591 8.13543115,7.5721219 L4.16241535,0.78461851 C4.0587088,0.763945824 3.94865463,0.779643341 3.85524153,0.833598194 L0.255277652,2.90669977 L4.14423025,9.99151242 C4.19972912,9.98396388 4.25411287,9.96595034 4.30386456,9.93730023 L7.92175621,7.84987359 Z" fill="url(#linearGradient-8)" fill-rule="nonzero"></path>
                                    <polygon fill="url(#linearGradient-9)" fill-rule="nonzero" points="8.26778973 7.79205926 8.23988973 7.74435926 8.23988973 7.80825926"></polygon>
                                    <path d="M7.92175621,7.84987359 L4.30386456,9.93721445 C4.25411287,9.96595034 4.19972912,9.9838781 4.14423025,9.99142664 L4.21628442,10.1226682 L8.23476298,7.79660497 L8.23476298,7.74179233 L8.13543115,7.5721219 C8.10566591,7.68766591 8.02709255,7.78888488 7.92175621,7.84987359 Z" fill="url(#linearGradient-10)" fill-rule="nonzero"></path>
                                    <path d="M7.92175621,7.84987359 L4.30386456,9.93721445 C4.25411287,9.96595034 4.19972912,9.9838781 4.14423025,9.99142664 L4.21628442,10.1226682 L8.23476298,7.79660497 L8.23476298,7.74179233 L8.13543115,7.5721219 C8.10566591,7.68766591 8.02709255,7.78888488 7.92175621,7.84987359 Z" fill="url(#linearGradient-11)" fill-rule="nonzero"></path>
                                </g>
                            </g>
                        </g>
                    </g>
                </g>
            </g>
        </g>
    </g>
</svg>