<svg width="68" height="76" viewBox="0 0 68 76" fill="none" xmlns="http://www.w3.org/2000/svg">
<path d="M34 76C32.9441 76 31.9586 75.7207 31.0435 75.232L21.6812 69.7161C20.2733 68.9481 20.9772 68.6688 21.3996 68.5292C23.3002 67.9008 23.6522 67.7611 25.6232 66.644C25.8344 66.5044 26.1159 66.5742 26.3271 66.7138L33.5072 70.9729C33.7888 71.1125 34.1408 71.1125 34.352 70.9729L62.4389 54.8443C62.7205 54.7046 62.8613 54.4254 62.8613 54.0763V21.8888C62.8613 21.5397 62.7205 21.2605 62.4389 21.1208L34.352 5.06201C34.0704 4.92237 33.7184 4.92237 33.5072 5.06201L5.42029 21.1208C5.13872 21.2605 4.99793 21.6096 4.99793 21.8888V54.0763C4.99793 54.3555 5.13872 54.7046 5.42029 54.8443L13.0932 59.243C17.2464 61.3376 19.8509 58.8939 19.8509 56.4502V24.6817C19.8509 24.2627 20.2029 23.8438 20.6957 23.8438H24.2857C24.7081 23.8438 25.1304 24.1929 25.1304 24.6817V56.4502C25.1304 61.966 22.1035 65.1778 16.824 65.1778C15.205 65.1778 13.9379 65.1778 10.3478 63.4322L2.95652 59.243C1.12629 58.1957 0 56.2407 0 54.1461V21.9587C0 19.864 1.12629 17.909 2.95652 16.8617L31.0435 0.733119C32.8033 -0.244373 35.1967 -0.244373 36.9565 0.733119L65.0435 16.8617C66.8737 17.909 68 19.864 68 21.9587V54.1461C68 56.2407 66.8737 58.1957 65.0435 59.243L36.9565 75.3716C36.0414 75.7905 34.9855 76 34 76ZM42.6584 53.8668C30.3395 53.8668 27.8054 48.2811 27.8054 43.5333C27.8054 43.1144 28.1574 42.6955 28.6501 42.6955H32.3106C32.7329 42.6955 33.0849 42.9747 33.0849 43.3937C33.648 47.0942 35.2671 48.9095 42.7288 48.9095C48.6418 48.9095 51.176 47.5829 51.176 44.441C51.176 42.6256 50.472 41.299 41.2505 40.3914C33.5776 39.6233 28.7909 37.9476 28.7909 31.8732C28.7909 26.2177 33.5776 22.8663 41.6025 22.8663C50.6128 22.8663 55.0476 25.9384 55.6108 32.6413C55.6108 32.8507 55.5404 33.0602 55.3996 33.2696C55.2588 33.4093 55.0476 33.5489 54.8364 33.5489H51.176C50.824 33.5489 50.472 33.2696 50.4017 32.9205C49.5569 29.0804 47.3747 27.8236 41.6025 27.8236C35.1263 27.8236 34.352 30.0579 34.352 31.7336C34.352 33.7584 35.2671 34.3868 43.9959 35.5039C52.6542 36.621 56.7371 38.2269 56.7371 44.2315C56.6667 50.3757 51.5983 53.8668 42.6584 53.8668Z" fill="#539E43"/>
</svg>
