<?xml version="1.0" encoding="UTF-8"?>
<svg width="288px" height="250px" viewBox="0 0 288 250" version="1.1" xmlns="http://www.w3.org/2000/svg" xmlns:xlink="http://www.w3.org/1999/xlink">
    <!-- Generator: Sketch 53.2 (72643) - https://sketchapp.com -->
    <title>Fill 6</title>
    <desc>Created with Sketch.</desc>
    <g id="Page-1" stroke="none" stroke-width="1" fill="none" fill-rule="evenodd">
        <path d="M268.194,143.875 C268.504,143.623 268.804,143.357 269.094,143.062 C269.914,142.239 270.544,141.341 271.024,140.377 C270.074,141.598 268.164,142.829 268.194,143.875 Z M255.264,127.609 C254.554,128.338 255.904,128.534 256.004,128.96 L254.194,130.811 C256.814,130.054 255.024,134.7 258.374,131.101 C258.284,129.962 256.914,129.789 256.184,129.132 L257.724,128.075 L257.084,127.145 C256.284,128.151 254.814,128.948 255.264,127.609 Z M268.794,111.48 L270.334,111.13 L270.514,110.594 L268.794,111.48 Z M268.574,131.183 L268.114,132.531 C268.754,132.057 268.754,132.747 269.034,132.648 C268.934,132.223 270.754,129.658 268.574,131.183 Z M260.414,145.502 L261.324,143.527 L260.604,144.96 L260.414,145.502 Z M256.704,121.917 C255.694,122.065 255.434,122.864 255.174,123.667 C253.414,125.471 253.264,123.825 252.024,124.173 L252.024,104.222 C252.664,104.909 253.884,105.105 253.384,107.065 L255.024,105.741 C253.764,107.383 253.944,108.949 254.214,109.542 C255.584,109.034 256.214,107.863 257.304,106.741 C256.584,106.782 255.934,107.264 255.494,107.895 C254.114,107.724 256.574,106.088 256.484,104.943 C254.974,104.923 254.014,104.403 253.164,103.802 L262.024,103.802 C264.814,103.802 267.174,104.79 269.114,106.765 C271.054,108.741 272.024,111.108 272.024,113.87 L272.024,135.924 C272.024,137.062 271.854,138.128 271.524,139.13 C271.514,138.934 271.454,138.741 271.324,138.551 L270.784,138.757 C270.864,139.197 271.314,139.263 270.864,139.899 C269.864,140.737 269.864,139.34 269.864,138.646 L271.414,136.887 C269.124,137.021 267.734,135.817 265.834,135.372 L265.834,131.948 C266.154,131.158 266.424,130.62 266.844,130.673 C267.664,129.661 269.574,130.343 269.844,129.54 L269.374,128.081 L268.294,129.195 C268.284,128.496 269.374,126.679 267.744,127.3 C267.014,127.842 266.334,128.284 265.834,128.416 L265.834,113.971 C265.834,112.96 265.474,112.097 264.774,111.378 C264.064,110.66 263.214,110.301 262.224,110.301 L260.424,110.301 L260.044,108.494 C259.404,108.977 259.594,109.84 258.584,109.987 C259.134,109.078 257.134,110.778 256.414,111.516 C258.954,109.616 256.954,112.713 257.504,113.202 C257.044,113.96 256.594,114.227 256.034,114.323 L255.904,114.154 C257.904,112.147 254.464,113.856 255.954,112.16 C253.314,113.628 256.504,111.952 255.314,114.038 L253.774,114.39 C254.324,114.88 254.784,116.338 253.784,117.189 C253.414,116.859 253.964,115.954 252.784,117.334 L253.964,117.349 C255.884,115.926 253.234,115.298 255.594,113.933 C255.724,113.995 255.824,114.071 255.904,114.154 L255.684,114.364 C255.804,114.356 255.924,114.342 256.034,114.323 C256.264,114.762 256.054,115.406 255.794,116.194 L258.234,112.464 L258.394,112.498 L258.394,114.86 C258.344,114.972 258.294,115.099 258.244,115.26 L258.394,115.138 L258.394,116.673 C257.474,117.216 256.344,116.987 256.694,119.118 L258.394,118.247 L258.394,124.135 C258.164,124.233 257.964,124.244 257.814,124.303 L257.724,125.269 L258.394,124.401 L258.394,127.658 L258.274,127.867 L258.394,127.789 L258.394,139.729 L259.004,139.729 C258.914,139.993 258.904,140.229 259.034,140.421 C260.314,140.165 261.954,140.948 262.764,139.932 L262.734,139.681 C263.144,139.626 263.534,139.501 263.884,139.311 C264.494,140.791 263.794,143.536 263.864,144.428 L263.234,144.198 C263.174,144.871 263.384,145.409 263.644,145.893 C263.124,145.974 262.584,146.025 262.024,146.025 L258.184,146.025 C257.984,145.773 257.884,145.465 258.224,144.933 L259.324,144.52 C257.954,144.723 257.254,145.301 256.774,146.025 L252.024,146.025 L252.024,125.434 C252.814,125.208 254.164,124.404 254.174,125.22 C256.704,121.917 254.444,125.114 256.704,121.917 Z M225.864,140.695 L226.034,140.917 L225.894,140.645 L225.864,140.695 Z M229.454,107.517 C229.514,107.686 229.684,107.72 229.914,107.662 C229.784,107.594 229.634,107.541 229.454,107.517 Z M230.654,109.819 C230.074,110.821 229.994,111.589 229.834,112.044 C230.244,111.416 230.544,110.593 230.654,109.819 Z M234.554,107.914 L236.194,107.292 L236.094,106.864 L234.554,107.914 Z M241.094,104.344 C241.174,104.638 241.284,104.888 241.464,105.05 C241.524,104.616 241.364,104.416 241.094,104.344 Z M224.794,115.329 C225.284,114.983 225.784,114.703 226.244,114.544 L226.374,114.529 L226.374,114.505 L226.244,114.544 C225.214,114.623 226.474,112.821 226.564,111.888 C225.804,112.406 225.324,113.433 224.794,114.494 L224.794,103.802 L242.904,103.802 L242.904,106.824 C242.334,106.723 241.904,106.46 242.014,105.553 C241.564,106.167 241.894,106.496 240.994,107.301 L240.884,107.26 L240.914,107.373 L240.994,107.301 C241.804,107.601 242.424,107.986 242.834,108.036 C242.584,108.796 242.504,109.375 242.124,110.2 L231.154,110.2 L231.154,121.715 L239.744,121.715 L239.744,128.112 L231.154,128.112 L231.154,139.628 L242.904,139.628 L242.904,146.025 L224.794,146.025 L224.794,115.329 Z M209.214,145.638 C209.054,145.688 208.884,145.736 208.714,145.781 C208.484,146.159 208.794,145.928 209.214,145.638 C209.684,145.494 210.084,145.335 210.434,145.204 C210.274,144.922 209.684,145.316 209.214,145.638 Z M211.314,134.514 C211.414,135.636 211.604,137.204 213.604,136.213 C214.954,134.298 212.054,135.161 211.314,134.514 Z M211.914,118.63 L213.374,119.949 L213.374,117.14 C213.004,118.212 212.364,117.987 211.914,118.63 Z M210.914,117.374 L209.804,112.886 C209.374,113.688 208.644,115.038 208.004,116.271 L208.004,113.995 L208.164,114.218 C209.344,112.833 208.884,111.366 209.254,110.299 C208.724,110.328 208.324,110.516 208.004,110.779 L208.004,103.836 L211.814,103.836 C211.824,104.1 211.764,104.393 211.604,104.735 C211.984,104.447 212.304,104.146 212.574,103.836 L214.364,103.836 L214.364,125.275 L213.854,125.6 L214.364,126.719 L214.364,146.025 L208.004,146.025 L208.004,117.9 C208.894,118.127 209.714,118.733 210.914,117.374 Z M208.614,111.477 C208.404,111.286 208.204,111.23 208.004,111.258 L208.004,112.986 C208.124,112.984 208.244,112.982 208.354,112.975 C208.534,112.445 209.084,111.529 208.614,111.477 Z M183.974,119.676 C182.064,121.104 182.984,121.921 182.614,122.995 L183.524,123.119 L183.974,119.676 Z M187.134,115.917 C186.514,116.519 185.504,117.077 184.984,117.019 C184.964,116.863 184.984,116.682 185.064,116.459 L184.874,116.998 L184.984,117.019 C185.064,117.795 186.094,117.865 186.254,118.579 L187.134,116.419 L187.134,119.816 C186.834,119.571 186.094,119.833 185.074,120.654 C184.434,121.837 186.704,122.147 184.814,123.562 L186.534,122.672 C185.444,125.193 185.994,124.282 185.994,126.387 C187.774,124.564 186.414,123.266 187.134,121.594 L187.134,121.715 L195.714,121.715 L195.714,128.112 L187.134,128.112 L187.134,146.025 L180.764,146.025 L180.764,103.802 L198.884,103.802 L198.884,110.2 L187.134,110.2 L187.134,115.917 Z M169.834,108.002 C169.474,107.671 169.924,106.336 169.004,106.92 C168.824,107.449 168.924,108.577 169.834,108.002 Z M163.974,146.025 L170.334,146.025 L170.334,103.836 L163.974,103.836 L163.974,146.025 Z M143.544,140.671 C142.554,140.716 141.674,140.322 140.914,139.486 C139.884,138.381 139.234,136.599 138.964,134.139 L132.904,134.577 C133.034,136.822 133.504,138.814 134.304,140.554 C135.094,142.293 136.184,143.668 137.554,144.678 C139.184,145.913 141.254,146.53 143.744,146.53 C145.094,146.53 146.274,146.373 147.284,146.059 C149.164,145.475 150.624,144.476 151.654,143.062 C153.224,140.974 153.994,138.46 153.944,135.52 C153.924,134.33 153.614,132.984 153.004,131.48 C152.754,130.873 152.434,130.211 152.024,129.493 C151.174,127.967 149.964,126.418 148.394,124.846 C147.924,124.353 146.944,123.488 145.464,122.253 C144.204,121.221 143.264,120.323 142.634,119.56 C140.974,117.562 140.144,115.599 140.144,113.667 C140.144,112.433 140.384,111.401 140.884,110.57 C141.484,109.538 142.374,109.021 143.544,109.021 C144.644,109.021 145.484,109.369 146.064,110.065 C146.874,111.03 147.374,112.377 147.554,114.105 L153.644,112.994 C153.484,111.154 153.024,109.526 152.244,108.112 C151.474,106.698 150.454,105.599 149.194,104.812 C147.584,103.802 145.644,103.297 143.374,103.297 C141.014,103.297 139.044,103.892 137.444,105.084 C134.864,107.061 133.574,109.97 133.574,113.812 C133.574,115.946 134.044,117.923 134.994,119.743 C135.864,121.361 137.354,123.192 139.464,125.236 C141.984,127.618 143.864,129.404 145.124,130.595 C146.714,132.325 147.514,134.066 147.514,135.818 C147.514,137.032 147.304,137.964 146.874,138.616 C146.044,139.941 144.934,140.626 143.544,140.671 Z M113.384,140.671 C112.394,140.716 111.514,140.322 110.754,139.486 C109.724,138.381 109.074,136.599 108.804,134.139 L102.744,134.577 C102.874,136.822 103.344,138.814 104.134,140.554 C104.934,142.293 106.014,143.668 107.384,144.678 C109.024,145.913 111.094,146.53 113.584,146.53 C114.934,146.53 116.104,146.373 117.114,146.059 C119.004,145.475 120.464,144.476 121.494,143.062 C123.064,140.974 123.834,138.46 123.784,135.52 C123.764,134.33 123.444,132.984 122.844,131.48 C122.594,130.873 122.274,130.211 121.864,129.493 C121.014,127.967 119.804,126.418 118.234,124.846 C117.754,124.353 116.784,123.488 115.304,122.253 C114.044,121.221 113.104,120.323 112.474,119.56 C110.814,117.562 109.984,115.599 109.984,113.667 C109.984,112.433 110.224,111.401 110.724,110.57 C111.324,109.538 112.214,109.021 113.384,109.021 C114.484,109.021 115.324,109.369 115.904,110.065 C116.714,111.03 117.204,112.377 117.384,114.105 L123.484,112.994 C123.324,111.154 122.864,109.526 122.084,108.112 C121.314,106.698 120.294,105.599 119.034,104.812 C117.424,103.802 115.484,103.297 113.214,103.297 C110.854,103.297 108.884,103.892 107.284,105.084 C104.704,107.061 103.414,109.97 103.414,113.812 C103.414,115.946 103.884,117.923 104.824,119.743 C105.704,121.361 107.194,123.192 109.304,125.236 C111.824,127.618 113.704,129.404 114.964,130.595 C116.554,132.325 117.354,134.066 117.354,135.818 C117.354,137.032 117.144,137.964 116.714,138.616 C115.884,139.941 114.774,140.626 113.384,140.671 Z M78.294,145.407 C78.144,145.62 78.004,145.826 77.864,146.025 L78.194,146.025 L78.294,145.407 Z M76.344,135.382 C75.974,135.049 76.244,133.545 74.884,135.463 C75.074,136.33 75.254,135.788 76.344,135.382 Z M80.724,130.133 L85.444,130.133 L83.084,113.5 L80.724,130.133 Z M78.474,144.295 C77.934,144.917 77.474,145.535 77.004,146.025 L71.564,146.025 L78.744,103.836 L87.494,103.836 L94.564,146.025 L87.874,146.025 L86.384,136.328 L79.744,136.328 L78.474,144.295 Z M46.432,113.345 L49.873,108.773 L48.966,109.34 C48.512,109.985 44.692,112.841 46.432,113.345 Z M49.629,114.765 C48.995,115.307 48.351,115.824 47.809,116.324 C48.465,116.419 48.932,115.592 49.629,114.765 C49.96,114.483 50.286,114.194 50.596,113.897 L50.535,113.883 C50.185,114.145 49.892,114.455 49.629,114.765 Z M48.801,114.781 C49.435,113.606 47.612,113.363 47.615,114.066 C49.517,113.337 46.34,116.42 48.801,114.781 Z M45.691,143.761 C45.556,143.335 45.351,143.24 45.111,143.296 L45.111,103.836 L47.876,103.836 L47.586,104.259 C47.73,104.096 47.837,103.958 47.923,103.836 L51.475,103.836 L51.475,108.427 L51.422,108.41 L50.428,109.954 C50.667,109.865 51.128,109.679 51.475,109.384 L51.475,139.695 L51.518,139.695 L51.421,140.182 L52.185,139.695 L62.454,139.695 L62.454,146.025 L53.65,146.025 L52.804,145.26 L52.804,146.025 L45.111,146.025 L45.111,143.753 C45.35,143.66 45.556,143.641 45.691,143.761 Z M23.204,109.565 L22.56,109.349 C22.607,109.565 22.671,109.767 22.738,109.966 C22.898,109.818 23.055,109.677 23.204,109.565 Z M28.554,118.281 L28.554,113.331 C28.554,112.321 28.194,111.457 27.476,110.738 C26.757,110.02 25.894,109.661 24.883,109.661 C23.873,109.661 23.015,110.02 22.308,110.738 C21.601,111.457 21.247,112.321 21.247,113.331 L21.247,136.429 C21.247,137.439 21.601,138.298 22.308,139.005 C23.015,139.712 23.873,140.065 24.883,140.065 C25.894,140.065 26.757,139.712 27.476,139.005 C28.194,138.298 28.554,137.439 28.554,136.429 L28.554,130.604 L35.153,130.604 L35.153,136.496 C35.153,139.302 34.165,141.681 32.19,143.634 C30.214,145.587 27.846,146.564 25.086,146.564 C22.279,146.564 19.895,145.582 17.931,143.617 C15.966,141.654 14.984,139.28 14.984,136.496 L14.984,113.466 C14.984,110.66 15.972,108.276 17.947,106.311 L18.112,106.161 C18.197,106.195 18.273,106.232 18.373,106.259 C18.759,105.914 18.878,105.67 18.892,105.482 C20.669,104.076 22.731,103.364 25.086,103.364 C27.891,103.364 30.271,104.353 32.224,106.327 C34.177,108.303 35.153,110.683 35.153,113.466 L35.153,118.281 L28.554,118.281 Z M103.484,242.974 C103.504,243.105 103.524,243.22 103.564,243.302 C103.854,243.404 104.164,243.5 104.464,243.599 C104.224,243.4 104.284,243.014 104.044,242.348 C103.764,242.56 103.574,242.784 103.484,242.974 Z M105.154,243.77 L104.924,243.75 C105.394,243.902 105.864,244.055 106.334,244.202 C106.924,243.478 107.574,242.718 107.224,242.078 C106.714,240.965 104.944,243.58 105.154,243.77 Z M189.044,237.121 C187.954,238.24 189.044,238.529 188.494,239.431 C187.494,238.881 187.954,238.24 188.224,236.034 C187.404,237.044 187.864,237.101 187.054,238.11 C186.984,237.414 186.854,236.651 186.924,235.893 C173.464,241.178 158.814,244.086 143.504,244.086 C134.844,244.086 126.404,243.152 118.254,241.389 C118.284,242.36 119.564,242.492 120.334,242.696 C115.614,246.831 117.594,240.237 115.964,241.555 C116.124,241.279 116.274,241.099 116.404,240.972 C112.514,240.062 108.684,238.96 104.944,237.677 C104.634,238.107 104.364,238.395 103.934,238.423 C103.934,238.16 104.144,237.788 104.304,237.458 C92.984,233.5 82.434,227.879 72.944,220.886 C73.044,221.144 73.144,221.384 73.224,221.601 L72.214,221.752 L71.584,223.631 C70.214,224.366 70.604,219.906 67.804,221.99 L67.844,222.014 C67.584,222.243 67.384,222.402 67.214,222.512 C67.244,222.77 67.014,223.193 66.914,223.55 C70.384,226.252 74.004,228.773 77.754,231.102 C78.024,230.911 78.364,230.726 78.514,230.569 C78.574,230.82 78.384,231.086 78.134,231.339 C78.634,231.648 79.144,231.955 79.644,232.257 C79.794,232.113 79.884,231.87 79.884,231.446 L81.524,232.225 L83.084,230.464 L82.704,233.649 C82.484,233.436 82.254,233.484 82.034,233.649 C84.214,234.886 86.444,236.06 88.694,237.168 L89.554,235.247 C89.094,235.187 88.814,234.592 87.914,235.868 C88.084,236.038 88.084,236.038 88.004,236.303 C87.274,235.643 87.624,233.889 85.544,234.433 L88.534,233.302 C88.094,233.233 88.264,232.708 88.084,232.536 C89.454,233.415 92.454,234.374 91.644,236.788 L90.554,237.197 C90.264,237.309 90.124,237.57 90.054,237.826 C94.054,239.728 98.164,241.418 102.384,242.893 C102.194,241.852 100.164,241.92 101.764,239.949 L103.214,239.863 L103.304,239.592 L103.764,242.464 C104.774,241.606 104.764,240.906 104.944,240.377 C104.494,241.714 107.124,239.541 107.684,240.735 C105.864,243.292 110.044,241.474 110.044,242.873 C110.074,243.755 109.644,244.469 109.054,245.017 C120.004,248.162 131.564,249.852 143.504,249.852 C161.114,249.852 177.874,246.187 193.084,239.584 C191.464,239.239 189.374,239.106 189.044,237.121 Z M67.804,221.99 C65.434,220.807 68.404,217.394 63.544,220.827 C64.174,221.356 64.814,221.878 65.454,222.395 C67.234,221.063 65.944,223.363 67.214,222.512 L67.214,222.483 C67.424,222.289 67.624,222.126 67.804,221.99 Z M125.144,211.653 L125.254,211.883 C125.344,212.055 125.464,212.244 125.594,212.441 L125.564,212.07 C125.474,211.869 125.324,211.73 125.144,211.653 Z M102.444,242.913 C102.774,243.029 103.114,243.149 103.444,243.262 C103.424,243.185 103.434,243.086 103.484,242.974 C103.414,242.337 103.454,241.41 102.444,242.913 Z M65.494,222.427 C65.764,222.64 66.034,222.849 66.294,223.06 C66.464,222.477 66.474,222.025 65.494,222.427 Z M70.854,200.134 C70.654,200.097 70.464,200.051 70.284,199.996 C70.244,200.217 70.374,200.315 70.854,200.134 Z M62.374,217.787 L62.274,218.064 L60.734,216.304 L59.454,217.26 C60.764,218.457 62.104,219.629 63.474,220.77 C63.474,218.754 63.634,218.223 62.374,217.787 Z M65.414,195.032 C65.334,195.346 65.314,195.627 65.504,195.798 C65.684,195.686 65.844,195.585 65.984,195.493 C65.864,194.977 65.794,194.44 65.804,193.874 C65.814,193.653 65.824,193.436 65.854,193.223 C65.764,193.293 65.674,193.357 65.584,193.433 C65.884,193.704 65.664,194.241 65.504,194.752 L65.584,194.839 L65.414,195.032 Z M257.084,160.325 C257.824,160.977 256.554,163.331 258.824,162.234 C259.914,160.407 259.544,158.687 257.084,160.325 Z M206.494,228.38 L206.484,226.29 C205.594,227.556 204.684,229.538 206.494,228.38 Z M243.734,170.305 L243.194,169.811 C241.554,171.835 240.194,171.649 239.924,173.859 C242.104,171.626 240.374,173.922 242.384,172.918 C242.424,173.114 241.954,173.69 241.544,174.282 C241.414,174.377 241.274,174.472 241.114,174.568 C241.224,174.528 241.314,174.509 241.404,174.499 C240.964,175.159 240.704,175.785 241.384,175.872 C241.844,175.227 242.844,175.08 243.384,174.171 C242.314,175.427 242.214,174.4 241.404,174.499 L241.544,174.282 C244.054,172.478 241.224,171.041 243.734,170.305 Z M236.934,178.491 C236.564,178.874 235.934,179.35 235.124,179.657 C235.024,180.621 235.664,180.155 236.124,180.905 L236.934,178.491 Z M235.364,170.455 L233.924,171.936 L236.454,170.04 L235.264,169.319 C234.724,170.223 235.184,170.293 235.364,170.455 Z M229.884,180.634 C230.534,179.476 233.144,175.323 229.914,176.73 L230.104,176.891 C229.474,178.061 227.284,178.902 227.554,180.202 L229.884,180.634 C229.694,180.975 229.674,181.059 230.024,180.66 L229.884,180.634 Z M225.594,159.915 L225.564,159.852 C225.494,160.118 225.494,160.218 225.594,159.915 Z M221.634,192.861 C221.574,191.135 220.924,189.678 219.664,188.488 L209.714,179.059 C208.464,177.879 206.984,177.305 205.264,177.336 C203.534,177.368 202.084,178.012 200.894,179.268 L196.614,183.781 L215.674,201.831 L219.944,197.319 C221.124,196.073 221.684,194.587 221.634,192.861 Z M209.314,207.297 L207.004,204.063 L201.064,208.317 L196.894,202.498 L201.234,199.389 L198.924,196.157 L194.584,199.264 L190.414,193.445 L196.354,189.192 L194.034,185.958 L184.884,192.515 L200.164,213.853 L209.314,207.297 Z M192.614,218.095 L180.804,194.678 L177.274,196.46 L189.084,219.876 L192.614,218.095 Z M189.554,223.615 C186.564,226.153 191.194,223.693 189.924,225.343 C191.014,224.226 189.284,224.419 189.554,223.615 Z M171.584,214.831 L176.654,213.151 L175.394,209.376 L170.334,211.057 L168.074,204.262 L175.014,201.963 L173.754,198.188 L163.074,201.734 L171.334,226.645 L175.094,225.399 L171.584,214.831 Z M167.524,223.346 C166.984,224.953 166.704,225.069 167.804,225.34 C168.984,223.96 167.434,224.314 167.524,223.346 Z M162.834,228.454 L158.534,202.583 L154.634,203.231 L158.934,229.103 L162.834,228.454 Z M152.924,210.911 L151.824,209.931 C151.104,209.968 151.934,211.053 152.924,210.911 Z M150.584,223.569 C150.564,222.829 150.354,221.995 149.964,221.067 C149.804,220.693 149.594,220.284 149.334,219.842 C148.794,218.902 148.024,217.951 147.024,216.99 C146.734,216.689 146.114,216.161 145.184,215.409 C144.394,214.78 143.794,214.231 143.394,213.763 C142.344,212.538 141.804,211.326 141.784,210.126 C141.774,209.358 141.914,208.714 142.214,208.193 C142.584,207.545 143.134,207.215 143.854,207.204 C144.534,207.192 145.064,207.401 145.434,207.827 C145.944,208.419 146.264,209.251 146.394,210.323 L150.174,209.571 C150.054,208.429 149.754,207.422 149.254,206.551 C148.764,205.68 148.114,205.006 147.334,204.53 C146.314,203.919 145.104,203.624 143.694,203.647 C142.224,203.671 141.004,204.061 140.024,204.817 C138.444,206.072 137.674,207.894 137.704,210.282 C137.734,211.608 138.044,212.832 138.644,213.953 C139.204,214.95 140.154,216.074 141.484,217.323 C143.074,218.778 144.264,219.869 145.054,220.596 C146.064,221.656 146.574,222.73 146.594,223.819 C146.604,224.573 146.484,225.155 146.224,225.564 C145.724,226.396 145.034,226.833 144.174,226.875 C143.564,226.913 143.014,226.676 142.524,226.165 C141.874,225.489 141.454,224.387 141.264,222.861 L137.504,223.195 C137.604,224.589 137.914,225.822 138.424,226.895 C138.944,227.968 139.624,228.812 140.484,229.426 C140.914,229.736 141.394,229.963 141.914,230.141 C141.614,230.292 141.364,230.411 141.334,230.503 C141.924,230.469 142.334,230.956 142.844,230.383 C143.324,230.468 143.824,230.523 144.354,230.515 C145.194,230.501 145.924,230.391 146.554,230.186 C147.714,229.805 148.614,229.169 149.244,228.279 C150.194,226.966 150.644,225.396 150.584,223.569 Z M138.014,230.25 C138.094,230.14 138.174,230.003 138.234,229.811 C138.134,229.975 138.064,230.118 138.014,230.25 C137.874,230.446 137.744,230.554 137.694,230.722 C137.064,230.495 137.584,228.899 136.504,230.007 C136.414,230.271 137.134,230.227 136.684,230.875 C135.784,232.147 135.054,231.491 134.414,231.969 L132.154,235.867 C132.884,236.522 133.964,234.714 134.684,233.965 L133.704,236.209 C134.694,235.368 135.334,234.195 136.424,233.074 C135.884,234.681 136.154,235.274 137.514,235.463 C137.424,235.03 135.604,234.085 137.054,232.599 C138.924,231.469 137.604,231.368 138.014,230.25 Z M132.314,229.726 C132.304,227.635 133.854,225.173 132.844,223.92 C132.484,225.696 128.404,230.048 132.314,229.726 Z M120.434,215.557 L119.164,215.103 C119.074,216.075 119.804,215.33 120.434,215.557 Z M130.104,220.426 C130.024,220.026 129.914,219.582 129.754,219.094 C129.424,218.06 128.874,216.966 128.114,215.815 C127.884,215.456 127.394,214.808 126.644,213.873 C126.234,213.372 125.914,212.926 125.644,212.523 C125.644,212.353 125.614,212.197 125.564,212.07 L125.434,210.621 L124.894,211.126 C124.414,209.997 124.274,208.949 124.464,207.985 C124.624,207.233 124.894,206.635 125.304,206.189 C125.794,205.636 126.404,205.431 127.114,205.574 C127.784,205.71 128.254,206.027 128.524,206.522 C128.894,207.21 129.034,208.092 128.924,209.167 L132.774,209.243 C132.904,208.103 132.824,207.053 132.524,206.096 C132.234,205.139 131.744,204.343 131.074,203.709 C130.214,202.894 129.094,202.347 127.714,202.067 C126.424,201.806 125.274,201.877 124.234,202.275 L124.134,201.066 L122.674,201.857 C123.244,201.642 123.274,202.25 123.024,202.947 C121.724,203.876 120.864,205.287 120.464,207.191 L120.424,207.15 C120.354,207.339 120.374,207.469 120.404,207.586 C120.364,207.819 120.324,208.052 120.304,208.283 L120.244,208.392 C119.874,208.064 118.684,208.046 119.514,207.03 C117.304,208.605 119.284,208.583 119.064,209.622 L118.244,210.783 C118.774,210.278 119.004,209.91 119.064,209.622 L119.594,208.864 C120.874,208.614 119.604,210.274 120.154,210.764 C120.274,210.718 120.374,210.652 120.474,210.578 C120.504,210.736 120.534,210.894 120.574,211.05 C120.914,212.144 121.594,213.444 122.624,214.95 C123.864,216.711 124.794,218.033 125.414,218.913 C126.164,220.164 126.434,221.323 126.224,222.391 C126.074,223.13 125.824,223.671 125.484,224.015 C124.814,224.721 124.054,225.001 123.204,224.856 C122.594,224.762 122.114,224.413 121.744,223.81 C121.254,223.01 121.084,221.843 121.224,220.311 L117.474,219.829 C117.274,221.213 117.314,222.485 117.584,223.643 C117.854,224.801 118.344,225.772 119.054,226.557 C119.904,227.512 121.084,228.143 122.604,228.451 C123.424,228.617 124.164,228.666 124.814,228.6 C126.034,228.478 127.044,228.05 127.854,227.315 C129.064,226.238 129.844,224.801 130.174,223.003 C130.314,222.276 130.284,221.417 130.104,220.426 Z M128.864,232.911 L127.864,231.659 L128.134,233.655 L128.864,232.911 Z M118.014,228.392 L117.834,226.829 L117.474,228.598 L118.014,228.392 Z M118.664,232.118 C118.664,231.416 118.034,231.187 117.754,230.596 L118.114,230.227 C118.844,228.781 116.754,232.143 116.844,230.48 C116.394,231.809 117.484,231.396 118.664,232.118 Z M114.734,198.639 L109.734,196.482 L95.244,218.791 L99.024,220.424 L102.304,215.271 L106.094,216.908 L104.554,222.809 L108.374,224.458 L114.734,198.639 Z M94.814,194.227 C95.524,193.492 97.984,191.856 96.904,193.672 C99.254,192.308 95.354,193.325 97.074,191.735 L95.344,192.628 C96.044,191.772 97.124,190.765 97.874,190.027 L97.874,190.033 L98.254,189.655 C98.144,189.768 98.014,189.895 97.874,190.027 C97.804,189.579 98.164,187.812 99.054,187.247 L96.874,186.673 C96.564,187.227 96.304,187.739 96.064,188.234 L94.014,186.812 L84.654,200.269 C84.404,200.236 84.124,200.391 83.704,201.029 C84.074,200.743 84.304,200.601 84.464,200.543 L79.044,208.343 L87.894,214.497 L90.134,211.266 L84.534,207.371 L94.684,192.777 C94.674,193.268 94.704,193.749 94.814,194.227 Z M85.214,214.24 L84.034,216.319 L84.584,216.113 L85.214,214.24 Z M78.904,207.525 C78.094,208.543 76.544,208.192 76.824,209.485 C77.824,207.932 78.734,209.454 78.904,207.525 Z M88.674,181.378 L90.134,182.701 L89.574,180.805 L88.674,181.378 Z M122.044,201.631 L122.854,201.318 L121.404,200.713 L122.044,201.631 Z M119.954,204.998 L121.594,202.971 C120.224,202.787 121.314,200.973 119.404,201.702 C120.044,202.625 118.134,205.458 120.054,205.429 C120.134,205.158 120.594,204.515 119.954,204.998 Z M134.504,230.298 L133.864,231.474 C134.324,230.836 134.774,230.894 135.324,230.69 L134.504,230.298 Z M89.894,173.511 C89.784,173.823 89.744,174.13 89.834,174.399 L90.114,173.751 C103.364,188.224 122.384,197.319 143.504,197.319 C169.574,197.319 192.464,183.458 205.214,162.724 L81.794,162.724 C84.164,166.572 86.874,170.181 89.894,173.511 Z M78.994,171.98 C78.634,170.948 78.264,170.624 76.624,171.953 C75.084,173.696 74.914,174.937 76.354,175.555 L77.184,173.835 L76.904,173.941 L77.534,172.065 L78.994,171.98 Z M96.344,157.206 C96.694,157.537 96.254,158.872 97.164,158.289 C97.344,157.759 97.244,156.632 96.344,157.206 Z M210.314,165.731 C211.134,165.415 211.684,167.302 212.694,167.158 C213.414,165.717 215.314,164.294 214.234,163.3 C213.954,164.111 214.044,164.542 213.404,165.023 C212.414,165.16 210.954,164.549 212.594,163.227 C212.034,162.041 209.034,164.581 210.314,165.731 Z M215.414,165.418 L216.784,164.199 L219.144,165.638 C219.414,164.141 222.144,162.398 220.494,161.621 L219.144,162.835 C219.004,162.15 217.784,162.459 218.034,161.759 L218.584,160.949 C218.264,161.318 218.094,161.573 218.034,161.759 L215.774,165.052 L215.594,164.183 L215.414,165.418 Z M72.454,209.051 L72.004,208.286 L71.454,209.887 L72.454,209.051 Z M72.824,180.401 C72.184,181.585 73.554,181.061 73.744,181.223 C74.644,179.942 73.374,180.189 72.824,180.401 Z M72.384,183.846 L72.284,183.409 C72.224,182.78 72.144,181.704 71.464,181.616 C70.834,182.093 69.104,183.687 69.284,184.55 C71.564,181.35 70.124,186.334 72.284,183.409 C72.314,183.632 72.334,183.8 72.384,183.846 Z M69.174,174.318 L69.354,173.775 C69.184,173.881 68.994,173.988 68.794,174.097 C68.634,174.107 68.464,174.217 68.274,174.377 C67.504,174.793 66.714,175.248 66.534,175.785 C67.144,175.694 67.754,174.834 68.274,174.377 C68.454,174.282 68.624,174.189 68.794,174.097 C68.934,174.089 69.054,174.15 69.174,174.318 Z M63.804,178.93 C63.074,178.272 63.804,176.129 61.804,177.121 C61.534,178.621 65.544,178.033 61.824,181.314 C61.184,181.797 59.904,182.043 60.814,180.765 L59.268,182.524 C60.274,184.471 63.904,179.357 63.804,178.93 Z M60.594,171.505 C60.964,169.729 59.514,169.116 60.504,167.568 L59.237,169.216 L59.14,168.085 C58.411,169.532 56.964,169.61 56.512,169.548 C57.601,171.241 57.601,170.541 58.338,172.594 C59.238,171.314 59.694,171.381 60.594,171.505 Z M55.949,164.16 C55.486,162.704 53.754,162.192 54.571,160.474 C52.659,161.906 52.299,163.671 51.761,165.281 C53.485,164.393 51.846,165.02 53.305,163.526 C53.579,164.13 53.043,166.431 54.585,165.375 C54.309,164.779 55.4,164.365 55.949,164.16 Z M54.898,179.982 L54.625,179.381 L54.346,178.782 L54.898,179.982 Z M51.784,172.986 C51.025,173.47 50.583,173.023 50.036,172.48 C49.978,172.231 49.887,172.069 49.686,172.146 C49.81,172.257 49.924,172.37 50.036,172.48 C50.214,173.253 50.066,174.877 51.784,172.986 Z M50.799,176.267 L51.064,175.821 C50.934,175.99 50.855,176.135 50.799,176.267 L49.98,177.644 C49.378,177.566 48.187,178.318 47.392,178.794 C47.13,178.859 46.871,178.964 46.612,179.157 C46.673,179.213 46.981,179.04 47.392,178.794 C48.414,178.539 49.461,178.907 50.616,177.165 L50.432,179.103 C52.301,177.352 50.307,177.432 50.799,176.267 Z M46.13,170.698 L48.491,167.93 C48.043,167.862 45.588,170.899 46.034,168.862 C47.492,167.379 46.493,167.519 45.846,167.305 C44.488,168.521 45.313,169.603 43.951,170.123 L44.378,171.083 L44.308,171.16 L44.485,171.326 L44.378,171.083 C45.488,169.834 45.51,171.158 46.13,170.698 Z M62.244,168.773 L62.424,168.936 L63.774,167.723 L62.244,168.773 Z M36.717,157.692 C36.657,157.523 36.493,157.488 36.256,157.546 C36.391,157.614 36.541,157.668 36.717,157.692 Z M31.623,157.295 L29.981,157.917 L30.078,158.345 L31.623,157.295 Z M30.31,172.019 C30.381,172.21 30.541,172.328 30.841,172.31 C30.811,171.906 30.585,171.902 30.31,172.019 Z M51.96,204.223 L52.324,204.545 L53.51,203.165 L51.96,204.223 Z M25.076,160.864 C24.997,160.571 24.884,160.32 24.705,160.159 C24.645,160.593 24.813,160.792 25.076,160.864 Z M262.204,156.318 L287.014,156.318 L287.014,162.724 L262.574,162.724 C251.764,196.708 226.784,224.431 194.604,238.916 C192.344,237.921 190.444,236.216 188.264,235.356 C220.304,222.318 245.444,195.72 256.504,162.724 L249.724,162.724 C249.504,163.343 249.274,163.959 249.044,164.573 C248.994,164.439 248.954,164.295 248.904,164.134 C249.004,164.563 248.724,164.664 248.364,165.041 C247.444,162.818 250.634,159.737 247.804,158.949 C246.444,160.166 248.354,160.142 246.714,160.76 L246.354,160.43 L244.454,163.96 L244.264,163.801 C244.354,164.226 247.004,166.262 245.644,168.879 L246.014,168.502 L246.014,170.609 C246.424,169.98 246.764,169.643 247.114,169.355 C229.834,209.497 189.904,237.68 143.504,237.68 C142.294,237.68 141.084,237.655 139.874,237.617 L139.894,237.596 L139.844,237.616 C120.284,236.988 101.964,231.354 86.134,221.956 L86.324,220.822 C86.104,220.511 85.594,220.838 85.044,221.303 C79.524,217.944 74.324,214.125 69.484,209.9 L69.634,209.648 L69.454,209.875 C69.024,209.498 68.594,209.117 68.164,208.734 C68.324,208.158 68.594,207.516 68.894,206.892 C70.894,206.601 73.344,202.863 74.794,201.382 C76.254,201.288 76.994,201.948 77.904,202.066 L77.714,199.104 C76.064,199.73 74.344,201.322 72.984,203.235 C74.064,200.728 71.064,203.965 70.974,202.83 C71.824,201.971 72.664,200.878 73.444,200.112 C74.064,199.982 74.634,199.758 75.184,199.44 L75.334,199.772 L75.294,199.376 C75.694,199.131 76.074,198.841 76.434,198.492 L79.064,195.946 L78.714,195.581 C78.644,195.327 78.674,194.972 79.244,194.548 L80.514,195.707 C79.974,194.504 80.334,194.134 78.504,194.601 L78.504,195.368 L76.214,192.997 L73.614,195.514 C73.154,195.951 72.624,196.161 71.994,196.146 C71.854,196.143 71.724,196.124 71.594,196.1 C71.654,195.773 71.664,195.496 71.594,195.349 L70.684,195.695 C70.594,195.622 70.494,195.545 70.404,195.454 L72.684,192.843 C71.374,193.894 70.594,192.981 70.424,192.287 L70.454,192.249 L72.854,189.931 C72.554,191.787 72.584,193.281 75.134,191.905 C76.594,189.018 71.324,192.648 73.944,189.09 L74.124,189.252 C74.224,188.959 74.314,188.687 74.404,188.425 L80.774,182.268 C81.224,181.832 81.764,181.616 82.394,181.622 C83.014,181.628 83.544,181.856 83.984,182.307 C84.424,182.759 84.634,183.3 84.624,183.931 C84.614,184.563 84.384,185.097 83.934,185.533 L81.724,187.672 L84.574,190.621 L86.724,188.54 C87.964,187.338 88.604,185.873 88.644,184.146 C88.684,182.421 88.094,180.93 86.884,179.677 L86.674,179.472 C87.314,179.657 88.374,179.463 88.114,180.196 C88.574,180.252 88.664,179.282 88.754,179.014 C87.204,179.369 87.934,177.929 86.204,178.818 C86.194,178.921 86.204,179.005 86.224,179.08 C85.154,178.232 83.914,177.788 82.484,177.76 C80.754,177.726 79.264,178.316 78.004,179.528 L77.234,180.276 L77.004,179.98 C76.934,180.204 76.794,180.6 76.544,180.942 L76.374,181.104 C76.414,179.71 75.004,181.555 74.904,180.866 C74.924,180.744 74.934,180.631 74.924,180.536 C74.904,180.687 74.894,180.788 74.904,180.866 C74.824,181.465 74.464,182.375 74.034,183.374 L67.714,189.48 L67.544,189.658 C67.704,189.179 67.674,188.85 66.664,189.52 L66.874,190.473 C66.694,190.723 66.554,190.984 66.424,191.251 C65.004,192.368 62.954,193.633 63.034,194.641 C64.404,193.236 64.984,194.219 65.504,194.752 C65.464,194.847 65.444,194.941 65.414,195.032 L63.684,196.961 C63.774,195.99 63.044,196.034 62.594,195.976 C61.864,196.719 61.494,196.39 60.954,197.301 C60.134,199.713 62.414,198.615 63.594,197.925 L62.874,199.379 C64.244,199.028 64.104,197.911 64.394,197.329 L64.864,196.978 C64.624,197.013 64.484,197.145 64.394,197.329 L64.224,197.455 C63.954,197.557 64.144,197.01 64.224,196.752 C65.104,195.855 65.684,195.829 66.174,196.109 C66.224,196.251 66.274,196.39 66.344,196.528 C63.294,199.598 64.194,201.009 62.684,203.448 C58.948,199.607 55.484,195.505 52.325,191.166 C52.782,188.785 50.555,187.761 53.542,183.999 C53.727,185.565 55.282,186.607 57.101,186.848 C58.728,183.428 54.093,184.491 54.809,180.952 L53.078,181.836 L52.363,184.675 C51.627,183.319 49.269,183.985 49.437,182.054 C50.891,181.267 52.171,181.717 53.261,180.602 L53.879,175.926 C53.621,177.422 50.253,178.935 51.437,179.659 L49.699,180.559 C49.528,181.083 49.983,181.144 49.53,181.787 C49.078,181.134 48.315,182.453 47.237,183.545 C46.889,182.975 46.546,182.402 46.207,181.826 L46.256,181.625 L48.523,180.53 L48.344,179.669 C48.307,180.052 47.167,180.819 46.086,181.616 C44.026,178.091 42.15,174.447 40.476,170.693 C40.676,170.697 40.876,170.767 41.035,170.999 C41.668,168.427 43.583,169.791 43.944,167.321 L43.117,168.341 C42.215,168.21 42.939,166.765 43.388,166.135 C43.024,166.504 42.206,166.819 42.024,167.357 C42.575,167.843 41.025,169.604 40.946,170.564 C39.755,170.551 40.665,168.571 40.396,168.669 C40.216,168.88 40.05,169.108 39.888,169.34 C38.953,167.168 38.082,164.964 37.282,162.724 L30.502,162.724 C35.671,178.136 43.91,192.151 54.487,204.043 C53.962,204.3 53.413,204.726 52.959,205.481 L54.962,206.591 C55.171,206.24 55.435,205.836 55.746,205.432 C56.83,206.613 57.937,207.773 59.067,208.91 C58.766,209.254 58.659,209.716 58.895,210.462 C60.624,210.97 60.814,213.238 60.904,215.076 C60.274,215.545 59.365,216.826 59.092,216.23 L58.984,216.826 C51.208,209.666 44.34,201.536 38.574,192.628 C38.844,192.641 39.367,192.343 39.637,192.794 L39.726,191.124 C39.357,191.493 38.823,191.697 38.54,191.811 C38.453,192.069 38.414,192.244 38.406,192.369 C32.897,183.811 28.401,174.543 25.094,164.731 C25.21,164.656 25.34,164.577 25.489,164.485 C25.378,164.523 25.243,164.606 25.091,164.724 C24.868,164.06 24.646,163.394 24.433,162.724 L0,162.724 L0,156.318 L6.048,156.318 L6.132,156.714 C6.284,156.599 6.387,156.461 6.473,156.318 L10.862,156.318 C10.158,156.905 9.622,157.695 8.871,158.467 C9.594,158.427 10.236,157.944 10.68,157.313 C12.056,157.485 9.602,159.12 9.684,160.266 C12.059,160.297 13.065,161.547 14.431,162.424 C14.974,160.116 12.061,160.989 12.788,158.143 L11.149,159.467 C12.082,158.255 12.223,157.086 12.125,156.318 L21.084,156.318 C20.503,156.846 20.06,157.339 20.657,157.918 C20.433,158.154 20.494,158.25 20.874,158.107 L20.657,157.918 C20.747,157.823 20.879,157.707 21.063,157.572 C21.524,159.029 24.426,157.455 24.163,159.656 C24.606,159.042 24.278,158.713 25.175,157.908 L25.294,157.949 L25.255,157.836 L25.175,157.908 C24.366,157.608 23.745,157.223 23.337,157.173 C23.441,156.867 23.514,156.592 23.589,156.318 L214.474,156.318 C214.444,156.543 214.474,156.761 214.754,156.798 L215.064,156.318 L216.394,156.318 L216.304,156.435 L216.484,156.318 L260.974,156.318 C261.074,156.354 261.174,156.384 261.264,156.396 C260.354,157.672 260.174,157.514 259.084,157.926 C259.184,159.763 262.994,158.31 264.274,158.758 C264.914,158.28 264.924,157.573 264.994,157.313 L264.454,158.222 C263.114,158.367 262.264,157.475 262.204,156.318 Z M187.274,235.755 C187.234,235.948 187.154,236.13 186.954,236.281 L188.104,235.423 C187.824,235.535 187.554,235.646 187.274,235.755 Z M70.354,218.912 C70.404,219.122 70.474,219.343 70.564,219.577 C70.674,219.488 70.774,219.4 70.864,219.313 C70.694,219.18 70.524,219.046 70.354,218.912 Z M66.844,216.072 C66.974,216.452 67.194,216.702 67.584,216.691 C67.334,216.487 67.094,216.279 66.844,216.072 Z M89.074,237.353 C89.214,237.418 89.344,237.484 89.484,237.549 L89.194,237.02 C89.174,237.133 89.124,237.244 89.074,237.353 Z M80.864,232.974 L80.894,232.697 L80.694,232.875 L80.864,232.974 Z M207.104,181.898 C206.654,181.466 206.114,181.257 205.484,181.269 C204.854,181.281 204.334,181.51 203.914,181.955 L202.274,183.687 L215.554,196.268 L217.194,194.536 C217.624,194.08 217.824,193.539 217.794,192.913 C217.764,192.288 217.524,191.764 217.074,191.341 L207.104,181.898 Z M107.074,213.14 L109.834,203.067 L104.384,211.978 L107.074,213.14 Z M137.134,1.763 C141.494,-2 140.514,4.445 143.234,1.306 C143.104,4.375 140.234,4.176 138.824,5.859 C139.344,5.838 139.874,5.824 140.394,5.811 C140.504,5.66 140.684,5.47 140.964,5.214 C140.874,5.484 140.824,5.673 140.814,5.798 C140.974,5.794 141.134,5.791 141.284,5.788 C141.814,5.364 142.614,4.445 142.874,4.484 L142.804,5.773 C143.044,5.772 143.274,5.766 143.504,5.766 C145.644,5.766 147.764,5.828 149.874,5.94 C150.234,4.897 150.724,3.806 151.334,2.668 L152.984,4.143 L153.194,3.956 C153.354,3.637 153.674,3.306 154.344,2.92 L153.194,3.956 C152.854,4.609 153.184,5.209 152.634,6.117 C153.274,6.165 153.904,6.22 154.544,6.279 C154.694,4.986 154.824,4.319 155.984,3.007 C156.734,3.683 155.804,5.005 154.904,6.312 C161.564,6.947 168.064,8.127 174.354,9.816 L174.384,9.786 L174.374,9.821 C178.734,10.992 183.004,12.409 187.154,14.049 C187.354,13.203 187.464,12.351 187.474,11.666 L187.234,11.909 C186.774,11.844 187.224,11.208 187.394,10.676 C187.454,10.925 187.474,11.27 187.474,11.666 L189.754,9.312 L187.854,8.638 C188.194,8.601 188.564,8.569 188.934,8.557 C183.424,6.397 177.724,4.617 171.864,3.251 C171.754,4.26 170.894,5.086 171.554,6.183 L172.734,4.806 C173.794,4.791 173.764,5.843 174.114,6.354 L174.924,4.675 L175.194,5.27 L174.124,6.365 C174.414,6.764 174.944,6.816 176.464,5.725 L173.834,7.891 C173.824,6.645 172.174,6.948 172.524,5.441 C171.954,6.576 170.584,7.331 169.734,8.052 C171.364,5.33 168.914,4.857 168.444,3.402 C168.254,3.113 168.264,2.812 168.414,2.499 C160.364,0.863 152.034,0 143.504,0 C141.204,0 138.914,0.069 136.634,0.192 C136.714,0.671 135.714,1.967 137.134,1.763 Z M199.254,44.111 L199.924,43.245 C199.384,43.288 199.954,42.033 198.954,42.697 L198.964,42.725 C198.754,42.92 198.554,43.082 198.374,43.218 C198.844,43.452 199.094,43.773 199.254,44.111 Z M282.924,89.988 C282.024,91.268 281.564,90.507 280.754,90.813 C281.114,91.144 280.834,91.951 279.844,93.489 C280.654,93.182 281.294,92.01 281.564,92.606 C282.214,92.819 283.474,90.479 282.924,89.988 Z M237.304,82.106 C236.904,82.333 236.734,82.527 236.674,82.71 C236.434,82.948 236.224,83.208 236.134,83.483 L236.484,83.823 C236.794,83.389 236.534,83.073 236.674,82.71 C236.894,82.487 237.134,82.283 237.304,82.106 Z M235.864,93.19 C235.794,92.998 235.634,92.881 235.334,92.899 C235.364,93.302 235.584,93.307 235.864,93.19 Z M231.684,57.843 L231.554,56.766 L231.594,56.715 L231.544,56.683 L231.494,56.279 C231.154,56.625 231.364,56.562 231.544,56.683 L231.554,56.766 C231.014,57.608 230.394,57.407 229.764,57.876 C230.224,59.334 231.594,56.715 231.684,57.843 Z M228.234,58.921 L227.214,58.378 L226.764,59.716 C226.224,59.915 227.864,60.001 228.234,58.921 Z M226.534,72.414 L226.444,74.084 C226.814,73.715 227.354,73.512 227.634,73.398 C228.174,71.796 226.994,73.176 226.534,72.414 Z M224.594,59.43 C224.714,59.387 224.854,59.316 225.034,59.208 C225.764,58.463 226.944,58.48 227.134,57.237 C226.894,57.489 225.214,58.182 224.514,57.897 C224.594,57.524 224.564,57.233 224.244,57.225 C224.284,57.056 224.354,56.854 224.484,56.61 L223.604,57.644 L223.454,57.45 L219.444,52.701 L211.954,59.029 L211.214,58.618 C210.664,59.532 209.754,60.811 208.564,61.5 L208.754,61.732 L202.864,66.705 L203.304,65.83 C202.174,66.118 202.064,66.918 201.904,67.519 L200.024,69.109 C199.894,69.04 199.774,68.955 199.664,68.854 C203.574,65.03 201.384,63.765 204.744,60.149 C202.844,61.574 204.744,58.046 203.014,60.337 C203.914,56.258 208.204,57.666 207.274,54.747 C205.544,54.238 205.364,51.971 205.264,50.133 C205.894,49.663 206.804,48.382 207.084,48.979 L207.354,47.479 L205.434,48.904 L203.894,47.144 L203.804,47.422 C202.994,47.142 202.764,46.825 202.714,46.104 L203.984,44.464 L209.754,48.952 L212.194,45.815 L203.314,38.895 L200.174,42.929 C198.844,43.07 201.634,39.658 199.044,41.06 C199.684,41.268 198.904,42.242 198.954,42.697 C198.794,42.806 198.594,42.965 198.324,43.194 L198.374,43.218 C195.574,45.303 195.954,40.843 194.594,41.578 L193.954,43.457 L192.954,43.608 C193.314,44.594 194.164,46.04 192.444,47.663 C192.374,47.505 192.204,47.435 191.874,47.517 L192.234,47.852 L192.444,47.663 C192.764,48.39 191.034,51.026 192.974,49.908 C193.434,48.564 193.604,47.331 195.604,45.631 C195.994,46.63 196.014,47.42 196.284,47.923 L194.444,50.281 L192.884,50.881 C192.644,51.575 192.704,51.971 193.014,52.11 L187.184,59.601 L191.884,63.266 C191.704,63.473 191.534,63.665 191.374,63.826 C189.914,63.92 189.184,63.261 188.274,63.142 L188.464,66.105 C189.674,65.642 190.934,64.652 192.054,63.396 L193.374,64.42 C192.564,65.32 191.794,66.044 191.114,66.028 L190.834,65.436 L191.024,67.003 C192.784,65.32 193.804,65.872 194.134,66.873 C193.854,67.563 193.684,68.206 194.214,68.125 C194.284,67.708 194.254,67.258 194.134,66.873 C194.364,66.285 194.664,65.667 194.664,65.426 L195.504,66.084 C195.264,66.557 195.114,66.941 195.774,66.65 C194.964,67.323 194.344,69.346 194.574,69.859 L196.214,69.235 L193.494,72.366 C195.134,71.043 195.954,72.832 195.764,73.378 C196.494,72.629 197.584,71.515 197.684,72.649 C198.054,72.968 198.044,71.578 197.954,71.133 C200.214,70.477 198.404,71.024 199.734,70.034 L200.514,70.959 C200.424,71.292 200.384,71.594 200.594,71.775 C198.954,73.102 198.134,73.414 198.044,75.076 C200.414,73.006 197.054,77.325 199.514,75.689 L199.224,74.393 C199.914,73.78 200.934,73.1 201.754,72.43 L203.404,74.386 C204.514,75.697 205.924,76.42 207.654,76.555 C209.374,76.691 210.894,76.199 212.214,75.083 L213.954,73.611 C213.114,76.313 215.794,77.228 212.634,81.21 C212.444,79.643 210.894,78.601 209.074,78.36 C207.444,81.78 212.084,80.718 211.364,84.256 L213.094,83.372 L213.814,80.534 C214.544,81.889 216.904,81.224 216.734,83.155 C215.284,83.941 214.004,83.492 212.914,84.606 L212.294,89.283 C212.554,87.786 215.924,86.273 214.734,85.55 L216.474,84.65 C216.644,84.125 216.194,84.064 216.644,83.421 C217.284,84.349 218.554,81.299 220.464,80.571 C218.724,80.765 222.004,78.818 221.454,78.322 C219.724,77.12 214.534,78.386 216.984,73.943 C215.534,76.137 214.884,75.213 214.334,74.726 C216.224,73.398 216.484,72.69 216.164,71.752 L222.684,66.238 C224.004,65.13 224.734,63.719 224.894,62.005 C224.974,61.09 224.874,60.233 224.594,59.43 Z M220.544,81.005 L219.914,83.583 L217.654,84.679 L217.834,85.54 C217.924,84.575 225.014,81.173 220.544,81.005 Z M219.564,86.052 C219.504,85.995 219.194,86.168 218.784,86.414 C217.764,86.67 216.714,86.301 215.554,88.044 L215.744,86.105 C213.874,87.857 215.864,87.777 215.374,88.941 L215.104,89.388 C215.234,89.218 215.314,89.074 215.374,88.941 L216.194,87.565 C216.794,87.642 217.984,86.89 218.784,86.414 C219.044,86.349 219.304,86.245 219.564,86.052 Z M216.484,93.063 C216.364,92.951 216.244,92.838 216.134,92.728 C215.964,91.956 216.104,90.331 214.394,92.223 C215.144,91.739 215.594,92.186 216.134,92.728 C216.194,92.978 216.284,93.139 216.484,93.063 Z M211.824,86.426 L211.274,85.226 L211.544,85.827 L211.824,86.426 Z M206.904,82.684 C206.274,81.463 204.604,83.022 203.484,84.458 C197.774,76.026 190.344,68.855 181.694,63.458 C181.794,63.08 181.804,62.795 181.444,62.936 C181.474,63.044 181.444,63.154 181.394,63.27 C170.364,56.464 157.384,52.533 143.504,52.533 C142.524,52.533 141.544,52.559 140.564,52.598 L140.544,52.329 C140.524,52.429 140.534,52.512 140.534,52.6 C115.704,53.609 94.054,67.186 81.794,87.128 L202.744,87.128 C202.904,87.927 202.964,88.787 204.364,88.087 C204.454,87.629 204.134,87.366 203.764,87.128 L205.214,87.128 C204.694,86.28 204.144,85.448 203.594,84.624 C203.804,84.404 204.044,84.163 204.354,83.894 C204.994,83.412 206.264,83.166 205.354,84.444 L206.904,82.684 Z M199.634,89.423 C199.024,89.514 198.424,90.374 197.894,90.831 C197.724,90.926 197.544,91.02 197.384,91.111 C197.244,91.12 197.114,91.059 196.994,90.891 L196.824,91.433 C196.984,91.328 197.174,91.22 197.384,91.111 C197.544,91.101 197.714,90.991 197.894,90.831 C198.674,90.415 199.454,89.96 199.634,89.423 Z M78.834,77.834 C80.554,77.662 81.964,76.901 83.074,75.55 C84.154,74.222 84.624,72.698 84.454,70.979 C84.294,69.26 83.534,67.849 82.184,66.744 L79.354,64.426 L76.754,67.601 L79.554,69.893 C80.044,70.291 80.314,70.802 80.374,71.426 C80.434,72.05 80.264,72.604 79.864,73.09 C79.464,73.577 78.954,73.851 78.344,73.912 C77.724,73.975 77.174,73.807 76.684,73.409 L65.564,64.32 C65.084,63.923 64.804,63.413 64.734,62.79 C64.674,62.166 64.834,61.612 65.234,61.125 C65.634,60.64 66.144,60.366 66.774,60.302 C67.404,60.239 67.954,60.407 68.444,60.804 L70.824,62.752 L73.424,59.576 L71.104,57.681 C69.764,56.586 68.234,56.12 66.514,56.282 C64.804,56.444 63.384,57.201 62.284,58.551 C61.184,59.89 60.724,61.422 60.894,63.145 C61.064,64.869 61.814,66.283 63.174,67.387 L74.254,76.45 C75.594,77.545 77.124,78.006 78.834,77.834 Z M74.074,46.511 L90.434,67.006 L98.854,60.281 L96.404,57.207 L91.074,61.463 L77.164,44.043 L74.074,46.511 Z M76.624,41.593 C79.614,39.056 74.984,41.515 76.244,39.866 C75.164,40.982 76.894,40.79 76.624,41.593 Z M113.244,54.297 L114.344,55.278 C115.074,55.24 114.244,54.155 113.244,54.297 Z M94.994,32.198 L102.564,57.701 L106.264,55.884 L104.464,50.051 L108.174,48.229 L111.664,53.23 L115.394,51.396 L99.884,29.798 L94.994,32.198 Z M114.894,30.559 C115.204,31.85 115.764,32.979 116.594,33.946 C117.354,34.8 118.524,35.695 120.094,36.631 C121.954,37.713 123.344,38.525 124.274,39.066 C125.484,39.885 126.224,40.825 126.474,41.885 C126.644,42.619 126.644,43.214 126.484,43.669 C126.164,44.589 125.594,45.162 124.754,45.388 C124.164,45.556 123.584,45.442 123.004,45.045 C122.214,44.524 121.574,43.539 121.054,42.089 L117.454,43.219 C117.854,44.557 118.414,45.697 119.154,46.635 C119.884,47.574 120.734,48.251 121.704,48.667 C122.874,49.181 124.204,49.26 125.714,48.904 C126.534,48.712 127.224,48.449 127.784,48.115 C128.844,47.492 129.584,46.68 130.004,45.677 C130.664,44.19 130.764,42.56 130.314,40.787 C130.134,40.07 129.754,39.301 129.174,38.477 C128.934,38.145 128.644,37.792 128.294,37.414 C127.564,36.613 126.604,35.849 125.434,35.122 C125.284,35.026 125.064,34.899 124.794,34.752 L124.834,34.705 L124.714,34.705 C124.344,34.504 123.874,34.262 123.294,33.971 C122.384,33.526 121.684,33.117 121.194,32.744 C119.904,31.773 119.124,30.703 118.844,29.535 C118.674,28.788 118.674,28.128 118.854,27.555 C119.074,26.845 119.534,26.405 120.244,26.239 C120.904,26.082 121.464,26.173 121.924,26.51 C122.544,26.979 123.034,27.723 123.394,28.743 L126.484,27.393 L126.284,27.613 L128.194,26.886 C127.364,25.8 130.544,24.825 130.554,23.419 C129.914,23.897 125.824,26.155 126.364,23.841 C125.544,25.631 128.214,25.145 126.834,26.974 C126.484,25.985 126.004,25.138 125.384,24.447 C124.714,23.702 123.934,23.182 123.064,22.886 C121.944,22.505 120.694,22.476 119.324,22.799 C117.894,23.136 116.784,23.778 115.994,24.726 C114.714,26.29 114.344,28.235 114.894,30.559 Z M130.854,34.519 L131.664,34.91 L132.304,33.734 C131.854,34.373 131.394,34.315 130.854,34.519 Z M129.754,32.134 C130.294,30.527 130.014,29.934 128.654,29.745 C128.754,30.179 130.574,31.124 129.114,32.61 C127.244,33.739 128.574,33.84 128.164,34.959 C128.084,35.068 128.004,35.205 127.934,35.397 C128.044,35.234 128.114,35.091 128.164,34.959 C128.294,34.762 128.434,34.654 128.484,34.486 C129.114,34.714 128.584,36.31 129.674,35.202 C129.764,34.937 129.034,34.981 129.484,34.334 C130.394,33.062 131.124,33.717 131.764,33.24 L134.024,29.341 C133.284,28.686 132.214,30.494 131.484,31.243 L132.464,29 C131.474,29.84 130.844,31.014 129.754,32.134 Z M133.854,35.482 C133.874,37.573 132.314,40.036 133.324,41.288 C133.694,39.513 137.764,35.16 133.854,35.482 Z M145.734,49.651 L147.004,50.105 C147.094,49.133 146.374,49.878 145.734,49.651 Z M148.674,26.803 C147.654,27.85 147.264,28.255 146.614,28.913 C147.094,28.559 148.754,27.798 148.674,26.803 Z M148.424,34.612 L148.064,34.982 C147.334,36.427 149.414,33.066 149.334,34.729 C149.784,33.399 148.684,33.813 147.514,33.09 C147.504,33.792 148.144,34.022 148.424,34.612 Z M138.314,33.549 L138.034,31.554 L137.304,32.298 L138.314,33.549 Z M136.154,39.547 C136.264,40.941 136.574,42.175 137.084,43.248 C137.594,44.321 138.284,45.165 139.144,45.779 C140.174,46.529 141.464,46.892 143.014,46.867 C143.854,46.854 144.584,46.745 145.204,46.539 C146.374,46.157 147.264,45.522 147.894,44.633 C148.854,43.319 149.304,41.748 149.244,39.921 C149.214,39.182 149.004,38.349 148.614,37.42 L148.554,37.296 L148.694,36.611 L148.304,36.761 C148.204,36.578 148.104,36.391 147.994,36.195 C147.444,35.254 146.674,34.305 145.684,33.344 C145.384,33.041 144.774,32.514 143.834,31.761 C143.044,31.133 142.444,30.584 142.054,30.115 C140.994,28.891 140.464,27.679 140.444,26.479 C140.434,25.712 140.574,25.067 140.874,24.546 C141.234,23.898 141.784,23.568 142.514,23.556 C143.194,23.545 143.724,23.753 144.094,24.179 C144.604,24.771 144.924,25.603 145.054,26.676 L148.824,25.924 C148.774,25.423 148.684,24.954 148.554,24.505 C149.154,24.418 149.524,24.808 150.214,23.654 C148.724,24.854 150.234,19.498 146.954,21.649 C146.654,21.356 146.334,21.097 145.984,20.884 C144.964,20.272 143.754,19.978 142.344,20 C140.884,20.024 139.664,20.414 138.684,21.17 C137.094,22.425 136.324,24.247 136.364,26.634 C136.384,27.961 136.694,29.185 137.304,30.307 C137.864,31.303 138.804,32.427 140.144,33.676 C141.724,35.13 142.914,36.222 143.714,36.95 C144.394,37.671 144.844,38.4 145.074,39.135 C144.684,39.013 144.234,39.074 143.974,39.347 C144.624,40.207 144.934,40.323 145.214,40.847 C145.164,41.28 145.054,41.641 144.884,41.917 C144.374,42.749 143.694,43.186 142.824,43.229 C142.214,43.266 141.664,43.03 141.184,42.518 C140.534,41.842 140.104,40.74 139.914,39.215 L136.154,39.547 Z M158.634,23.08 L154.584,47.305 L158.484,47.958 L161.674,28.893 C161.884,28.815 162.134,28.656 162.414,28.36 C162.054,28.496 161.844,28.523 161.744,28.481 L161.864,27.758 C162.034,27.425 162.234,27.05 162.234,26.785 L162.014,26.831 L162.554,23.628 L162.864,25.617 L162.964,25.346 L164.414,25.26 C166.044,23.238 163.864,23.364 163.774,22.236 C162.904,23.536 162.784,23.144 162.724,22.605 L162.814,22.092 L162.734,22.08 C162.764,21.923 162.684,21.811 162.494,21.787 C162.584,21.798 162.634,21.912 162.664,22.068 L161.894,21.939 C161.814,21.609 161.674,21.462 161.024,21.439 C161.064,21.476 161.024,21.605 160.944,21.779 L159.424,21.526 C160.184,20.538 161.284,19.55 160.124,18.947 C159.754,18.619 156.024,19.804 156.134,22.335 C156.134,23.249 157.904,22.796 158.634,23.08 Z M172.574,24.247 L163.944,49.036 L167.684,50.336 L171.344,39.819 L176.384,41.573 L177.694,37.817 L172.654,36.063 L174.684,30.228 C175.364,31.398 177.124,32.056 178.084,32.673 C177.914,32.5 178.084,31.975 177.634,31.906 L179.964,31.028 L181.904,31.703 L183.204,27.947 L179.594,26.69 C179.534,26.438 179.264,26.38 178.924,26.456 L172.574,24.247 Z M176.524,24.621 C177.234,23.884 177.524,24.476 178.244,23.738 L177.334,22.92 L176.524,24.621 Z M183.464,31.559 L183.094,34.744 L184.644,32.984 L186.284,33.762 C186.284,32.357 187.284,32.92 188.094,32.607 C188.104,31.196 190.994,26.831 187.184,28.978 L187.914,29.639 C186.094,29.397 186.554,31.558 185.274,32.511 L185.554,30.302 C184.824,30.35 184.184,32.225 183.464,31.559 Z M187.654,34.639 C188.014,34.273 189.384,33.757 188.564,33.355 C188.204,33.729 187.554,34.208 187.654,34.639 Z M182.974,42.485 C183.234,41.324 184.564,40.446 183.024,39.907 C181.744,40.162 181.384,42.637 180.294,41.648 L179.854,44.386 C180.344,45.099 182.374,42.468 182.974,42.485 C182.914,42.773 182.904,43.078 183.034,43.4 C183.204,42.737 183.154,42.49 182.974,42.485 Z M189.354,55.724 C188.344,57.277 187.434,55.755 187.264,57.684 C188.084,56.665 189.624,57.016 189.354,55.724 Z M191.304,31.852 L182.134,48.893 L181.584,49.095 L180.964,50.969 L181.974,49.183 L178.874,54.941 L182.354,56.817 L194.794,33.727 L191.304,31.852 Z M195.744,31.094 C196.464,30.359 195.464,30.508 195.374,30.07 C194.924,30.702 195.284,31.042 195.744,31.094 Z M197.654,30.371 L199.734,27.714 L198.284,27.799 C199.744,28.406 196.924,29.712 197.654,30.371 Z M199.744,29.808 C199.384,31.579 201.294,32.257 201.674,33.283 C201.854,34.845 200.304,34.499 200.124,35.043 L201.584,35.65 C203.754,33.426 202.034,33.61 203.304,31.261 L204.584,31.008 C204.964,29.237 202.964,31.371 203.084,30.493 L203.294,29.862 C203.164,30.159 203.104,30.359 203.084,30.493 L202.754,31.464 C199.204,33.517 203.474,27.921 199.744,29.808 Z M204.684,38.445 L204.054,38.921 C204.504,39.684 205.694,38.998 206.954,38.045 C206.694,38.151 205.324,38.667 205.774,37.322 L205.044,38.77 L204.684,38.445 Z M220.194,50.297 L220.554,51.331 L220.824,49.832 L220.194,50.297 Z M59.674,36.829 L59.684,38.919 C60.584,37.652 61.494,35.67 59.674,36.829 Z M254.394,73.739 C253.394,74.758 253.304,73.688 252.464,73.804 C252.404,73.784 252.324,73.801 252.204,73.869 C252.304,73.833 252.384,73.815 252.464,73.804 C253.004,73.988 251.464,77.402 253.764,76.313 L254.394,73.739 Z M250.644,67.223 L250.094,65.327 L249.824,66.835 L250.644,67.223 Z M287.014,87.128 L287.014,93.534 L208.194,93.534 C208.094,93.306 207.974,93.013 207.834,92.614 C207.504,93.079 207.244,93.363 206.984,93.534 L189.194,93.534 C189.304,93.45 189.424,93.36 189.554,93.256 C191.084,91.512 191.264,90.272 189.814,89.654 L188.994,91.373 L189.264,91.267 L188.634,93.143 L187.174,93.229 C187.214,93.34 187.254,93.441 187.294,93.534 L175.494,93.534 C175.334,93.094 176.664,91.726 176.334,90.81 L175.244,93.328 C175.054,93.259 174.724,93.351 174.374,93.534 L31.999,93.534 L32.254,93.273 L31.904,93.534 L25.013,93.534 C25.651,93.022 26.105,92.524 26.249,91.349 C24.072,93.583 25.8,91.287 23.789,92.29 C23.751,92.094 24.219,91.519 24.629,90.926 C24.76,90.832 24.895,90.737 25.058,90.64 C24.953,90.68 24.861,90.699 24.775,90.71 C25.205,90.05 25.474,89.424 24.787,89.336 C24.333,89.981 23.332,90.128 22.787,91.037 C23.856,89.781 23.957,90.809 24.775,90.71 L24.629,90.926 C23.233,91.928 23.484,92.816 23.556,93.534 L0,93.534 L0,87.128 L24.433,87.128 C33.66,58.127 53.209,33.687 78.744,18.141 C78.914,18.214 79.114,18.219 79.284,18.155 C79.454,17.948 79.534,17.785 79.554,17.648 C91.014,10.791 103.654,5.719 117.094,2.815 C117.174,3.109 117.214,3.415 117.204,3.737 C117.564,3.259 117.744,2.921 117.824,2.656 C122.104,1.758 126.464,1.08 130.894,0.634 L130.874,0.792 L130.404,2.685 L130.484,2.419 C131.364,2.289 132.934,1.717 133.554,0.396 C134.284,0.338 135.014,0.284 135.744,0.239 L135.484,0.98 C134.764,0.323 133.584,2.406 133.314,1.811 C133.444,2.433 133.854,4.377 134.014,6.142 C112.694,7.83 92.944,15.156 76.244,26.621 C74.564,25.366 71.184,26.079 71.104,24.072 L70.924,23.902 C70.284,23.682 70.294,25.084 69.844,25.714 C71.544,26.094 73.004,26.992 74.424,27.9 C54.593,42.063 39.271,62.143 31.052,85.54 C31.139,84.593 30.51,85.051 30.048,84.304 L29.234,86.718 C29.609,86.335 30.239,85.861 31.047,85.554 C30.864,86.077 30.679,86.601 30.502,87.128 L34.953,87.128 C34.474,88.318 34.457,89.263 36.258,88.479 L36.068,88.318 C36.299,87.89 36.739,87.506 37.19,87.128 L37.282,87.128 L37.324,87.015 C38.062,86.398 38.78,85.784 38.616,85.006 L38.102,84.911 C53.332,44.925 90.684,15.767 135.124,12.485 C135.094,12.742 135.454,12.566 135.524,12.888 L136.344,12.577 L136.054,12.42 C138.524,12.259 141.004,12.172 143.504,12.172 C161.294,12.172 178.124,16.317 193.104,23.685 C192.934,23.853 192.814,24.046 192.814,24.272 L194.174,24.454 L194.214,24.239 C194.974,24.621 195.724,25.01 196.474,25.409 C195.814,25.855 195.104,26.38 195.194,27.101 C197.454,26.011 196.644,27.726 195.924,29.161 C196.464,28.254 197.284,29.344 197.294,27.942 L197.054,25.727 C198.604,26.567 200.134,27.442 201.634,28.352 L201.564,28.66 L201.664,28.365 C212.614,34.988 222.354,43.421 230.464,53.247 L230.224,53.027 C230.034,54.266 229.304,54.307 230.584,54.756 C230.864,54.649 231.104,54.493 231.324,54.301 C234.024,57.654 236.534,61.164 238.844,64.816 L237.254,66 C237.534,66.601 237.174,66.964 238.354,66.293 C237.534,68.006 235.814,70.993 237.904,71.125 L239.174,68.776 C238.084,70.598 237.994,68.766 237.534,68.704 C239.064,68.118 239.144,66.89 239.524,65.903 C239.864,66.453 240.204,67.007 240.534,67.563 L240.174,68.633 L240.974,68.325 C241.234,68.764 241.484,69.203 241.734,69.645 C241.604,69.865 241.464,70.092 241.274,70.322 L241.804,69.772 C241.904,69.947 242.004,70.124 242.104,70.3 C241.874,70.781 241.494,71.253 242.464,71.026 L242.474,70.981 C245.294,76.134 247.734,81.529 249.724,87.128 L256.504,87.128 C252.704,75.798 247.244,65.225 240.424,55.694 C240.564,55.4 240.694,55.101 240.774,54.861 C240.434,54.853 240.204,54.968 240.024,55.142 C239.884,54.952 239.754,54.76 239.614,54.571 C240.394,53.504 239.944,53.216 240.764,52.051 C239.944,55.173 245.414,52.387 244.874,55.397 C246.434,53.958 244.714,53.569 245.124,52.359 C252.644,62.858 258.584,74.565 262.574,87.128 L283.624,87.128 C283.494,87.363 283.344,87.587 283.194,87.78 C283.454,87.486 283.674,87.278 283.854,87.128 L284.814,87.128 C284.944,87.419 285.024,87.825 285.294,87.916 L283.934,88.435 L285.384,88.348 C285.634,87.883 285.814,87.48 285.954,87.128 L287.014,87.128 Z M197.354,54.548 L196.534,55.56 L197.704,53.681 L197.144,53.248 L192.744,58.894 L194.474,60.242 C195.414,59.254 196.394,58.446 197.284,58.317 C198.094,56.597 198.724,54.727 197.354,54.548 Z M177.394,30.135 L176.664,29.88 L176.624,29.962 C176.884,29.996 177.094,30.208 177.394,30.135 Z M132.214,0.821 C132.204,0.695 132.204,0.595 132.224,0.511 C131.794,0.55 131.354,0.588 130.914,0.632 L130.874,0.792 C130.824,1.654 132.134,-0.104 132.214,0.821 Z M171.354,3.128 C170.934,3.034 170.524,2.947 170.104,2.857 C170.364,3.234 170.574,3.654 169.914,4.707 C170.584,4.203 171.074,3.638 171.354,3.128 Z M196.794,18.084 L199.434,16.61 L197.614,14.969 C197.524,15.935 198.794,16.385 196.794,18.084 Z M236.374,43.916 L237.104,45.275 L237.554,43.233 L236.374,43.916 Z M191.224,10.626 C191.414,10.189 191.474,9.841 191.424,9.563 C191.854,9.741 192.284,9.918 192.704,10.102 C192.744,10.401 192.834,10.618 193.134,10.598 L193.224,10.331 C193.524,10.462 193.834,10.595 194.134,10.729 C194.024,11.77 191.994,13.666 193.694,13.89 C195.044,12.352 193.334,12.343 194.774,11.013 C198.834,12.848 202.774,14.899 206.594,17.142 C206.424,17.41 206.274,17.643 206.174,17.788 L205.994,18.325 L206.764,17.239 C208.404,18.209 210.024,19.213 211.624,20.255 C211.524,21.312 212.344,21.31 213.324,21.391 C219.774,25.753 225.794,30.699 231.304,36.155 C231.474,36.715 231.804,37.111 232.364,37.215 C232.724,37.578 233.074,37.944 233.434,38.311 C233.494,38.761 233.334,39.301 232.714,39.934 C231.354,40.445 230.984,39.424 231.084,38.449 C230.444,38.222 230.354,39.193 229.994,39.563 C231.084,39.849 231.454,42.28 230.274,42.96 L233.544,41.718 C232.734,41.328 232.914,40.789 234.184,39.836 C234.634,40.083 235.384,40.678 236.164,41.234 C239.004,44.373 241.674,47.657 244.184,51.072 C243.004,51.078 241.184,51.972 240.034,52.094 L242.134,50.131 C242.304,48.894 239.944,50.265 240.484,48.658 C241.114,47.483 240.124,49.028 240.034,49.294 L239.024,47.348 C237.244,47.658 237.024,49.799 236.184,50.135 C236.044,49.954 235.894,49.772 235.744,49.591 C237.794,47.903 235.394,47.746 236.934,46.503 C234.834,47.064 233.294,45.314 232.554,44.666 C232.284,44.796 232.044,44.924 231.834,45.05 C225.044,37.541 217.304,30.901 208.824,25.314 C208.484,24.156 207.424,22.648 206.104,22.954 L206.464,23.281 L206.174,23.618 C200.654,20.187 194.824,17.2 188.754,14.697 C189.044,14.172 189.274,13.586 189.584,12.651 C189.324,12.745 188.414,13.328 188.314,12.898 C188.864,11.283 190.584,11.102 191.224,10.626 Z M142.144,5.78 C142.314,5.778 142.494,5.776 142.664,5.774 C142.554,5.541 142.404,5.535 142.144,5.78 Z M223.624,57.669 C223.884,58.005 224.114,58.353 224.294,58.713 C224.364,58.448 224.464,58.154 224.514,57.897 C224.284,57.802 224.164,57.595 224.244,57.225 L224.034,57.249 L223.624,57.669 Z M218.914,58.33 L204.934,70.133 L206.474,71.956 C206.884,72.436 207.394,72.695 208.024,72.733 C208.654,72.77 209.194,72.591 209.664,72.195 L220.154,63.336 C220.634,62.931 220.904,62.417 220.964,61.792 C221.014,61.168 220.844,60.622 220.454,60.153 L218.914,58.33 Z M103.314,46.324 L100.074,36.399 L105.944,45.032 L103.314,46.324 L103.314,46.324 Z" id="Fill-6" fill="#242E84"></path>
    </g>
</svg>