<?xml version="1.0" encoding="UTF-8"?>
<svg width="120px" height="70px" viewBox="0 0 120 70" version="1.1" xmlns="http://www.w3.org/2000/svg" xmlns:xlink="http://www.w3.org/1999/xlink">
    <!-- Generator: Sketch 53.2 (72643) - https://sketchapp.com -->
    <title>10279499011595988609</title>
    <desc>Created with Sketch.</desc>
    <g id="Page-1" stroke="none" stroke-width="1" fill="none" fill-rule="evenodd">
        <g id="10279499011595988609" fill="#6AD195" fill-rule="nonzero">
            <path d="M45,10 C48,10 50,8 50,5 C50,2 48,0 45,0 C20,0 0,20 0,45 C0,59 11,70 25,70 C39,70 50,59 50,45 C50,31 39,20 25,20 C23.5,20 21.5,20 20,20.5 C26.5,14 35,10 45,10 Z" id="Path"></path>
            <path d="M95,20 C93.5,20 91.5,20 90,20.5 C96.5,14 105,10 115,10 C118,10 120,8 120,5 C120,2 118,0 115,0 C90,0 70,20 70,45 C70,59 81,70 95,70 C109,70 120,59 120,45 C120,31 109,20 95,20 Z" id="Path"></path>
        </g>
    </g>
</svg>