<?xml version="1.0" encoding="UTF-8"?>
<svg width="120px" height="70px" viewBox="0 0 120 70" version="1.1" xmlns="http://www.w3.org/2000/svg" xmlns:xlink="http://www.w3.org/1999/xlink">
    <!-- Generator: Sketch 53.2 (72643) - https://sketchapp.com -->
    <title>6143970111595988609</title>
    <desc>Created with Sketch.</desc>
    <g id="Page-1" stroke="none" stroke-width="1" fill="none" fill-rule="evenodd">
        <g id="6143970111595988609" fill="#6AD195" fill-rule="nonzero">
            <path d="M95,0 C81,0 70,11 70,25 C70,39 81,50 95,50 C96.5,50 98.5,50 100,49.5 C93.5,56 85,60 75,60 C72,60 70,62 70,65 C70,68 72,70 75,70 C100,70 120,50 120,25 C120,11 109,0 95,0 Z" id="Path"></path>
            <path d="M25,0 C11,0 0,11 0,25 C0,39 11,50 25,50 C26.5,50 28.5,50 30,49.5 C23.5,56 15,60 5,60 C2,60 0,62 0,65 C0,68 2,70 5,70 C30,70 50,50 50,25 C50,11 39,0 25,0 Z" id="Path"></path>
        </g>
    </g>
</svg>