<?xml version="1.0" encoding="UTF-8"?>
<svg width="48px" height="48px" viewBox="0 0 48 48" version="1.1" xmlns="http://www.w3.org/2000/svg" xmlns:xlink="http://www.w3.org/1999/xlink">
    <!-- Generator: Sketch 53.2 (72643) - https://sketchapp.com -->
    <title>Group 4</title>
    <desc>Created with Sketch.</desc>
    <g id="Landing-Page" stroke="none" stroke-width="1" fill="none" fill-rule="evenodd">
        <g id="Artboard" transform="translate(-1050.000000, -450.000000)">
            <g id="Group-4" transform="translate(1051.000000, 451.000000)">
                <circle id="Oval-Copy-2" stroke="#F3F5F7" fill="#FFFFFF" cx="23" cy="23" r="23"></circle>
                <g id="react" transform="translate(7.000000, 9.000000)" fill="#00D8FF" fill-rule="nonzero">
                    <path d="M26.3104226,9.22795467 C25.9784622,9.11369379 25.6344834,9.00558451 25.2803087,8.9033421 C25.3385215,8.66576372 25.3919495,8.43126117 25.4394539,8.2007458 C26.2192304,4.41561153 25.7093853,1.36628098 23.968416,0.362311604 C22.2990449,-0.600362076 19.5689159,0.403379459 16.811617,2.8029722 C16.5464701,3.03371541 16.2805828,3.27801501 16.0148096,3.53404826 C15.8377221,3.3646505 15.6609197,3.20094871 15.484573,3.04436685 C12.5948431,0.478566079 9.69833503,-0.602697421 7.95907457,0.404176894 C6.29129836,1.3696416 5.79740195,4.2363028 6.49931472,7.82350258 C6.56709661,8.16998764 6.64632736,8.52382049 6.73592477,8.88357713 C6.32598676,8.99994551 5.93023167,9.12400346 5.55156445,9.25597879 C2.16366621,10.4371494 0,12.2883354 0,14.2084994 C0,16.1916609 2.32269733,18.1808029 5.85145658,19.3869216 C6.12993191,19.4821011 6.41888781,19.5720972 6.71667245,19.6575366 C6.62001206,20.0466275 6.53593974,20.4279147 6.46536681,20.7998039 C5.79609189,24.3247469 6.31875289,27.123683 7.98208624,28.0830531 C9.70015774,29.073808 12.583565,28.0554277 15.3912731,25.6011539 C15.6131876,25.4071495 15.8358995,25.2014116 16.0590101,24.9857627 C16.348194,25.264238 16.6369219,25.5277899 16.9241121,25.7749944 C19.6437038,28.1152922 22.3297461,29.0603086 23.9915415,28.0982615 C25.7079042,27.1046585 26.2657094,24.0979337 25.5415252,20.4397625 C25.4862175,20.1603758 25.4218533,19.8749512 25.3495716,19.5844576 C25.5520629,19.5245929 25.7508517,19.4627919 25.9446852,19.3985415 C29.6131664,18.1830813 32,16.2181469 32,14.2084994 C32,12.2813863 29.7665582,10.4177262 26.3104226,9.22795467 L26.3104226,9.22795467 Z M25.5147544,18.1009456 C25.3397746,18.1588734 25.160238,18.2148648 24.9772839,18.2691471 C24.5723014,16.9870443 24.0257174,15.6237169 23.3568411,14.2151638 C23.9951301,12.8401596 24.520582,11.494262 24.9142296,10.2204752 C25.2415763,10.3151989 25.5592968,10.415106 25.8654545,10.5205382 C28.8266685,11.5399436 30.6329704,13.0471508 30.6329704,14.2084994 C30.6329704,15.4455474 28.6822191,17.0514085 25.5147544,18.1009456 L25.5147544,18.1009456 Z M24.2004693,20.7052509 C24.5206959,22.3228457 24.5664344,23.7853396 24.354317,24.9286321 C24.1637304,25.955955 23.7804494,26.6408938 23.3065458,26.9152111 C22.2980765,27.4989328 20.1414735,26.7401744 17.8156433,24.738729 C17.5490155,24.5092957 17.2804511,24.2643127 17.0110324,24.0050326 C17.9127024,23.0188916 18.8138597,21.8724665 19.6933725,20.5992491 C21.2403374,20.4619768 22.7018631,20.2375559 24.0272552,19.9311704 C24.0925309,20.1944945 24.1505158,20.4527491 24.2004693,20.7052509 L24.2004693,20.7052509 Z M10.9095233,26.8143358 C9.92423667,27.1623018 9.13950469,27.1722696 8.66514539,26.8987498 C7.65576486,26.316566 7.23614373,24.0692831 7.80853043,21.0547549 C7.8740909,20.7095229 7.95212551,20.3548928 8.04206466,19.992402 C9.35293219,20.2822692 10.8037494,20.4908551 12.3544167,20.6165649 C13.2398532,21.8624417 14.1670411,23.0076138 15.1014059,24.01033 C14.8972627,24.20741 14.693917,24.395035 14.4917106,24.5718374 C13.2501629,25.6570881 12.0059951,26.4270675 10.9095233,26.8143358 L10.9095233,26.8143358 Z M6.29357676,18.0933699 C4.73322631,17.5600575 3.44462997,16.8669165 2.56135792,16.1105504 C1.7676833,15.4308519 1.36697271,14.7560519 1.36697271,14.2084994 C1.36697271,13.0432775 3.10418264,11.5570315 6.00154505,10.5468535 C6.35309951,10.4242765 6.72111529,10.3087625 7.10302921,10.2002545 C7.50345498,11.502806 8.02873613,12.8646523 8.66263919,14.2417638 C8.02053395,15.6393238 7.4877911,17.0228719 7.08343511,18.3406882 C6.81116837,18.2624259 6.54738861,18.1800624 6.29357676,18.0933699 L6.29357676,18.0933699 Z M7.84088347,7.56097591 C7.23950432,4.48755148 7.63890484,2.16906915 8.64395644,1.58728411 C9.71451155,0.96750703 12.0818082,1.85117778 14.5768653,4.06662024 C14.736352,4.20822174 14.8964654,4.35643053 15.0570344,4.5097657 C14.1272834,5.50809608 13.2085825,6.64466733 12.3310064,7.88319619 C10.8260206,8.02269019 9.38539914,8.24676914 8.06086134,8.54683214 C7.97758642,8.21185291 7.90382379,7.88274052 7.84088347,7.56097591 L7.84088347,7.56097591 Z M21.6442376,10.9693796 C21.3275995,10.4224538 21.0025311,9.88845784 20.6711405,9.36904354 C21.6921408,9.49811391 22.6703642,9.6694483 23.5890082,9.87911649 C23.3132099,10.7630151 22.9694591,11.6871841 22.5648182,12.6345926 C22.2745524,12.0835088 21.9675402,11.5278682 21.6442376,10.9693796 L21.6442376,10.9693796 Z M16.0152651,5.48673624 C16.6458076,6.16985236 17.2772614,6.93254099 17.8983486,7.7600496 C17.2724768,7.73048759 16.6388585,7.7151085 16.0000001,7.7151085 C15.3671793,7.7151085 14.7382318,7.73014584 14.1162331,7.75919521 C14.7379469,6.93937612 15.3748688,6.17771276 16.0152651,5.48673624 L16.0152651,5.48673624 Z M10.3502373,10.9788349 C10.0339408,11.5272986 9.73262469,12.0799203 9.44691549,12.6335674 C9.04882505,11.6894625 8.70826379,10.7610784 8.43007325,9.86464874 C9.34307819,9.66033476 10.3166881,9.49327236 11.331195,9.36665124 C10.9951336,9.89085014 10.6673882,10.4287763 10.3502373,10.978721 L10.3502373,10.9788349 L10.3502373,10.9788349 Z M11.3604153,19.1478624 C10.3122453,19.0309244 9.32399674,18.872463 8.41121962,18.6737879 C8.69385302,17.7613525 9.04193295,16.8131466 9.44845339,15.8487071 C9.73490308,16.4019555 10.0374153,16.9548051 10.3556485,17.504465 L10.3557054,17.504465 C10.6798623,18.0644345 11.0156959,18.612955 11.3604153,19.1478624 L11.3604153,19.1478624 Z M16.0530864,23.0266381 C15.4051713,22.3275734 14.758908,21.5542904 14.127739,20.7225098 C14.740453,20.7465466 15.3651286,20.75885 16.0000001,20.75885 C16.6522441,20.75885 17.2970264,20.7441544 17.93167,20.7159024 C17.3085321,21.5626635 16.6793569,22.3371426 16.0530864,23.0266381 L16.0530864,23.0266381 Z M22.577862,15.7995511 C23.0055714,16.7744141 23.3661255,17.7176646 23.6524043,18.61455 C22.7245899,18.8262116 21.722842,18.9966918 20.6673811,19.1233699 C20.9995694,18.5969494 21.3274855,18.0537829 21.6497057,17.4950665 C21.9756855,16.9297999 22.2852038,16.3636787 22.577862,15.7995511 L22.577862,15.7995511 Z M20.4655732,16.8121214 C19.9653544,17.6794446 19.4518069,18.5074089 18.930456,19.2889514 C17.9808829,19.356847 16.9998682,19.3918202 16.0000001,19.3918202 C15.004176,19.3918202 14.0355214,19.3608911 13.1027516,19.3003431 C12.5603825,18.5085483 12.035671,17.6781348 11.5386418,16.819583 L11.5387557,16.819583 C11.0430365,15.9633669 10.5867904,15.0999166 10.1733778,14.2413082 C10.5866765,13.380706 11.0417265,12.5162876 11.5345976,11.6616092 L11.5344837,11.6617801 C12.0286649,10.8048234 12.5487627,9.97845396 13.0861192,9.19161446 C14.0377997,9.11967455 15.0136881,9.08213819 15.9999431,9.08213819 L16.0000001,9.08213819 C16.9906979,9.08213819 17.9678392,9.11995932 18.9192349,9.19252584 C19.4483892,9.97361241 19.9649556,10.7973047 20.4610735,11.6543754 C20.9628305,12.5210722 21.4237472,13.3797376 21.8405772,14.221885 C21.4250004,15.0784999 20.9651089,15.9458234 20.4655732,16.8121214 L20.4655732,16.8121214 Z M23.2855846,1.54661497 C24.3571651,2.16456935 24.7738811,4.65677835 24.1006191,7.92483365 C24.0576715,8.13336264 24.009313,8.34576486 23.9567961,8.56101508 C22.6291825,8.25468651 21.1875358,8.02673432 19.6781644,7.88513282 C18.7988794,6.63299061 17.8876971,5.49465361 16.9730973,4.50913912 C17.2189918,4.27258606 17.4645445,4.04702615 17.7090719,3.83416825 C20.071527,1.77821259 22.2795648,0.966481757 23.2855846,1.54661497 L23.2855846,1.54661497 Z M16.0000001,11.3510087 C17.5781219,11.3510087 18.8574908,12.6303206 18.8574908,14.2084994 C18.8574908,15.7866211 17.5781219,17.0659902 16.0000001,17.0659902 C14.4218783,17.0659902 13.1425094,15.7866211 13.1425094,14.2084994 C13.1425094,12.6303206 14.4218783,11.3510087 16.0000001,11.3510087 L16.0000001,11.3510087 Z" id="Shape"></path>
                </g>
            </g>
        </g>
    </g>
</svg>