<?xml version="1.0" encoding="UTF-8"?>
<svg width="20px" height="16px" viewBox="0 0 20 16" version="1.1" xmlns="http://www.w3.org/2000/svg" xmlns:xlink="http://www.w3.org/1999/xlink">
    <!-- Generator: Sketch 53.2 (72643) - https://sketchapp.com -->
    <title>twitter-[#154]</title>
    <desc>Created with Sketch.</desc>
    <g id="Page-1" stroke="none" stroke-width="1" fill="none" fill-rule="evenodd">
        <g id="twitter-logo" transform="translate(0.000000, 0.000000)" fill="#40A8F5" fill-rule="nonzero">
            <path d="M6.29,16 C13.837,16 17.965,9.84365 17.965,4.50546 C17.965,4.33021 17.965,4.15595 17.953,3.98267 C18.756,3.41163 19.449,2.70276 20,1.8915 C19.252,2.21837 18.457,2.433 17.644,2.52751 C18.5,2.02244 19.141,1.2289 19.448,0.2926 C18.642,0.76321 17.761,1.095 16.842,1.27321 C15.288,-0.35326 12.689,-0.43202 11.036,1.09796 C9.971,2.08447 9.518,3.55538 9.849,4.95835 C6.55,4.79492 3.476,3.261 1.392,0.73762 C0.303,2.58363 0.86,4.94457 2.663,6.12996 C2.01,6.11125 1.371,5.93797 0.8,5.62489 L0.8,5.67608 C0.801,7.5989 2.178,9.2549 4.092,9.63591 C3.488,9.79836 2.854,9.82199 2.24,9.70483 C2.777,11.35099 4.318,12.47829 6.073,12.51078 C4.62,13.63513 2.825,14.24554 0.977,14.24358 C0.651,14.24259 0.325,14.22388 0,14.18549 C1.877,15.37088 4.06,16 6.29,15.99705" id="twitter-[#154]"></path>
        </g>
    </g>
</svg>