<?xml version="1.0" encoding="UTF-8"?>
<svg width="32px" height="32px" viewBox="0 0 32 32" version="1.1" xmlns="http://www.w3.org/2000/svg" xmlns:xlink="http://www.w3.org/1999/xlink">
    <title>D163B67A-2062-4C37-AB00-A64D6C5FD8CB</title>
    <g id="Landing-Page" stroke="none" stroke-width="1" fill="none" fill-rule="evenodd">
        <g transform="translate(-1104.000000, -9101.000000)" fill="#536784" id="5279123_tweet_twitter_twitter-logo_icon">
            <g transform="translate(1104.000000, 9101.000000)">
                <path d="M16,0 C24.830625,0 32,7.169375 32,16 C32,24.830625 24.830625,32 16,32 C7.169375,32 0,24.830625 0,16 C0,7.169375 7.169375,0 16,0 Z M13.1818125,24.509875 C20.262,24.509875 24.1333125,18.643 24.1333125,13.5584375 C24.1333125,13.3908125 24.1333125,13.2231875 24.1253125,13.0635 C24.875625,12.52075 25.5301875,11.84225 26.049,11.068 C25.3625625,11.3713125 24.6201875,11.578875 23.8379375,11.674625 C24.6361875,11.1956875 25.2428125,10.445375 25.5301875,9.5434375 C24.7878125,9.9824375 23.9656875,10.3016875 23.087625,10.4773125 C22.3851875,9.727 21.3874375,9.2640625 20.2779375,9.2640625 C18.1546875,9.2640625 16.4305625,10.9881875 16.4305625,13.1114375 C16.4305625,13.41475 16.4625,13.7100625 16.5343125,13.9894375 C13.3335,13.8298125 10.4998125,12.29725 8.600125,9.9664375 C8.2728125,10.5331875 8.08125,11.1956875 8.08125,11.898125 C8.08125,13.231125 8.75975,14.4125 9.7974375,15.0989375 C9.1668125,15.083 8.576125,14.907375 8.0573125,14.6200625 L8.0573125,14.6679375 C8.0573125,16.53575 9.3823125,18.08425 11.146375,18.4435 C10.827125,18.53125 10.483875,18.5791875 10.1326875,18.5791875 C9.8851875,18.5791875 9.64575,18.55525 9.4063125,18.5073125 C9.8931875,20.039875 11.314,21.1494375 12.99825,21.1813125 C11.6811875,22.2110625 10.0209375,22.8256875 8.2169375,22.8256875 C7.905625,22.8256875 7.6023125,22.8096875 7.299,22.7698125 C8.98325,23.8713125 11.0106875,24.509875 13.1818125,24.509875 Z" id="Shape"></path>
            </g>
        </g>
    </g>
</svg>