<svg width="32" height="32" viewBox="0 0 32 32" fill="none" xmlns="http://www.w3.org/2000/svg">
<g id="5279123_tweet_twitter_twitter logo_icon">
<path id="Shape" fill-rule="evenodd" clip-rule="evenodd" d="M16 0C24.8306 0 32 7.16938 32 16C32 24.8306 24.8306 32 16 32C7.16938 32 0 24.8306 0 16C0 7.16938 7.16938 0 16 0ZM13.1818 24.5099C20.262 24.5099 24.1333 18.643 24.1333 13.5584C24.1333 13.3908 24.1333 13.2232 24.1253 13.0635C24.8756 12.5208 25.5302 11.8423 26.049 11.068C25.3626 11.3713 24.6202 11.5789 23.8379 11.6746C24.6362 11.1957 25.2428 10.4454 25.5302 9.54344C24.7878 9.98244 23.9657 10.3017 23.0876 10.4773C22.3852 9.727 21.3874 9.26406 20.2779 9.26406C18.1547 9.26406 16.4306 10.9882 16.4306 13.1114C16.4306 13.4148 16.4625 13.7101 16.5343 13.9894C13.3335 13.8298 10.4998 12.2973 8.60012 9.96644C8.27281 10.5332 8.08125 11.1957 8.08125 11.8981C8.08125 13.2311 8.75975 14.4125 9.79744 15.0989C9.16681 15.083 8.57613 14.9074 8.05731 14.6201V14.6679C8.05731 16.5357 9.38231 18.0843 11.1464 18.4435C10.8271 18.5312 10.4839 18.5792 10.1327 18.5792C9.88519 18.5792 9.64575 18.5553 9.40631 18.5073C9.89319 20.0399 11.314 21.1494 12.9983 21.1813C11.6812 22.2111 10.0209 22.8257 8.21694 22.8257C7.90562 22.8257 7.60231 22.8097 7.299 22.7698C8.98325 23.8713 11.0107 24.5099 13.1818 24.5099Z" fill="#191C3C"/>
</g>
</svg>
