<svg width="512" height="512" viewBox="0 0 512 512" fill="none" xmlns="http://www.w3.org/2000/svg">
<rect width="512" height="512" fill="#7355B6"/>
<path d="M441.259 298.332L427.461 290.366C429.779 278.841 430.951 267.3 430.951 256C430.951 244.535 429.797 232.984 427.519 221.6L441.259 213.667C445.514 211.211 448.558 207.244 449.829 202.498C451.101 197.752 450.449 192.795 447.991 188.539L410.418 123.46C407.961 119.205 403.995 116.16 399.249 114.889C394.502 113.618 389.545 114.27 385.289 116.727L371.539 124.666C354.17 109.386 333.728 97.5593 311.969 90.2012V74.3953C311.969 64.2521 303.717 56 293.573 56H218.427C208.283 56 200.031 64.2521 200.031 74.3953V90.202C178.388 97.5303 157.974 109.372 140.541 124.713L126.71 116.727C122.454 114.27 117.497 113.617 112.751 114.889C108.005 116.161 104.038 119.205 101.581 123.46L64.0079 188.539C61.5507 192.795 60.8987 197.752 62.1699 202.498C63.4411 207.244 66.4854 211.211 70.7406 213.667L84.5378 221.634C82.2224 233.159 81.049 244.699 81.049 256C81.049 267.463 82.2028 279.014 84.4807 290.399L70.7413 298.332C61.957 303.404 58.937 314.676 64.0079 323.461L101.581 388.54C106.653 397.324 117.925 400.344 126.71 395.273L140.46 387.334C157.829 402.614 178.27 414.441 200.031 421.8V437.605C200.031 447.748 208.283 456 218.427 456H293.573C303.717 456 311.969 447.748 311.969 437.605V421.798C333.613 414.47 354.027 402.628 371.46 387.288L385.29 395.273C394.074 400.344 405.347 397.324 410.419 388.54L447.992 323.461C453.063 314.676 450.043 303.404 441.259 298.332ZM437.823 317.59L400.25 382.668C398.416 385.847 394.338 386.939 391.161 385.104L373.633 374.984C371.406 373.698 368.6 374.012 366.712 375.758C348.791 392.332 327.231 404.837 304.361 411.922C301.903 412.683 300.227 414.957 300.227 417.53V437.605C300.227 441.274 297.242 444.258 293.573 444.258H218.427C214.758 444.258 211.773 441.274 211.773 437.605V417.53C211.773 414.957 210.097 412.684 207.64 411.923C184.629 404.794 163.042 392.304 145.209 375.806C144.097 374.777 142.665 374.244 141.221 374.244C140.215 374.244 139.202 374.503 138.287 375.031L120.839 385.104C117.661 386.938 113.584 385.846 111.75 382.668L74.177 317.59C72.3429 314.413 73.4357 310.335 76.6122 308.5L94.0462 298.434C96.2725 297.149 97.4036 294.566 96.8376 292.058C94.1519 280.154 92.7907 268.022 92.7907 256C92.7907 244.18 94.1723 232.059 96.8979 219.975C97.4631 217.468 96.332 214.884 94.1065 213.599L76.6122 203.499C75.0732 202.611 73.9727 201.176 73.5124 199.459C73.0529 197.742 73.2885 195.949 74.177 194.41L111.75 129.331C112.639 127.792 114.074 126.69 115.791 126.231C117.507 125.771 119.301 126.007 120.84 126.895L138.368 137.015C140.596 138.302 143.401 137.987 145.289 136.241C163.21 119.667 184.77 107.162 207.64 100.077C210.098 99.3158 211.774 97.0427 211.774 94.4697V74.3953C211.774 70.7264 214.759 67.7417 218.427 67.7417H293.574C297.243 67.7417 300.228 70.7264 300.228 74.3953V94.4697C300.228 97.0427 301.904 99.3158 304.361 100.077C327.371 107.205 348.958 119.695 366.791 136.194C368.68 137.941 371.486 138.255 373.714 136.969L391.162 126.895C392.701 126.007 394.495 125.771 396.211 126.231C397.927 126.691 399.362 127.792 400.251 129.331L437.825 194.41C438.713 195.949 438.95 197.742 438.489 199.459C438.029 201.176 436.928 202.611 435.389 203.499L417.955 213.565C415.729 214.85 414.598 217.434 415.164 219.941C417.85 231.844 419.211 243.976 419.211 256C419.211 267.82 417.829 279.941 415.104 292.024C414.539 294.532 415.67 297.115 417.895 298.4L435.389 308.5C438.565 310.335 439.658 314.413 437.823 317.59Z" fill="#A688E7"/>
<path d="M256 137.409C190.608 137.409 137.409 190.609 137.409 256C137.409 321.391 190.608 374.591 256 374.591C321.392 374.591 374.591 321.391 374.591 256C374.591 190.609 321.392 137.409 256 137.409ZM256 362.85C197.083 362.85 149.151 314.917 149.151 256C149.151 197.084 197.083 149.151 256 149.151C314.917 149.151 362.849 197.084 362.849 256C362.849 314.917 314.917 362.85 256 362.85Z" fill="#A688E7"/>
<path d="M277.918 225.08H256C252.758 225.08 250.129 227.709 250.129 230.951V281.049C250.129 284.291 252.758 286.92 256 286.92C259.242 286.92 261.871 284.291 261.871 281.049V268.133H277.918C289.788 268.133 299.444 258.477 299.444 246.607C299.444 234.736 289.788 225.08 277.918 225.08ZM277.918 256.391H261.871V236.822H277.918C283.314 236.822 287.703 241.211 287.703 246.607C287.703 252.002 283.314 256.391 277.918 256.391Z" fill="#E0E0E0"/>
<path d="M223.923 228.89C223.064 226.599 220.874 225.08 218.427 225.08H212.165C209.718 225.08 207.527 226.598 206.668 228.89L187.881 278.988C186.742 282.023 188.281 285.407 191.317 286.546C194.352 287.685 197.736 286.146 198.875 283.111L202.143 274.395H228.448L231.716 283.11C232.6 285.467 234.837 286.921 237.213 286.921C237.898 286.921 238.595 286.801 239.274 286.546C242.309 285.408 243.848 282.023 242.709 278.988L223.923 228.89ZM206.546 262.653L215.296 239.321L224.046 262.653H206.546Z" fill="#E0E0E0"/>
<path d="M312.36 225.08C309.118 225.08 306.489 227.709 306.489 230.951V281.049C306.489 284.291 309.118 286.92 312.36 286.92C315.602 286.92 318.231 284.291 318.231 281.049V230.951C318.231 227.709 315.602 225.08 312.36 225.08Z" fill="#E0E0E0"/>
<path d="M297.998 124.337C302.072 125.635 306.134 127.144 310.069 128.819C310.819 129.138 311.599 129.289 312.366 129.289C314.648 129.289 316.82 127.949 317.77 125.717C319.04 122.734 317.651 119.285 314.668 118.016C310.395 116.197 305.987 114.56 301.563 113.15C298.475 112.165 295.171 113.872 294.186 116.961C293.202 120.049 294.909 123.352 297.998 124.337Z" fill="#A688E7"/>
<path d="M134.63 322.07C133.077 319.224 129.51 318.175 126.665 319.728C123.818 321.281 122.769 324.847 124.322 327.694C126.758 332.159 129.455 336.551 132.337 340.748C133.476 342.405 135.313 343.296 137.182 343.296C138.327 343.296 139.484 342.962 140.5 342.264C143.173 340.429 143.852 336.774 142.016 334.101C139.36 330.233 136.875 326.185 134.63 322.07Z" fill="#A688E7"/>
<path d="M243.977 393.644C212.517 390.934 182.656 377.301 159.894 355.256C157.564 353 153.847 353.06 151.592 355.389C149.337 357.719 149.396 361.435 151.725 363.69C176.422 387.608 208.827 402.4 242.968 405.342C243.14 405.357 243.31 405.364 243.479 405.364C246.493 405.364 249.058 403.056 249.321 399.997C249.599 396.768 247.206 393.923 243.977 393.644Z" fill="#A688E7"/>
<path d="M340.482 132.154C337.804 130.325 334.151 131.012 332.322 133.688C330.492 136.365 331.18 140.019 333.856 141.848C361.131 160.488 380.861 188.226 389.411 219.951C390.118 222.57 392.488 224.295 395.076 224.295C395.582 224.295 396.096 224.229 396.608 224.091C399.739 223.248 401.592 220.026 400.748 216.895C391.471 182.469 370.067 152.374 340.482 132.154Z" fill="#A688E7"/>
</svg>
