<svg width="512" height="512" viewBox="0 0 512 512" fill="none" xmlns="http://www.w3.org/2000/svg">
<rect width="512" height="512" fill="#DB78DD"/>
<g clip-path="url(#clip0)">
<path d="M157.002 400.024C149.756 400.024 143.882 394.15 143.882 386.904V125.096C143.881 117.85 149.756 111.977 157.002 111.977C164.248 111.977 170.122 117.851 170.122 125.096V386.904C170.122 394.15 164.248 400.024 157.002 400.024Z" fill="#9250AC"/>
<path d="M368.118 255.105H170.122V125.096H368.118L321.004 188.908L368.118 255.105Z" fill="#9250AC"/>
<path d="M328.385 188.973L372.926 128.646C374.266 126.832 374.469 124.417 373.453 122.404C372.437 120.391 370.373 119.121 368.118 119.121H175.135C172.621 111.51 165.445 106 157.002 106C146.472 106 137.906 114.567 137.906 125.096V386.904C137.906 397.434 146.473 406.001 157.002 406.001C167.532 406.001 176.099 397.434 176.099 386.904V261.081H368.119C370.356 261.081 372.405 259.832 373.431 257.844C374.456 255.856 374.285 253.462 372.988 251.639L328.385 188.973ZM164.146 386.904C164.146 390.843 160.94 394.047 157.001 394.047C153.062 394.047 149.857 390.843 149.857 386.904V125.096C149.857 121.157 153.063 117.953 157.002 117.953C160.941 117.953 164.146 121.157 164.146 125.096V386.904H164.146V386.904ZM176.098 249.129V131.072H356.277L316.196 185.359C314.662 187.438 314.637 190.269 316.135 192.374L356.529 249.13L176.098 249.129Z" fill="#7C3F94"/>
<path d="M257.192 229.449H190.995C187.694 229.449 185.019 232.125 185.019 235.425C185.019 238.725 187.694 241.401 190.995 241.401H257.193C260.494 241.401 263.169 238.725 263.169 235.425C263.169 232.125 260.493 229.449 257.192 229.449Z" fill="#7C3F94"/>
<path d="M279.854 229.449H276.872C273.572 229.449 270.896 232.125 270.896 235.425C270.896 238.725 273.572 241.401 276.872 241.401H279.854C283.155 241.401 285.83 238.725 285.83 235.425C285.83 232.125 283.155 229.449 279.854 229.449Z" fill="#7C3F94"/>
</g>
<defs>
<clipPath id="clip0">
<rect width="300" height="300" fill="white" transform="translate(106 106)"/>
</clipPath>
</defs>
</svg>
