<svg width="512" height="512" viewBox="0 0 512 512" fill="none" xmlns="http://www.w3.org/2000/svg">
<rect width="512" height="512" fill="#DB78DD"/>
<g clip-path="url(#clip0)">
<path d="M451.2 173.142C430.907 152.656 401.144 144.63 381.45 139.319C377.664 138.298 374.09 137.334 371.117 136.424C359.029 132.718 351.297 124.378 347.798 119.792C347.914 116.155 345.269 112.015 340.665 109.077L335.76 105.945C333.878 104.744 331.722 104.109 329.526 104.109C325.145 104.109 321.093 106.608 318.939 110.633L255.099 224.86L194.347 111.124C192.22 106.961 188.124 104.377 183.644 104.377C181.534 104.377 179.453 104.967 177.623 106.081L172.662 109.105C167.998 111.945 165.275 116.032 165.325 119.673C161.742 124.179 153.866 132.339 141.723 135.777C138.734 136.623 135.143 137.508 131.341 138.446C111.552 143.326 81.6463 150.699 60.9804 170.741C54.9232 176.618 55.4824 181.47 57.0199 184.507L101.564 272.467C103.062 275.426 105.957 277.264 109.121 277.265C111.575 277.265 113.909 276.182 115.69 274.217C119.95 269.52 135.561 253.94 157.631 250.684C175.495 248.047 196.484 243.478 216.71 229.574L216.949 229.409C217.437 229.071 218.674 228.215 219.299 228.075C219.41 228.193 219.609 228.446 219.858 228.936L236.221 258.639L167.304 381.951L167.261 382.031C164.049 388.088 165.992 395.922 171.59 399.495L176.496 402.626C178.377 403.827 180.533 404.463 182.729 404.463C187.1 404.463 191.145 401.974 193.301 397.963L254.469 291.769L314.732 401.167C316.862 405.315 320.951 407.888 325.422 407.888C327.531 407.888 329.613 407.299 331.444 406.184L336.404 403.161C342.073 399.708 344.162 391.914 341.061 385.786L273.34 259.007L291.219 227.968L291.289 227.841C291.541 227.367 291.74 227.121 291.853 227.005C292.481 227.161 293.699 228.043 294.181 228.392L294.418 228.563C314.382 242.903 335.283 247.931 353.096 250.959C375.106 254.697 390.435 270.62 394.609 275.411C396.399 277.465 398.772 278.597 401.291 278.597C401.291 278.597 401.291 278.597 401.292 278.597C404.385 278.597 407.249 276.819 408.767 273.955L454.902 186.987C456.495 183.984 457.145 179.146 451.2 173.142Z" fill="#9250AC"/>
</g>
<defs>
<clipPath id="clip0">
<rect width="400" height="400" fill="white" transform="translate(56 56)"/>
</clipPath>
</defs>
</svg>
