<svg width="512" height="512" viewBox="0 0 512 512" fill="none" xmlns="http://www.w3.org/2000/svg">
<rect width="512" height="512" fill="#92DBB0"/>
<path d="M414.932 231.476C398.199 155.258 358.731 130.212 354.492 120.63C349.828 113.872 344.78 101 344.78 101C344.754 101.26 344.727 101.425 344.714 101.672V101.85H344.701C344.674 102.056 344.661 102.193 344.648 102.385V102.59H344.621C344.621 102.727 344.595 102.837 344.595 102.947V103.303H344.555C344.542 103.413 344.542 103.55 344.515 103.646V103.934H344.489C344.489 104.03 344.489 104.139 344.462 104.221V104.496H344.436C344.436 104.633 344.423 104.797 344.409 104.934V104.962C344.37 105.195 344.33 105.428 344.29 105.647V105.757H344.264C344.25 105.812 344.224 105.866 344.224 105.921V106.154H344.184V106.456H344.118V106.703H344.052V106.991H343.999V107.251H343.946V107.484H343.866V107.676H343.813V107.923H343.76V108.115H343.694V108.293H343.654V108.498H343.601C343.588 108.512 343.588 108.54 343.588 108.553V108.69H343.548C343.535 108.718 343.535 108.745 343.535 108.773V108.855H343.508C343.495 108.896 343.482 108.965 343.482 108.992C343.442 109.088 343.389 109.184 343.35 109.28V109.307C343.323 109.335 343.297 109.376 343.283 109.403V109.513H343.23V109.623H343.164V109.732H343.124V109.869H343.045V110.061H342.992V110.116H342.939V110.226H342.886V110.376H342.833V110.486H342.753V110.637H342.7V110.747H342.634V110.856H342.594V110.993H342.528V111.103H342.475V111.185H342.422V111.295H342.343V111.418H342.29V111.501H342.223V111.61H342.17V111.761H342.104V111.816H342.064V111.926H341.985V111.98H341.932V112.117H341.879V112.172H341.826V112.282H341.76V112.364H341.72L341.693 112.419V112.474H341.667C341.654 112.501 341.64 112.501 341.64 112.529V112.542H341.627C341.614 112.584 341.601 112.611 341.574 112.638V112.679H341.561C341.495 112.762 341.455 112.844 341.402 112.926V112.94C341.375 112.967 341.309 113.022 341.283 113.077V113.104H341.269C341.256 113.118 341.23 113.132 341.23 113.146V113.187H341.203L341.163 113.228V113.242H341.15C341.15 113.255 341.124 113.269 341.11 113.296V113.351H341.071L341.044 113.379V113.406H341.018C341.018 113.433 340.991 113.433 340.991 113.447V113.488H340.938C340.938 113.502 340.925 113.516 340.912 113.529V113.612H340.872V113.667H340.819V113.749H340.766V113.858H340.7V113.749H340.634V113.804H340.581V113.886H340.514V113.995H340.448V114.05H340.395V114.133H340.342V114.187H340.289V114.297H340.21V114.352H340.157V114.434H340.09V114.489H340.037V114.558H339.971V114.695H339.945V114.749H339.865V114.818H339.812V114.845H339.759V114.9H339.693V115.037H339.64V115.092H339.574V115.147H339.521V115.229H339.454V115.284H339.388V115.339H339.335V115.394H339.282V115.531H339.229V115.599H339.15V115.654H339.097V115.709H339.03V115.791H338.977V115.846H338.911V115.942H338.858V115.997H338.779V116.079H338.752V116.134H338.699V116.189H338.633V116.244H338.58V116.326H338.514V116.381H338.474C338.461 116.394 338.461 116.408 338.461 116.408V116.436H338.434L338.381 116.49C338.381 116.49 338.355 116.518 338.328 116.532V116.614H338.275V116.682H338.222V116.737H338.169V116.792H338.13L338.09 116.833V116.874H338.063L338.037 116.902V116.943H338.01C337.944 117.025 337.918 117.08 337.825 117.162C337.798 117.19 337.719 117.258 337.666 117.299C337.507 117.409 337.308 117.587 337.149 117.738C337.043 117.806 336.937 117.902 336.858 117.971V117.985H336.844C336.632 118.163 336.434 118.327 336.195 118.519V118.533C335.877 118.807 335.573 119.068 335.215 119.383V119.369H335.188C334.433 120.013 333.638 120.74 332.724 121.549V121.562H332.711C330.472 123.591 327.809 126.196 324.828 129.349L324.629 129.554L324.576 129.609C306.558 148.897 278.166 189.09 275.172 254.04C274.907 259.413 274.96 264.636 275.251 269.722V269.846C276.695 295.439 284.459 317.29 294.17 335.042V335.056C298.039 342.13 302.212 348.559 306.439 354.316V354.33C321.039 374.276 335.944 386.092 339.746 388.957C345.589 402.981 345.045 427.053 345.045 427.053L353.577 430C353.577 430 351.842 406.682 354.28 395.428C355.035 391.905 356.823 388.902 358.903 386.353C360.308 385.325 364.468 382.226 369.463 377.511C369.701 377.25 369.834 377.017 370.046 376.771C390.197 357.332 427.836 309.463 414.932 231.476V231.476Z" fill="#47A248"/>
<g clip-path="url(#clip0)">
<path d="M96.1088 282.213V246.151H141.135V244.041H96.1088V211.142H143.982V209.033H94V284.322H144.403V282.213H96.1094H96.1088ZM185.001 230.122L166.337 254.692L148.094 230.123H145.352L165.071 256.274L143.454 284.321H145.985L166.336 257.854L186.793 284.321H189.429L167.707 256.273L187.531 230.122H185L185.001 230.122ZM195.756 302.881V269.139H195.967C197.233 274.059 199.728 278.013 203.454 281.001C207.18 283.989 211.925 285.483 217.689 285.483C221.415 285.483 224.719 284.727 227.601 283.216C230.483 281.704 232.891 279.648 234.824 277.047C236.757 274.446 238.234 271.423 239.253 267.978C240.272 264.534 240.782 260.914 240.782 257.118C240.782 253.04 240.254 249.279 239.2 245.835C238.146 242.39 236.617 239.402 234.614 236.872C232.61 234.341 230.185 232.372 227.337 230.967C224.491 229.561 221.274 228.858 217.689 228.858C214.947 228.858 212.399 229.262 210.044 230.07C207.689 230.879 205.598 232.021 203.77 233.497C201.932 234.985 200.332 236.745 199.025 238.717C197.69 240.721 196.67 242.917 195.967 245.308H195.756V230.122H193.647V302.881H195.756V302.881ZM217.689 283.478C211.082 283.478 205.774 281.211 201.767 276.677C197.76 272.143 195.756 265.623 195.756 257.117C195.756 253.602 196.249 250.263 197.233 247.099C198.217 243.936 199.64 241.159 201.503 238.769C203.366 236.379 205.668 234.481 208.409 233.075C211.151 231.669 214.245 230.966 217.689 230.966C221.204 230.966 224.28 231.669 226.916 233.075C229.552 234.481 231.731 236.397 233.453 238.822C235.176 241.247 236.476 244.024 237.355 247.152C238.234 250.28 238.673 253.602 238.673 257.117C238.673 260.281 238.269 263.427 237.46 266.554C236.652 269.683 235.404 272.495 233.717 274.991C232.03 277.486 229.869 279.524 227.232 281.106C224.596 282.688 221.415 283.478 217.689 283.478V283.478ZM252.381 284.322V253.637C252.381 250.685 252.803 247.802 253.647 244.991C254.49 242.179 255.791 239.7 257.548 237.557C259.306 235.413 261.537 233.725 264.244 232.495C266.95 231.265 270.167 230.755 273.892 230.966V228.857C270.658 228.788 267.829 229.138 265.404 229.912C262.978 230.685 260.887 231.739 259.13 233.075C257.372 234.411 255.967 235.975 254.912 237.768C253.859 239.558 253.077 241.494 252.592 243.514H252.381V230.122H250.272V284.323H252.381V284.322ZM276.528 257.644H321.87C322.011 253.918 321.642 250.334 320.763 246.889C319.885 243.444 318.479 240.386 316.546 237.715C314.612 235.044 312.117 232.899 309.059 231.282C306.001 229.665 302.363 228.857 298.145 228.857C295.122 228.857 292.17 229.49 289.287 230.756C286.405 232.021 283.874 233.866 281.695 236.291C279.516 238.716 277.759 241.686 276.423 245.202C275.088 248.717 274.42 252.723 274.42 257.223C274.42 261.229 274.877 264.973 275.79 268.452C276.704 271.932 278.11 274.955 280.008 277.521C281.907 280.087 284.35 282.073 287.337 283.478C290.324 284.885 293.927 285.552 298.145 285.482C304.331 285.482 309.533 283.742 313.751 280.263C317.969 276.783 320.465 271.88 321.238 265.553H319.129C318.215 271.528 315.877 276.01 312.117 278.997C308.356 281.985 303.629 283.478 297.934 283.478C294.068 283.478 290.799 282.811 288.127 281.475C285.457 280.14 283.277 278.312 281.59 275.992C279.903 273.672 278.655 270.948 277.847 267.82C277.038 264.692 276.599 261.3 276.528 257.644ZM319.762 255.535H276.529C276.739 251.739 277.442 248.33 278.637 245.307C279.833 242.284 281.397 239.7 283.33 237.557C285.263 235.413 287.513 233.778 290.078 232.653C292.644 231.529 295.404 230.966 298.356 230.966C301.871 230.966 304.963 231.617 307.635 232.917C310.306 234.218 312.538 235.993 314.331 238.242C316.124 240.492 317.477 243.11 318.391 246.098C319.305 249.085 319.762 252.232 319.762 255.535ZM365.631 246.151H367.74C367.74 240.105 365.983 235.711 362.468 232.97C358.952 230.228 354.172 228.857 348.127 228.857C344.752 228.857 341.906 229.279 339.585 230.123C337.266 230.966 335.368 232.056 333.891 233.391C332.415 234.727 331.361 236.203 330.728 237.82C330.095 239.437 329.779 240.984 329.779 242.46C329.779 245.412 330.306 247.767 331.361 249.525C332.415 251.282 334.067 252.653 336.317 253.637C337.863 254.34 339.62 254.973 341.589 255.536C343.557 256.098 345.842 256.695 348.443 257.328C350.763 257.891 353.048 258.453 355.297 259.015C357.547 259.577 359.533 260.333 361.255 261.282C362.978 262.231 364.383 263.444 365.473 264.92C366.562 266.396 367.107 268.33 367.107 270.719C367.107 273.04 366.563 275.008 365.473 276.624C364.392 278.233 362.97 279.583 361.308 280.579C359.621 281.598 357.74 282.336 355.666 282.793C353.592 283.25 351.572 283.478 349.603 283.478C343.206 283.478 338.303 282.055 334.893 279.208C331.484 276.361 329.779 271.88 329.779 265.763H327.67C327.67 272.583 329.516 277.574 333.206 280.737C336.897 283.901 342.363 285.482 349.603 285.482C351.923 285.482 354.26 285.218 356.616 284.691C358.97 284.164 361.08 283.303 362.942 282.108C364.789 280.929 366.34 279.342 367.476 277.469C368.636 275.57 369.217 273.25 369.217 270.509C369.217 267.908 368.706 265.799 367.687 264.182C366.668 262.565 365.333 261.229 363.68 260.175C362.028 259.121 360.166 258.295 358.092 257.697C356.006 257.096 353.914 256.516 351.817 255.957C349.236 255.28 346.653 254.612 344.067 253.954C341.853 253.391 339.797 252.723 337.899 251.95C336.071 251.177 334.612 250.07 333.522 248.629C332.433 247.187 331.888 245.131 331.888 242.46C331.888 241.968 332.029 241.089 332.31 239.824C332.591 238.558 333.259 237.275 334.313 235.975C335.368 234.675 336.984 233.515 339.164 232.495C341.343 231.476 344.331 230.966 348.127 230.966C350.728 230.966 353.1 231.248 355.244 231.81C357.389 232.372 359.234 233.268 360.78 234.499C362.327 235.729 363.522 237.293 364.365 239.191C365.209 241.09 365.631 243.409 365.631 246.151V246.151ZM414.453 246.151H416.562C416.562 240.105 414.805 235.711 411.29 232.97C407.775 230.228 402.994 228.857 396.948 228.857C393.574 228.857 390.727 229.279 388.408 230.123C386.087 230.966 384.189 232.056 382.714 233.391C381.237 234.727 380.183 236.203 379.55 237.82C378.917 239.437 378.601 240.984 378.601 242.46C378.601 245.412 379.128 247.767 380.183 249.525C381.237 251.282 382.889 252.653 385.139 253.637C386.686 254.34 388.442 254.973 390.411 255.536C392.379 256.098 394.664 256.695 397.265 257.328C399.585 257.891 401.87 258.453 404.119 259.015C406.369 259.577 408.354 260.333 410.077 261.282C411.799 262.231 413.205 263.444 414.295 264.92C415.384 266.396 415.929 268.33 415.929 270.719C415.929 273.04 415.384 275.008 414.295 276.624C413.214 278.233 411.792 279.583 410.13 280.579C408.442 281.598 406.562 282.336 404.488 282.793C402.415 283.25 400.393 283.478 398.425 283.478C392.028 283.478 387.125 282.055 383.715 279.208C380.305 276.361 378.601 271.88 378.601 265.763H376.492C376.492 272.583 378.337 277.574 382.028 280.737C385.718 283.901 391.184 285.482 398.425 285.482C400.745 285.482 403.082 285.218 405.437 284.691C407.792 284.164 409.901 283.303 411.764 282.108C413.611 280.929 415.162 279.342 416.298 277.469C417.458 275.57 418.038 273.25 418.038 270.509C418.038 267.908 417.529 265.799 416.509 264.182C415.49 262.565 414.155 261.229 412.502 260.175C410.85 259.121 408.987 258.295 406.914 257.697C404.828 257.096 402.737 256.516 400.639 255.957C398.058 255.28 395.475 254.612 392.889 253.954C390.675 253.391 388.618 252.723 386.72 251.95C384.893 251.177 383.434 250.07 382.345 248.629C381.255 247.187 380.71 245.131 380.71 242.46C380.71 241.968 380.85 241.089 381.132 239.824C381.413 238.558 382.081 237.275 383.135 235.975C384.189 234.675 385.806 233.515 387.985 232.495C390.165 231.476 393.152 230.966 396.949 230.966C399.55 230.966 401.922 231.248 404.066 231.81C406.211 232.372 408.056 233.268 409.602 234.499C411.149 235.729 412.344 237.293 413.188 239.191C414.031 241.09 414.453 243.409 414.453 246.151H414.453Z" fill="#222222"/>
</g>
<defs>
<clipPath id="clip0">
<rect width="324.038" height="94.36" fill="white" transform="translate(94 209)"/>
</clipPath>
</defs>
</svg>
