<svg width="512" height="512" viewBox="0 0 512 512" fill="none" xmlns="http://www.w3.org/2000/svg">
<rect width="512" height="512" fill="#F05032"/>
<g clip-path="url(#clip0)">
<rect width="400" height="400" transform="translate(56 56)" fill="#F05032"/>
<path d="M448.433 238.171L273.783 63.5375C263.716 53.4875 247.416 53.4875 237.316 63.5375L201.133 99.7875L247.133 145.788C257.883 142.204 270.116 144.621 278.616 153.138C287.216 161.721 289.583 174.104 285.916 184.804L330.216 229.137C340.966 225.421 353.333 227.838 361.883 236.388C373.9 248.388 373.9 267.788 361.883 279.788C349.9 291.771 330.533 291.771 318.55 279.788C309.566 270.771 307.316 257.504 311.816 246.521L270.333 205.254V314.004C273.266 315.438 276.033 317.388 278.466 319.804C290.35 331.821 290.35 351.188 278.466 363.138C266.483 375.154 246.983 375.154 234.983 363.138C223 351.154 223 331.821 234.983 319.838C238.016 316.838 241.433 314.571 245.066 313.071V203.254C241.45 201.738 238 199.554 235.066 196.571C225.983 187.488 223.8 174.204 228.466 163.088L183.266 117.671L63.5 237.354C53.5 247.438 53.5 263.754 63.5 273.838L238.166 448.454C248.233 458.521 264.533 458.521 274.6 448.454L448.433 274.621C458.516 264.571 458.516 248.254 448.433 238.171Z" fill="white"/>
</g>
<defs>
<clipPath id="clip0">
<rect width="400" height="400" fill="white" transform="translate(56 56)"/>
</clipPath>
</defs>
</svg>
