<svg width="512" height="512" viewBox="0 0 512 512" fill="none" xmlns="http://www.w3.org/2000/svg">
<rect width="512" height="512" fill="#454545"/>
<path d="M342.332 224.633C321.282 131.967 271.632 101.517 266.298 89.8667C260.432 81.65 254.082 66 254.082 66C254.048 66.3167 254.015 66.5167 253.998 66.8167V67.0333H253.982C253.948 67.2833 253.932 67.45 253.915 67.6833V67.9333H253.882C253.882 68.1 253.848 68.2333 253.848 68.3667V68.8H253.798C253.782 68.9333 253.782 69.1 253.748 69.2167V69.5667H253.715C253.715 69.6833 253.715 69.8167 253.682 69.9167V70.25H253.648C253.648 70.4167 253.632 70.6167 253.615 70.7833V70.8167C253.565 71.1 253.515 71.3833 253.465 71.65V71.7833H253.432C253.415 71.85 253.382 71.9167 253.382 71.9833V72.2667H253.332V72.6333H253.248V72.9333H253.165V73.2833H253.098V73.6H253.032V73.8833H252.932V74.1167H252.865V74.4167H252.798V74.65H252.715V74.8667H252.665V75.1167H252.598C252.582 75.1333 252.582 75.1667 252.582 75.1833V75.35H252.532C252.515 75.3833 252.515 75.4167 252.515 75.45V75.55H252.482C252.465 75.6 252.448 75.6833 252.448 75.7167C252.398 75.8333 252.332 75.95 252.282 76.0667V76.1C252.248 76.1333 252.215 76.1833 252.198 76.2167V76.35H252.132V76.4833H252.048V76.6167H251.998V76.7833H251.898V77.0167H251.832V77.0833H251.765V77.2167H251.698V77.4H251.632V77.5333H251.532V77.7167H251.465V77.85H251.382V77.9833H251.332V78.15H251.248V78.2833H251.182V78.3833H251.115V78.5167H251.015V78.6667H250.948V78.7667H250.865V78.9H250.798V79.0833H250.715V79.15H250.665V79.2833H250.565V79.35H250.498V79.5167H250.432V79.5833H250.365V79.7167H250.282V79.8167H250.232L250.198 79.8833V79.95H250.165C250.148 79.9833 250.132 79.9833 250.132 80.0167V80.0333H250.115C250.098 80.0833 250.082 80.1167 250.048 80.15V80.2H250.032C249.948 80.3 249.898 80.4 249.832 80.5V80.5167C249.798 80.55 249.715 80.6167 249.682 80.6833V80.7167H249.665C249.648 80.7333 249.615 80.75 249.615 80.7667V80.8167H249.582L249.532 80.8667V80.8833H249.515C249.515 80.9 249.482 80.9167 249.465 80.95V81.0167H249.415L249.382 81.05V81.0833H249.348C249.348 81.1167 249.315 81.1167 249.315 81.1333V81.1833H249.248C249.248 81.2 249.232 81.2167 249.215 81.2333V81.3333H249.165V81.4H249.098V81.5H249.032V81.6333H248.948V81.5H248.865V81.5667H248.798V81.6667H248.715V81.8H248.632V81.8667H248.565V81.9667H248.498V82.0333H248.432V82.1667H248.332V82.2333H248.265V82.3333H248.182V82.4H248.115V82.4833H248.032V82.65H247.998V82.7167H247.898V82.8H247.832V82.8333H247.765V82.9H247.682V83.0667H247.615V83.1333H247.532V83.2H247.465V83.3H247.382V83.3667H247.298V83.4333H247.232V83.5H247.165V83.6667H247.098V83.75H246.998V83.8167H246.932V83.8833H246.848V83.9833H246.782V84.05H246.698V84.1667H246.632V84.2333H246.532V84.3333H246.498V84.4H246.432V84.4667H246.348V84.5333H246.282V84.6333H246.198V84.7H246.148C246.132 84.7167 246.132 84.7333 246.132 84.7333V84.7667H246.098L246.032 84.8333C246.032 84.8333 245.998 84.8667 245.965 84.8833V84.9833H245.898V85.0667H245.832V85.1333H245.765V85.2H245.715L245.665 85.25V85.3H245.632L245.598 85.3333V85.3833H245.565C245.482 85.4833 245.448 85.55 245.332 85.65C245.298 85.6833 245.198 85.7667 245.132 85.8167C244.932 85.95 244.682 86.1667 244.482 86.35C244.348 86.4333 244.215 86.55 244.115 86.6333V86.65H244.098C243.832 86.8667 243.582 87.0667 243.282 87.3V87.3167C242.882 87.65 242.498 87.9667 242.048 88.35V88.3333H242.015C241.065 89.1167 240.065 90 238.915 90.9833V91H238.898C236.082 93.4667 232.732 96.6333 228.982 100.467L228.732 100.717L228.665 100.783C205.998 124.233 170.282 173.1 166.515 252.067C166.182 258.6 166.248 264.95 166.615 271.133V271.283C168.432 302.4 178.198 328.967 190.415 350.55V350.567C195.282 359.167 200.532 366.983 205.848 373.983V374C224.215 398.25 242.965 412.617 247.748 416.1C255.098 433.15 254.415 462.417 254.415 462.417L265.148 466C265.148 466 262.965 437.65 266.032 423.967C266.982 419.683 269.232 416.033 271.848 412.933C273.615 411.683 278.848 407.917 285.132 402.183C285.432 401.867 285.598 401.583 285.865 401.283C311.215 377.65 358.565 319.45 342.332 224.633V224.633Z" fill="#47A248"/>
</svg>
