<svg width="512" height="512" viewBox="0 0 512 512" fill="none" xmlns="http://www.w3.org/2000/svg">
<rect width="512" height="512" fill="#339933"/>
<g clip-path="url(#clip0)">
<rect width="400" height="400" transform="translate(56 56)" fill="#339933"/>
<path d="M255.966 456.004C250.616 456.004 245.283 454.604 240.6 451.888L191.666 422.938C184.366 418.854 187.933 417.404 190.333 416.554C200.083 413.171 202.05 412.388 212.466 406.488C213.55 405.871 214.983 406.104 216.1 406.771L253.7 429.088C255.066 429.838 256.983 429.838 258.233 429.088L404.816 344.488C406.183 343.704 407.05 342.138 407.05 340.521V171.354C407.05 169.704 406.166 168.154 404.766 167.321L258.25 82.7875C256.9 82.0042 255.1 82.0042 253.733 82.7875L107.25 167.338C105.833 168.154 104.933 169.754 104.933 171.354V340.521C104.933 342.138 105.833 343.671 107.25 344.438L147.4 367.638C169.183 378.538 182.533 365.704 182.533 352.804V185.788C182.533 183.421 184.433 181.571 186.8 181.571H205.383C207.7 181.571 209.633 183.438 209.633 185.788V352.804C209.633 381.888 193.8 398.554 166.233 398.554C157.766 398.554 151.083 398.554 132.466 389.371L93.9997 367.254C84.4997 361.771 78.6331 351.504 78.6331 340.521V171.354C78.6331 160.371 84.5164 150.104 93.9997 144.638L240.583 59.9375C249.866 54.6875 262.183 54.6875 271.383 59.9375L417.95 144.638C427.45 150.121 433.35 160.371 433.35 171.354V340.521C433.35 351.504 427.45 361.738 417.95 367.254L271.383 451.888C266.716 454.604 261.4 456.004 255.966 456.004ZM374.316 289.221C374.316 257.554 352.916 249.121 307.866 243.171C262.35 237.154 257.716 234.038 257.716 223.388C257.716 214.588 261.633 202.838 295.35 202.838C325.466 202.838 336.566 209.321 341.133 229.621C341.533 231.538 343.283 232.938 345.25 232.938H364.266C365.45 232.938 366.566 232.421 367.366 231.588C368.166 230.688 368.6 229.538 368.483 228.321C365.533 193.354 342.3 177.054 295.35 177.054C253.55 177.054 228.616 194.688 228.616 224.271C228.616 256.354 253.416 265.221 293.533 269.188C341.533 273.888 345.25 280.904 345.25 290.338C345.25 306.721 332.1 313.704 301.216 313.704C262.433 313.704 253.9 303.971 251.033 284.671C250.7 282.604 248.933 281.088 246.816 281.088H227.866C225.516 281.088 223.633 282.954 223.633 285.304C223.633 310.004 237.066 339.438 301.216 339.438C347.683 339.454 374.316 321.171 374.316 289.221Z" fill="#FFFAFA"/>
</g>
<defs>
<clipPath id="clip0">
<rect width="400" height="400" fill="white" transform="translate(56 56)"/>
</clipPath>
</defs>
</svg>
