<svg width="512" height="512" viewBox="0 0 512 512" fill="none" xmlns="http://www.w3.org/2000/svg">
<rect width="512" height="512" fill="#61DAFB"/>
<path d="M456 255.85C456 228.652 422.816 202.878 371.94 186.894C383.68 133.671 378.462 91.3268 355.47 77.77C350.17 74.59 343.974 73.0837 337.207 73.0837V91.7452C340.957 91.7452 343.974 92.4984 346.501 93.921C357.59 100.448 362.4 125.303 358.65 157.27C357.753 165.136 356.285 173.421 354.492 181.873C338.511 177.856 321.063 174.76 302.718 172.751C291.711 157.27 280.297 143.211 268.801 130.909C295.38 105.553 320.329 91.6616 337.288 91.6616V73C314.867 73 285.515 89.4021 255.837 117.855C226.159 89.5695 196.807 73.3347 174.386 73.3347V91.9963C191.263 91.9963 216.294 105.804 242.873 130.993C231.459 143.295 220.044 157.27 209.2 172.751C190.774 174.76 173.326 177.856 157.345 181.957C155.47 173.588 154.084 165.471 153.106 157.688C149.274 125.721 154.002 100.867 165.009 94.2558C167.455 92.7495 170.635 92.08 174.386 92.08V73.4184C167.537 73.4184 161.34 74.9247 155.959 78.1047C133.049 91.6616 127.912 133.922 139.734 186.978C89.0208 203.045 56 228.736 56 255.85C56 283.047 89.1838 308.822 140.06 324.805C128.32 378.029 133.538 420.373 156.53 433.93C161.83 437.11 168.026 438.616 174.875 438.616C197.296 438.616 226.648 422.214 256.326 393.761C286.004 422.046 315.356 438.281 337.777 438.281C344.626 438.281 350.823 436.775 356.204 433.595C379.115 420.038 384.251 377.778 372.429 324.722C422.979 308.738 456 282.963 456 255.85V255.85ZM349.844 200.032C346.828 210.828 343.077 221.958 338.837 233.088C335.494 226.393 331.989 219.698 328.157 213.004C324.406 206.309 320.411 199.781 316.416 193.421C327.994 195.179 339.163 197.355 349.844 200.032ZM312.502 289.156C306.143 300.453 299.62 311.165 292.853 321.123C280.704 322.211 268.393 322.797 256 322.797C243.689 322.797 231.377 322.211 219.31 321.207C212.543 311.249 205.939 300.621 199.579 289.407C193.383 278.444 187.757 267.314 182.62 256.101C187.676 244.887 193.383 233.673 199.498 222.711C205.857 211.414 212.38 200.702 219.147 190.744C231.296 189.656 243.607 189.07 256 189.07C268.311 189.07 280.623 189.656 292.69 190.66C299.457 200.618 306.061 211.246 312.421 222.46C318.617 233.422 324.243 244.552 329.38 255.766C324.243 266.98 318.617 278.193 312.502 289.156ZM338.837 278.277C343.24 289.491 346.991 300.704 350.089 311.583C339.408 314.261 328.157 316.521 316.497 318.278C320.492 311.834 324.488 305.223 328.238 298.445C331.989 291.75 335.494 284.972 338.837 278.277ZM256.163 367.568C248.581 359.534 240.998 350.58 233.497 340.789C240.835 341.124 248.336 341.375 255.918 341.375C263.583 341.375 271.165 341.208 278.585 340.789C271.247 350.58 263.664 359.534 256.163 367.568ZM195.503 318.278C183.925 316.521 172.755 314.345 162.074 311.667C165.091 300.872 168.841 289.742 173.081 278.612C176.424 285.307 179.93 292.001 183.762 298.696C187.594 305.391 191.508 311.918 195.503 318.278ZM255.755 144.131C263.338 152.165 270.92 161.119 278.422 170.91C271.084 170.576 263.583 170.325 256 170.325C248.336 170.325 240.753 170.492 233.334 170.91C240.672 161.119 248.254 152.165 255.755 144.131ZM195.421 193.421C191.426 199.865 187.431 206.476 183.68 213.255C179.93 219.949 176.424 226.644 173.081 233.339C168.678 222.125 164.928 210.911 161.83 200.032C172.51 197.438 183.762 195.179 195.421 193.421V193.421ZM121.634 298.194C92.7713 285.558 74.1003 268.988 74.1003 255.85C74.1003 242.711 92.7713 226.058 121.634 213.506C128.646 210.409 136.31 207.648 144.219 205.054C148.866 221.456 154.981 238.527 162.563 256.017C155.062 273.423 149.029 290.411 144.463 306.73C136.391 304.136 128.727 301.29 121.634 298.194ZM165.499 417.779C154.41 411.251 149.6 386.397 153.35 354.43C154.247 346.563 155.715 338.279 157.508 329.827C173.489 333.843 190.937 336.94 209.282 338.948C220.289 354.43 231.703 368.489 243.199 380.79C216.62 406.146 191.671 420.038 174.712 420.038C171.043 419.954 167.945 419.201 165.499 417.779V417.779ZM358.894 354.011C362.726 385.979 357.998 410.833 346.991 417.444C344.545 418.95 341.365 419.62 337.614 419.62C320.737 419.62 295.707 405.812 269.127 380.623C280.541 368.321 291.956 354.346 302.8 338.864C321.226 336.856 338.674 333.76 354.655 329.659C356.53 338.111 357.998 346.229 358.894 354.011V354.011ZM390.285 298.194C383.273 301.29 375.609 304.052 367.7 306.646C363.053 290.244 356.938 273.172 349.355 255.682C356.856 238.276 362.89 221.288 367.455 204.97C375.527 207.564 383.191 210.409 390.366 213.506C419.229 226.142 437.9 242.711 437.9 255.85C437.818 268.988 419.147 285.641 390.285 298.194V298.194Z" fill="#454545"/>
<path d="M255.919 294.094C276.497 294.094 293.179 276.971 293.179 255.85C293.179 234.729 276.497 217.606 255.919 217.606C235.34 217.606 218.658 234.729 218.658 255.85C218.658 276.971 235.34 294.094 255.919 294.094Z" fill="#454545"/>
</svg>
