<svg width="512" height="512" viewBox="0 0 512 512" fill="none" xmlns="http://www.w3.org/2000/svg">
<g clip-path="url(#clip0)">
<rect width="512" height="512" fill="#282D37"/>
<path d="M255.984 94.3659C304.065 94.3659 343.045 133.346 343.045 181.405C343.045 229.497 304.053 268.455 255.984 268.455C207.914 268.455 168.945 229.497 168.945 181.405C168.956 133.346 207.925 94.3659 255.984 94.3659ZM394.623 398.609C394.623 409.346 385.925 418.043 375.188 418.043H136.745C125.997 418.043 117.289 409.346 117.289 398.598C117.289 349.856 156.594 310.248 205.336 310.248H306.665C330.078 310.248 352.381 319.606 368.935 336.16C385.488 352.714 394.623 375.219 394.623 398.609Z" fill="#E9E9E9"/>
</g>
<defs>
<clipPath id="clip0">
<rect width="512" height="512" fill="white"/>
</clipPath>
</defs>
</svg>
