<svg width="490" height="490" viewBox="0 0 490 490" fill="none" xmlns="http://www.w3.org/2000/svg">
<g clip-path="url(#clip0)">
<path d="M382.3 352.5C382.3 276.8 320.7 215.1 244.9 215.1C169.2 215.1 107.5 276.7 107.5 352.5C107.5 428.3 169.2 489.8 244.9 489.8C320.6 489.8 382.3 428.2 382.3 352.5ZM244.9 446.1C193.3 446.1 151.3 404.1 151.3 352.5C151.3 300.9 193.3 258.9 244.9 258.9C296.5 258.9 338.5 300.9 338.5 352.5C338.5 404.1 296.5 446.1 244.9 446.1ZM256.9 184.6L153.6 0H184L290.7 190.5C279.8 187.4 268.5 185.4 256.9 184.6ZM194.2 191.9L86.7 0H117.9L221.9 185.8C212.4 187.1 203.1 189.1 194.2 191.9ZM297 133.7L371.9 0H403.1L312.6 161.6L297 133.7ZM279.2 101.8L264 74.7L305.8 0H336.2L279.2 101.8Z" fill="#AD8A56"/>
<circle cx="245" cy="352" r="57" fill="#AD8A56"/>
</g>
<defs>
<clipPath id="clip0">
<rect width="489.8" height="489.8" fill="white"/>
</clipPath>
</defs>
</svg>
