<svg id="Layer_1" data-name="Layer 1" xmlns="http://www.w3.org/2000/svg" viewBox="0 0 12 9"><defs><style>.cls-1{fill:#fcd669;stroke:#fcd669;stroke-miterlimit:10;stroke-width:0.3px;}</style></defs><title>DOUBLE QUOTE2</title><path class="cls-1" d="M1.92,5.9a2.15,2.15,0,0,1,1.52-.8A1.65,1.65,0,0,1,5.12,6.86,1.74,1.74,0,0,1,3.34,8.71c-1.25,0-2.17-1.08-2.17-2.91A6.05,6.05,0,0,1,4.64.29l.65,1.18a4.6,4.6,0,0,0-2.5,4.16m4.67.27A2.15,2.15,0,0,1,9,5.1a1.65,1.65,0,0,1,1.69,1.76A1.74,1.74,0,0,1,8.88,8.71c-1.25,0-2.17-1.08-2.17-2.91A6.05,6.05,0,0,1,10.18.29l.65,1.18A4.61,4.61,0,0,0,8.32,5.63"/></svg>