<?xml version="1.0" encoding="UTF-8"?>
<svg width="160px" height="57px" viewBox="0 0 160 57" version="1.1" xmlns="http://www.w3.org/2000/svg" xmlns:xlink="http://www.w3.org/1999/xlink">
    <!-- Generator: Sketch 53.2 (72643) - https://sketchapp.com -->
    <title>Group 2</title>
    <desc>Created with Sketch.</desc>
    <g id="Page-1" stroke="none" stroke-width="1" fill="none" fill-rule="evenodd">
        <g id="icons" transform="translate(-8.000000, -12.000000)" fill="#37B667" fill-rule="nonzero">
            <g id="Group-2" transform="translate(8.000000, 12.000000)">
                <g id="Group">
                    <path d="M47.9448931,56.3059382 L8.36104513,56.3059382 C3.74553796,56.3007023 0.00523597461,52.5604003 0,47.9448931 L0,8.36104513 C0.00523597461,3.74553796 3.74553796,0.00523597461 8.36104513,0 L39.992399,0 C41.2517657,7.71139669e-17 42.2726841,1.02091839 42.2726841,2.28028504 C42.2726841,3.53965169 41.2517657,4.56057007 39.992399,4.56057007 L8.36104513,4.56057007 C6.26210071,4.56057007 4.56057007,6.26210071 4.56057007,8.36104513 L4.56057007,47.9448931 C4.56057007,50.0438375 6.26210071,51.7453682 8.36104513,51.7453682 L47.9448931,51.7453682 C50.0438375,51.7453682 51.7453682,50.0438375 51.7453682,47.9448931 L51.7453682,16.0209026 C51.7453682,14.761536 52.7662866,13.7406176 54.0256532,13.7406176 C55.2850199,13.7406176 56.3059382,14.761536 56.3059382,16.0209026 L56.3059382,47.9448931 C56.3007023,52.5604003 52.5604003,56.3007023 47.9448931,56.3059382 Z" id="Path"></path>
                    <g transform="translate(12.161520, 17.482185)">
                        <path d="M10.9548694,23.2570071 C10.4419936,23.2575503 9.98808968,22.9252003 9.83372922,22.4361045 L9.83372922,22.4361045 C9.74545871,22.157362 9.67625692,21.8729363 9.62660333,21.5847981 C9.10477734,22.1832386 8.46834137,22.6710652 7.75486936,23.0194774 C6.96807446,23.3943905 6.10463147,23.5804829 5.23325416,23.5629454 C3.66492478,23.5629454 2.41963579,23.1366587 1.49738717,22.2840855 C0.575138559,21.4315123 0.114647664,20.2742676 0.115914489,18.8123515 C0.115914489,17.3136975 0.717656374,16.1551861 1.92114014,15.3368171 C3.12462391,14.5184481 4.8912114,14.1060966 7.22090261,14.0997625 L9.42517815,14.0997625 L9.42517815,12.5320665 C9.42517815,11.7631037 9.20348377,11.1664291 8.76009501,10.7420428 C8.31670625,10.3176564 7.66112431,10.1054632 6.79334917,10.1054632 C6.34848495,10.0993844 5.90503859,10.1569749 5.47648456,10.2764846 C5.33206651,10.3195566 5.19778306,10.3651623 5.0736342,10.4133017 C4.75122927,10.542828 4.51943827,10.8307672 4.46175772,11.1733967 L4.42185273,11.4014252 C4.32703432,11.9774595 3.82939133,12.4003354 3.2456057,12.4009501 L2.20047506,12.4009501 C1.88331961,12.4009517 1.5792092,12.2747027 1.35530325,12.0500836 C1.1313973,11.8254646 1.00611584,11.5209543 1.00712589,11.2038005 L1.00712589,10.4285036 C1.00630041,9.38066144 1.61134482,8.42680931 2.55961995,7.98099762 C2.93206651,7.8074426 3.32351544,7.64718923 3.73396675,7.50023753 C4.80634415,7.12670336 5.93527046,6.94154916 7.07078385,6.95296912 C9.053365,6.95296912 10.6634996,7.43879652 11.9011876,8.41045131 C13.1388757,9.3821061 13.7577197,10.765479 13.7577197,12.5605701 L13.7577197,19.1733967 C13.7577197,19.4204276 13.7577197,19.6522565 13.7577197,19.8688836 C13.7616818,20.0768852 13.7788183,20.2844268 13.8090261,20.4902613 L14.0921615,20.528266 C14.6839176,20.6081357 15.1255515,21.1130921 15.1258907,21.7102138 L15.1258907,22.063658 C15.1258907,22.7227265 14.5916101,23.2570071 13.9325416,23.2570071 L10.9548694,23.2570071 Z M6.39429929,20.3724466 C7.39571012,20.3838705 8.36047605,19.9961864 9.07553444,19.2950119 C9.29378875,19.0731431 9.41538749,18.7739282 9.41377672,18.4627078 L9.41377672,17.6456057 C9.41377672,16.9865372 8.8794961,16.4522565 8.22042755,16.4522565 L7.22090261,16.4522565 C6.3037213,16.4522565 5.60696754,16.6669834 5.13064133,17.0964371 C4.67681368,17.4816841 4.41663938,18.0479458 4.41995249,18.6432304 C4.39388089,19.1249844 4.58658528,19.5927813 4.94441805,19.9163895 C5.29532858,20.2204276 5.78115598,20.3724466 6.40190024,20.3724466 L6.39429929,20.3724466 Z" id="Shape"></path>
                        <path d="M16.1368171,1.60380048 L16.1368171,1.60380048 C16.1368171,0.816696319 16.7748911,0.178622328 17.5619952,0.178622328 L21.3377672,0.178622328 C22.1248714,0.178622328 22.7629454,0.816696319 22.7629454,1.60380048 L22.7629454,20.2261283 L23.7130641,20.4294537 C24.3714904,20.5694685 24.8421673,21.1510794 24.8418052,21.824228 L24.8418052,21.824228 C24.8418052,22.6113322 24.2037312,23.2494062 23.4166271,23.2494062 L17.784323,23.2494062 C16.9972189,23.2494062 16.3591449,22.6113322 16.3591449,21.824228 L16.3591449,21.824228 C16.3573103,21.1520953 16.8253273,20.5700436 17.4821853,20.4275534 L18.432304,20.224228 L18.432304,3.2304038 L17.2921615,3.00427553 C16.6210577,2.87487289 16.1363019,2.28726599 16.1368171,1.60380048 Z" id="Path"></path>
                        <path d="M32.6308789,4.07410926 L32.6308789,7.25130641 L34.6983373,7.25130641 C35.1086809,7.25130641 35.4413302,7.58395565 35.4413302,7.99429929 L35.4413302,9.5391924 C35.4413302,9.94953603 35.1086809,10.2821853 34.6983373,10.2821853 L32.6308789,10.2821853 L32.6308789,18.432304 C32.6308789,19.0530483 32.7575614,19.4964371 33.0109264,19.7624703 C33.2843939,20.0356133 33.660512,20.1805396 34.0465558,20.1615202 C34.3060857,20.1636478 34.5655381,20.151595 34.823753,20.1254157 L34.823753,20.1254157 C35.2327273,20.0761926 35.6046427,20.3665923 35.656057,20.7752969 L35.8593824,22.4855107 C35.9039749,22.857627 35.6644467,23.2046984 35.3007126,23.2950119 C35.0321457,23.35962 34.7648456,23.4128266 34.4988124,23.4546318 C33.9893633,23.5310547 33.4747601,23.5679029 32.95962,23.5648456 C31.4698337,23.5648456 30.3233571,23.1556611 29.52019,22.3372922 C28.717023,21.5189232 28.3154394,20.2223278 28.3154394,18.4475059 L28.3154394,10.2764846 L26.7173397,10.2764846 C26.306996,10.2764846 25.9743468,9.94383532 25.9743468,9.53349169 L25.9743468,7.98859857 C25.9743468,7.57825494 26.306996,7.2456057 26.7173397,7.2456057 L28.3249406,7.2456057 L28.3249406,4.07410926 C28.3249406,3.66376563 28.6575899,3.33111639 29.0679335,3.33111639 L31.8840855,3.33111639 C32.0817971,3.33010506 32.2717581,3.40793776 32.4119193,3.54738571 C32.5520806,3.68683367 32.6308814,3.87639506 32.6308789,4.07410926 L32.6308789,4.07410926 Z" id="Path"></path>
                    </g>
                </g>
                <path d="M73.071734,35.8004751 C73.5563538,35.8022385 74.0076922,36.0472699 74.2731492,36.4527229 C74.5386061,36.8581759 74.5826911,37.369843 74.3904988,37.8147268 C74.0941875,38.5191342 73.6389289,39.1454399 73.0603325,39.6446556 C71.970863,40.5783056 70.5393508,41.0451306 68.7657957,41.0451306 C66.8262866,41.0451306 65.3003959,40.3920823 64.1881235,39.0859857 C63.0758511,37.7798892 62.5190816,35.9885986 62.5178147,33.712114 L62.5178147,32.7866983 C62.4880338,31.4652268 62.7474527,30.1532156 63.2779097,28.9425178 C63.7401803,27.8918232 64.505765,27.0031626 65.4764846,26.3904988 C66.4762089,25.7849606 67.6276465,25.4765045 68.7961995,25.5011876 C70.5418844,25.5011876 71.9480602,25.9686461 73.0147268,26.9035629 C73.6340239,27.4421476 74.1155117,28.1210519 74.4190024,28.8836105 C74.5913622,29.3261489 74.5335545,29.8253056 74.2646121,30.2167365 C73.9956698,30.6081675 73.5504486,30.841142 73.0755344,30.8389549 L72.9539192,30.8389549 C72.3141036,30.8346891 71.7527251,30.4115317 71.5724466,29.7976247 C71.4608905,29.3874548 71.243304,29.0138875 70.9415677,28.7144893 C70.4741093,28.274901 69.7621536,28.0551069 68.8057007,28.0551069 C67.7669042,28.0551069 66.9890736,28.4275534 66.472209,29.1724466 C65.9553444,29.9173397 65.690578,31.0726841 65.6779097,32.6384798 L65.6779097,33.7786223 C65.6779097,35.4140934 65.925574,36.6093428 66.4209026,37.3643705 C66.9162312,38.1193983 67.6972288,38.4994458 68.7638955,38.5045131 C69.7266825,38.5045131 70.4456057,38.2847189 70.9206651,37.8451306 C71.2116143,37.5656196 71.4261821,37.2162927 71.543943,36.8304038 C71.7324164,36.2260523 72.2886013,35.8117904 72.9216152,35.8042755 L73.071734,35.8004751 Z" id="Path"></path>
                <path d="M87.7225653,37.7235154 L82.2555819,37.7235154 L81.5448931,39.8574822 C81.3487246,40.4443102 80.7992707,40.8399477 80.1805226,40.839905 L79.9714964,40.839905 C79.5005093,40.8396103 79.0594995,40.6087664 78.7908574,40.2219066 C78.5222153,39.8350469 78.4599735,39.34118 78.624228,38.8997625 L83.1847981,26.6451306 C83.3942646,26.0822099 83.9314369,25.7086895 84.5320665,25.7083135 L85.4251781,25.7083135 C86.0248427,25.7080968 86.5617322,26.079906 86.7724466,26.6413302 L91.35962,38.895962 C91.5246659,39.3376005 91.4628155,39.832084 91.1940752,40.2194642 C90.9253349,40.6068444 90.4838224,40.8379419 90.0123515,40.8380048 L89.8033254,40.8380048 C89.1862819,40.8377797 88.6381134,40.4440463 88.4408551,39.8593824 L87.7225653,37.7235154 Z M83.0973872,35.1980998 L86.8807601,35.1980998 L84.9805226,29.5353919 L83.0973872,35.1980998 Z" id="Shape"></path>
                <path d="M100.190024,26.6679335 L103.737767,36.6840855 L107.264608,26.6698337 C107.467664,26.0946513 108.011405,25.7100721 108.621378,25.7102138 L110.259382,25.7102138 C110.640891,25.7102138 111.006774,25.8617675 111.276541,26.1315348 C111.546309,26.4013021 111.697862,26.767185 111.697862,27.1486936 L111.697862,39.4033254 C111.697862,39.784834 111.546309,40.1507169 111.276541,40.4204842 C111.006774,40.6902515 110.640891,40.8418052 110.259382,40.8418052 L110.006651,40.8418052 C109.2122,40.8418052 108.568171,40.1977759 108.568171,39.4033254 L108.568171,36.7049881 L108.88361,29.5657957 L105.140143,39.8935867 C104.934602,40.4630542 104.394499,40.842874 103.789074,40.8437055 L103.665558,40.8437055 C103.059436,40.843674 102.518366,40.4637089 102.312589,39.8935867 L98.5824228,29.5771971 L98.8940618,36.7068884 L98.8940618,39.4052257 C98.8940618,40.1996761 98.2500324,40.8437055 97.4555819,40.8437055 L97.2142518,40.8437055 C96.4198013,40.8437055 95.775772,40.1996761 95.775772,39.4052257 L95.775772,27.1486936 C95.775772,26.3542431 96.4198013,25.7102138 97.2142518,25.7102138 L98.8332542,25.7102138 C99.4427335,25.7097874 99.9863273,26.0935007 100.190024,26.6679335 L100.190024,26.6679335 Z" id="Path"></path>
                <path d="M119.815677,35.5097387 L119.815677,39.4033254 C119.815677,40.1977759 119.171648,40.8418052 118.377197,40.8418052 L118.135867,40.8418052 C117.341417,40.8418052 116.697387,40.1977759 116.697387,39.4033254 L116.697387,27.1486936 C116.697387,26.3542431 117.341417,25.7102138 118.135867,25.7102138 L122.601425,25.7102138 C123.637162,25.6874185 124.664511,25.9005562 125.605701,26.3334917 C126.429138,26.7145375 127.12139,27.330754 127.595249,28.1045131 C128.065521,28.8938427 128.30637,29.7986711 128.290736,30.7173397 C128.290736,32.1995249 127.784006,33.3688044 126.770546,34.2251781 C125.757086,35.0815519 124.352177,35.5091053 122.555819,35.5078385 L119.815677,35.5097387 Z M119.815677,32.984323 L122.601425,32.984323 C123.426128,32.984323 124.055107,32.7904988 124.488361,32.4028504 C124.921615,32.0152019 125.138242,31.460966 125.138242,30.7401425 C125.167297,30.0776212 124.931402,29.4307897 124.48266,28.9425178 C124.045606,28.485194 123.442597,28.2495645 122.673634,28.2356295 L119.823278,28.2356295 L119.815677,32.984323 Z" id="Shape"></path>
                <path d="M142.707838,25.7102138 C143.502289,25.7102138 144.146318,26.3542431 144.146318,27.1486936 L144.146318,35.6769596 C144.146318,37.3326999 143.628187,38.6419636 142.591924,39.6047506 C141.555661,40.5675376 140.143785,41.0476643 138.356295,41.0451306 C136.589074,41.0451306 135.186065,40.5776722 134.147268,39.6427553 C133.108472,38.7078385 132.578306,37.4226445 132.55677,35.7871734 L132.55677,27.1486936 C132.55677,26.767185 132.708323,26.4013021 132.978091,26.1315348 C133.247858,25.8617675 133.613741,25.7102138 133.995249,25.7102138 L134.23658,25.7102138 C135.03103,25.7102138 135.675059,26.3542431 135.675059,27.1486936 L135.675059,35.6997625 C135.675059,36.6904196 135.912589,37.4125099 136.387648,37.8660333 C136.862708,38.3195566 137.518923,38.5463183 138.356295,38.5463183 C140.10958,38.5463183 140.999525,37.6247031 141.026128,35.7814727 L141.026128,27.1486936 C141.026128,26.3542431 141.670158,25.7102138 142.464608,25.7102138 L142.707838,25.7102138 Z" id="Path"></path>
                <path d="M156.834204,36.8646081 C156.863135,36.3371958 156.629903,35.8294891 156.210926,35.5078385 C155.795408,35.192399 155.047348,34.8598575 153.966746,34.5102138 C153.082589,34.2409026 152.223596,33.8950165 151.399525,33.4764846 C149.68171,32.5479018 148.822803,31.2975455 148.822803,29.7254157 C148.815327,28.9464059 149.057013,28.1853954 149.512589,27.5534442 C150.020462,26.8765639 150.708626,26.3563255 151.498337,26.0522565 C152.421238,25.6807273 153.409042,25.4972501 154.4038,25.5125891 C155.397934,25.4948226 156.383872,25.6952534 157.292162,26.0997625 C158.090918,26.4499792 158.773666,27.0200345 159.260808,27.7434679 C159.327949,27.8460808 159.391291,27.9512272 159.450831,28.0589074 C159.689336,28.5048725 159.676127,29.0433243 159.416042,29.4770585 C159.155958,29.9107926 158.687209,30.1760842 158.181473,30.175772 L158.00095,30.175772 C157.414313,30.1665909 156.892552,29.800681 156.684086,29.2522565 C156.577316,28.9863575 156.409351,28.7493827 156.193824,28.5605701 C155.75677,28.1805226 155.143626,27.9904988 154.354394,27.9904988 C153.594299,27.9904988 153.002059,28.1513856 152.577672,28.4731591 C152.168345,28.7662684 151.930681,29.2430186 151.942993,29.7463183 C151.942993,30.2378464 152.190657,30.6501979 152.685986,30.9833729 C153.365449,31.3989403 154.100617,31.7156572 154.869359,31.9239905 C156.642914,32.4573238 157.935075,33.1192399 158.745843,33.9097387 C159.548052,34.6787278 159.989486,35.7498945 159.961995,36.8608076 C159.961995,38.1707047 159.466667,39.1974663 158.47601,39.9410926 C157.485352,40.6847189 156.151386,41.0527316 154.474109,41.0451306 C153.381178,41.0595688 152.29762,40.8419505 151.295012,40.4066508 C150.414944,40.0421497 149.65647,39.4352391 149.107838,38.6565321 C149.000731,38.4990785 148.904238,38.3346602 148.819002,38.1643705 C148.593171,37.7176868 148.61542,37.1857909 148.877766,36.7595273 C149.140112,36.3332636 149.604938,36.0737535 150.105463,36.0741093 L150.265083,36.0741093 C150.874062,36.0664111 151.419717,36.4490582 151.619952,37.024228 C151.955661,38.0554236 152.90578,38.5710214 154.470309,38.5710214 C155.211401,38.5710214 155.789707,38.4202692 156.205226,38.1187648 C156.613623,37.8340982 156.850304,37.362166 156.834204,36.8646081 L156.834204,36.8646081 Z" id="Path"></path>
            </g>
        </g>
    </g>
</svg>