<svg xmlns="http://www.w3.org/2000/svg" xmlns:xlink="http://www.w3.org/1999/xlink" width="150.241" height="143.048" viewBox="0 0 150.241 143.048">
  <defs>
    <linearGradient id="linear-gradient" y1="0.5" x2="1" y2="0.5" gradientUnits="objectBoundingBox">
      <stop offset="0" stop-color="#32c67f"/>
      <stop offset="1" stop-color="#88d1ad"/>
    </linearGradient>
    <linearGradient id="linear-gradient-5" x1="0" y1="0.5" x2="1" y2="0.5" xlink:href="#linear-gradient"/>
    <linearGradient id="linear-gradient-9" x1="-0.886" y1="1.735" x2="0.841" y2="0.196" gradientUnits="objectBoundingBox">
      <stop offset="0.234" stop-color="#9090dd"/>
      <stop offset="1" stop-color="#565696"/>
    </linearGradient>
    <linearGradient id="linear-gradient-10" x1="0.211" y1="1.189" x2="0.963" y2="-0.101" xlink:href="#linear-gradient-9"/>
    <linearGradient id="linear-gradient-11" x1="1.128" y1="-0.078" x2="-0.836" y2="1.73" xlink:href="#linear-gradient"/>
    <linearGradient id="linear-gradient-12" x1="1.089" y1="-0.349" x2="0.235" y2="1.167" xlink:href="#linear-gradient"/>
  </defs>
  <g id="Group_71" data-name="Group 71" transform="translate(-287.405 -118.092)">
    <path id="Path_24" data-name="Path 24" d="M315.407,226.734c1.541,6.325,2.063,13.225,6.008,18.4,4,5.247,10.7,7.6,17.134,9.045a102.212,102.212,0,0,0,48.2-.866c5.022-1.321,10.043-3.079,14.141-6.269s7.182-8.021,7.2-13.215c.02-6.366-4.429-12.263-3.743-18.593.76-7.021,7.318-11.666,12.069-16.889,12.389-13.619,13.311-35.514,4.167-51.494s-26.871-26.005-45.139-28.308c-11.845-1.493-25.022.453-33.329,9.026-10.237,10.565-10.964,28.783-23.225,36.91-5.886,3.9-13.411,4.637-19.39,8.4a22.489,22.489,0,0,0-10.051,21.65C291.818,211.423,311.513,210.756,315.407,226.734Z" transform="translate(1.035 0)" fill="#bdffec" opacity="0.2"/>
    <g id="Group_65" data-name="Group 65" transform="translate(333.901 124.638)">
      <circle id="Ellipse_71" data-name="Ellipse 71" cx="1.702" cy="1.702" r="1.702" transform="translate(61.251 15.761)" fill="url(#linear-gradient)"/>
      <circle id="Ellipse_72" data-name="Ellipse 72" cx="1.87" cy="1.87" r="1.87" transform="translate(78.916 57.098)" fill="url(#linear-gradient)"/>
      <circle id="Ellipse_73" data-name="Ellipse 73" cx="1.87" cy="1.87" r="1.87" fill="url(#linear-gradient)"/>
      <g id="Group_64" data-name="Group 64" transform="translate(40.477 1.199)">
        <circle id="Ellipse_74" data-name="Ellipse 74" cx="0.908" cy="0.908" r="0.908" fill="url(#linear-gradient)"/>
      </g>
    </g>
    <g id="Group_67" data-name="Group 67" transform="translate(299.389 206.176)">
      <circle id="Ellipse_75" data-name="Ellipse 75" cx="1.702" cy="1.702" r="1.702" transform="translate(0 13.574)" fill="url(#linear-gradient-5)"/>
      <circle id="Ellipse_76" data-name="Ellipse 76" cx="1.348" cy="1.348" r="1.348" transform="translate(124.647 5.065)" fill="url(#linear-gradient-5)"/>
      <g id="Group_66" data-name="Group 66" transform="translate(14.282)">
        <circle id="Ellipse_77" data-name="Ellipse 77" cx="0.908" cy="0.908" r="0.908" fill="url(#linear-gradient-5)"/>
      </g>
      <circle id="Ellipse_78" data-name="Ellipse 78" cx="2.45" cy="2.45" r="2.45" transform="translate(111.005 16.059)" fill="url(#linear-gradient-5)"/>
    </g>
    <g id="Group_68" data-name="Group 68" transform="translate(309.874 197.595)">
      <circle id="Ellipse_79" data-name="Ellipse 79" cx="13.702" cy="13.702" r="13.702" transform="translate(17.776)" fill="url(#linear-gradient-9)"/>
      <path id="Path_25" data-name="Path 25" d="M333.258,188.7a32.714,32.714,0,0,0-31.1,22.562,7.8,7.8,0,0,0,7.472,10.137h47.25a7.8,7.8,0,0,0,7.474-10.137A32.715,32.715,0,0,0,333.258,188.7Z" transform="translate(-301.781 -157.851)" fill="url(#linear-gradient-10)"/>
    </g>
    <g id="Group_69" data-name="Group 69" transform="translate(367.077 212.279)">
      <circle id="Ellipse_80" data-name="Ellipse 80" cx="9.889" cy="9.889" r="9.889" transform="translate(12.83)" fill="url(#linear-gradient-11)"/>
      <path id="Path_26" data-name="Path 26" d="M361.1,192.6a23.611,23.611,0,0,0-22.445,16.284,5.631,5.631,0,0,0,5.394,7.318h34.1a5.631,5.631,0,0,0,5.394-7.318A23.611,23.611,0,0,0,361.1,192.6Z" transform="translate(-338.381 -170.337)" fill="url(#linear-gradient-12)"/>
    </g>
    <path id="Path_27" data-name="Path 27" d="M355.189,132.593H296.426a9.021,9.021,0,0,0-9.021,9.021V169.05a9.022,9.022,0,0,0,9.021,9.021h35.12l6.189,5.439a2.667,2.667,0,0,0,3.576-.05l5.8-5.389h8.082a9.022,9.022,0,0,0,9.021-9.023V141.614A9.021,9.021,0,0,0,355.189,132.593Z" transform="translate(0 8.163)" fill="#e5e5e5"/>
    <path id="Path_28" data-name="Path 28" d="M349.931,149.094h49.215a7.557,7.557,0,0,1,7.555,7.555v22.977a7.556,7.556,0,0,1-7.555,7.555H369.732l-5.183,4.556a2.234,2.234,0,0,1-2.994-.041l-4.855-4.515h-6.769a7.555,7.555,0,0,1-7.555-7.555V156.649A7.556,7.556,0,0,1,349.931,149.094Z" transform="translate(30.945 17.452)" fill="#e5e5e5"/>
    <rect id="Rectangle_80" data-name="Rectangle 80" width="47.947" height="4.056" rx="1.258" transform="translate(301.941 153.162)" fill="#c9c9c9"/>
    <rect id="Rectangle_81" data-name="Rectangle 81" width="47.947" height="4.056" rx="1.258" transform="translate(301.941 168.051)" fill="#c9c9c9"/>
    <g id="Group_70" data-name="Group 70" transform="translate(385.295 178.208)">
      <rect id="Rectangle_82" data-name="Rectangle 82" width="40.377" height="4.056" rx="1.154" fill="#c9c9c9"/>
      <rect id="Rectangle_83" data-name="Rectangle 83" width="40.377" height="4.056" rx="1.154" transform="translate(0 11.763)" fill="#c9c9c9"/>
    </g>
  </g>
</svg>
