<?xml version="1.0" encoding="UTF-8"?>
<svg width="466px" height="118px" viewBox="0 0 466 118" version="1.1" xmlns="http://www.w3.org/2000/svg" xmlns:xlink="http://www.w3.org/1999/xlink">
    <!-- Generator: Sketch 53.2 (72643) - https://sketchapp.com -->
    <title>Group 3</title>
    <desc>Created with Sketch.</desc>
    <defs>
        <linearGradient x1="4.9%" y1="73.8%" x2="98.4%" y2="24.4%" id="linearGradient-1">
            <stop stop-color="#9090DD" offset="23.4%"></stop>
            <stop stop-color="#565696" offset="100%"></stop>
        </linearGradient>
        <linearGradient x1="0%" y1="50%" x2="100%" y2="50%" id="linearGradient-2">
            <stop stop-color="#32C67F" offset="0%"></stop>
            <stop stop-color="#88D1AD" offset="100%"></stop>
        </linearGradient>
        <linearGradient x1="-88.6%" y1="173.5%" x2="84.1%" y2="19.6%" id="linearGradient-3">
            <stop stop-color="#9090DD" offset="23.4%"></stop>
            <stop stop-color="#565696" offset="100%"></stop>
        </linearGradient>
        <linearGradient x1="21.1%" y1="118.9%" x2="96.3%" y2="-10.1%" id="linearGradient-4">
            <stop stop-color="#9090DD" offset="23.4%"></stop>
            <stop stop-color="#565696" offset="100%"></stop>
        </linearGradient>
        <linearGradient x1="112.8%" y1="-7.8%" x2="-83.6%" y2="173%" id="linearGradient-5">
            <stop stop-color="#32C67F" offset="0%"></stop>
            <stop stop-color="#88D1AD" offset="100%"></stop>
        </linearGradient>
        <linearGradient x1="108.9%" y1="-34.9%" x2="23.5%" y2="116.7%" id="linearGradient-6">
            <stop stop-color="#32C67F" offset="0%"></stop>
            <stop stop-color="#88D1AD" offset="100%"></stop>
        </linearGradient>
        <linearGradient x1="19.3%" y1="86.2%" x2="101.3%" y2="-10.4%" id="linearGradient-7">
            <stop stop-color="#9090DD" offset="23.4%"></stop>
            <stop stop-color="#565696" offset="100%"></stop>
        </linearGradient>
        <linearGradient x1="67.3%" y1="6.3%" x2="-74.5%" y2="364.4%" id="linearGradient-8">
            <stop stop-color="#32C67F" offset="0%"></stop>
            <stop stop-color="#88D1AD" offset="100%"></stop>
        </linearGradient>
        <linearGradient x1="163.3%" y1="-236%" x2="21.4%" y2="122.1%" id="linearGradient-9">
            <stop stop-color="#32C67F" offset="0%"></stop>
            <stop stop-color="#88D1AD" offset="100%"></stop>
        </linearGradient>
        <linearGradient x1="102.7%" y1="-83.1%" x2="15.2%" y2="137.9%" id="linearGradient-10">
            <stop stop-color="#32C67F" offset="0%"></stop>
            <stop stop-color="#88D1AD" offset="100%"></stop>
        </linearGradient>
    </defs>
    <g id="Page-1" stroke="none" stroke-width="1" fill="none" fill-rule="evenodd">
        <g id="Group-3" transform="translate(-1.000000, 0.000000)" fill-rule="nonzero">
            <g id="content" transform="translate(0.000000, 10.000000)">
                <g id="Group_59" transform="translate(0.720930, 0.720930)" fill="#D4B8FF">
                    <path d="M4.07902326,74.8203023 C9.24881395,84.557907 19.5581163,91.1133256 30.4701163,92.6842326 C42.3301114,94.3058683 54.296403,90.563281 63.1188837,82.4729767 C73.6877209,72.6416512 79.2345581,56.8713023 92.6013256,51.4225116 C97.2087907,49.5444884 102.313698,49.1422093 106.923326,47.2699535 C114.834421,44.0567333 120.43459,36.87234 121.619635,28.416225 C122.80468,19.9601099 119.395107,11.5130861 112.672023,6.24902326 C103.914884,-0.609186047 91.2892326,-0.518348837 80.8876512,3.42369767 C70.4860698,7.36574419 61.7231628,14.5757674 52.8924884,21.338093 C44.061814,28.1004186 34.6313256,34.6832326 23.7524884,36.9988605 C14.7408605,38.9165349 7.20786047,38.8516512 3.44604651,48.0658605 C-0.129046512,56.8201163 -0.457069767,66.2765581 4.07902326,74.8203023 Z" id="Path_21" opacity="0.2"></path>
                    <circle id="Ellipse_63" cx="114.586814" cy="48.1458837" r="1.25009302"></circle>
                    <circle id="Ellipse_64" cx="10.6337209" cy="70.9323256" r="1.25009302"></circle>
                    <circle id="Ellipse_65" cx="100.225884" cy="78.0637674" r="1.37337209"></circle>
                    <circle id="Ellipse_66" cx="93.7151628" cy="6.80486047" r="1.37337209"></circle>
                    <circle id="Ellipse_67" cx="40.3432558" cy="4.44093023" r="1"></circle>
                    <g id="Group_57" transform="translate(23.941372, 74.046744)">
                        <circle id="Ellipse_68" cx="0.666860465" cy="0.666860465" r="1"></circle>
                    </g>
                    <g id="Group_58" transform="translate(112.002279, 28.124930)">
                        <circle id="Ellipse_69" cx="0.666860465" cy="0.666860465" r="1"></circle>
                    </g>
                    <circle id="Ellipse_70" cx="7.58346512" cy="33.9565349" r="1.79944186"></circle>
                </g>
                <g id="Group_61" transform="translate(15.628326, 11.394302)">
                    <rect id="Rectangle_72" fill="#E5E5E5" x="0" y="0.720930233" width="89.7680698" height="55.975186" rx="4.555"></rect>
                    <path d="M28.044907,0.718046512 L5.22962791,0.718046512 C3.84264435,0.718046512 2.51246803,1.26902358 1.53172255,2.24976906 C0.550977073,3.23051454 -1.02450348e-14,4.56069086 -1.02450348e-14,5.94767442 L-1.02450348e-14,51.4621628 C-0.000191215764,52.8493376 0.550678436,54.1797732 1.53142392,55.1607891 C2.5121694,56.141805 3.84245314,56.6930414 5.22962791,56.6932326 L28.044186,56.6932326 L28.044907,0.718046512 Z" id="Path_22" fill="#BFBFBF"></path>
                    <rect id="Rectangle_73" fill="#3E82E5" x="34.3797209" y="8.91862791" width="11.614186" height="3.40711628" rx="1.484"></rect>
                    <rect id="Rectangle_74" fill="#9E55F2" x="34.3797209" y="19.8767674" width="17.1192093" height="3.40711628" rx="1.484"></rect>
                    <rect id="Rectangle_75" fill="#32C67F" x="34.3797209" y="30.8356279" width="32.7648372" height="3.40711628" rx="1.484"></rect>
                    <g id="Group_60" opacity="0.5" transform="translate(4.391907, 8.918628)" fill="#FFFFFF">
                        <rect id="Rectangle_76" x="0" y="0" width="18.7557209" height="3.40711628" rx="1.484"></rect>
                        <rect id="Rectangle_77" x="0" y="11.8102791" width="14.766093" height="3.40711628" rx="1.484"></rect>
                        <rect id="Rectangle_78" x="0" y="23.6198372" width="10.6185814" height="3.40711628" rx="1.484"></rect>
                    </g>
                </g>
                <g id="Group_62" transform="translate(33.647977, 52.893209)">
                    <rect id="Rectangle_79" fill="url(#linearGradient-1)" x="0" y="0" width="60.7881163" height="43.7489302" rx="9.292"></rect>
                    <path d="M23.8317907,16.1250465 L23.8317907,27.6238837 C23.8315366,28.404105 24.2452921,29.1258725 24.9186975,29.5199162 C25.5921029,29.91396 26.4240229,29.9211007 27.104093,29.5386744 L38.1343256,23.3466047 C38.8475804,22.9453704 39.2786607,22.180909 39.2529101,21.3629492 C39.2271595,20.5449893 38.7488478,19.8091569 38.0117674,19.4535814 L26.9815349,14.1453721 C26.3007267,13.8179632 25.4994664,13.8632284 24.8598644,14.2652304 C24.2202625,14.6672325 23.8320049,15.3696021 23.8317907,16.1250465 L23.8317907,16.1250465 Z" id="Path_23" fill="#FFFFFF"></path>
                </g>
            </g>
            <g id="mentorship" transform="translate(172.000000, 0.000000)">
                <path d="M24.5038684,89.4447895 C25.761,94.6046579 26.1868421,100.233605 29.4051316,104.455316 C32.6682895,108.735763 38.1340789,110.655316 43.3828684,111.834132 C56.3587364,114.73715 69.84071,114.494922 82.7039211,111.127658 C86.8008158,110.05 90.8968947,108.615842 94.24,106.013474 C97.5831053,103.411105 100.099,99.4700263 100.113684,95.2328158 C100.13,90.0395 96.5005526,85.2287895 97.0601842,80.0648421 C97.6801842,74.3371842 103.030132,70.5478421 106.905947,66.2869737 C117.012763,55.1767368 117.764921,37.3150263 110.305342,24.2787105 C102.845763,11.2423947 88.3842632,3.06410526 73.4814211,1.18534211 C63.8183947,-0.0326315789 53.0687368,1.55489474 46.2919737,8.54865789 C37.9407368,17.1674737 37.3476579,32.0295263 27.3452632,38.6594474 C22.5435263,41.8410263 16.4047105,42.4422632 11.5271053,45.5120789 C5.63735122,49.3434977 2.45318487,56.2022383 3.32760526,63.1739211 C5.26021053,76.9542368 21.3271842,76.4101053 24.5038684,89.4447895 Z" id="Path_24" fill="#BDFFEC" opacity="0.2"></path>
                <g id="Group_65" transform="translate(38.746737, 6.155947)" fill="url(#linearGradient-2)">
                    <circle id="Ellipse_71" cx="51.3563947" cy="14.2461316" r="1.38847368"></circle>
                    <circle id="Ellipse_72" cx="65.9043684" cy="48.1054737" r="1.52552632"></circle>
                    <circle id="Ellipse_73" cx="1.52552632" cy="1.52552632" r="1.52552632"></circle>
                    <g id="Group_64" transform="translate(33.020711, 0.978132)">
                        <circle id="Ellipse_74" cx="0.740736842" cy="0.740736842" r="1"></circle>
                    </g>
                </g>
                <g id="Group_67" transform="translate(10.592211, 72.673789)" fill="url(#linearGradient-2)">
                    <circle id="Ellipse_75" cx="1.38847368" cy="12.462" r="1.38847368"></circle>
                    <circle id="Ellipse_76" cx="102.785395" cy="5.23165789" r="1.09968421"></circle>
                    <g id="Group_66" transform="translate(11.651105, 0.000000)">
                        <circle id="Ellipse_77" cx="0.740736842" cy="0.740736842" r="1"></circle>
                    </g>
                    <circle id="Ellipse_78" cx="92.5553947" cy="15.0994474" r="1.99868421"></circle>
                </g>
                <g id="Group_68" transform="translate(19.145763, 65.673500)">
                    <circle id="Ellipse_79" fill="url(#linearGradient-3)" cx="25.6794211" cy="11.1779474" r="11.1779474"></circle>
                    <path d="M25.6786053,25.1662895 C14.1299883,25.1659075 3.89138707,32.593667 0.307552632,43.5721316 C-0.300736727,45.5090431 0.0517326527,47.6199528 1.25631006,49.2541606 C2.46088746,50.8883685 4.37296418,51.849689 6.40313158,51.8417895 L44.9491842,51.8417895 C46.9796386,51.8502114 48.8921989,50.8891085 50.0971567,49.2548219 C51.3021146,47.6205354 51.6547728,45.5093182 51.0463947,43.5721316 C47.4627158,32.5949683 37.2259369,25.1675755 25.6786053,25.1662895 L25.6786053,25.1662895 Z" id="Path_25" fill="url(#linearGradient-4)"></path>
                </g>
                <g id="Group_69" transform="translate(65.811368, 77.652553)">
                    <circle id="Ellipse_80" fill="url(#linearGradient-5)" cx="18.5339211" cy="8.06734211" r="8.06734211"></circle>
                    <path d="M18.5339211,18.1619211 C10.1991346,18.1620498 2.80998942,23.5229248 0.223526316,31.4462368 C-0.215559675,32.844495 0.0388970658,34.368343 0.908464217,35.5480783 C1.77803137,36.7278137 3.15832634,37.4218213 4.62389474,37.4161842 L32.4423158,37.4161842 C33.9078842,37.4218213 35.2881792,36.7278137 36.1577463,35.5480783 C37.0273135,34.368343 37.2817702,32.844495 36.8426842,31.4462368 C34.2564077,23.5234962 26.8681064,18.1627557 18.5339211,18.1619211 Z" id="Path_26" fill="url(#linearGradient-6)"></path>
                </g>
                <path d="M56.1132632,19.3048421 L8.17502632,19.3048421 C4.11063204,19.3048421 0.815789474,22.5996847 0.815789474,26.6640789 L0.815789474,49.0460789 C0.816239926,53.1102866 4.11081864,56.4048653 8.17502632,56.4053158 L36.8255526,56.4053158 L41.8744737,60.8423947 C42.7132931,61.5793984 43.973851,61.5617732 44.7917368,60.8016053 L49.5233158,56.4053158 L56.1165263,56.4053158 C58.0685336,56.4050994 59.9405059,55.6294601 61.3206305,54.2490294 C62.7007551,52.8685988 63.4759795,50.9964547 63.4757632,49.0444474 L63.4757632,26.6640789 C63.4757633,24.7117225 62.6999695,22.8393771 61.319139,21.4591586 C59.9383086,20.0789402 58.0656194,19.3039764 56.1132632,19.3048421 L56.1132632,19.3048421 Z" id="Path_27" fill="#E5E5E5"></path>
                <path d="M77.0684474,40.3440526 L117.217526,40.3440526 C120.621044,40.3449533 123.379915,43.1038244 123.380816,46.5073421 L123.380816,65.2517368 C123.380365,68.655441 120.621231,71.4145759 117.217526,71.4150263 L93.2218947,71.4150263 L88.9936579,75.1317632 C88.2913885,75.7486123 87.2362991,75.7341639 86.5511842,75.0983158 L82.5905263,71.4150263 L77.0684474,71.4150263 C73.6645566,71.4150263 70.9051579,68.6556276 70.9051579,65.2517368 L70.9051579,46.5073421 C70.9056083,43.1036379 73.6647432,40.3445031 77.0684474,40.3440526 L77.0684474,40.3440526 Z" id="Path_28" fill="#E5E5E5"></path>
                <rect id="Rectangle_80" fill="#C9C9C9" x="12.6741053" y="29.4255263" width="39.1146579" height="3.30884211" rx="1.258"></rect>
                <rect id="Rectangle_81" fill="#C9C9C9" x="12.6741053" y="41.5718158" width="39.1146579" height="3.30884211" rx="1.258"></rect>
                <g id="Group_70" transform="translate(80.673421, 49.857789)" fill="#C9C9C9">
                    <rect id="Rectangle_82" x="0" y="0" width="32.9391316" height="3.30884211" rx="1.154"></rect>
                    <rect id="Rectangle_83" x="0" y="9.59613158" width="32.9391316" height="3.30884211" rx="1.154"></rect>
                </g>
            </g>
            <g id="learning" transform="translate(344.000000, 12.000000)">
                <path d="M12.8246061,82.7350545 C19.1531152,92.527297 32.8975758,96.7132364 43.6089212,92.1102061 C55.4325091,87.0292121 63.2475152,73.0014303 76.1006788,72.3739152 C82.2518303,72.0733091 88.0685576,75.0793697 94.1768727,75.8601939 C106.036533,77.3812606 118.394448,69.2573818 121.701867,57.7674667 C125.009285,46.2775515 118.860388,32.8269333 108.009261,27.8090667 C100.25663,24.2235879 91.1888485,24.7496485 83.1634182,21.8285091 C76.5267879,19.4146424 70.9783515,14.7928242 65.3269576,10.5557818 C59.6755636,6.31873939 53.5018667,2.28911515 46.498497,1.38729697 C39.4951273,0.485478788 31.5057697,3.62831515 28.9235636,10.2003152 C26.5224727,16.3116364 29.2918061,23.136897 29.2309333,29.7013818 C29.1279758,40.9741091 20.8665697,44.8662061 14.7710303,52.5797576 C8.17498182,60.9328485 6.99886061,73.7213818 12.8246061,82.7350545 Z" id="Path_29" fill="#FFF3A9" opacity="0.35"></path>
                <g id="Group_73" transform="translate(25.587588, 27.690327)" fill="#E5C41F">
                    <circle id="Ellipse_81" cx="1.29861818" cy="38.1499152" r="1.29861818"></circle>
                    <circle id="Ellipse_82" cx="1.29861818" cy="1.29861818" r="1.29861818"></circle>
                    <circle id="Ellipse_83" cx="96.1526061" cy="31.3862788" r="1.02882424"></circle>
                    <g id="Group_72" transform="translate(10.899224, 26.492412)">
                        <circle id="Ellipse_84" cx="0.69289697" cy="0.69289697" r="1"></circle>
                    </g>
                    <circle id="Ellipse_85" cx="86.5835636" cy="40.6171394" r="1.8697697"></circle>
                </g>
                <g id="Group_74" transform="translate(41.977382, 12.760727)">
                    <rect id="Rectangle_84" fill="#E5E5E5" x="0" y="0" width="59.2411879" height="74.9418424" rx="3.014"></rect>
                    <rect id="Rectangle_85" fill="#C9C9C9" x="10.2183515" y="32.2535273" width="38.8044848" height="3.11427879" rx="1.306"></rect>
                    <rect id="Rectangle_86" fill="#C9C9C9" x="10.2183515" y="46.2910788" width="38.8044848" height="3.11427879" rx="1.306"></rect>
                    <rect id="Rectangle_87" fill="#C9C9C9" x="10.2183515" y="60.3293818" width="38.8044848" height="3.11427879" rx="1.306"></rect>
                </g>
                <g id="Group_76" transform="translate(38.172461, 0.751515)">
                    <rect id="Rectangle_88" fill="url(#linearGradient-7)" x="0" y="0" width="37.9214545" height="33.7633212" rx="6.375"></rect>
                    <g id="Group_75" transform="translate(8.537964, 7.195006)" fill="#FFFFFF">
                        <circle id="Ellipse_86" cx="10.4227636" cy="4.53689697" r="4.53689697"></circle>
                        <path d="M10.4227636,10.2145939 C5.73585612,10.2154793 1.58113743,13.2305314 0.127006061,17.6861576 C-0.1199039,18.4724365 0.0231002758,19.329334 0.511956308,19.9928239 C1.00081234,20.6563138 1.77686355,21.0467855 2.60099394,21.0439273 L18.2475394,21.0439273 C19.071802,21.047026 19.8480759,20.6566545 20.3371071,19.9931284 C20.8261383,19.3296022 20.9692295,18.4725632 20.7222788,17.6861576 C19.2677179,13.2292153 15.1110556,10.2138533 10.4227636,10.2145939 L10.4227636,10.2145939 Z" id="Path_30"></path>
                    </g>
                </g>
                <g id="Group_80" transform="translate(0.751515, 38.869867)">
                    <g id="Group_77" transform="translate(11.299030, 7.518158)" fill="#32C67F">
                        <polygon id="Rectangle_89" transform="translate(7.028577, 5.833226) rotate(-38.516000) translate(-7.028577, -5.833226) " points="-1.28956857 4.99791676 15.3467223 4.99791676 15.3467223 6.66853494 -1.28956857 6.66853494"></polygon>
                    </g>
                    <g id="Group_78" transform="translate(12.373697, 27.521236)" fill="#32C67F">
                        <polygon id="Rectangle_90" transform="translate(6.489742, 5.377599) rotate(-51.661000) translate(-6.489742, -5.377599) " points="5.65518416 -2.23637654 7.32429931 -2.23637654 7.32429931 12.991575 5.65518416 12.991575"></polygon>
                    </g>
                    <g id="Group_79">
                        <circle id="Ellipse_87" fill="url(#linearGradient-8)" cx="28.3313697" cy="6.14438788" r="6.14438788"></circle>
                        <circle id="Ellipse_88" fill="url(#linearGradient-9)" cx="27.7572121" cy="40.3653818" r="6.14438788"></circle>
                        <circle id="Ellipse_89" fill="url(#linearGradient-10)" cx="9.95832727" cy="23.3097455" r="9.95832727"></circle>
                    </g>
                </g>
                <g id="Group_82" transform="translate(93.562885, 21.794691)" fill="#E5C41F">
                    <circle id="Ellipse_90" cx="12.6434909" cy="23.5675152" r="1.42712727"></circle>
                    <circle id="Ellipse_91" cx="16.7377455" cy="2.12002424" r="1.42712727"></circle>
                    <g id="Group_81">
                        <circle id="Ellipse_92" cx="0.69289697" cy="0.69289697" r="1"></circle>
                    </g>
                </g>
            </g>
        </g>
    </g>
</svg>