<svg width="93" height="22" viewBox="0 0 93 22" fill="none" xmlns="http://www.w3.org/2000/svg">
<path d="M0.0859375 16.9231H6.92212C8.1988 16.9231 9.26395 16.4797 10.1175 15.5928C10.9786 14.7444 11.4165 13.5913 11.4313 12.1337C11.4313 11.2545 11.2198 10.4409 10.7967 9.69279C10.3439 8.96782 9.6759 8.4858 8.79261 8.24673V8.20044C9.26023 7.96907 9.65362 7.71072 9.9728 7.42537C10.292 7.15543 10.5369 6.87007 10.7076 6.5693C11.0416 5.93688 11.2012 5.27362 11.1864 4.5795C11.1864 3.22213 10.7819 2.13083 9.9728 1.30561C9.17116 0.488107 7.97242 0.0716472 6.37657 0.0562134H0.0859375V16.9231ZM6.33204 9.43828C7.245 9.4537 7.91304 9.70436 8.33611 10.1902C8.75921 10.6838 8.97075 11.2777 8.97075 11.9718C8.97075 12.6505 8.75921 13.2366 8.33611 13.7302C7.91304 14.2315 7.245 14.4899 6.33204 14.5053H2.54653V9.43828H6.33204ZM6.09822 2.33521C6.99634 2.35064 7.65695 2.57816 8.08005 3.01775C8.51055 3.48821 8.7258 4.06279 8.7258 4.74147C8.7258 5.42015 8.51055 5.98315 8.08005 6.43046C7.65695 6.91634 6.99634 7.15929 6.09822 7.15929H2.54653V2.33521H6.09822ZM13.8585 16.9231H16.1855V4.915H13.8585V16.9231ZM13.8585 2.47403H16.1855V0.0562134H13.8585V2.47403ZM25.7716 15.6622V16.8999C25.7568 17.7175 25.5119 18.3577 25.0369 18.8204C24.5543 19.2754 23.916 19.5029 23.1219 19.5029C22.6987 19.4875 22.2906 19.368 21.8971 19.1443C21.5112 18.9437 21.1697 18.7009 20.8728 18.4154L19.0691 19.9078C20.175 21.2189 21.5112 21.8899 23.0772 21.9207C24.4431 21.9207 25.6158 21.4849 26.5956 20.6135C27.568 19.7652 28.069 18.4386 28.0988 16.6339V4.915H25.7716V6.18753C24.933 5.23891 23.9384 4.7646 22.7878 4.7646C22.0381 4.78002 21.4146 4.93042 20.9174 5.21577C20.3978 5.51656 20.0006 5.8559 19.726 6.2338C19.4217 6.61942 19.2027 7.09373 19.0691 7.65672C18.9281 8.22744 18.8576 9.31874 18.8576 10.9306C18.8576 12.5116 18.9281 13.5837 19.0691 14.1467C19.2027 14.7174 19.4217 15.1993 19.726 15.5928C20.0006 15.9397 20.3978 16.2638 20.9174 16.5645C21.4146 16.8806 22.0381 17.0465 22.7878 17.0619C24.0126 17.0311 25.0071 16.5645 25.7716 15.6622ZM21.1845 10.9306C21.1845 9.99742 21.2143 9.34959 21.2736 8.98711C21.3256 8.62462 21.448 8.33156 21.641 8.10791C21.7969 7.89195 22.0344 7.67987 22.3536 7.47163C22.658 7.29425 23.0365 7.19785 23.4893 7.18242C23.9421 7.19785 24.3206 7.29425 24.6249 7.47163C24.9293 7.67987 25.1594 7.89195 25.3153 8.10791C25.5083 8.33156 25.6381 8.62462 25.7049 8.98711C25.7495 9.34959 25.7716 9.99742 25.7716 10.9306C25.7716 11.8484 25.7495 12.4808 25.7049 12.8279C25.6381 13.1904 25.5083 13.4911 25.3153 13.7302C25.1594 13.9462 24.9293 14.1428 24.6249 14.3202C24.3206 14.5361 23.9421 14.6441 23.4893 14.6441C23.0365 14.6441 22.658 14.5361 22.3536 14.3202C22.0344 14.1428 21.7969 13.9462 21.641 13.7302C21.448 13.4911 21.3256 13.1904 21.2736 12.8279C21.2143 12.4808 21.1845 11.8484 21.1845 10.9306ZM31.3275 16.9231H38.1636C39.4404 16.9231 40.5056 16.4797 41.3592 15.5928C42.2201 14.7444 42.6581 13.5913 42.6729 12.1337C42.6729 11.2545 42.4613 10.4409 42.0382 9.69279C41.5856 8.96782 40.9174 8.4858 40.0342 8.24673V8.20044C40.5018 7.96907 40.8951 7.71072 41.2144 7.42537C41.5336 7.15543 41.7784 6.87007 41.9492 6.5693C42.2831 5.93688 42.4427 5.27362 42.4279 4.5795C42.4279 3.22213 42.0234 2.13083 41.2144 1.30561C40.4127 0.488107 39.214 0.0716472 37.6181 0.0562134H31.3275V16.9231ZM37.5735 9.43828C38.4866 9.4537 39.1545 9.70436 39.5777 10.1902C40.0008 10.6838 40.2124 11.2777 40.2124 11.9718C40.2124 12.6505 40.0008 13.2366 39.5777 13.7302C39.1545 14.2315 38.4866 14.4899 37.5735 14.5053H33.788V9.43828H37.5735ZM37.3398 2.33521C38.2379 2.35064 38.8985 2.57816 39.3216 3.01775C39.7521 3.48821 39.9674 4.06279 39.9674 4.74147C39.9674 5.42015 39.7521 5.98315 39.3216 6.43046C38.8985 6.91634 38.2379 7.15929 37.3398 7.15929H33.788V2.33521H37.3398ZM45.1 16.9231H47.427V4.915H45.1V16.9231ZM45.1 2.47403H47.427V0.0562134H45.1V2.47403ZM50.5111 16.9231H52.8381V9.77377C52.8381 8.93313 53.057 8.293 53.4949 7.85338C53.9254 7.40607 54.4748 7.18242 55.1427 7.18242C55.8108 7.18242 56.3564 7.40607 56.7794 7.85338C57.21 8.293 57.4252 8.93313 57.4252 9.77377V16.9231H59.7521V8.94083C59.715 7.56805 59.3031 6.52687 58.5163 5.81734C57.7221 5.11552 56.8462 4.7646 55.8888 4.7646C54.6492 4.7646 53.6472 5.23891 52.8827 6.18753H52.8381V4.915H50.5111V16.9231ZM68.8262 16.9231H71.1532V8.72103C71.1384 7.25568 70.6967 6.22224 69.8282 5.62067C68.9598 5.03453 67.7982 4.74919 66.3434 4.7646C64.6214 4.73375 63.3187 5.31988 62.4355 6.52301L64.2614 7.96907C64.4618 7.62203 64.7364 7.37522 65.0852 7.22869C65.4193 7.1053 65.8758 7.0436 66.4548 7.0436C68.0507 7.01275 68.8411 7.52562 68.8262 8.58221V9.84318H65.6085C64.3764 9.8586 63.4412 10.2057 62.8029 10.8843C62.1645 11.5476 61.8454 12.3843 61.8454 13.3946C61.8454 14.4513 62.2128 15.319 62.9475 15.9976C63.6453 16.6918 64.6399 17.0465 65.9315 17.0619C66.7182 17.0619 67.3343 16.9617 67.7796 16.7612C68.2324 16.5684 68.5665 16.2675 68.7818 15.8588H68.8262V16.9231ZM68.8262 12.7006C68.8262 13.603 68.6445 14.1814 68.2808 14.4359C67.88 14.6904 67.1933 14.8099 66.2209 14.7945C65.4489 14.7945 64.896 14.6365 64.5619 14.3202C64.2132 14.0348 64.0388 13.6878 64.0388 13.2791C64.0238 12.3458 64.6919 11.8638 66.0428 11.833H68.8262V12.7006ZM74.1593 16.9231H76.4863V9.69279C76.5013 8.81358 76.7461 8.17731 77.2212 7.78398C77.6443 7.38294 78.1526 7.18242 78.7465 7.18242C79.2735 7.18242 79.782 7.38294 80.2719 7.78398L81.9642 5.69007C81.2739 5.08853 80.4648 4.78002 79.537 4.7646C78.2974 4.7646 77.2954 5.23891 76.5309 6.18753H76.4863V4.915H74.1593V16.9231ZM86.6671 16.4488L86.0326 18.4618C85.9286 18.8088 85.7467 19.071 85.4869 19.2483C85.2271 19.4181 84.9451 19.5029 84.6408 19.5029H83.9616V21.7819H84.7299C85.4498 21.7819 86.0956 21.616 86.6671 21.2844C87.2313 20.9374 87.6728 20.3126 87.9921 19.4103L92.969 4.915H90.4972L87.7694 13.3253H87.7248L84.9859 4.915H82.5254L86.6671 16.4488Z" fill="black"/>
</svg>
