<svg width="892" height="334" xmlns="http://www.w3.org/2000/svg">
 <defs>
  <style>.cls-1{fill:#27499b;}.cls-2{fill:#2cc0f0;}</style>
 </defs>
 <title>Logo for website</title>
 <g>
  <title>background</title>
  <rect fill="none" id="canvas_background" height="336" width="894" y="-1" x="-1"/>
 </g>
 <g>
  <title>Layer 1</title>
  <path id="svg_1" d="m138.79,102.56l73.59,0l0,-65.43l-86.82,0l-1.58,0.1c-29.41,3.72 -54.93,16.53 -75.9,38.11s-32.94,47.66 -35.69,77.31c-1.42,15.2 -0.45,40.07 2.89,53.74c5,20.31 15.11,38.86 30.4,55.43c24.73,27.24 56.61,41 94.75,41l71.95,0l0,-65.57l-71.95,0c-29.69,0 -55.88,-21.94 -62.91,-50.64c-5.77,-23.55 2.3,-49 19.4,-66c12.08,-11.9 25.37,-17.61 41.87,-18.05zm51.7,-43.56l21.89,0l0,21.89l-21.89,0l0,-21.89z" class="cls-1"/>
  <rect id="svg_2" height="22.01" width="21.89" y="37.13" x="256.15" class="cls-2"/>
  <rect id="svg_3" height="22.01" width="21.89" y="37.13" x="234.26" class="cls-1"/>
  <rect id="svg_4" height="21.72" width="21.91" y="80.93" x="234.26" class="cls-2"/>
  <rect id="svg_5" height="21.83" width="21.89" y="59.11" x="212.37" class="cls-2"/>
  <rect id="svg_6" height="21.83" width="21.89" y="59.11" x="256.15" class="cls-1"/>
  <rect id="svg_7" height="21.89" width="21.89" y="280.98" x="190.49" class="cls-2"/>
  <rect id="svg_8" height="22.01" width="21.89" y="237.35" x="256.15" class="cls-1"/>
  <rect id="svg_9" height="21.72" width="21.91" y="281.15" x="234.26" class="cls-1"/>
  <rect id="svg_10" height="21.72" width="21.89" y="281.15" x="256.15" class="cls-2"/>
  <rect id="svg_11" height="22.01" width="21.89" y="237.35" x="212.37" class="cls-2"/>
  <rect id="svg_12" height="21.72" width="21.89" y="281.15" x="212.37" class="cls-1"/>
  <rect id="svg_13" height="21.83" width="21.89" y="259.34" x="234.26" class="cls-2"/>
  <path id="svg_14" d="m372.55,143.52a27.17,27.17 0 0 1 6.8,6.81a29.06,29.06 0 0 1 4.08,9l-12.6,3.45a13.35,13.35 0 0 0 -5.63,-8.34c-3,-2.09 -7.07,-3.09 -12.15,-3.09c-12.6,0 -18.67,6.08 -18.67,18.68s6.07,18.68 18.67,18.68c5.08,0 9.16,-1 12.15,-3.08a13.4,13.4 0 0 0 5.63,-8.35l12.6,3.45a29.22,29.22 0 0 1 -4.08,9a27.29,27.29 0 0 1 -6.8,6.8c-5.26,3.44 -11.79,5.25 -19.5,5.25a41.79,41.79 0 0 1 -13,-2a26.92,26.92 0 0 1 -16.74,-16.78a43.26,43.26 0 0 1 0,-25.94a26.92,26.92 0 0 1 16.78,-16.77a39.29,39.29 0 0 1 13,-2c7.67,-0.02 14.2,1.79 19.46,5.23z" class="cls-1"/>
  <path id="svg_15" d="m441.45,138.27c14.06,0 22.76,8.7 22.76,22.75c0,10.61 -5.08,18.23 -13.69,21.22l13.69,19.49l-16,0l-12.6,-18l-14.61,0l0,18l-13.09,0l0,-63.46l33.54,0zm-20.45,32.37l20.49,0c3.36,0 5.9,-0.73 7.35,-2.27s2.36,-4 2.36,-7.35s-0.82,-5.89 -2.36,-7.43s-4,-2.27 -7.35,-2.27l-20.49,0l0,19.32z" class="cls-1"/>
  <path id="svg_16" d="m502.56,151.32l0,12.15l39.63,0l0,13.06l-39.63,0l0,12.15l39.63,0l0,13.05l-52.68,0l0,-63.46l52.68,0l0,13.05l-39.63,0z" class="cls-1"/>
  <path id="svg_17" d="m597.49,138.27a38.57,38.57 0 0 1 13,2a27.38,27.38 0 0 1 10.33,6.44a28.18,28.18 0 0 1 6.41,10.29a43.06,43.06 0 0 1 0,25.94a28.18,28.18 0 0 1 -6.44,10.33a27.38,27.38 0 0 1 -10.33,6.44a41,41 0 0 1 -13,2l-28.08,0l0,-63.44l28.11,0zm-15,50.41l15,0c12.6,0 18.68,-6.08 18.68,-18.68s-6.08,-18.68 -18.68,-18.68l-15,0l0,37.36z" class="cls-1"/>
  <path id="svg_18" d="m653.71,201.73l0,-63.46l13,0l0,63.46l-13,0z" class="cls-1"/>
  <path id="svg_19" d="m746.64,188.68l0,13.05l-52.64,0l0,-63.46l13,0l0,50.41l39.64,0z" class="cls-1"/>
  <path id="svg_20" d="m772,201.73l0,-63.46l13.06,0l0,63.46l-13.06,0z" class="cls-1"/>
  <path id="svg_21" d="m854.26,140.26a26.94,26.94 0 0 1 16.74,16.74a43.06,43.06 0 0 1 0,26a26.94,26.94 0 0 1 -16.77,16.77a43.23,43.23 0 0 1 -25.93,0a26.92,26.92 0 0 1 -16.75,-16.77a43.26,43.26 0 0 1 0,-25.94a26.92,26.92 0 0 1 16.78,-16.77a43.23,43.23 0 0 1 25.93,0l0,-0.03zm-31.64,29.74c0,12.6 6.07,18.68 18.67,18.68s18.71,-6.08 18.71,-18.68s-6.07,-18.68 -18.68,-18.68s-18.7,6.08 -18.7,18.68z" class="cls-1"/>
 </g>
</svg>