<svg xmlns="http://www.w3.org/2000/svg" width="285" height="64"><path fill="#f05a1e" fill-rule="evenodd" d="M284.252 38.345h-13.157c.35 3.004 2.267 4.522 5.754 4.522 1.879 0 3.444-.308 4.702-.972.348-.119.551-.042.551.23v2.693c0 .35-.121.587-.356.706-1.528.736-3.408 1.088-5.562 1.088-3.213 0-5.601-.895-7.169-2.652-1.527-1.757-2.31-3.979-2.31-6.632 0-2.884.863-5.228 2.585-6.982 1.763-1.752 3.917-2.653 6.461-2.653 2.548 0 4.703.862 6.383 2.579 1.683 1.675 2.549 3.898 2.549 6.669v.935c0 .309-.154.469-.431.469zm-8.501-7.181c-2.227 0-3.835 1.484-4.463 3.863h9.166c-.59-2.379-2.193-3.863-4.703-3.863zm-12.529.629c-.59-.275-1.413-.394-2.468-.394-1.923 0-3.681.936-5.328 2.771v11.622c0 .353-.075.435-.43.435h-3.566c-.274 0-.427-.121-.427-.395V28.789c0-.629.078-.702.544-.702h3.016c.315 0 .51.194.552.543l.117 1.68c1.326-1.755 3.131-2.617 5.367-2.617.975 0 1.878.16 2.699.467.276.121.396.273.396.547v2.772c0 .35-.16.428-.472.314zm-27.267 14.819c-2.699 0-4.974-.895-6.889-2.73-1.879-1.832-2.823-4.094-2.823-6.712 0-2.611.944-4.875 2.823-6.704 1.915-1.836 4.19-2.773 6.889-2.773 2.705 0 4.981.937 6.857 2.773 1.876 1.829 2.825 4.093 2.825 6.704 0 2.618-.949 4.88-2.825 6.712-1.876 1.835-4.152 2.73-6.857 2.73zm3.804-13.264c-1.059-1.053-2.314-1.596-3.804-1.596-1.524 0-2.816.543-3.873 1.596-1.059 1.056-1.568 2.304-1.568 3.822 0 1.522.509 2.811 1.568 3.865 1.057 1.056 2.349 1.556 3.873 1.556 1.49 0 2.745-.5 3.804-1.556 1.06-1.054 1.606-2.343 1.606-3.865 0-1.518-.546-2.766-1.606-3.822zm-19.74 12.879h-3.528c-.464 0-.549-.121-.549-.549V29.57c0-.315-.234-.274-.388-.12l-8.187 9.008c-.354.354-.666.354-.979 0l-8.151-8.851c-.31-.311-.504-.197-.504.231v15.879c0 .349-.122.51-.394.51h-3.523c-.511 0-.547-.082-.547-.589V19.193c0-.427.352-.394.429-.234l12.768 13.336c.352.353.429.353.784.04l12.57-13.223c.278-.346.628-.234.628.234v26.413c0 .347-.076.468-.429.468zm-41.949.385c-2.703 0-4.976-.895-6.895-2.73-1.88-1.832-2.822-4.094-2.822-6.712 0-2.611.942-4.875 2.822-6.704 1.919-1.836 4.192-2.773 6.895-2.773 2.7 0 4.971.937 6.853 2.773 1.878 1.829 2.82 4.093 2.82 6.704 0 2.618-.942 4.88-2.82 6.712-1.882 1.835-4.153 2.73-6.853 2.73zm3.799-13.264c-1.055-1.053-2.315-1.596-3.799-1.596-1.528 0-2.821.543-3.882 1.596-1.052 1.056-1.563 2.304-1.563 3.822 0 1.522.511 2.811 1.563 3.865 1.061 1.056 2.354 1.556 3.882 1.556 1.484 0 2.744-.5 3.799-1.556 1.055-1.054 1.605-2.343 1.605-3.865 0-1.518-.55-2.766-1.605-3.822zm-19.312 12.879h-3.484c-.356 0-.472-.121-.472-.549V17.83c0-.312.116-.472.391-.472h3.565c.431 0 .469.037.469.472v27.929c0 .307-.158.468-.469.468zm-9.987-7.882h-13.159c.35 3.004 2.271 4.522 5.757 4.522 1.881 0 3.446-.308 4.699-.972.352-.119.547-.042.547.23v2.693c0 .35-.118.587-.353.706-1.524.736-3.405 1.088-5.559 1.088-3.213 0-5.601-.895-7.168-2.652-1.528-1.757-2.313-3.979-2.313-6.632 0-2.884.863-5.228 2.585-6.982 1.764-1.752 3.917-2.653 6.465-2.653 2.545 0 4.698.862 6.384 2.579 1.684 1.675 2.546 3.898 2.546 6.669v.935c0 .309-.157.469-.431.469zm-8.499-7.181c-2.233 0-3.839 1.484-4.464 3.863h9.162c-.588-2.379-2.19-3.863-4.698-3.863zm-14.923 15.063h-3.486c-.274 0-.43-.161-.43-.468v-9.324c0-3.161-1.333-4.763-4.034-4.763-1.839 0-3.486.743-5.018 2.186v11.859c0 .349-.152.51-.506.51h-3.487c-.272 0-.391-.161-.391-.468V17.904c0-.468.079-.546.509-.546h3.291c.391 0 .584.16.584.472v11.853c1.609-1.328 3.687-1.99 6.154-1.99 4.74 0 7.324 2.773 7.324 8.074v9.992c0 .307-.157.468-.51.468zm-22.171 0h-3.994c-.391 0-.701-.198-.977-.549l-9.872-12.207v12.207c0 .467-.077.549-.431.549h-3.759c-.352 0-.434-.082-.434-.51V19.346c0-.273.082-.427.278-.427h3.952c.277 0 .394.154.394.427v11.706l9.713-11.9c.118-.152.235-.233.394-.233h4.308c.312 0 .387.12.195.348L96.522 32.14c-.077.079-.077.155.038.275l10.693 13.223c.314.391.236.589-.276.589zM25.021 31.985C36.456 26.411 46.045 16.99 49.977 5.737c8.326 5.779 13.773 15.375 13.773 26.248 0 10.868-5.447 20.468-13.773 26.246-3.932-11.25-13.521-20.675-24.956-26.246zM4.289 26.573a79.938 79.938 0 00-3.697.001c-.199-.013-.399-.03-.598-.046C2.595 11.469 15.769.006 31.635.006c.82 0 1.634.039 2.435.098-2.502 14.452-14.773 25.613-29.781 26.469zm0 10.821c15.008.853 27.279 12.017 29.781 26.471-.801.06-1.615.103-2.435.103-15.866 0-29.04-11.467-31.641-26.531.199-.016.399-.035.6-.043.611.023 3.078.023 3.695 0z"/></svg>